<?xml version="1.0" encoding="utf-8"?>
<!-- Generator: Adobe Illustrator 16.0.0, SVG Export Plug-In . SVG Version: 6.00 Build 0)  -->
<!DOCTYPE svg PUBLIC "-//W3C//DTD SVG 1.1//EN" "http://www.w3.org/Graphics/SVG/1.1/DTD/svg11.dtd">
<svg version="1.1" id="Capa_1" xmlns="http://www.w3.org/2000/svg" xmlns:xlink="http://www.w3.org/1999/xlink" x="0px" y="0px"
	 width="1080px" height="1080px" viewBox="0 0 1080 1080" enable-background="new 0 0 1080 1080" xml:space="preserve">
<g>
	<g>
		<g>
			<g>
				<path fill-rule="evenodd" clip-rule="evenodd" fill="#FFFFFF" d="M1015.877,549.064c0,266.06-215.688,481.76-481.76,481.76
					c-266.071,0-481.766-215.7-481.766-481.76c0-266.065,215.694-481.766,481.766-481.766
					C800.189,67.299,1015.877,282.999,1015.877,549.064z"/>
			</g>
		</g>
	</g>
</g>
<radialGradient id="SVGID_2_" cx="748.6113" cy="614.9131" r="306.5916" gradientTransform="matrix(0.78 0 0 0.78 -44.6548 105.4304)" gradientUnits="userSpaceOnUse">
	<stop  offset="0" style="stop-color:#C69C6D"/>
	<stop  offset="0.2717" style="stop-color:#C2986A"/>
	<stop  offset="0.5277" style="stop-color:#B78D5F"/>
	<stop  offset="0.7765" style="stop-color:#A47A4E"/>
	<stop  offset="1" style="stop-color:#8C6239"/>
</radialGradient>
<path fill-rule="evenodd" clip-rule="evenodd" fill="url(#SVGID_2_)" d="M766.546,366.688c-19.261-18.188-45.755-18.264-67.18-1.404
	c-3.324,2.61-10.036,11.002-10.911,0.612c-1.262-14.879-10.059-13.167-19.301-13.17c-85.611-0.033-171.232,0.218-256.846-0.243
	c-14.615-0.073-24.561,2.283-21.57,22.062c-3.746-2.244-5.221-2.738-6.146-3.738c-16.662-17.822-36.795-23.302-58.925-13.21
	c-22.925,10.454-32.507,29.988-31.921,55.095c0.646,27.747,13.275,50.233,30.95,69.996c26.241,29.334,56.3,54.854,84.827,81.904
	c9.272,8.793,18.424,17.729,27.293,26.93c3.474,3.604,5.756,8.445,3.518,13.533c-2.627,5.993-8.02,4.595-12.814,3.439
	c-7.568-1.815-14.355-0.918-16.83,7.307c-2.666,8.866,3.602,13.691,10.498,17.146c15.188,7.593,32.866,1.295,42.711-14.967
	c2.572-4.25,3.975-12.368,11.042-5.309c11.209,11.195,24.644,19.607,36.21,30.231c13.189,12.102,14.762,27.267,4.523,42.094
	c-5.306,7.686-4.97,13.748,0.224,21.393c8.837,13.026,2.054,73.189-8.667,83.705c-0.352,0.345-0.676,0.83-1.102,0.968
	c-19.415,6.214-37.214,15.25-55.072,25.242c69.852-0.137,142.205,0.207,155.529,1.303c7.768,0.003,19.803-0.138,18.312-0.106
	c-1.159,0.021-2.626-1.422-3.478-2.535c-7.649-10.052-19.214-15.051-30.293-17.096c-18.186-3.354-25.115-14.692-28.215-30.4
	c-4.325-21.929-12.491-44.039,2.237-65.466c3.882-5.661,1.358-11.029-2.106-16.365c-10.842-16.693-9.229-30.811,5.613-44.318
	c9.447-8.588,20.33-15.613,29.535-24.425c7.641-7.313,11.391-7.932,16.848,2.458c8.354,15.903,28.151,21.228,43.056,13.106
	c6.345-3.461,11.891-8.173,9.601-16.316c-2.332-8.321-8.912-9.468-16.557-7.708c-4.756,1.103-10.119,2.744-13.011-3.085
	c-2.448-4.933-0.489-9.834,2.558-13.801c2.955-3.855,6.664-7.161,10.211-10.526c34.625-32.811,70.518-64.293,103.385-98.919
	c13.771-14.504,23.482-31.695,27.947-51.289C787.643,407.026,785.369,384.46,766.546,366.688z M428.213,546.221
	c-8.255-7.144-15.521-12.609-21.816-19.025c-24.006-24.501-53.068-43.95-72.512-73.012c-6.666-9.96-11.111-20.792-14.244-32.227
	c-2.699-9.867-1.973-19.443,3.091-28.563c7.638-13.761,20.638-18.818,33.397-12.843c13.358,6.248,18.332,20.436,12.178,34.912
	c-0.764,1.804-1.889,3.453-2.82,5.179c-3.574,6.653-4.854,13.3,2.263,18.347c6.542,4.646,12.409,1.779,16.845-3.568
	c8.096-9.756,11.756-5.918,13.572,4.04c6.295,34.486,16.364,67.816,29.984,100.107C428.645,540.733,428.213,542.295,428.213,546.221
	z M754.963,434.469c-5.316,13.969-13.468,26.533-24.193,36.588c-25.012,23.454-48.018,49.072-75.015,70.4
	c-1.021,0.797-2.635,0.833-7.095,2.143c14.933-36.359,25.385-70.974,32.172-106.667c1.428-7.519,5.085-9.306,10.684-2.947
	c5.269,5.988,11.485,10.36,19.107,4.881c8.77-6.306,3.857-13.489,0.341-20.772c-7.874-16.322-2.457-32.059,12.554-38.117
	c14.072-5.668,28.313,2.021,34.461,18.679C762.55,411.042,759.378,422.875,754.963,434.469z"/>
</svg>
