<?xml version="1.0" encoding="utf-8"?>
<!-- Generator: Adobe Illustrator 16.0.0, SVG Export Plug-In . SVG Version: 6.00 Build 0)  -->
<!DOCTYPE svg PUBLIC "-//W3C//DTD SVG 1.1//EN" "http://www.w3.org/Graphics/SVG/1.1/DTD/svg11.dtd">
<svg version="1.1" id="Capa_1" xmlns="http://www.w3.org/2000/svg" xmlns:xlink="http://www.w3.org/1999/xlink" x="0px" y="0px"
	 width="1080px" height="1080px" viewBox="0 0 1080 1080" enable-background="new 0 0 1080 1080" xml:space="preserve">
<g>
	<g>
		<g>
			<g>
				<path fill-rule="evenodd" clip-rule="evenodd" fill="#FFFFFF" d="M1020.822,548.786c0,266.061-215.689,481.759-481.759,481.759
					c-266.072,0-481.766-215.698-481.766-481.759c0-266.067,215.694-481.767,481.766-481.767
					C805.133,67.02,1020.822,282.719,1020.822,548.786z"/>
			</g>
		</g>
	</g>
</g>
<radialGradient id="SVGID_2_" cx="309.4702" cy="911.9824" r="33.459" gradientTransform="matrix(0.91 0 0 0.91 134.9185 -56.2588)" gradientUnits="userSpaceOnUse">
	<stop  offset="0" style="stop-color:#A1D9FA"/>
	<stop  offset="1" style="stop-color:#49B1BA"/>
</radialGradient>
<path fill="url(#SVGID_2_)" d="M439.9,782.496l8.885-27.114l-27.089-8.87c-14.977-4.907-31.096,3.256-36.001,18.229
	c-4.891,14.95,3.271,31.065,18.252,35.969C418.918,805.62,435.004,797.439,439.9,782.496"/>
<radialGradient id="SVGID_4_" cx="329.9731" cy="850.5566" r="33.7972" gradientTransform="matrix(0.91 0 0 0.91 134.9185 -56.2588)" gradientUnits="userSpaceOnUse">
	<stop  offset="0" style="stop-color:#A1D9FA"/>
	<stop  offset="1" style="stop-color:#49B1BA"/>
</radialGradient>
<path fill="url(#SVGID_4_)" d="M424.486,739.849l26.453,10.697l10.685-26.428c5.913-14.611-1.142-31.242-15.752-37.149
	c-14.583-5.896-31.212,1.155-37.123,15.764C402.838,717.343,409.905,733.944,424.486,739.849"/>
<radialGradient id="SVGID_5_" cx="242.2803" cy="873.7217" r="29.5584" gradientTransform="matrix(0.91 0 0 0.91 134.9185 -56.2588)" gradientUnits="userSpaceOnUse">
	<stop  offset="0" style="stop-color:#A1D9FA"/>
	<stop  offset="1" style="stop-color:#49B1BA"/>
</radialGradient>
<path fill="url(#SVGID_5_)" d="M372.908,750.246l11.446-21.849l-21.822-11.438c-12.062-6.319-26.97-1.659-33.293,10.399
	c-6.313,12.048-1.657,26.95,10.419,33.272C351.719,766.954,366.602,762.28,372.908,750.246"/>
<radialGradient id="SVGID_6_" cx="267.9697" cy="825.9258" r="29.7464" gradientTransform="matrix(0.91 0 0 0.91 134.9185 -56.2588)" gradientUnits="userSpaceOnUse">
	<stop  offset="0" style="stop-color:#A1D9FA"/>
	<stop  offset="1" style="stop-color:#49B1BA"/>
</radialGradient>
<path fill="url(#SVGID_6_)" d="M365.863,711.679l21.025,12.905l12.886-21.004c7.129-11.612,3.492-26.8-8.118-33.921
	c-11.591-7.113-26.771-3.476-33.899,8.129C350.626,689.4,354.277,704.566,365.863,711.679"/>
<radialGradient id="SVGID_7_" cx="188.6475" cy="830.9805" r="26.0754" gradientTransform="matrix(0.91 0 0 0.91 134.9185 -56.2588)" gradientUnits="userSpaceOnUse">
	<stop  offset="0" style="stop-color:#A1D9FA"/>
	<stop  offset="1" style="stop-color:#49B1BA"/>
</radialGradient>
<path fill="url(#SVGID_7_)" d="M319.826,712.415l12.515-17.51l-17.49-12.505c-9.672-6.9-23.114-4.672-30.021,5
	c-6.898,9.648-4.659,23.092,5.009,30.003C299.507,724.311,312.927,722.061,319.826,712.415"/>
<radialGradient id="SVGID_8_" cx="216.6123" cy="793.7471" r="26.1568" gradientTransform="matrix(0.91 0 0 0.91 134.9185 -56.2588)" gradientUnits="userSpaceOnUse">
	<stop  offset="0" style="stop-color:#A1D9FA"/>
	<stop  offset="1" style="stop-color:#49B1BA"/>
</radialGradient>
<path fill="url(#SVGID_8_)" d="M318.366,678.234l16.616,13.679l13.656-16.604c7.554-9.186,6.231-22.741-2.947-30.291
	c-9.162-7.539-22.72-6.214-30.275,2.963C307.864,657.158,309.208,670.7,318.366,678.234"/>
<radialGradient id="SVGID_9_" cx="141.6157" cy="788.4609" r="23.7929" gradientTransform="matrix(0.91 0 0 0.91 134.9185 -56.2588)" gradientUnits="userSpaceOnUse">
	<stop  offset="0" style="stop-color:#A1D9FA"/>
	<stop  offset="1" style="stop-color:#49B1BA"/>
</radialGradient>
<path fill="url(#SVGID_9_)" d="M274.738,673.814l12.606-14.963l-14.952-12.601c-8.265-6.956-20.612-5.904-27.574,2.357
	c-6.949,8.254-5.89,20.598,2.37,27.56C255.458,683.136,267.784,682.061,274.738,673.814"/>
<radialGradient id="SVGID_10_" cx="169.8398" cy="757.1523" r="23.8232" gradientTransform="matrix(0.91 0 0 0.91 134.9185 -56.2588)" gradientUnits="userSpaceOnUse">
	<stop  offset="0" style="stop-color:#A1D9FA"/>
	<stop  offset="1" style="stop-color:#49B1BA"/>
</radialGradient>
<path fill="url(#SVGID_10_)" d="M275.88,642.734l14.075,13.594l13.582-14.063c7.511-7.782,7.291-20.165-0.482-27.666
	c-7.766-7.499-20.147-7.284-27.658,0.494C267.884,622.864,268.122,635.236,275.88,642.734"/>
<radialGradient id="SVGID_11_" cx="110.6563" cy="736.0537" r="20.5823" gradientTransform="matrix(0.91 0 0 0.91 134.9185 -56.2588)" gradientUnits="userSpaceOnUse">
	<stop  offset="0" style="stop-color:#A1D9FA"/>
	<stop  offset="1" style="stop-color:#49B1BA"/>
</radialGradient>
<path fill="url(#SVGID_11_)" d="M242.595,626.897l13.378-10.409l-10.4-13.365c-5.75-7.387-16.398-8.723-23.789-2.974
	c-7.378,5.741-8.699,16.395-2.954,23.781C224.579,631.321,235.217,632.632,242.595,626.897"/>
<radialGradient id="SVGID_12_" cx="140.9844" cy="715.2461" r="20.5075" gradientTransform="matrix(0.91 0 0 0.91 134.9185 -56.2588)" gradientUnits="userSpaceOnUse">
	<stop  offset="0" style="stop-color:#A1D9FA"/>
	<stop  offset="1" style="stop-color:#49B1BA"/>
</radialGradient>
<path fill="url(#SVGID_12_)" d="M249.162,600.766l9.48,14.055l14.038-9.472c7.765-5.244,9.812-15.774,4.574-23.531
	c-5.229-7.752-15.759-9.796-23.525-4.557C245.97,582.489,243.941,593.021,249.162,600.766"/>
<radialGradient id="SVGID_13_" cx="577.1885" cy="911.9824" r="33.459" gradientTransform="matrix(0.91 0 0 0.91 134.9185 -56.2588)" gradientUnits="userSpaceOnUse">
	<stop  offset="0" style="stop-color:#A1D9FA"/>
	<stop  offset="1" style="stop-color:#49B1BA"/>
</radialGradient>
<path fill="url(#SVGID_13_)" d="M636.778,782.496l-8.883-27.114l27.085-8.87c14.978-4.907,31.099,3.256,36.003,18.229
	c4.896,14.95-3.273,31.065-18.247,35.969C657.759,805.62,641.675,797.439,636.778,782.496"/>
<radialGradient id="SVGID_14_" cx="556.6846" cy="850.5566" r="33.7972" gradientTransform="matrix(0.91 0 0 0.91 134.9185 -56.2588)" gradientUnits="userSpaceOnUse">
	<stop  offset="0" style="stop-color:#A1D9FA"/>
	<stop  offset="1" style="stop-color:#49B1BA"/>
</radialGradient>
<path fill="url(#SVGID_14_)" d="M652.19,739.849l-26.449,10.697l-10.687-26.428c-5.911-14.611,1.141-31.242,15.749-37.149
	c14.586-5.896,31.214,1.155,37.125,15.764C673.844,717.343,666.773,733.944,652.19,739.849"/>
<radialGradient id="SVGID_15_" cx="644.377" cy="873.7217" r="29.5586" gradientTransform="matrix(0.91 0 0 0.91 134.9185 -56.2588)" gradientUnits="userSpaceOnUse">
	<stop  offset="0" style="stop-color:#A1D9FA"/>
	<stop  offset="1" style="stop-color:#49B1BA"/>
</radialGradient>
<path fill="url(#SVGID_15_)" d="M703.77,750.246l-11.446-21.849l21.822-11.438c12.063-6.319,26.974-1.659,33.295,10.399
	c6.313,12.048,1.656,26.95-10.413,33.272C724.961,766.954,710.079,762.28,703.77,750.246"/>
<radialGradient id="SVGID_16_" cx="618.6875" cy="825.9258" r="29.7462" gradientTransform="matrix(0.91 0 0 0.91 134.9185 -56.2588)" gradientUnits="userSpaceOnUse">
	<stop  offset="0" style="stop-color:#A1D9FA"/>
	<stop  offset="1" style="stop-color:#49B1BA"/>
</radialGradient>
<path fill="url(#SVGID_16_)" d="M710.813,711.679l-21.021,12.905l-12.89-21.004c-7.125-11.612-3.49-26.8,8.121-33.921
	c11.591-7.113,26.774-3.476,33.904,8.129C726.053,689.4,722.399,704.566,710.813,711.679"/>
<radialGradient id="SVGID_17_" cx="698.0093" cy="830.9805" r="26.0767" gradientTransform="matrix(0.91 0 0 0.91 134.9185 -56.2588)" gradientUnits="userSpaceOnUse">
	<stop  offset="0" style="stop-color:#A1D9FA"/>
	<stop  offset="1" style="stop-color:#49B1BA"/>
</radialGradient>
<path fill="url(#SVGID_17_)" d="M756.853,712.415l-12.517-17.51l17.491-12.505c9.672-6.9,23.113-4.672,30.021,5
	c6.9,9.648,4.664,23.092-5.011,30.003C777.174,724.311,763.753,722.061,756.853,712.415"/>
<radialGradient id="SVGID_18_" cx="670.043" cy="793.7471" r="26.1574" gradientTransform="matrix(0.91 0 0 0.91 134.9185 -56.2588)" gradientUnits="userSpaceOnUse">
	<stop  offset="0" style="stop-color:#A1D9FA"/>
	<stop  offset="1" style="stop-color:#49B1BA"/>
</radialGradient>
<path fill="url(#SVGID_18_)" d="M758.313,678.234l-16.619,13.679l-13.656-16.604c-7.554-9.186-6.232-22.741,2.948-30.291
	c9.163-7.539,22.723-6.214,30.276,2.963C768.813,657.158,767.473,670.7,758.313,678.234"/>
<radialGradient id="SVGID_19_" cx="745.04" cy="788.4609" r="23.7937" gradientTransform="matrix(0.91 0 0 0.91 134.9185 -56.2588)" gradientUnits="userSpaceOnUse">
	<stop  offset="0" style="stop-color:#A1D9FA"/>
	<stop  offset="1" style="stop-color:#49B1BA"/>
</radialGradient>
<path fill="url(#SVGID_19_)" d="M801.94,673.814l-12.608-14.963l14.952-12.601c8.266-6.956,20.612-5.904,27.578,2.357
	c6.948,8.254,5.89,20.598-2.376,27.56C821.221,683.136,808.896,682.061,801.94,673.814"/>
<radialGradient id="SVGID_20_" cx="716.8174" cy="757.1523" r="23.8228" gradientTransform="matrix(0.91 0 0 0.91 134.9185 -56.2588)" gradientUnits="userSpaceOnUse">
	<stop  offset="0" style="stop-color:#A1D9FA"/>
	<stop  offset="1" style="stop-color:#49B1BA"/>
</radialGradient>
<path fill="url(#SVGID_20_)" d="M800.801,642.734l-14.077,13.594l-13.579-14.063c-7.509-7.782-7.296-20.165,0.482-27.666
	c7.761-7.499,20.145-7.284,27.653,0.494C808.793,622.864,808.557,635.236,800.801,642.734"/>
<radialGradient id="SVGID_21_" cx="776" cy="736.0537" r="20.5831" gradientTransform="matrix(0.91 0 0 0.91 134.9185 -56.2588)" gradientUnits="userSpaceOnUse">
	<stop  offset="0" style="stop-color:#A1D9FA"/>
	<stop  offset="1" style="stop-color:#49B1BA"/>
</radialGradient>
<path fill="url(#SVGID_21_)" d="M834.084,626.897l-13.38-10.409l10.402-13.365c5.752-7.387,16.395-8.723,23.789-2.974
	c7.381,5.741,8.701,16.395,2.952,23.781C852.103,631.321,841.465,632.632,834.084,626.897"/>
<radialGradient id="SVGID_22_" cx="745.6733" cy="715.2461" r="20.5081" gradientTransform="matrix(0.91 0 0 0.91 134.9185 -56.2588)" gradientUnits="userSpaceOnUse">
	<stop  offset="0" style="stop-color:#A1D9FA"/>
	<stop  offset="1" style="stop-color:#49B1BA"/>
</radialGradient>
<path fill="url(#SVGID_22_)" d="M827.517,600.766l-9.477,14.055l-14.044-9.472c-7.764-5.244-9.812-15.774-4.568-23.531
	c5.226-7.752,15.757-9.796,23.52-4.557C830.716,582.489,832.74,593.021,827.517,600.766"/>
<radialGradient id="SVGID_23_" cx="188.0869" cy="830.9561" r="26.0754" gradientTransform="matrix(0.91 0 0 0.91 134.9185 -56.2588)" gradientUnits="userSpaceOnUse">
	<stop  offset="0" style="stop-color:#A1D9FA"/>
	<stop  offset="1" style="stop-color:#49B1BA"/>
</radialGradient>
<path fill="url(#SVGID_23_)" d="M319.316,712.392l12.515-17.508l-17.49-12.506c-9.672-6.899-23.113-4.67-30.02,5.001
	c-6.9,9.648-4.659,23.09,5.009,30.002C298.997,724.289,312.418,722.037,319.316,712.392"/>
<radialGradient id="SVGID_24_" cx="216.0527" cy="793.7227" r="26.157" gradientTransform="matrix(0.91 0 0 0.91 134.9185 -56.2588)" gradientUnits="userSpaceOnUse">
	<stop  offset="0" style="stop-color:#A1D9FA"/>
	<stop  offset="1" style="stop-color:#49B1BA"/>
</radialGradient>
<path fill="url(#SVGID_24_)" d="M317.857,678.212l16.616,13.679l13.656-16.604c7.553-9.185,6.232-22.741-2.948-30.291
	c-9.162-7.538-22.72-6.214-30.274,2.964C307.355,657.136,308.699,670.678,317.857,678.212"/>
<radialGradient id="SVGID_25_" cx="366.7202" cy="888.3994" r="4.6926" gradientTransform="matrix(0.91 0 0 0.91 134.9185 -56.2588)" gradientUnits="userSpaceOnUse">
	<stop  offset="0" style="stop-color:#A1D9FA"/>
	<stop  offset="1" style="stop-color:#49B1BA"/>
</radialGradient>
<path fill="url(#SVGID_25_)" d="M472.898,752.154c0,0.069,0,0.141-0.004,0.217c-0.003,0.093-0.014,0.178-0.021,0.264
	c-0.013,0.055-0.013,0.11-0.019,0.165c-0.012,0.071-0.021,0.141-0.044,0.215c-0.014,0.069-0.029,0.135-0.045,0.206
	c-0.021,0.066-0.039,0.138-0.059,0.199c-0.019,0.065-0.037,0.13-0.068,0.195c-0.035,0.118-0.087,0.229-0.137,0.34
	c-0.096,0.199-0.209,0.398-0.336,0.583c-0.031,0.055-0.077,0.113-0.116,0.165c-0.04,0.057-0.086,0.112-0.129,0.16
	c-0.081,0.106-0.174,0.21-0.272,0.306c-0.043,0.048-0.097,0.093-0.146,0.141c-0.277,0.247-0.581,0.46-0.917,0.638
	c-0.052,0.026-0.104,0.048-0.16,0.078c-0.04,0.015-0.09,0.036-0.14,0.056c-0.047,0.024-0.103,0.048-0.152,0.062
	c-0.225,0.086-0.451,0.151-0.688,0.196c-0.06,0.014-0.126,0.022-0.188,0.029c-0.203,0.029-0.417,0.052-0.629,0.052
	c-2.356,0-4.271-1.912-4.271-4.266c0-2.361,1.915-4.272,4.271-4.272c0.108,0,0.212,0.004,0.316,0.015
	c0.109,0.003,0.213,0.018,0.313,0.037c0.075,0.004,0.147,0.015,0.218,0.036c0.1,0.02,0.191,0.033,0.284,0.067
	c0.014,0.003,0.04,0.003,0.05,0.011c0.112,0.029,0.22,0.068,0.324,0.106c0.05,0.02,0.105,0.044,0.152,0.067
	c0.061,0.024,0.119,0.052,0.182,0.069c0.109,0.059,0.218,0.117,0.321,0.178c0.092,0.055,0.171,0.106,0.251,0.161
	c0.027,0.015,0.054,0.038,0.074,0.052c0.07,0.052,0.138,0.1,0.206,0.158c0.085,0.067,0.173,0.141,0.251,0.226
	c0.052,0.041,0.099,0.093,0.145,0.134c0.063,0.065,0.122,0.124,0.171,0.199c0.061,0.065,0.112,0.124,0.164,0.198
	c0.039,0.049,0.073,0.093,0.107,0.145c0.163,0.236,0.295,0.483,0.403,0.748c0.021,0.048,0.046,0.105,0.062,0.153
	c0.031,0.079,0.059,0.158,0.085,0.237c0.02,0.071,0.037,0.134,0.059,0.205c0.074,0.269,0.115,0.557,0.129,0.848
	C472.898,752.004,472.898,752.076,472.898,752.154"/>
<radialGradient id="SVGID_26_" cx="385.2949" cy="890.0352" r="5.8667" gradientTransform="matrix(0.91 0 0 0.91 134.9185 -56.2588)" gradientUnits="userSpaceOnUse">
	<stop  offset="0" style="stop-color:#A1D9FA"/>
	<stop  offset="1" style="stop-color:#49B1BA"/>
</radialGradient>
<path fill="url(#SVGID_26_)" d="M490.869,753.641c0,0.093,0,0.178-0.004,0.273c-0.007,0.114-0.019,0.223-0.029,0.336
	c-0.012,0.063-0.016,0.134-0.029,0.199c-0.008,0.093-0.026,0.181-0.045,0.263c-0.021,0.088-0.044,0.176-0.063,0.266
	c-0.022,0.078-0.048,0.165-0.07,0.246c-0.022,0.082-0.052,0.162-0.085,0.247c-0.046,0.147-0.108,0.288-0.175,0.429
	c-0.116,0.243-0.259,0.49-0.419,0.724c-0.04,0.069-0.093,0.14-0.145,0.206c-0.052,0.074-0.104,0.141-0.16,0.202
	c-0.098,0.134-0.216,0.26-0.346,0.381c-0.053,0.061-0.115,0.119-0.182,0.174c-0.342,0.31-0.722,0.579-1.142,0.8
	c-0.068,0.03-0.136,0.064-0.199,0.093c-0.057,0.026-0.115,0.055-0.18,0.071c-0.057,0.031-0.124,0.062-0.187,0.085
	c-0.285,0.103-0.568,0.183-0.859,0.238c-0.077,0.02-0.159,0.026-0.233,0.037c-0.257,0.037-0.524,0.067-0.787,0.067
	c-2.954,0-5.34-2.393-5.34-5.337c0-2.95,2.386-5.339,5.34-5.339c0.133,0,0.263,0.004,0.396,0.016
	c0.134,0.015,0.263,0.032,0.391,0.048c0.093,0.004,0.18,0.025,0.272,0.052c0.12,0.018,0.237,0.035,0.349,0.076
	c0.021,0.008,0.051,0.008,0.073,0.023c0.127,0.032,0.264,0.076,0.398,0.132c0.063,0.02,0.13,0.048,0.187,0.078
	c0.081,0.033,0.151,0.065,0.231,0.089c0.138,0.072,0.272,0.147,0.403,0.224c0.109,0.064,0.214,0.126,0.31,0.197
	c0.036,0.021,0.066,0.048,0.095,0.069c0.085,0.059,0.173,0.126,0.255,0.199c0.113,0.082,0.221,0.178,0.317,0.277
	c0.059,0.055,0.12,0.11,0.177,0.169c0.077,0.081,0.152,0.156,0.216,0.239c0.075,0.086,0.143,0.171,0.204,0.256
	c0.052,0.059,0.091,0.121,0.13,0.188c0.203,0.287,0.369,0.602,0.513,0.931c0.026,0.059,0.054,0.125,0.074,0.192
	c0.044,0.096,0.071,0.199,0.106,0.295c0.022,0.083,0.048,0.169,0.07,0.254c0.092,0.343,0.147,0.693,0.166,1.06
	C490.869,753.457,490.869,753.55,490.869,753.641"/>
<radialGradient id="SVGID_27_" cx="406.8052" cy="890.7451" r="7.0388" gradientTransform="matrix(0.91 0 0 0.91 134.9185 -56.2588)" gradientUnits="userSpaceOnUse">
	<stop  offset="0" style="stop-color:#A1D9FA"/>
	<stop  offset="1" style="stop-color:#49B1BA"/>
</radialGradient>
<path fill="url(#SVGID_27_)" d="M511.511,754.287c0,0.114,0,0.217-0.006,0.333c-0.003,0.135-0.021,0.265-0.032,0.397
	c-0.018,0.077-0.021,0.162-0.032,0.24c-0.015,0.11-0.033,0.213-0.059,0.313c-0.022,0.108-0.048,0.216-0.072,0.314
	c-0.029,0.104-0.054,0.21-0.087,0.306c-0.026,0.1-0.059,0.196-0.096,0.295c-0.064,0.171-0.135,0.344-0.214,0.507
	c-0.144,0.299-0.309,0.594-0.5,0.875c-0.05,0.079-0.113,0.169-0.175,0.254c-0.063,0.078-0.128,0.161-0.192,0.232
	c-0.12,0.162-0.259,0.316-0.413,0.461c-0.063,0.074-0.141,0.14-0.222,0.206c-0.409,0.369-0.869,0.694-1.371,0.963
	c-0.079,0.037-0.161,0.071-0.238,0.112c-0.066,0.024-0.137,0.059-0.212,0.083c-0.072,0.034-0.151,0.071-0.23,0.097
	c-0.332,0.13-0.675,0.226-1.028,0.291c-0.09,0.023-0.189,0.03-0.281,0.041c-0.307,0.048-0.628,0.082-0.945,0.082
	c-3.538,0-6.407-2.87-6.407-6.402c0-3.538,2.869-6.405,6.407-6.405c0.162,0,0.317,0.004,0.476,0.018
	c0.163,0.015,0.314,0.038,0.47,0.056c0.113,0.011,0.218,0.034,0.324,0.059c0.151,0.026,0.288,0.048,0.423,0.103
	c0.024,0,0.063,0.006,0.086,0.017c0.156,0.044,0.317,0.103,0.477,0.165c0.079,0.027,0.158,0.059,0.23,0.093
	c0.094,0.037,0.18,0.074,0.271,0.103c0.166,0.093,0.328,0.175,0.487,0.274c0.133,0.076,0.254,0.154,0.372,0.236
	c0.041,0.024,0.077,0.055,0.111,0.08c0.104,0.074,0.206,0.147,0.31,0.236c0.133,0.099,0.262,0.218,0.38,0.336
	c0.07,0.067,0.145,0.137,0.211,0.206c0.092,0.096,0.184,0.188,0.258,0.287c0.089,0.1,0.168,0.201,0.248,0.308
	c0.062,0.069,0.108,0.141,0.158,0.221c0.243,0.352,0.442,0.724,0.608,1.114c0.03,0.078,0.066,0.156,0.093,0.232
	c0.044,0.119,0.089,0.24,0.125,0.357c0.033,0.102,0.058,0.201,0.087,0.305c0.108,0.408,0.175,0.83,0.195,1.272
	C511.511,754.065,511.511,754.177,511.511,754.287"/>
<radialGradient id="SVGID_28_" cx="458.27" cy="902.4697" r="9.3821" gradientTransform="matrix(0.91 0 0 0.91 134.9185 -56.2588)" gradientUnits="userSpaceOnUse">
	<stop  offset="0" style="stop-color:#A1D9FA"/>
	<stop  offset="1" style="stop-color:#49B1BA"/>
</radialGradient>
<path fill="url(#SVGID_28_)" d="M560.477,764.958c0,0.151,0,0.284,0,0.436c-0.008,0.188-0.029,0.357-0.052,0.531
	c-0.015,0.106-0.022,0.223-0.04,0.325c-0.019,0.147-0.041,0.292-0.085,0.42c-0.02,0.14-0.056,0.288-0.085,0.421
	c-0.037,0.133-0.078,0.277-0.118,0.401c-0.034,0.138-0.082,0.267-0.133,0.392c-0.081,0.232-0.181,0.469-0.28,0.684
	c-0.188,0.402-0.413,0.789-0.668,1.154c-0.07,0.122-0.151,0.236-0.233,0.348c-0.081,0.11-0.165,0.217-0.254,0.316
	c-0.163,0.21-0.347,0.418-0.55,0.609c-0.085,0.097-0.192,0.184-0.299,0.279c-0.543,0.492-1.155,0.928-1.834,1.278
	c-0.1,0.048-0.206,0.1-0.306,0.147c-0.093,0.037-0.192,0.085-0.285,0.113c-0.099,0.048-0.203,0.096-0.31,0.134
	c-0.45,0.169-0.9,0.295-1.373,0.384c-0.118,0.033-0.251,0.041-0.376,0.059c-0.409,0.059-0.834,0.1-1.262,0.1
	c-4.716,0-8.539-3.823-8.539-8.531c0-4.722,3.823-8.538,8.539-8.538c0.218,0,0.428,0.004,0.635,0.018
	c0.218,0.023,0.424,0.048,0.627,0.079c0.147,0.007,0.288,0.037,0.436,0.072c0.199,0.037,0.379,0.067,0.561,0.134
	c0.041,0.011,0.081,0.014,0.118,0.026c0.206,0.065,0.421,0.135,0.635,0.221c0.106,0.033,0.211,0.074,0.31,0.119
	c0.122,0.055,0.232,0.103,0.354,0.147c0.222,0.12,0.436,0.23,0.653,0.354c0.177,0.11,0.339,0.21,0.498,0.316
	c0.052,0.037,0.104,0.074,0.151,0.111c0.137,0.1,0.269,0.203,0.402,0.32c0.184,0.133,0.354,0.284,0.509,0.444
	c0.1,0.084,0.196,0.176,0.285,0.271c0.125,0.127,0.238,0.255,0.35,0.388c0.118,0.134,0.214,0.271,0.324,0.401
	c0.082,0.102,0.141,0.192,0.211,0.301c0.325,0.464,0.59,0.967,0.813,1.489c0.04,0.104,0.091,0.204,0.121,0.312
	c0.066,0.154,0.114,0.316,0.17,0.467c0.04,0.137,0.081,0.267,0.118,0.414c0.14,0.539,0.232,1.101,0.262,1.694
	C560.477,764.667,560.477,764.808,560.477,764.958"/>
<radialGradient id="SVGID_29_" cx="518.8145" cy="888.3994" r="4.6924" gradientTransform="matrix(0.91 0 0 0.91 134.9185 -56.2588)" gradientUnits="userSpaceOnUse">
	<stop  offset="0" style="stop-color:#A1D9FA"/>
	<stop  offset="1" style="stop-color:#49B1BA"/>
</radialGradient>
<path fill="url(#SVGID_29_)" d="M602.76,752.154c0,0.069,0,0.141,0.008,0.217c0.003,0.093,0.011,0.178,0.021,0.264
	c0.011,0.055,0.015,0.11,0.022,0.165c0.007,0.071,0.022,0.141,0.037,0.215c0.015,0.069,0.033,0.135,0.048,0.206
	c0.019,0.066,0.037,0.138,0.06,0.199c0.018,0.065,0.04,0.13,0.065,0.195c0.037,0.118,0.085,0.229,0.137,0.34
	c0.1,0.199,0.207,0.398,0.332,0.583c0.037,0.055,0.081,0.113,0.118,0.165c0.04,0.057,0.089,0.112,0.129,0.16
	c0.081,0.106,0.174,0.21,0.276,0.306c0.045,0.048,0.097,0.093,0.148,0.141c0.273,0.247,0.575,0.46,0.915,0.638
	c0.052,0.026,0.104,0.048,0.159,0.078c0.044,0.015,0.092,0.036,0.136,0.056c0.053,0.024,0.104,0.048,0.155,0.062
	c0.225,0.086,0.45,0.151,0.687,0.196c0.066,0.014,0.125,0.022,0.191,0.029c0.207,0.029,0.413,0.052,0.628,0.052
	c2.361,0,4.269-1.912,4.269-4.266c0-2.361-1.907-4.272-4.269-4.272c-0.111,0-0.215,0.004-0.317,0.015
	c-0.104,0.003-0.215,0.018-0.311,0.037c-0.077,0.004-0.147,0.015-0.218,0.036c-0.103,0.02-0.195,0.033-0.279,0.067
	c-0.022,0.003-0.045,0.003-0.06,0.011c-0.104,0.029-0.211,0.068-0.321,0.106c-0.052,0.02-0.103,0.044-0.155,0.067
	c-0.059,0.024-0.117,0.052-0.177,0.069c-0.11,0.059-0.218,0.117-0.324,0.178c-0.086,0.055-0.17,0.106-0.252,0.161
	c-0.022,0.015-0.052,0.038-0.073,0.052c-0.07,0.052-0.137,0.1-0.203,0.158c-0.093,0.067-0.177,0.141-0.255,0.226
	c-0.044,0.041-0.095,0.093-0.14,0.134c-0.06,0.065-0.122,0.124-0.17,0.199c-0.06,0.065-0.114,0.124-0.17,0.198
	c-0.037,0.049-0.069,0.093-0.099,0.145c-0.163,0.236-0.3,0.483-0.41,0.748c-0.022,0.048-0.044,0.105-0.063,0.153
	c-0.025,0.079-0.055,0.158-0.08,0.237c-0.022,0.071-0.041,0.134-0.06,0.205c-0.07,0.269-0.118,0.557-0.129,0.848
	C602.76,752.004,602.76,752.076,602.76,752.154"/>
<radialGradient id="SVGID_30_" cx="500.2476" cy="890.0352" r="5.866" gradientTransform="matrix(0.91 0 0 0.91 134.9185 -56.2588)" gradientUnits="userSpaceOnUse">
	<stop  offset="0" style="stop-color:#A1D9FA"/>
	<stop  offset="1" style="stop-color:#49B1BA"/>
</radialGradient>
<path fill="url(#SVGID_30_)" d="M584.797,753.641c0,0.093,0,0.178,0.004,0.273c0.004,0.114,0.015,0.223,0.025,0.336
	c0.012,0.063,0.016,0.134,0.03,0.199c0.007,0.093,0.022,0.181,0.048,0.263c0.015,0.088,0.036,0.176,0.059,0.266
	c0.026,0.078,0.045,0.165,0.07,0.246c0.022,0.082,0.048,0.162,0.081,0.247c0.052,0.147,0.114,0.288,0.178,0.429
	c0.117,0.243,0.258,0.49,0.417,0.724c0.041,0.069,0.096,0.14,0.144,0.206c0.052,0.074,0.104,0.141,0.158,0.202
	c0.104,0.134,0.218,0.26,0.348,0.381c0.055,0.061,0.113,0.119,0.184,0.174c0.344,0.31,0.728,0.579,1.144,0.8
	c0.067,0.03,0.134,0.064,0.196,0.093c0.06,0.026,0.118,0.055,0.178,0.071c0.066,0.031,0.125,0.062,0.195,0.085
	c0.276,0.103,0.561,0.183,0.852,0.238c0.081,0.02,0.159,0.026,0.24,0.037c0.259,0.037,0.52,0.067,0.786,0.067
	c2.944,0,5.34-2.393,5.34-5.337c0-2.95-2.396-5.339-5.34-5.339c-0.137,0-0.267,0.004-0.398,0.016
	c-0.129,0.015-0.266,0.032-0.388,0.048c-0.092,0.004-0.185,0.025-0.272,0.052c-0.126,0.018-0.24,0.035-0.352,0.076
	c-0.025,0.008-0.051,0.008-0.073,0.023c-0.133,0.032-0.266,0.076-0.395,0.132c-0.07,0.02-0.129,0.048-0.195,0.078
	c-0.078,0.033-0.145,0.065-0.222,0.089c-0.141,0.072-0.273,0.147-0.406,0.224c-0.114,0.064-0.214,0.126-0.313,0.197
	c-0.033,0.021-0.066,0.048-0.093,0.069c-0.088,0.059-0.173,0.126-0.258,0.199c-0.107,0.082-0.214,0.178-0.317,0.277
	c-0.059,0.055-0.118,0.11-0.174,0.169c-0.077,0.081-0.154,0.156-0.218,0.239c-0.073,0.086-0.14,0.171-0.206,0.256
	c-0.048,0.059-0.089,0.121-0.125,0.188c-0.207,0.287-0.373,0.602-0.51,0.931c-0.03,0.059-0.056,0.125-0.078,0.192
	c-0.04,0.096-0.073,0.199-0.106,0.295c-0.025,0.083-0.044,0.169-0.07,0.254c-0.092,0.343-0.147,0.693-0.162,1.06
	C584.797,753.457,584.797,753.55,584.797,753.641"/>
<radialGradient id="SVGID_31_" cx="478.7373" cy="890.7451" r="7.0381" gradientTransform="matrix(0.91 0 0 0.91 134.9185 -56.2588)" gradientUnits="userSpaceOnUse">
	<stop  offset="0" style="stop-color:#A1D9FA"/>
	<stop  offset="1" style="stop-color:#49B1BA"/>
</radialGradient>
<path fill="url(#SVGID_31_)" d="M564.155,754.287c0,0.114,0,0.217,0,0.333c0.007,0.135,0.022,0.265,0.037,0.397
	c0.015,0.077,0.022,0.162,0.029,0.24c0.019,0.11,0.033,0.213,0.063,0.313c0.014,0.108,0.043,0.216,0.069,0.314
	c0.025,0.104,0.056,0.21,0.089,0.306c0.022,0.1,0.06,0.196,0.096,0.295c0.059,0.171,0.134,0.344,0.214,0.507
	c0.141,0.299,0.303,0.594,0.498,0.875c0.053,0.079,0.114,0.169,0.174,0.254c0.059,0.078,0.129,0.161,0.188,0.232
	c0.13,0.162,0.266,0.316,0.418,0.461c0.065,0.074,0.14,0.14,0.222,0.206c0.409,0.369,0.87,0.694,1.372,0.963
	c0.081,0.037,0.158,0.071,0.236,0.112c0.066,0.024,0.14,0.059,0.21,0.083c0.077,0.034,0.155,0.071,0.229,0.097
	c0.34,0.13,0.683,0.226,1.034,0.291c0.092,0.023,0.188,0.03,0.279,0.041c0.311,0.048,0.628,0.082,0.949,0.082
	c3.535,0,6.405-2.87,6.405-6.402c0-3.538-2.87-6.405-6.405-6.405c-0.166,0-0.321,0.004-0.479,0.018
	c-0.159,0.015-0.317,0.038-0.47,0.056c-0.11,0.011-0.218,0.034-0.324,0.059c-0.151,0.026-0.291,0.048-0.42,0.103
	c-0.034,0-0.063,0.006-0.089,0.017c-0.159,0.044-0.317,0.103-0.48,0.165c-0.073,0.027-0.151,0.059-0.229,0.093
	c-0.092,0.037-0.173,0.074-0.269,0.103c-0.163,0.093-0.325,0.175-0.487,0.274c-0.134,0.076-0.252,0.154-0.377,0.236
	c-0.033,0.024-0.07,0.055-0.111,0.08c-0.103,0.074-0.202,0.147-0.302,0.236c-0.134,0.099-0.262,0.218-0.381,0.336
	c-0.073,0.067-0.15,0.137-0.209,0.206c-0.097,0.096-0.186,0.188-0.263,0.287c-0.092,0.1-0.169,0.201-0.247,0.308
	c-0.06,0.069-0.107,0.141-0.155,0.221c-0.243,0.352-0.446,0.724-0.612,1.114c-0.029,0.078-0.066,0.156-0.089,0.232
	c-0.052,0.119-0.088,0.24-0.125,0.357c-0.033,0.102-0.063,0.201-0.089,0.305c-0.11,0.408-0.177,0.83-0.199,1.272
	C564.155,754.065,564.155,754.177,564.155,754.287"/>
<radialGradient id="SVGID_32_" cx="427.2725" cy="902.4697" r="9.3828" gradientTransform="matrix(0.91 0 0 0.91 134.9185 -56.2588)" gradientUnits="userSpaceOnUse">
	<stop  offset="0" style="stop-color:#A1D9FA"/>
	<stop  offset="1" style="stop-color:#49B1BA"/>
</radialGradient>
<path fill="url(#SVGID_32_)" d="M515.188,764.958c0,0.151,0,0.284,0,0.436c0.009,0.188,0.029,0.357,0.05,0.531
	c0.019,0.106,0.022,0.223,0.039,0.325c0.02,0.147,0.047,0.292,0.083,0.42c0.025,0.14,0.063,0.288,0.092,0.421
	c0.037,0.133,0.074,0.277,0.118,0.401c0.031,0.138,0.078,0.267,0.133,0.392c0.072,0.232,0.174,0.469,0.277,0.684
	c0.188,0.402,0.413,0.789,0.664,1.154c0.075,0.122,0.159,0.236,0.236,0.348c0.081,0.11,0.17,0.217,0.258,0.316
	c0.162,0.21,0.344,0.418,0.55,0.609c0.082,0.097,0.188,0.184,0.299,0.279c0.543,0.492,1.155,0.928,1.827,1.278
	c0.103,0.048,0.21,0.1,0.313,0.147c0.088,0.037,0.188,0.085,0.28,0.113c0.104,0.048,0.207,0.096,0.31,0.134
	c0.447,0.169,0.9,0.295,1.373,0.384c0.122,0.033,0.251,0.041,0.376,0.059c0.413,0.059,0.834,0.1,1.258,0.1
	c4.724,0,8.547-3.823,8.547-8.531c0-4.722-3.823-8.538-8.547-8.538c-0.217,0-0.424,0.004-0.631,0.018
	c-0.214,0.023-0.42,0.048-0.627,0.079c-0.147,0.007-0.292,0.037-0.436,0.072c-0.199,0.037-0.383,0.067-0.561,0.134
	c-0.036,0.011-0.081,0.014-0.122,0.026c-0.202,0.065-0.417,0.135-0.631,0.221c-0.103,0.033-0.206,0.074-0.31,0.119
	c-0.118,0.055-0.232,0.103-0.362,0.147c-0.218,0.12-0.428,0.23-0.648,0.354c-0.17,0.11-0.332,0.21-0.491,0.316
	c-0.059,0.037-0.11,0.074-0.151,0.111c-0.141,0.1-0.276,0.203-0.41,0.32c-0.177,0.133-0.35,0.284-0.509,0.444
	c-0.093,0.084-0.192,0.176-0.276,0.271c-0.125,0.127-0.247,0.255-0.351,0.388c-0.118,0.134-0.222,0.271-0.328,0.401
	c-0.077,0.102-0.145,0.192-0.207,0.301c-0.324,0.464-0.596,0.967-0.812,1.489c-0.045,0.104-0.093,0.204-0.124,0.312
	c-0.064,0.154-0.118,0.316-0.168,0.467c-0.044,0.137-0.081,0.267-0.118,0.414c-0.142,0.539-0.234,1.101-0.264,1.694
	C515.188,764.667,515.188,764.808,515.188,764.958"/>
<g>
	
		<radialGradient id="SVGID_33_" cx="443.3281" cy="429.5625" r="202.7386" gradientTransform="matrix(0.91 0 0 0.91 134.9185 -56.2588)" gradientUnits="userSpaceOnUse">
		<stop  offset="0" style="stop-color:#A1D9FA"/>
		<stop  offset="1" style="stop-color:#49B1BA"/>
	</radialGradient>
	<path fill-rule="evenodd" clip-rule="evenodd" fill="url(#SVGID_33_)" d="M362.562,389.978c1.992-7.307,3.782-14.676,6.052-21.896
		c1.364-4.357,0.944-8.018-1.661-11.774c-4.098-5.915-7.785-12.11-11.855-18.036c-1.742-2.538-1.892-4.439-0.006-7.088
		c4.166-5.86,7.773-12.114,11.887-18.019c2.621-3.76,3.078-7.445,1.702-11.781c-2.126-6.672-3.679-13.52-5.82-20.184
		c-1.01-3.141-0.043-4.87,2.366-6.716c5.868-4.483,11.516-9.247,17.328-13.797c2.706-2.11,4.04-4.616,4.369-8.146
		c0.596-6.609,1.227-13.225,0.874-19.841c-0.284-5.354,1.469-8.365,6.9-9.878c6.357-1.774,12.42-4.616,18.696-6.724
		c3.585-1.202,5.624-3.49,6.86-6.93c2.436-6.771,5.139-13.445,7.515-20.234c1.083-3.092,2.766-4.554,6.171-4.628
		c7.188-0.15,14.362-0.903,21.54-0.963c4.25-0.033,7.095-1.704,9.528-5.01c3.818-5.178,8.1-10.022,11.81-15.27
		c2.823-4.007,5.793-5.092,10.579-3.405c6.405,2.258,13.166,3.52,19.684,5.501c3.637,1.107,6.495,0.369,9.526-1.786
		c5.395-3.841,11.145-7.18,16.554-11.003c3.712-2.616,6.814-2.975,10.723-0.073c5.767,4.275,12.036,7.878,18.011,11.877
		c2.398,1.613,4.753,1.896,7.513,1.093c7.272-2.107,14.635-3.918,21.893-6.081c3.384-1.004,5.697-0.303,7.827,2.579
		c4.055,5.477,8.49,10.664,12.604,16.096c2.834,3.737,6.177,5.594,11.084,5.523c6.605-0.096,13.214,0.79,19.827,0.893
		c3.553,0.059,5.553,1.332,6.715,4.73c2.141,6.27,4.79,12.369,6.89,18.646c1.646,4.922,4.757,7.814,9.672,9.364
		c5.955,1.879,11.719,4.351,17.645,6.332c3.945,1.321,5.694,3.602,5.705,7.923c0.015,6.996,0.822,13.98,0.938,20.974
		c0.063,3.814,1.649,6.401,4.538,8.615c5.41,4.151,10.576,8.627,16.115,12.59c3.261,2.332,4.283,4.638,3.021,8.598
		c-2.185,6.845-3.701,13.899-5.712,20.808c-0.981,3.368-0.554,6.225,1.406,9.124c3.911,5.809,7.493,11.845,11.501,17.583
		c2.395,3.436,2.546,6.42,0.133,9.859c-3.801,5.424-7.24,11.106-11.077,16.497c-2.66,3.734-3.107,7.429-1.731,11.771
		c1.997,6.317,3.351,12.837,5.388,19.139c1.226,3.793,0.72,6.273-2.712,8.69c-5.568,3.918-10.693,8.449-16.121,12.567
		c-3.085,2.336-4.506,5.118-4.808,9.096c-0.528,6.988-1.078,13.974-0.916,20.973c0.085,3.979-1.335,6.307-5.27,7.539
		c-4.87,1.524-9.442,4.106-14.376,5.291c-8.021,1.922-12.689,6.413-14.693,14.477c-1.324,5.283-3.889,10.254-5.785,15.404
		c-0.982,2.66-2.721,3.704-5.543,3.934c-6.981,0.546-13.955,1.402-20.967,1.019c-4.66-0.255-7.922,1.598-10.646,5.191
		c-4.232,5.579-8.764,10.933-12.947,16.553c-2,2.679-4.126,3.391-7.325,2.458c-7.084-2.074-14.313-3.657-21.357-5.863
		c-3.646-1.152-6.494-0.628-9.523,1.523c-5.24,3.728-10.886,6.918-15.975,10.826c-4.307,3.307-7.919,3.287-12.217,0.104
		c-5.004-3.72-10.539-6.73-15.527-10.468c-3.594-2.694-7.045-2.931-11.139-1.676c-6.335,1.948-12.83,3.357-19.137,5.377
		c-3.791,1.205-6.431,0.574-8.87-2.639c-4.229-5.576-8.907-10.815-13.099-16.406c-2.632-3.501-5.721-5.128-10.132-4.984
		c-7,0.229-13.988-0.277-20.973-0.96c-3.326-0.32-5.148-1.59-6.208-4.686c-2.092-6.084-4.733-12-6.523-18.172
		c-1.61-5.565-5.059-8.329-10.413-9.938c-6.153-1.848-12.048-4.545-18.132-6.63c-3.17-1.085-4.493-2.981-4.561-6.276
		c-0.134-7.159-0.466-14.299-1.066-21.446c-0.396-4.73-2.074-7.679-5.632-10.347c-5.428-4.08-10.608-8.486-15.924-12.719
		C363.761,393.434,362.199,392.309,362.562,389.978z M614.436,460.774c4.283,0,7.158-0.262,9.963,0.06
		c5.006,0.571,7.144-1.738,8.125-6.42c1.162-5.551,2.996-10.952,4.421-16.446c0.752-2.896,2.476-4.425,5.376-5.118
		c5.701-1.361,11.302-3.232,17.044-4.383c4.716-0.941,6.225-3.454,5.771-7.981c-0.523-5.262-0.583-10.571-1.106-15.842
		c-0.45-4.486,1.1-7.545,5.092-9.773c4.628-2.576,8.974-5.646,13.521-8.373c3.446-2.073,4.612-4.668,2.934-8.55
		c-2.174-5.036-3.956-10.246-6.162-15.269c-1.805-4.08-1.609-7.332,1.727-10.767c3.934-4.056,7.177-8.782,10.808-13.14
		c2.251-2.69,2.731-4.952,0.019-7.875c-3.989-4.287-7.442-9.065-11.229-13.541c-2.568-3.037-3.28-6.019-1.524-9.879
		c2.425-5.328,4.203-10.951,6.439-16.379c1.321-3.188,0.538-5.402-2.303-7.199c-4.79-3.051-9.395-6.408-14.306-9.238
		c-3.974-2.289-5.469-5.314-5.022-9.801c0.568-5.638,0.683-11.324,1.13-16.978c0.287-3.671-1.259-5.557-4.842-6.384
		c-5.534-1.28-10.93-3.177-16.486-4.283c-4.591-0.911-6.778-3.476-7.731-7.826c-1.14-5.173-2.711-10.251-3.859-15.428
		c-0.882-3.992-3.052-5.819-7.184-5.516c-6.033,0.442-12.085,0.689-18.118,1.103c-3.372,0.229-5.642-0.967-7.413-4.007
		c-2.956-5.063-6.539-9.757-9.483-14.819c-1.989-3.427-4.195-4.343-7.907-2.796c-5.765,2.398-11.72,4.324-17.502,6.692
		c-2.819,1.155-4.9,0.794-7.222-1.188c-4.601-3.93-9.604-7.391-14.132-11.406c-3.263-2.885-5.753-3.409-9.155-0.092
		c-3.782,3.686-8.276,6.62-12.232,10.132c-3.476,3.089-6.815,4.101-11.279,1.863c-4.037-2.024-8.718-2.793-12.684-4.922
		c-5.837-3.14-9.63-1.73-12.198,4.025c-5.897,13.243-14.922,20.332-30.104,15.476c-0.173-0.059-0.376-0.014-0.567-0.019
		c-8.394-0.235-9.732-0.266-10.576,8.148c-1.533,15.253-9.351,22.22-24.147,24.228c-9.265,1.255-9.169,2.409-7.93,11.899
		c0.122,0.938,0.257,1.874,0.401,2.809c1.573,10.091,0.434,18.844-10.862,22.898c-1.727,0.621-3.121,2.111-4.73,3.119
		c-7.575,4.745-8.601,5.376-4.291,12.892c7.572,13.21,5.582,23.612-5.224,33.933c-6.186,5.907-5.488,6.639-0.075,13.198
		c0.243,0.296,0.471,0.604,0.749,0.856c9.795,8.822,12.465,18.217,5.446,30.722c-5.158,9.181-3.635,9.351,5.06,15.579
		c16.712,11.966,14.313,5.018,13.921,25.387c-0.238,12.837-0.643,13.397,11.999,15.793c10.396,1.966,16.361,6.177,18.363,17.549
		c2.371,13.497,3.578,14.357,17.23,12.833c11.608-1.299,17.684,3.029,23.196,12.604c7.38,12.805,5.095,11.563,18.011,6.199
		c1.045-0.432,2.248-0.602,3.185-1.188c8.473-5.291,15.051-2.73,22.077,3.642c10.786,9.801,11.805,10.074,22.351,0.506
		c8.498-7.715,15.992-8.114,25.87-3.336c11.663,5.65,12.394,5.27,18.896-6.258C599.004,463.59,604.554,457.207,614.436,460.774z"/>
	
		<radialGradient id="SVGID_34_" cx="535.6719" cy="694.6133" r="86.2892" gradientTransform="matrix(0.91 0 0 0.91 134.9185 -56.2588)" gradientUnits="userSpaceOnUse">
		<stop  offset="0" style="stop-color:#A1D9FA"/>
		<stop  offset="1" style="stop-color:#49B1BA"/>
	</radialGradient>
	<path fill-rule="evenodd" clip-rule="evenodd" fill="url(#SVGID_34_)" d="M566.96,507.976c8.829,2.417,16.926,4.395,24.855,6.908
		c4.313,1.365,7.022,0.398,9.62-3.226c3.97-5.527,8.498-10.646,12.604-16.076c2.853-3.771,6.284-5.819,11.147-5.344
		c2.243,0.218,4.535-0.011,6.804-0.044c10.388-0.151,10.458-0.181,13.952,9.911c15.288,44.165,30.539,88.343,45.76,132.533
		c0.583,1.7,2.222,3.801,0.73,5.273c-1.579,1.568-3.542-0.41-5.159-1.056c-17.397-6.944-34.818-13.845-52.058-21.169
		c-4.789-2.037-7.413-1.114-10.166,3.063c-8.741,13.27-17.76,26.356-26.723,39.474c-0.89,1.303-1.324,3.643-3.417,3.182
		c-1.646-0.357-1.421-2.487-1.841-3.878c-10.377-34.221-20.72-68.459-31.059-102.693c-3.222-10.675-6.199-21.428-9.716-32.006
		c-1.347-4.066-0.477-6.41,3.151-8.28C559.565,512.419,562.778,508.563,566.96,507.976z"/>
	
		<radialGradient id="SVGID_35_" cx="350.3643" cy="694.748" r="88.916" gradientTransform="matrix(0.91 0 0 0.91 134.9185 -56.2588)" gradientUnits="userSpaceOnUse">
		<stop  offset="0" style="stop-color:#A1D9FA"/>
		<stop  offset="1" style="stop-color:#49B1BA"/>
	</radialGradient>
	<path fill-rule="evenodd" clip-rule="evenodd" fill="url(#SVGID_35_)" d="M448.777,490.479c6.879-1.365,11.637,1.174,15.49,6.899
		c3.683,5.469,8.447,10.195,12.421,15.495c2.078,2.771,4.276,3.188,7.35,2.269c6.167-1.852,12.484-3.232,18.569-5.298
		c5.918-2.012,10.823-1.178,15.91,2.557c12.985,9.523,12.605,4.719,6.479,20.618c-16.079,41.682-32.252,83.333-48.422,124.98
		c-0.581,1.506-0.565,3.838-2.592,4.025c-2.029,0.186-2.413-2.11-3.222-3.504c-7.98-13.757-16.117-27.428-23.737-41.375
		c-2.384-4.37-4.705-4.701-9.017-3.211c-17.714,6.141-35.538,11.956-53.352,17.804c-1.852,0.605-4.132,2.564-5.739,0.664
		c-1.492-1.763,0.5-3.94,1.28-5.737c10.679-24.675,21.456-49.305,32.206-73.941c7.871-18.044,15.891-36.032,23.529-54.172
		C438.486,492.482,441.455,488.146,448.777,490.479z"/>
	
		<radialGradient id="SVGID_36_" cx="444.0039" cy="429.6357" r="131.7573" gradientTransform="matrix(0.91 0 0 0.91 134.9185 -56.2588)" gradientUnits="userSpaceOnUse">
		<stop  offset="0" style="stop-color:#A1D9FA"/>
		<stop  offset="1" style="stop-color:#49B1BA"/>
	</radialGradient>
	<path fill-rule="evenodd" clip-rule="evenodd" fill="url(#SVGID_36_)" d="M658.852,334.695
		c0,66.211-53.679,119.892-119.896,119.892c-66.218,0-119.899-53.681-119.899-119.892c0-66.215,53.682-119.896,119.899-119.896
		C605.173,214.8,658.852,268.48,658.852,334.695z"/>
</g>
</svg>
