<?xml version="1.0" encoding="utf-8"?>
<!-- Generator: Adobe Illustrator 16.0.0, SVG Export Plug-In . SVG Version: 6.00 Build 0)  -->
<!DOCTYPE svg PUBLIC "-//W3C//DTD SVG 1.1//EN" "http://www.w3.org/Graphics/SVG/1.1/DTD/svg11.dtd">
<svg version="1.1" id="Capa_1" xmlns="http://www.w3.org/2000/svg" xmlns:xlink="http://www.w3.org/1999/xlink" x="0px" y="0px"
	 width="1080px" height="1080px" viewBox="0 0 1080 1080" enable-background="new 0 0 1080 1080" xml:space="preserve">
<g>
	<g>
		<g>
			<g>
				<path fill-rule="evenodd" clip-rule="evenodd" fill="#FFFFFF" d="M1016.846,540.008c0,266.057-215.687,481.755-481.756,481.755
					c-266.075,0-481.77-215.698-481.77-481.755c0-266.073,215.694-481.771,481.77-481.771
					C801.159,58.237,1016.846,273.935,1016.846,540.008z"/>
			</g>
		</g>
	</g>
</g>
<radialGradient id="SVGID_2_" cx="-470.7524" cy="626.8613" r="6.0227" gradientTransform="matrix(0.709 0 0 0.709 799.6421 -292.7129)" gradientUnits="userSpaceOnUse">
	<stop  offset="0" style="stop-color:#FD6729"/>
	<stop  offset="0.2374" style="stop-color:#FD6329"/>
	<stop  offset="0.4612" style="stop-color:#FC582B"/>
	<stop  offset="0.6795" style="stop-color:#FC452D"/>
	<stop  offset="0.8931" style="stop-color:#FB2A30"/>
	<stop  offset="1" style="stop-color:#FA1A32"/>
</radialGradient>
<path fill="url(#SVGID_2_)" d="M470.151,151.725c0,0.075,0,0.142-0.003,0.222c-0.004,0.089-0.016,0.178-0.022,0.259
	c-0.016,0.059-0.016,0.111-0.019,0.169c-0.011,0.066-0.022,0.142-0.044,0.215c-0.012,0.066-0.03,0.133-0.045,0.206
	c-0.022,0.066-0.036,0.134-0.059,0.2c-0.019,0.066-0.037,0.126-0.066,0.192c-0.037,0.117-0.089,0.229-0.137,0.339
	c-0.096,0.199-0.21,0.398-0.336,0.583c-0.033,0.059-0.077,0.118-0.118,0.169c-0.041,0.053-0.084,0.111-0.129,0.163
	c-0.081,0.103-0.174,0.207-0.273,0.302c-0.044,0.045-0.096,0.089-0.144,0.141c-0.276,0.243-0.583,0.458-0.919,0.636
	c-0.052,0.028-0.104,0.051-0.159,0.08c-0.04,0.015-0.092,0.037-0.14,0.053c-0.048,0.028-0.104,0.051-0.151,0.066
	c-0.225,0.08-0.453,0.146-0.689,0.19c-0.06,0.016-0.126,0.022-0.188,0.031c-0.203,0.028-0.417,0.051-0.627,0.051
	c-2.358,0-4.273-1.911-4.273-4.267c0-2.36,1.915-4.271,4.273-4.271c0.106,0,0.21,0.007,0.316,0.014
	c0.107,0.009,0.211,0.022,0.311,0.044c0.077,0,0.147,0.009,0.218,0.031c0.1,0.021,0.191,0.035,0.284,0.066
	c0.015,0.007,0.04,0.007,0.051,0.014c0.111,0.03,0.219,0.066,0.325,0.104c0.048,0.022,0.104,0.045,0.151,0.066
	c0.059,0.029,0.118,0.052,0.181,0.073c0.111,0.06,0.218,0.118,0.321,0.178c0.093,0.051,0.174,0.104,0.251,0.162
	c0.029,0.015,0.056,0.037,0.073,0.053c0.07,0.051,0.141,0.096,0.207,0.155c0.085,0.064,0.173,0.14,0.251,0.229
	c0.052,0.035,0.1,0.088,0.144,0.133c0.063,0.066,0.122,0.124,0.174,0.199c0.059,0.066,0.11,0.124,0.162,0.198
	c0.041,0.044,0.074,0.088,0.107,0.141c0.162,0.235,0.295,0.486,0.405,0.752c0.02,0.045,0.045,0.104,0.06,0.148
	c0.033,0.082,0.059,0.162,0.085,0.243c0.022,0.067,0.036,0.134,0.059,0.207c0.074,0.266,0.114,0.554,0.13,0.842
	C470.151,151.578,470.151,151.651,470.151,151.725"/>
<radialGradient id="SVGID_4_" cx="-446.9106" cy="634.2939" r="7.5305" gradientTransform="matrix(0.709 0 0 0.709 799.6421 -292.7129)" gradientUnits="userSpaceOnUse">
	<stop  offset="0" style="stop-color:#FD6729"/>
	<stop  offset="0.2374" style="stop-color:#FD6329"/>
	<stop  offset="0.4612" style="stop-color:#FC582B"/>
	<stop  offset="0.6795" style="stop-color:#FC452D"/>
	<stop  offset="0.8931" style="stop-color:#FB2A30"/>
	<stop  offset="1" style="stop-color:#FA1A32"/>
</radialGradient>
<path fill="url(#SVGID_4_)" d="M488.122,156.995c0,0.089,0,0.178-0.004,0.272c-0.008,0.111-0.019,0.222-0.029,0.333
	c-0.012,0.066-0.015,0.133-0.03,0.199c-0.007,0.096-0.025,0.185-0.044,0.265c-0.019,0.089-0.044,0.177-0.063,0.266
	c-0.022,0.075-0.048,0.163-0.07,0.244c-0.021,0.081-0.052,0.161-0.085,0.25c-0.048,0.148-0.106,0.288-0.173,0.428
	c-0.118,0.244-0.259,0.488-0.421,0.725c-0.041,0.066-0.093,0.14-0.145,0.206c-0.051,0.073-0.103,0.141-0.158,0.199
	c-0.1,0.134-0.218,0.258-0.347,0.384c-0.052,0.06-0.114,0.118-0.181,0.171c-0.344,0.309-0.724,0.583-1.145,0.803
	c-0.066,0.03-0.133,0.06-0.199,0.089c-0.055,0.03-0.114,0.06-0.177,0.074c-0.06,0.029-0.126,0.059-0.188,0.081
	c-0.284,0.104-0.568,0.186-0.859,0.243c-0.077,0.016-0.158,0.022-0.232,0.038c-0.259,0.035-0.524,0.066-0.786,0.066
	c-2.956,0-5.34-2.392-5.34-5.336c0-2.952,2.384-5.344,5.34-5.344c0.133,0,0.262,0.007,0.395,0.016
	c0.133,0.014,0.262,0.036,0.392,0.051c0.092,0,0.181,0.022,0.272,0.052c0.118,0.015,0.236,0.037,0.347,0.074
	c0.022,0.007,0.053,0.007,0.074,0.022c0.129,0.036,0.266,0.08,0.398,0.133c0.063,0.022,0.129,0.052,0.188,0.08
	c0.081,0.031,0.151,0.066,0.229,0.089c0.141,0.073,0.273,0.148,0.406,0.229c0.106,0.06,0.21,0.119,0.31,0.192
	c0.034,0.022,0.063,0.045,0.093,0.066c0.084,0.06,0.173,0.126,0.255,0.199c0.114,0.081,0.221,0.178,0.316,0.28
	c0.06,0.053,0.122,0.11,0.178,0.17c0.077,0.082,0.155,0.155,0.218,0.235c0.073,0.089,0.14,0.171,0.202,0.259
	c0.052,0.06,0.093,0.118,0.13,0.185c0.203,0.288,0.369,0.605,0.513,0.931c0.025,0.058,0.052,0.125,0.073,0.191
	c0.045,0.097,0.074,0.199,0.107,0.295c0.022,0.088,0.048,0.17,0.07,0.259c0.092,0.339,0.147,0.693,0.166,1.055
	C488.122,156.81,488.122,156.898,488.122,156.995"/>
<radialGradient id="SVGID_5_" cx="-419.3027" cy="640.5332" r="9.0352" gradientTransform="matrix(0.709 0 0 0.709 799.6421 -292.7129)" gradientUnits="userSpaceOnUse">
	<stop  offset="0" style="stop-color:#FD6729"/>
	<stop  offset="0.2374" style="stop-color:#FD6329"/>
	<stop  offset="0.4612" style="stop-color:#FC582B"/>
	<stop  offset="0.6795" style="stop-color:#FC452D"/>
	<stop  offset="0.8931" style="stop-color:#FB2A30"/>
	<stop  offset="1" style="stop-color:#FA1A32"/>
</radialGradient>
<path fill="url(#SVGID_5_)" d="M508.764,161.415c0,0.118,0,0.222-0.004,0.333c-0.004,0.14-0.021,0.266-0.033,0.405
	c-0.019,0.073-0.021,0.162-0.033,0.235c-0.015,0.111-0.033,0.215-0.06,0.311c-0.021,0.11-0.048,0.214-0.069,0.316
	c-0.033,0.104-0.056,0.208-0.089,0.304c-0.025,0.104-0.059,0.199-0.096,0.295c-0.063,0.17-0.133,0.348-0.215,0.51
	c-0.143,0.295-0.306,0.59-0.497,0.871c-0.053,0.08-0.114,0.169-0.178,0.257c-0.063,0.075-0.125,0.162-0.191,0.229
	c-0.118,0.164-0.259,0.319-0.414,0.466c-0.062,0.074-0.14,0.14-0.221,0.206c-0.41,0.37-0.867,0.694-1.369,0.96
	c-0.081,0.037-0.162,0.074-0.24,0.11c-0.066,0.03-0.136,0.06-0.21,0.089c-0.074,0.037-0.151,0.066-0.232,0.096
	c-0.332,0.126-0.675,0.222-1.025,0.288c-0.093,0.021-0.192,0.03-0.285,0.044c-0.306,0.045-0.627,0.082-0.944,0.082
	c-3.538,0-6.405-2.871-6.405-6.406s2.867-6.405,6.405-6.405c0.162,0,0.317,0.007,0.476,0.021c0.163,0.016,0.313,0.038,0.469,0.052
	c0.115,0.016,0.219,0.037,0.325,0.06c0.151,0.029,0.288,0.051,0.424,0.104c0.022,0,0.063,0.007,0.086,0.014
	c0.154,0.045,0.316,0.104,0.476,0.171c0.081,0.021,0.158,0.058,0.232,0.089c0.092,0.035,0.177,0.073,0.27,0.103
	c0.166,0.097,0.328,0.177,0.487,0.273c0.132,0.08,0.254,0.154,0.372,0.235c0.04,0.029,0.078,0.06,0.111,0.082
	c0.106,0.073,0.206,0.146,0.31,0.235c0.133,0.104,0.262,0.222,0.38,0.339c0.07,0.066,0.144,0.134,0.21,0.208
	c0.093,0.096,0.186,0.185,0.259,0.287c0.089,0.097,0.17,0.199,0.247,0.31c0.063,0.066,0.111,0.133,0.158,0.215
	c0.244,0.354,0.443,0.729,0.609,1.114c0.029,0.081,0.066,0.155,0.093,0.236c0.044,0.117,0.088,0.236,0.125,0.354
	c0.033,0.104,0.056,0.199,0.089,0.302c0.107,0.414,0.174,0.835,0.195,1.276C508.764,161.193,508.764,161.305,508.764,161.415"/>
<radialGradient id="SVGID_6_" cx="-353.25" cy="660.9102" r="12.043" gradientTransform="matrix(0.709 0 0 0.709 799.6421 -292.7129)" gradientUnits="userSpaceOnUse">
	<stop  offset="0" style="stop-color:#FD6729"/>
	<stop  offset="0.2374" style="stop-color:#FD6329"/>
	<stop  offset="0.4612" style="stop-color:#FC582B"/>
	<stop  offset="0.6795" style="stop-color:#FC452D"/>
	<stop  offset="0.8931" style="stop-color:#FB2A30"/>
	<stop  offset="1" style="stop-color:#FA1A32"/>
</radialGradient>
<path fill="url(#SVGID_6_)" d="M557.731,175.865c0,0.155,0,0.288,0,0.435c-0.008,0.192-0.03,0.363-0.052,0.532
	c-0.015,0.11-0.022,0.221-0.045,0.325c-0.014,0.146-0.036,0.295-0.08,0.428c-0.022,0.133-0.06,0.279-0.089,0.412
	c-0.037,0.134-0.074,0.281-0.118,0.406c-0.029,0.133-0.074,0.266-0.133,0.392c-0.074,0.229-0.177,0.464-0.28,0.679
	c-0.185,0.405-0.413,0.789-0.665,1.159c-0.073,0.117-0.154,0.235-0.236,0.346c-0.08,0.111-0.161,0.215-0.25,0.317
	c-0.163,0.208-0.347,0.414-0.554,0.605c-0.081,0.097-0.192,0.186-0.295,0.281c-0.547,0.494-1.159,0.929-1.838,1.276
	c-0.097,0.051-0.206,0.104-0.303,0.146c-0.096,0.038-0.191,0.089-0.288,0.119c-0.096,0.045-0.198,0.096-0.31,0.133
	c-0.45,0.169-0.9,0.295-1.373,0.384c-0.117,0.029-0.243,0.036-0.369,0.059c-0.413,0.06-0.841,0.097-1.269,0.097
	c-4.716,0-8.539-3.823-8.539-8.531c0-4.724,3.823-8.538,8.539-8.538c0.222,0,0.428,0.007,0.635,0.021
	c0.221,0.022,0.428,0.045,0.634,0.073c0.141,0.007,0.288,0.038,0.429,0.074c0.199,0.037,0.384,0.066,0.568,0.133
	c0.036,0.015,0.074,0.015,0.11,0.03c0.206,0.066,0.421,0.133,0.635,0.222c0.111,0.029,0.214,0.073,0.31,0.117
	c0.126,0.052,0.236,0.103,0.362,0.147c0.214,0.119,0.435,0.229,0.649,0.354c0.177,0.11,0.339,0.206,0.494,0.316
	c0.059,0.038,0.104,0.075,0.155,0.111c0.132,0.097,0.272,0.199,0.405,0.316c0.178,0.134,0.348,0.288,0.503,0.443
	c0.103,0.089,0.198,0.185,0.287,0.273c0.126,0.126,0.236,0.259,0.347,0.392c0.118,0.133,0.222,0.266,0.324,0.398
	c0.082,0.103,0.148,0.191,0.215,0.302c0.324,0.466,0.59,0.967,0.812,1.491c0.037,0.103,0.089,0.2,0.118,0.311
	c0.066,0.154,0.118,0.317,0.17,0.464c0.044,0.142,0.081,0.266,0.118,0.414c0.141,0.546,0.235,1.1,0.266,1.698
	C557.731,175.577,557.731,175.717,557.731,175.865"/>
<radialGradient id="SVGID_7_" cx="-321.1289" cy="675.2158" r="13.5547" gradientTransform="matrix(0.709 0 0 0.709 799.6421 -292.7129)" gradientUnits="userSpaceOnUse">
	<stop  offset="0" style="stop-color:#FD6729"/>
	<stop  offset="0.2374" style="stop-color:#FD6329"/>
	<stop  offset="0.4612" style="stop-color:#FC582B"/>
	<stop  offset="0.6795" style="stop-color:#FC452D"/>
	<stop  offset="0.8931" style="stop-color:#FB2A30"/>
	<stop  offset="1" style="stop-color:#FA1A32"/>
</radialGradient>
<path fill="url(#SVGID_7_)" d="M581.575,186.006c0,0.176,0,0.323,0,0.494c-0.015,0.213-0.036,0.405-0.059,0.597
	c-0.022,0.119-0.022,0.252-0.044,0.361c-0.022,0.17-0.052,0.332-0.089,0.48c-0.029,0.162-0.073,0.324-0.11,0.473
	c-0.037,0.147-0.081,0.31-0.126,0.457c-0.036,0.147-0.089,0.287-0.147,0.436c-0.088,0.266-0.206,0.532-0.316,0.768
	c-0.215,0.45-0.466,0.893-0.746,1.306c-0.089,0.133-0.178,0.266-0.266,0.384c-0.096,0.119-0.185,0.243-0.288,0.362
	c-0.185,0.229-0.391,0.464-0.62,0.679c-0.096,0.11-0.214,0.213-0.339,0.317c-0.605,0.554-1.299,1.041-2.06,1.438
	c-0.11,0.053-0.236,0.11-0.347,0.163c-0.104,0.045-0.214,0.103-0.317,0.133c-0.11,0.052-0.229,0.103-0.347,0.147
	c-0.502,0.199-1.011,0.332-1.55,0.428c-0.133,0.044-0.28,0.053-0.421,0.066c-0.457,0.082-0.938,0.117-1.416,0.117
	c-5.307,0-9.617-4.302-9.617-9.606c0-5.315,4.311-9.609,9.617-9.609c0.243,0,0.479,0,0.716,0.029c0.243,0.016,0.472,0.044,0.7,0.082
	c0.17,0.007,0.325,0.044,0.487,0.08c0.229,0.053,0.436,0.082,0.635,0.155c0.044,0.007,0.089,0.015,0.133,0.029
	c0.229,0.074,0.473,0.154,0.716,0.243c0.118,0.037,0.236,0.089,0.347,0.142c0.133,0.058,0.259,0.11,0.406,0.162
	c0.243,0.133,0.487,0.266,0.73,0.398c0.192,0.118,0.376,0.235,0.554,0.354c0.066,0.044,0.125,0.088,0.17,0.133
	c0.155,0.104,0.31,0.222,0.457,0.354c0.207,0.147,0.398,0.316,0.568,0.494c0.118,0.104,0.222,0.199,0.317,0.311
	c0.147,0.14,0.28,0.288,0.398,0.436c0.133,0.154,0.251,0.302,0.369,0.45c0.088,0.118,0.154,0.213,0.229,0.339
	c0.369,0.523,0.672,1.093,0.916,1.676c0.051,0.125,0.103,0.229,0.14,0.361c0.074,0.162,0.125,0.347,0.191,0.523
	c0.045,0.148,0.089,0.295,0.126,0.457c0.162,0.606,0.266,1.241,0.302,1.912C581.575,185.68,581.575,185.842,581.575,186.006"/>
<radialGradient id="SVGID_8_" cx="-294.0225" cy="700.3164" r="15.0566" gradientTransform="matrix(0.709 0 0 0.709 799.6421 -292.7129)" gradientUnits="userSpaceOnUse">
	<stop  offset="0" style="stop-color:#FD6729"/>
	<stop  offset="0.2374" style="stop-color:#FD6329"/>
	<stop  offset="0.4612" style="stop-color:#FC582B"/>
	<stop  offset="0.6795" style="stop-color:#FC452D"/>
	<stop  offset="0.8931" style="stop-color:#FB2A30"/>
	<stop  offset="1" style="stop-color:#FA1A32"/>
</radialGradient>
<path fill="url(#SVGID_8_)" d="M601.856,203.805c0,0.192,0,0.361,0,0.546c-0.008,0.236-0.037,0.451-0.06,0.664
	c-0.021,0.134-0.029,0.281-0.052,0.406c-0.022,0.184-0.052,0.361-0.103,0.517c-0.03,0.186-0.074,0.369-0.111,0.538
	c-0.044,0.164-0.096,0.34-0.141,0.503c-0.044,0.169-0.104,0.324-0.17,0.486c-0.103,0.296-0.229,0.591-0.354,0.857
	c-0.229,0.501-0.517,0.988-0.834,1.445c-0.089,0.148-0.192,0.295-0.288,0.428c-0.104,0.133-0.206,0.274-0.317,0.398
	c-0.206,0.26-0.436,0.525-0.693,0.761c-0.096,0.117-0.236,0.229-0.376,0.354c-0.672,0.612-1.439,1.15-2.281,1.594
	c-0.125,0.06-0.266,0.126-0.391,0.185c-0.111,0.044-0.236,0.104-0.354,0.147c-0.126,0.06-0.259,0.118-0.384,0.162
	c-0.561,0.222-1.129,0.37-1.72,0.48c-0.146,0.045-0.31,0.059-0.465,0.073c-0.517,0.081-1.048,0.125-1.579,0.125
	c-5.896,0-10.679-4.774-10.679-10.671c0-5.911,4.782-10.679,10.679-10.679c0.273,0,0.531,0,0.79,0.03
	c0.272,0.014,0.531,0.051,0.789,0.089c0.185,0.007,0.362,0.051,0.539,0.096c0.243,0.044,0.479,0.081,0.709,0.17
	c0.044,0.014,0.096,0.022,0.147,0.029c0.25,0.081,0.523,0.169,0.789,0.272c0.125,0.044,0.258,0.096,0.384,0.148
	c0.148,0.073,0.295,0.133,0.45,0.184c0.273,0.155,0.539,0.295,0.812,0.443c0.222,0.133,0.421,0.272,0.62,0.406
	c0.074,0.044,0.133,0.088,0.185,0.133c0.178,0.124,0.347,0.25,0.509,0.397c0.229,0.17,0.443,0.354,0.643,0.554
	c0.118,0.11,0.236,0.222,0.347,0.339c0.162,0.164,0.303,0.326,0.442,0.487c0.141,0.171,0.274,0.34,0.406,0.502
	c0.096,0.126,0.177,0.236,0.259,0.376c0.406,0.583,0.737,1.219,1.018,1.86c0.045,0.141,0.119,0.259,0.148,0.398
	c0.081,0.185,0.147,0.384,0.221,0.583c0.045,0.17,0.097,0.332,0.141,0.517c0.178,0.672,0.288,1.372,0.325,2.118
	C601.856,203.437,601.856,203.613,601.856,203.805"/>
<radialGradient id="SVGID_9_" cx="-273.4341" cy="740.2256" r="16.5657" gradientTransform="matrix(0.709 0 0 0.709 799.6421 -292.7129)" gradientUnits="userSpaceOnUse">
	<stop  offset="0" style="stop-color:#FD6729"/>
	<stop  offset="0.2374" style="stop-color:#FD6329"/>
	<stop  offset="0.4612" style="stop-color:#FC582B"/>
	<stop  offset="0.6795" style="stop-color:#FC452D"/>
	<stop  offset="0.8931" style="stop-color:#FB2A30"/>
	<stop  offset="1" style="stop-color:#FA1A32"/>
</radialGradient>
<path fill="url(#SVGID_9_)" d="M617.523,232.092c0,0.222,0,0.406,0,0.605c-0.015,0.258-0.044,0.494-0.073,0.729
	c-0.022,0.148-0.03,0.311-0.052,0.45c-0.022,0.199-0.06,0.399-0.118,0.569c-0.03,0.206-0.081,0.405-0.125,0.583
	c-0.053,0.185-0.097,0.377-0.155,0.561c-0.045,0.185-0.104,0.361-0.186,0.532c-0.103,0.324-0.242,0.649-0.383,0.936
	c-0.259,0.554-0.568,1.093-0.916,1.596c-0.103,0.162-0.214,0.331-0.316,0.472c-0.118,0.147-0.229,0.309-0.354,0.442
	c-0.222,0.288-0.473,0.568-0.76,0.835c-0.11,0.133-0.259,0.25-0.413,0.39c-0.746,0.672-1.587,1.271-2.51,1.758
	c-0.141,0.058-0.295,0.132-0.436,0.198c-0.118,0.044-0.258,0.119-0.383,0.163c-0.141,0.059-0.281,0.125-0.422,0.185
	c-0.619,0.235-1.239,0.398-1.896,0.516c-0.162,0.052-0.34,0.067-0.509,0.089c-0.568,0.089-1.151,0.14-1.734,0.14
	c-6.487,0-11.749-5.262-11.749-11.748c0-6.501,5.262-11.741,11.749-11.741c0.295,0,0.583,0,0.871,0.036
	c0.295,0.016,0.583,0.053,0.863,0.098c0.199,0.007,0.391,0.051,0.598,0.103c0.266,0.051,0.523,0.088,0.775,0.184
	c0.051,0.022,0.103,0.03,0.161,0.037c0.274,0.089,0.576,0.185,0.871,0.295c0.141,0.053,0.281,0.111,0.422,0.171
	c0.161,0.08,0.316,0.133,0.494,0.199c0.295,0.169,0.598,0.324,0.893,0.486c0.235,0.147,0.465,0.296,0.687,0.442
	c0.073,0.053,0.14,0.104,0.198,0.155c0.193,0.133,0.385,0.273,0.562,0.437c0.251,0.184,0.487,0.391,0.693,0.605
	c0.141,0.124,0.273,0.242,0.392,0.375c0.177,0.177,0.34,0.354,0.487,0.538c0.155,0.186,0.295,0.37,0.45,0.555
	c0.103,0.133,0.191,0.25,0.28,0.414c0.45,0.641,0.819,1.327,1.114,2.035c0.06,0.155,0.133,0.288,0.17,0.443
	c0.096,0.199,0.162,0.428,0.236,0.643c0.059,0.184,0.103,0.368,0.155,0.561c0.198,0.738,0.324,1.512,0.368,2.332
	C617.523,231.693,617.523,231.893,617.523,232.092"/>
<radialGradient id="SVGID_10_" cx="-273.439" cy="782.6367" r="18.0701" gradientTransform="matrix(0.709 0 0 0.709 799.6421 -292.7129)" gradientUnits="userSpaceOnUse">
	<stop  offset="0" style="stop-color:#FD6729"/>
	<stop  offset="0.2374" style="stop-color:#FD6329"/>
	<stop  offset="0.4612" style="stop-color:#FC582B"/>
	<stop  offset="0.6795" style="stop-color:#FC452D"/>
	<stop  offset="0.8931" style="stop-color:#FB2A30"/>
	<stop  offset="1" style="stop-color:#FA1A32"/>
</radialGradient>
<path fill="url(#SVGID_10_)" d="M618.586,262.164c0,0.237,0,0.437,0,0.657c-0.007,0.287-0.044,0.538-0.073,0.797
	c-0.022,0.155-0.037,0.34-0.059,0.487c-0.022,0.222-0.066,0.442-0.126,0.619c-0.037,0.237-0.089,0.443-0.141,0.643
	s-0.103,0.406-0.162,0.612c-0.052,0.199-0.118,0.392-0.199,0.583c-0.126,0.354-0.273,0.702-0.421,1.02
	c-0.28,0.598-0.627,1.188-1.004,1.741c-0.11,0.169-0.229,0.354-0.354,0.517c-0.118,0.155-0.244,0.331-0.377,0.479
	c-0.243,0.31-0.524,0.62-0.833,0.908c-0.119,0.146-0.281,0.265-0.45,0.428c-0.813,0.723-1.728,1.379-2.738,1.911
	c-0.155,0.066-0.317,0.148-0.473,0.222c-0.133,0.051-0.28,0.126-0.421,0.177c-0.147,0.066-0.303,0.133-0.457,0.2
	c-0.679,0.257-1.358,0.435-2.066,0.567c-0.178,0.051-0.369,0.066-0.561,0.089c-0.613,0.104-1.255,0.154-1.89,0.154
	c-7.077,0-12.819-5.74-12.819-12.812c0-7.091,5.742-12.812,12.819-12.812c0.324,0,0.635,0,0.944,0.038
	c0.332,0.015,0.643,0.066,0.945,0.11c0.221,0.007,0.435,0.052,0.648,0.103c0.296,0.06,0.576,0.104,0.85,0.199
	c0.051,0.03,0.11,0.045,0.177,0.045c0.303,0.104,0.628,0.207,0.952,0.325c0.154,0.058,0.31,0.124,0.457,0.184
	c0.178,0.089,0.354,0.148,0.539,0.215c0.325,0.185,0.649,0.361,0.981,0.539c0.259,0.162,0.502,0.324,0.746,0.486
	c0.073,0.052,0.154,0.104,0.214,0.163c0.214,0.14,0.42,0.295,0.611,0.479c0.273,0.2,0.532,0.421,0.769,0.657
	c0.147,0.141,0.288,0.266,0.421,0.414c0.191,0.19,0.361,0.383,0.523,0.582c0.177,0.207,0.324,0.406,0.487,0.605
	c0.125,0.146,0.214,0.272,0.317,0.45c0.487,0.7,0.885,1.454,1.218,2.221c0.059,0.171,0.14,0.311,0.184,0.488
	c0.097,0.213,0.17,0.456,0.259,0.7c0.06,0.199,0.11,0.398,0.162,0.612c0.222,0.805,0.354,1.653,0.398,2.539
	C618.586,261.722,618.586,261.943,618.586,262.164"/>
<radialGradient id="SVGID_11_" cx="-299.1958" cy="820.0322" r="19.5745" gradientTransform="matrix(0.709 0 0 0.709 799.6421 -292.7129)" gradientUnits="userSpaceOnUse">
	<stop  offset="0" style="stop-color:#FD6729"/>
	<stop  offset="0.2374" style="stop-color:#FD6329"/>
	<stop  offset="0.4612" style="stop-color:#FC582B"/>
	<stop  offset="0.6795" style="stop-color:#FC452D"/>
	<stop  offset="0.8931" style="stop-color:#FB2A30"/>
	<stop  offset="1" style="stop-color:#FA1A32"/>
</radialGradient>
<path fill="url(#SVGID_11_)" d="M601.391,288.681c0,0.251,0,0.464,0,0.708c-0.007,0.31-0.051,0.583-0.073,0.864
	c-0.037,0.168-0.044,0.368-0.074,0.531c-0.022,0.235-0.066,0.473-0.133,0.672c-0.044,0.242-0.096,0.472-0.147,0.692
	c-0.059,0.214-0.117,0.442-0.185,0.657c-0.052,0.214-0.125,0.428-0.214,0.635c-0.133,0.383-0.295,0.76-0.457,1.107
	c-0.303,0.649-0.672,1.283-1.085,1.882c-0.118,0.185-0.251,0.384-0.377,0.553c-0.133,0.177-0.272,0.361-0.413,0.524
	c-0.266,0.34-0.562,0.672-0.908,0.989c-0.125,0.155-0.303,0.288-0.479,0.457c-0.879,0.789-1.875,1.498-2.975,2.081
	c-0.162,0.066-0.34,0.162-0.502,0.229c-0.147,0.066-0.31,0.148-0.458,0.192c-0.162,0.073-0.339,0.146-0.501,0.213
	c-0.731,0.288-1.47,0.48-2.236,0.62c-0.185,0.06-0.399,0.074-0.605,0.104c-0.664,0.103-1.357,0.162-2.052,0.162
	c-7.668,0-13.881-6.222-13.881-13.874c0-7.69,6.213-13.882,13.881-13.882c0.354,0,0.694,0,1.025,0.037
	c0.362,0.022,0.694,0.066,1.026,0.118c0.236,0.007,0.473,0.06,0.708,0.117c0.318,0.06,0.613,0.111,0.916,0.215
	c0.059,0.029,0.117,0.036,0.184,0.052c0.333,0.104,0.688,0.214,1.034,0.354c0.162,0.06,0.339,0.133,0.501,0.19
	c0.192,0.097,0.385,0.164,0.583,0.237c0.354,0.199,0.701,0.383,1.056,0.583c0.28,0.17,0.546,0.348,0.804,0.517
	c0.089,0.066,0.178,0.126,0.237,0.184c0.236,0.155,0.457,0.325,0.664,0.51c0.303,0.222,0.575,0.465,0.833,0.723
	c0.163,0.148,0.311,0.288,0.45,0.443c0.215,0.215,0.399,0.421,0.576,0.634c0.185,0.215,0.354,0.437,0.531,0.649
	c0.126,0.164,0.229,0.304,0.34,0.488c0.523,0.76,0.959,1.571,1.321,2.413c0.059,0.185,0.147,0.339,0.198,0.523
	c0.104,0.236,0.186,0.503,0.273,0.76c0.067,0.222,0.126,0.437,0.185,0.665c0.236,0.871,0.377,1.793,0.428,2.753
	C601.391,288.193,601.391,288.438,601.391,288.681"/>
<radialGradient id="SVGID_12_" cx="-275.5366" cy="626.8613" r="6.0212" gradientTransform="matrix(0.709 0 0 0.709 799.6421 -292.7129)" gradientUnits="userSpaceOnUse">
	<stop  offset="0" style="stop-color:#FD6729"/>
	<stop  offset="0.2374" style="stop-color:#FD6329"/>
	<stop  offset="0.4612" style="stop-color:#FC582B"/>
	<stop  offset="0.6795" style="stop-color:#FC452D"/>
	<stop  offset="0.8931" style="stop-color:#FB2A30"/>
	<stop  offset="1" style="stop-color:#FA1A32"/>
</radialGradient>
<path fill="url(#SVGID_12_)" d="M600.019,151.725c0,0.075,0,0.142,0,0.222c0.008,0.089,0.015,0.178,0.022,0.259
	c0.014,0.059,0.014,0.111,0.021,0.169c0.015,0.066,0.022,0.142,0.037,0.215c0.015,0.066,0.037,0.133,0.052,0.206
	c0.022,0.066,0.037,0.134,0.059,0.2c0.015,0.066,0.037,0.126,0.066,0.192c0.037,0.117,0.081,0.229,0.134,0.339
	c0.103,0.199,0.214,0.398,0.331,0.583c0.044,0.059,0.082,0.118,0.118,0.169c0.045,0.053,0.089,0.111,0.133,0.163
	c0.082,0.103,0.178,0.207,0.273,0.302c0.044,0.045,0.096,0.089,0.147,0.141c0.273,0.243,0.576,0.458,0.915,0.636
	c0.059,0.028,0.104,0.051,0.163,0.08c0.044,0.015,0.088,0.037,0.132,0.053c0.052,0.028,0.104,0.051,0.155,0.066
	c0.229,0.08,0.45,0.146,0.687,0.19c0.066,0.016,0.126,0.022,0.192,0.031c0.206,0.028,0.413,0.051,0.627,0.051
	c2.361,0,4.272-1.911,4.272-4.267c0-2.36-1.911-4.271-4.272-4.271c-0.104,0-0.214,0.007-0.317,0.014
	c-0.104,0.009-0.214,0.022-0.31,0.044c-0.074,0-0.148,0.009-0.214,0.031c-0.104,0.021-0.193,0.035-0.281,0.066
	c-0.021,0.007-0.044,0.007-0.059,0.014c-0.104,0.03-0.215,0.066-0.325,0.104c-0.052,0.022-0.104,0.045-0.155,0.066
	c-0.059,0.029-0.109,0.052-0.177,0.073c-0.11,0.06-0.214,0.118-0.317,0.178c-0.089,0.051-0.178,0.104-0.251,0.162
	c-0.029,0.015-0.059,0.037-0.081,0.053c-0.066,0.051-0.133,0.096-0.199,0.155c-0.089,0.064-0.177,0.14-0.258,0.229
	c-0.045,0.035-0.097,0.088-0.133,0.133c-0.066,0.066-0.126,0.124-0.178,0.199c-0.059,0.066-0.11,0.124-0.17,0.198
	c-0.036,0.044-0.066,0.088-0.096,0.141c-0.162,0.235-0.303,0.486-0.413,0.752c-0.015,0.045-0.044,0.104-0.06,0.148
	c-0.029,0.082-0.051,0.162-0.081,0.243c-0.021,0.067-0.036,0.134-0.059,0.207c-0.074,0.266-0.118,0.554-0.133,0.842
	C600.019,151.578,600.019,151.651,600.019,151.725"/>
<radialGradient id="SVGID_13_" cx="-299.373" cy="634.2939" r="7.5313" gradientTransform="matrix(0.709 0 0 0.709 799.6421 -292.7129)" gradientUnits="userSpaceOnUse">
	<stop  offset="0" style="stop-color:#FD6729"/>
	<stop  offset="0.2374" style="stop-color:#FD6329"/>
	<stop  offset="0.4612" style="stop-color:#FC582B"/>
	<stop  offset="0.6795" style="stop-color:#FC452D"/>
	<stop  offset="0.8931" style="stop-color:#FB2A30"/>
	<stop  offset="1" style="stop-color:#FA1A32"/>
</radialGradient>
<path fill="url(#SVGID_13_)" d="M582.049,156.995c0,0.089,0,0.178,0.007,0.272c0,0.111,0.015,0.222,0.021,0.333
	c0.016,0.066,0.016,0.133,0.03,0.199c0.015,0.096,0.022,0.185,0.051,0.265c0.016,0.089,0.038,0.177,0.06,0.266
	c0.022,0.075,0.045,0.163,0.066,0.244c0.022,0.081,0.052,0.161,0.081,0.25c0.053,0.148,0.118,0.288,0.178,0.428
	c0.125,0.244,0.258,0.488,0.42,0.725c0.045,0.066,0.097,0.14,0.147,0.206c0.045,0.073,0.104,0.141,0.155,0.199
	c0.104,0.134,0.214,0.258,0.347,0.384c0.052,0.06,0.118,0.118,0.186,0.171c0.339,0.309,0.723,0.583,1.144,0.803
	c0.066,0.03,0.133,0.06,0.191,0.089c0.059,0.03,0.119,0.06,0.178,0.074c0.066,0.029,0.125,0.059,0.199,0.081
	c0.272,0.104,0.561,0.186,0.848,0.243c0.082,0.016,0.163,0.022,0.244,0.038c0.258,0.035,0.517,0.066,0.79,0.066
	c2.944,0,5.335-2.392,5.335-5.336c0-2.952-2.391-5.344-5.335-5.344c-0.141,0-0.273,0.007-0.398,0.016
	c-0.134,0.014-0.267,0.036-0.392,0.051c-0.096,0-0.185,0.022-0.272,0.052c-0.126,0.015-0.244,0.037-0.354,0.074
	c-0.022,0.007-0.053,0.007-0.074,0.022c-0.125,0.036-0.266,0.08-0.391,0.133c-0.074,0.022-0.133,0.052-0.199,0.08
	c-0.074,0.031-0.141,0.066-0.222,0.089c-0.14,0.073-0.272,0.148-0.406,0.229c-0.11,0.06-0.214,0.119-0.31,0.192
	c-0.037,0.022-0.066,0.045-0.096,0.066c-0.089,0.06-0.17,0.126-0.258,0.199c-0.104,0.081-0.215,0.178-0.318,0.28
	c-0.059,0.053-0.117,0.11-0.17,0.17c-0.081,0.082-0.154,0.155-0.222,0.235c-0.073,0.089-0.14,0.171-0.199,0.259
	c-0.051,0.06-0.096,0.118-0.132,0.185c-0.207,0.288-0.369,0.605-0.51,0.931c-0.029,0.058-0.051,0.125-0.073,0.191
	c-0.044,0.097-0.074,0.199-0.111,0.295c-0.021,0.088-0.044,0.17-0.066,0.259c-0.096,0.339-0.147,0.693-0.162,1.055
	C582.049,156.81,582.049,156.898,582.049,156.995"/>
<radialGradient id="SVGID_14_" cx="-326.9829" cy="640.5332" r="9.0354" gradientTransform="matrix(0.709 0 0 0.709 799.6421 -292.7129)" gradientUnits="userSpaceOnUse">
	<stop  offset="0" style="stop-color:#FD6729"/>
	<stop  offset="0.2374" style="stop-color:#FD6329"/>
	<stop  offset="0.4612" style="stop-color:#FC582B"/>
	<stop  offset="0.6795" style="stop-color:#FC452D"/>
	<stop  offset="0.8931" style="stop-color:#FB2A30"/>
	<stop  offset="1" style="stop-color:#FA1A32"/>
</radialGradient>
<path fill="url(#SVGID_14_)" d="M561.406,161.415c0,0.118,0,0.222,0,0.333c0.008,0.14,0.022,0.266,0.037,0.405
	c0.015,0.073,0.022,0.162,0.029,0.235c0.022,0.111,0.037,0.215,0.066,0.311c0.015,0.11,0.045,0.214,0.066,0.316
	c0.029,0.104,0.06,0.208,0.089,0.304c0.022,0.104,0.06,0.199,0.096,0.295c0.059,0.17,0.133,0.348,0.214,0.51
	c0.141,0.295,0.311,0.59,0.502,0.871c0.052,0.08,0.111,0.169,0.178,0.257c0.051,0.075,0.125,0.162,0.184,0.229
	c0.126,0.164,0.267,0.319,0.414,0.466c0.066,0.074,0.141,0.14,0.221,0.206c0.414,0.37,0.871,0.694,1.373,0.96
	c0.081,0.037,0.162,0.074,0.236,0.11c0.066,0.03,0.14,0.06,0.214,0.089c0.073,0.037,0.155,0.066,0.229,0.096
	c0.34,0.126,0.68,0.222,1.033,0.288c0.089,0.021,0.185,0.03,0.28,0.044c0.311,0.045,0.627,0.082,0.945,0.082
	c3.534,0,6.406-2.871,6.406-6.406s-2.872-6.405-6.406-6.405c-0.163,0-0.318,0.007-0.479,0.021c-0.155,0.016-0.317,0.038-0.466,0.052
	c-0.109,0.016-0.214,0.037-0.324,0.06c-0.154,0.029-0.288,0.051-0.421,0.104c-0.029,0-0.066,0.007-0.088,0.014
	c-0.163,0.045-0.317,0.104-0.48,0.171c-0.073,0.021-0.155,0.058-0.229,0.089c-0.089,0.035-0.177,0.073-0.273,0.103
	c-0.162,0.097-0.324,0.177-0.479,0.273c-0.134,0.08-0.26,0.154-0.377,0.235c-0.037,0.029-0.074,0.06-0.118,0.082
	c-0.104,0.073-0.199,0.146-0.303,0.235c-0.133,0.104-0.259,0.222-0.376,0.339c-0.074,0.066-0.155,0.134-0.214,0.208
	c-0.089,0.096-0.186,0.185-0.259,0.287c-0.096,0.097-0.17,0.199-0.243,0.31c-0.066,0.066-0.111,0.133-0.163,0.215
	c-0.243,0.354-0.442,0.729-0.605,1.114c-0.036,0.081-0.066,0.155-0.095,0.236c-0.053,0.117-0.089,0.236-0.126,0.354
	c-0.029,0.104-0.06,0.199-0.089,0.302c-0.104,0.414-0.177,0.835-0.199,1.276C561.406,161.193,561.406,161.305,561.406,161.415"/>
<radialGradient id="SVGID_15_" cx="-393.0317" cy="660.9102" r="12.0422" gradientTransform="matrix(0.709 0 0 0.709 799.6421 -292.7129)" gradientUnits="userSpaceOnUse">
	<stop  offset="0" style="stop-color:#FD6729"/>
	<stop  offset="0.2374" style="stop-color:#FD6329"/>
	<stop  offset="0.4612" style="stop-color:#FC582B"/>
	<stop  offset="0.6795" style="stop-color:#FC452D"/>
	<stop  offset="0.8931" style="stop-color:#FB2A30"/>
	<stop  offset="1" style="stop-color:#FA1A32"/>
</radialGradient>
<path fill="url(#SVGID_15_)" d="M512.442,175.865c0,0.155,0,0.288,0,0.435c0.008,0.192,0.026,0.363,0.048,0.532
	c0.019,0.11,0.022,0.221,0.041,0.325c0.019,0.146,0.044,0.295,0.08,0.428c0.026,0.133,0.063,0.279,0.094,0.412
	c0.036,0.134,0.073,0.281,0.117,0.406c0.033,0.133,0.077,0.266,0.133,0.392c0.074,0.229,0.174,0.464,0.277,0.679
	c0.188,0.405,0.413,0.789,0.664,1.159c0.077,0.117,0.158,0.235,0.239,0.346c0.077,0.111,0.166,0.215,0.255,0.317
	c0.162,0.208,0.344,0.414,0.55,0.605c0.081,0.097,0.191,0.186,0.299,0.281c0.542,0.494,1.155,0.929,1.829,1.276
	c0.103,0.051,0.214,0.104,0.309,0.146c0.089,0.038,0.192,0.089,0.281,0.119c0.104,0.045,0.207,0.096,0.31,0.133
	c0.45,0.169,0.9,0.295,1.373,0.384c0.126,0.029,0.251,0.036,0.376,0.059c0.414,0.06,0.835,0.097,1.263,0.097
	c4.723,0,8.546-3.823,8.546-8.531c0-4.724-3.823-8.538-8.546-8.538c-0.214,0-0.428,0.007-0.635,0.021
	c-0.214,0.022-0.421,0.045-0.628,0.073c-0.147,0.007-0.288,0.038-0.428,0.074c-0.206,0.037-0.384,0.066-0.568,0.133
	c-0.037,0.015-0.081,0.015-0.117,0.03c-0.2,0.066-0.422,0.133-0.636,0.222c-0.103,0.029-0.206,0.073-0.31,0.117
	c-0.118,0.052-0.229,0.103-0.361,0.147c-0.215,0.119-0.429,0.229-0.643,0.354c-0.175,0.11-0.338,0.206-0.496,0.316
	c-0.059,0.038-0.11,0.075-0.151,0.111c-0.14,0.097-0.276,0.199-0.409,0.316c-0.178,0.134-0.348,0.288-0.51,0.443
	c-0.092,0.089-0.191,0.185-0.276,0.273c-0.125,0.126-0.247,0.259-0.351,0.392c-0.118,0.133-0.222,0.266-0.325,0.398
	c-0.081,0.103-0.147,0.191-0.21,0.302c-0.324,0.466-0.594,0.967-0.813,1.491c-0.044,0.103-0.092,0.2-0.121,0.311
	c-0.066,0.154-0.118,0.317-0.17,0.464c-0.044,0.142-0.081,0.266-0.117,0.414c-0.141,0.546-0.236,1.1-0.263,1.698
	C512.442,175.577,512.442,175.717,512.442,175.865"/>
<radialGradient id="SVGID_16_" cx="-425.1631" cy="675.2158" r="13.5522" gradientTransform="matrix(0.709 0 0 0.709 799.6421 -292.7129)" gradientUnits="userSpaceOnUse">
	<stop  offset="0" style="stop-color:#FD6729"/>
	<stop  offset="0.2374" style="stop-color:#FD6329"/>
	<stop  offset="0.4612" style="stop-color:#FC582B"/>
	<stop  offset="0.6795" style="stop-color:#FC452D"/>
	<stop  offset="0.8931" style="stop-color:#FB2A30"/>
	<stop  offset="1" style="stop-color:#FA1A32"/>
</radialGradient>
<path fill="url(#SVGID_16_)" d="M488.594,186.006c0,0.176,0,0.323,0,0.494c0.008,0.213,0.033,0.405,0.06,0.597
	c0.015,0.119,0.025,0.252,0.04,0.361c0.022,0.17,0.052,0.332,0.097,0.48c0.025,0.162,0.066,0.324,0.1,0.473
	c0.044,0.147,0.084,0.31,0.129,0.457c0.036,0.147,0.092,0.287,0.151,0.436c0.089,0.266,0.199,0.532,0.317,0.768
	c0.206,0.45,0.461,0.893,0.745,1.306c0.085,0.133,0.177,0.266,0.27,0.384c0.088,0.119,0.188,0.243,0.28,0.362
	c0.185,0.229,0.395,0.464,0.623,0.679c0.089,0.11,0.214,0.213,0.336,0.317c0.609,0.554,1.304,1.041,2.056,1.438
	c0.118,0.053,0.24,0.11,0.351,0.163c0.107,0.045,0.214,0.103,0.321,0.133c0.114,0.052,0.231,0.103,0.347,0.147
	c0.506,0.199,1.015,0.332,1.542,0.428c0.141,0.044,0.28,0.053,0.425,0.066c0.465,0.082,0.94,0.117,1.417,0.117
	c5.31,0,9.612-4.302,9.612-9.606c0-5.315-4.303-9.609-9.612-9.609c-0.244,0-0.477,0-0.716,0.029
	c-0.236,0.016-0.473,0.044-0.701,0.082c-0.162,0.007-0.325,0.044-0.487,0.08c-0.222,0.053-0.432,0.082-0.635,0.155
	c-0.044,0.007-0.089,0.015-0.133,0.029c-0.229,0.074-0.473,0.154-0.712,0.243c-0.115,0.037-0.232,0.089-0.347,0.142
	c-0.137,0.058-0.263,0.11-0.406,0.162c-0.243,0.133-0.487,0.266-0.73,0.398c-0.195,0.118-0.38,0.235-0.561,0.354
	c-0.06,0.044-0.114,0.088-0.167,0.133c-0.158,0.104-0.306,0.222-0.457,0.354c-0.203,0.147-0.395,0.316-0.572,0.494
	c-0.106,0.104-0.218,0.199-0.317,0.311c-0.14,0.14-0.272,0.288-0.391,0.436c-0.133,0.154-0.251,0.302-0.365,0.45
	c-0.093,0.118-0.166,0.213-0.236,0.339c-0.365,0.523-0.671,1.093-0.915,1.676c-0.048,0.125-0.107,0.229-0.137,0.361
	c-0.073,0.162-0.133,0.347-0.195,0.523c-0.045,0.148-0.085,0.295-0.129,0.457c-0.159,0.606-0.263,1.241-0.296,1.912
	C488.594,185.68,488.594,185.842,488.594,186.006"/>
<radialGradient id="SVGID_17_" cx="-452.271" cy="700.3164" r="15.0579" gradientTransform="matrix(0.709 0 0 0.709 799.6421 -292.7129)" gradientUnits="userSpaceOnUse">
	<stop  offset="0" style="stop-color:#FD6729"/>
	<stop  offset="0.2374" style="stop-color:#FD6329"/>
	<stop  offset="0.4612" style="stop-color:#FC582B"/>
	<stop  offset="0.6795" style="stop-color:#FC452D"/>
	<stop  offset="0.8931" style="stop-color:#FB2A30"/>
	<stop  offset="1" style="stop-color:#FA1A32"/>
</radialGradient>
<path fill="url(#SVGID_17_)" d="M468.307,203.805c0,0.192,0,0.361,0,0.546c0.011,0.236,0.041,0.451,0.066,0.664
	c0.019,0.134,0.025,0.281,0.048,0.406c0.022,0.184,0.056,0.361,0.104,0.517c0.029,0.186,0.073,0.369,0.114,0.538
	c0.045,0.164,0.092,0.34,0.14,0.503c0.041,0.169,0.1,0.324,0.167,0.486c0.103,0.296,0.225,0.591,0.35,0.857
	c0.232,0.501,0.521,0.988,0.835,1.445c0.092,0.148,0.191,0.295,0.291,0.428c0.106,0.133,0.211,0.274,0.317,0.398
	c0.207,0.26,0.436,0.525,0.693,0.761c0.1,0.117,0.236,0.229,0.377,0.354c0.675,0.612,1.442,1.15,2.284,1.594
	c0.125,0.06,0.262,0.126,0.387,0.185c0.114,0.044,0.24,0.104,0.354,0.147c0.126,0.06,0.255,0.118,0.384,0.162
	c0.565,0.222,1.126,0.37,1.72,0.48c0.151,0.045,0.31,0.059,0.465,0.073c0.521,0.081,1.048,0.125,1.579,0.125
	c5.897,0,10.679-4.774,10.679-10.671c0-5.911-4.781-10.679-10.679-10.679c-0.27,0-0.531,0-0.793,0.03
	c-0.266,0.014-0.531,0.051-0.786,0.089c-0.181,0.007-0.358,0.051-0.542,0.096c-0.244,0.044-0.473,0.081-0.705,0.17
	c-0.044,0.014-0.092,0.022-0.144,0.029c-0.255,0.081-0.524,0.169-0.794,0.272c-0.129,0.044-0.258,0.096-0.384,0.148
	c-0.151,0.073-0.291,0.133-0.45,0.184c-0.269,0.155-0.542,0.295-0.812,0.443c-0.218,0.133-0.421,0.272-0.623,0.406
	c-0.066,0.044-0.13,0.088-0.182,0.133c-0.177,0.124-0.347,0.25-0.509,0.397c-0.229,0.17-0.443,0.354-0.635,0.554
	c-0.126,0.11-0.247,0.222-0.354,0.339c-0.158,0.164-0.303,0.326-0.439,0.487c-0.144,0.171-0.276,0.34-0.409,0.502
	c-0.1,0.126-0.174,0.236-0.258,0.376c-0.406,0.583-0.742,1.219-1.019,1.86c-0.048,0.141-0.114,0.259-0.147,0.398
	c-0.086,0.185-0.147,0.384-0.219,0.583c-0.048,0.17-0.095,0.332-0.14,0.517c-0.181,0.672-0.291,1.372-0.332,2.118
	C468.307,203.437,468.307,203.613,468.307,203.805"/>
<radialGradient id="SVGID_18_" cx="-472.8496" cy="740.2256" r="16.5645" gradientTransform="matrix(0.709 0 0 0.709 799.6421 -292.7129)" gradientUnits="userSpaceOnUse">
	<stop  offset="0" style="stop-color:#FD6729"/>
	<stop  offset="0.2374" style="stop-color:#FD6329"/>
	<stop  offset="0.4612" style="stop-color:#FC582B"/>
	<stop  offset="0.6795" style="stop-color:#FC452D"/>
	<stop  offset="0.8931" style="stop-color:#FB2A30"/>
	<stop  offset="1" style="stop-color:#FA1A32"/>
</radialGradient>
<path fill="url(#SVGID_18_)" d="M452.649,232.092c0,0.222,0,0.406,0,0.605c0.005,0.258,0.038,0.494,0.063,0.729
	c0.025,0.148,0.033,0.311,0.059,0.45c0.022,0.199,0.06,0.399,0.115,0.569c0.033,0.206,0.081,0.405,0.125,0.583
	c0.048,0.185,0.096,0.377,0.151,0.561c0.048,0.185,0.114,0.361,0.185,0.532c0.114,0.324,0.251,0.649,0.387,0.936
	c0.255,0.554,0.568,1.093,0.919,1.596c0.1,0.162,0.211,0.331,0.321,0.472c0.111,0.147,0.229,0.309,0.344,0.442
	c0.229,0.288,0.483,0.568,0.767,0.835c0.107,0.133,0.263,0.25,0.414,0.39c0.741,0.672,1.582,1.271,2.513,1.758
	c0.14,0.058,0.287,0.132,0.424,0.198c0.125,0.044,0.263,0.119,0.392,0.163c0.136,0.059,0.28,0.125,0.424,0.185
	c0.616,0.235,1.236,0.398,1.89,0.516c0.162,0.052,0.336,0.067,0.513,0.089c0.568,0.089,1.151,0.14,1.734,0.14
	c6.483,0,11.749-5.262,11.749-11.748c0-6.501-5.266-11.741-11.749-11.741c-0.295,0-0.583,0-0.87,0.036
	c-0.296,0.016-0.583,0.053-0.864,0.098c-0.199,0.007-0.398,0.051-0.598,0.103c-0.27,0.051-0.52,0.088-0.774,0.184
	c-0.048,0.022-0.104,0.03-0.159,0.037c-0.28,0.089-0.579,0.185-0.871,0.295c-0.144,0.053-0.288,0.111-0.424,0.171
	c-0.166,0.08-0.325,0.133-0.495,0.199c-0.299,0.169-0.597,0.324-0.896,0.486c-0.235,0.147-0.461,0.296-0.683,0.442
	c-0.074,0.053-0.144,0.104-0.202,0.155c-0.192,0.133-0.381,0.273-0.558,0.437c-0.255,0.184-0.487,0.391-0.701,0.605
	c-0.137,0.124-0.266,0.242-0.388,0.375c-0.173,0.177-0.332,0.354-0.483,0.538c-0.158,0.186-0.302,0.37-0.446,0.555
	c-0.11,0.133-0.195,0.25-0.288,0.414c-0.446,0.641-0.812,1.327-1.118,2.035c-0.055,0.155-0.129,0.288-0.17,0.443
	c-0.088,0.199-0.154,0.428-0.235,0.643c-0.056,0.184-0.104,0.368-0.151,0.561c-0.196,0.738-0.324,1.512-0.362,2.332
	C452.649,231.693,452.649,231.893,452.649,232.092"/>
<radialGradient id="SVGID_19_" cx="-472.8521" cy="782.6367" r="18.0701" gradientTransform="matrix(0.709 0 0 0.709 799.6421 -292.7129)" gradientUnits="userSpaceOnUse">
	<stop  offset="0" style="stop-color:#FD6729"/>
	<stop  offset="0.2374" style="stop-color:#FD6329"/>
	<stop  offset="0.4612" style="stop-color:#FC582B"/>
	<stop  offset="0.6795" style="stop-color:#FC452D"/>
	<stop  offset="0.8931" style="stop-color:#FB2A30"/>
	<stop  offset="1" style="stop-color:#FA1A32"/>
</radialGradient>
<path fill="url(#SVGID_19_)" d="M451.58,262.164c0,0.237,0,0.437,0,0.657c0.008,0.287,0.044,0.538,0.07,0.797
	c0.029,0.155,0.036,0.34,0.063,0.487c0.025,0.222,0.066,0.442,0.125,0.619c0.037,0.237,0.093,0.443,0.137,0.643
	c0.056,0.199,0.11,0.406,0.166,0.612c0.052,0.199,0.125,0.392,0.203,0.583c0.122,0.354,0.27,0.702,0.421,1.02
	c0.28,0.598,0.62,1.188,1,1.741c0.114,0.169,0.229,0.354,0.351,0.517c0.125,0.155,0.251,0.331,0.38,0.479
	c0.247,0.31,0.521,0.62,0.834,0.908c0.118,0.146,0.284,0.265,0.45,0.428c0.812,0.723,1.727,1.379,2.742,1.911
	c0.147,0.066,0.316,0.148,0.464,0.222c0.133,0.051,0.284,0.126,0.421,0.177c0.151,0.066,0.31,0.133,0.465,0.2
	c0.675,0.257,1.351,0.435,2.063,0.567c0.178,0.051,0.369,0.066,0.561,0.089c0.617,0.104,1.255,0.154,1.894,0.154
	c7.074,0,12.815-5.74,12.815-12.812c0-7.091-5.741-12.812-12.815-12.812c-0.325,0-0.639,0-0.952,0.038
	c-0.324,0.015-0.639,0.066-0.941,0.11c-0.221,0.007-0.435,0.052-0.652,0.103c-0.295,0.06-0.568,0.104-0.845,0.199
	c-0.056,0.03-0.11,0.045-0.178,0.045c-0.302,0.104-0.627,0.207-0.948,0.325c-0.155,0.058-0.313,0.124-0.465,0.184
	c-0.174,0.089-0.347,0.148-0.535,0.215c-0.324,0.185-0.652,0.361-0.978,0.539c-0.259,0.162-0.506,0.324-0.745,0.486
	c-0.081,0.052-0.155,0.104-0.218,0.163c-0.211,0.14-0.418,0.295-0.612,0.479c-0.273,0.2-0.532,0.421-0.764,0.657
	c-0.148,0.141-0.292,0.266-0.422,0.414c-0.191,0.19-0.364,0.383-0.53,0.582c-0.17,0.207-0.325,0.406-0.487,0.605
	c-0.122,0.146-0.215,0.272-0.314,0.45c-0.486,0.7-0.885,1.454-1.217,2.221c-0.06,0.171-0.141,0.311-0.182,0.488
	c-0.103,0.213-0.173,0.456-0.262,0.7c-0.056,0.199-0.11,0.398-0.166,0.612c-0.218,0.805-0.351,1.653-0.395,2.539
	C451.58,261.722,451.58,261.943,451.58,262.164"/>
<radialGradient id="SVGID_20_" cx="-447.0923" cy="820.0322" r="19.5759" gradientTransform="matrix(0.709 0 0 0.709 799.6421 -292.7129)" gradientUnits="userSpaceOnUse">
	<stop  offset="0" style="stop-color:#FD6729"/>
	<stop  offset="0.2374" style="stop-color:#FD6329"/>
	<stop  offset="0.4612" style="stop-color:#FC582B"/>
	<stop  offset="0.6795" style="stop-color:#FC452D"/>
	<stop  offset="0.8931" style="stop-color:#FB2A30"/>
	<stop  offset="1" style="stop-color:#FA1A32"/>
</radialGradient>
<path fill="url(#SVGID_20_)" d="M468.775,288.681c0,0.251,0,0.464,0,0.708c0.008,0.31,0.048,0.583,0.077,0.864
	c0.03,0.168,0.041,0.368,0.07,0.531c0.022,0.235,0.069,0.473,0.133,0.672c0.041,0.242,0.1,0.472,0.147,0.692
	c0.059,0.214,0.118,0.442,0.185,0.657c0.056,0.214,0.129,0.428,0.218,0.635c0.129,0.383,0.291,0.76,0.454,1.107
	c0.306,0.649,0.672,1.283,1.084,1.882c0.122,0.185,0.252,0.384,0.381,0.553c0.133,0.177,0.269,0.361,0.413,0.524
	c0.262,0.34,0.561,0.672,0.9,0.989c0.129,0.155,0.307,0.288,0.487,0.457c0.878,0.789,1.874,1.498,2.97,2.081
	c0.163,0.066,0.34,0.162,0.506,0.229c0.144,0.066,0.307,0.148,0.457,0.192c0.163,0.073,0.336,0.146,0.502,0.213
	c0.73,0.288,1.462,0.48,2.232,0.62c0.192,0.06,0.402,0.074,0.605,0.104c0.672,0.103,1.362,0.162,2.056,0.162
	c7.664,0,13.882-6.222,13.882-13.874c0-7.69-6.218-13.882-13.882-13.882c-0.354,0-0.693,0-1.033,0.037
	c-0.351,0.022-0.69,0.066-1.022,0.118c-0.236,0.007-0.465,0.06-0.704,0.117c-0.321,0.06-0.617,0.111-0.915,0.215
	c-0.06,0.029-0.122,0.036-0.188,0.052c-0.333,0.104-0.683,0.214-1.03,0.354c-0.166,0.06-0.339,0.133-0.502,0.19
	c-0.191,0.097-0.38,0.164-0.583,0.237c-0.354,0.199-0.704,0.383-1.059,0.583c-0.28,0.17-0.546,0.348-0.808,0.517
	c-0.085,0.066-0.17,0.126-0.236,0.184c-0.229,0.155-0.45,0.325-0.664,0.51c-0.299,0.222-0.576,0.465-0.823,0.723
	c-0.166,0.148-0.317,0.288-0.461,0.443c-0.207,0.215-0.396,0.421-0.571,0.634c-0.188,0.215-0.355,0.437-0.528,0.649
	c-0.129,0.164-0.229,0.304-0.34,0.488c-0.527,0.76-0.963,1.571-1.321,2.413c-0.062,0.185-0.15,0.339-0.195,0.523
	c-0.11,0.236-0.188,0.503-0.28,0.76c-0.066,0.222-0.126,0.437-0.185,0.665c-0.232,0.871-0.38,1.793-0.428,2.753
	C468.775,288.193,468.775,288.438,468.775,288.681"/>
<radialGradient id="SVGID_21_" cx="-365.8945" cy="1225.2646" r="306.1462" gradientTransform="matrix(0.709 0 0 0.709 799.6421 -292.7129)" gradientUnits="userSpaceOnUse">
	<stop  offset="0" style="stop-color:#FD6729"/>
	<stop  offset="0.2374" style="stop-color:#FD6329"/>
	<stop  offset="0.4612" style="stop-color:#FC582B"/>
	<stop  offset="0.6795" style="stop-color:#FC452D"/>
	<stop  offset="0.8931" style="stop-color:#FB2A30"/>
	<stop  offset="1" style="stop-color:#FA1A32"/>
</radialGradient>
<path fill-rule="evenodd" clip-rule="evenodd" fill="url(#SVGID_21_)" d="M746.532,377.784
	c-17.482-16.509-41.534-16.575-60.979-1.276c-3.02,2.376-9.107,9.992-9.905,0.561c-1.144-13.505-9.128-11.956-17.512-11.956
	c-77.711-0.028-155.424,0.199-233.135-0.22c-13.266-0.066-22.291,2.073-19.579,20.021c-3.398-2.028-4.738-2.479-5.579-3.387
	c-15.122-16.177-33.397-21.151-53.486-11.992c-20.804,9.489-29.505,27.217-28.97,50.006c0.587,25.187,12.048,45.599,28.092,63.532
	c23.818,26.635,51.099,49.791,76.995,74.344c8.417,7.986,16.723,16.097,24.771,24.442c3.155,3.27,5.225,7.667,3.195,12.288
	c-2.387,5.438-7.28,4.169-11.634,3.121c-6.868-1.646-13.03-0.834-15.273,6.627c-2.421,8.051,3.266,12.436,9.528,15.564
	c13.785,6.9,29.829,1.181,38.766-13.58c2.336-3.859,3.609-11.231,10.022-4.818c10.173,10.162,22.369,17.794,32.87,27.438
	c11.973,10.98,13.396,24.752,4.105,38.205c-4.817,6.981-4.515,12.479,0.199,19.424c8.021,11.815,1.867,66.427-7.865,75.976
	c-0.317,0.311-0.612,0.752-1,0.878c-17.623,5.639-33.778,13.838-49.988,22.906c63.399-0.124,129.074,0.192,141.17,1.182
	c7.048,0.008,17.978-0.118,16.619-0.096c-1.048,0.022-2.384-1.284-3.159-2.296c-6.943-9.128-17.438-13.667-27.49-15.519
	c-16.508-3.048-22.796-13.337-25.608-27.594c-3.926-19.903-11.342-39.977,2.029-59.422c3.521-5.138,1.232-10.015-1.91-14.856
	c-9.846-15.15-8.377-27.97,5.092-40.22c8.575-7.801,18.449-14.178,26.812-22.177c6.93-6.635,10.339-7.202,15.291,2.229
	c7.579,14.435,25.55,19.269,39.076,11.896c5.765-3.137,10.79-7.417,8.716-14.805c-2.118-7.557-8.088-8.598-15.025-6.995
	c-4.316,0.995-9.188,2.486-11.808-2.805c-2.229-4.479-0.45-8.923,2.317-12.523c2.687-3.499,6.052-6.503,9.269-9.558
	c31.425-29.777,64.007-58.359,93.837-89.783c12.501-13.165,21.313-28.773,25.365-46.552
	C765.676,414.403,763.617,393.916,746.532,377.784z M439.437,540.745c-7.491-6.485-14.089-11.446-19.801-17.275
	c-21.789-22.236-48.169-39.889-65.818-66.264c-6.052-9.04-10.085-18.878-12.926-29.254c-2.454-8.96-1.794-17.645,2.801-25.925
	c6.934-12.495,18.734-17.084,30.316-11.66c12.122,5.675,16.639,18.553,11.052,31.688c-0.693,1.638-1.712,3.137-2.558,4.701
	c-3.247,6.044-4.405,12.073,2.052,16.655c5.938,4.216,11.266,1.609,15.292-3.238c7.347-8.855,10.668-5.373,12.316,3.668
	c5.713,31.298,14.853,61.554,27.215,90.859C439.827,535.765,439.437,537.181,439.437,540.745z M736.017,439.31
	c-4.827,12.679-12.222,24.08-21.956,33.21c-22.708,21.29-43.586,44.537-68.095,63.895c-0.923,0.729-2.392,0.76-6.436,1.948
	c13.55-32.995,23.04-64.419,29.195-96.816c1.299-6.827,4.62-8.442,9.705-2.678c4.774,5.438,10.42,9.409,17.343,4.435
	c7.955-5.727,3.498-12.243,0.31-18.855c-7.151-14.819-2.236-29.099,11.395-34.597c12.768-5.151,25.697,1.829,31.276,16.951
	C742.901,418.041,740.023,428.787,736.017,439.31z"/>
<radialGradient id="SVGID_22_" cx="-373.1431" cy="745.877" r="62.1615" gradientTransform="matrix(0.709 0 0 0.709 799.6421 -292.7129)" gradientUnits="userSpaceOnUse">
	<stop  offset="0" style="stop-color:#FD6729"/>
	<stop  offset="0.2374" style="stop-color:#FD6329"/>
	<stop  offset="0.4612" style="stop-color:#FC582B"/>
	<stop  offset="0.6795" style="stop-color:#FC452D"/>
	<stop  offset="0.8931" style="stop-color:#FB2A30"/>
	<stop  offset="1" style="stop-color:#FA1A32"/>
</radialGradient>
<path fill-rule="evenodd" clip-rule="evenodd" fill="url(#SVGID_22_)" d="M507.17,279.079c0.158-0.93,0.295-1.778,0.442-2.627
	c0.871-5.092,1.745-10.185,2.62-15.27c0.73-4.265,1.457-8.531,2.199-12.796c0.052-0.28,0-0.457-0.203-0.665
	c-4.554-4.427-9.1-8.855-13.649-13.291c-2.774-2.708-5.55-5.417-8.328-8.117c-0.089-0.081-0.203-0.148-0.307-0.222
	c0.019-0.044,0.033-0.088,0.052-0.14c0.51-0.082,1.022-0.17,1.535-0.243c5.531-0.805,11.066-1.603,16.598-2.407
	c4.191-0.605,8.384-1.217,12.577-1.822c0.317-0.044,0.487-0.17,0.627-0.457c2.79-5.676,5.595-11.357,8.398-17.033
	c1.543-3.128,3.107-6.258,4.657-9.388c0.229-0.464,0.45-0.929,0.708-1.476c0.318,0.62,0.599,1.166,0.871,1.72
	c4.311,8.73,8.612,17.453,12.907,26.184c0.163,0.324,0.369,0.413,0.687,0.457c3.313,0.48,6.635,0.968,9.956,1.447
	c3.815,0.554,7.638,1.106,11.453,1.66c2.915,0.428,5.83,0.855,8.745,1.276c0.163,0.022,0.332,0.052,0.51,0.082
	c-0.568,0.597-1.1,1.173-1.66,1.719c-6.834,6.664-13.676,13.336-20.517,19.992c-0.244,0.236-0.317,0.443-0.259,0.783
	c0.886,5.084,1.757,10.169,2.635,15.261c0.856,4.996,1.712,9.992,2.562,14.988c0.014,0.104,0,0.206,0,0.377
	c-1.012-0.525-1.985-1.033-2.96-1.543c-5.32-2.797-10.642-5.601-15.97-8.398c-2.856-1.505-5.72-3.003-8.568-4.517
	c-0.288-0.154-0.494-0.14-0.775,0.008c-9.003,4.746-18.007,9.476-27.012,14.206C507.554,278.91,507.395,278.976,507.17,279.079z
	 M537.208,240.638c0.17,0.066,0.221,0.088,0.28,0.104c5.889,1.918,11.786,3.837,17.682,5.764c0.296,0.095,0.429-0.038,0.599-0.207
	c5.652-5.506,11.306-11.018,16.959-16.53c0.303-0.295,0.605-0.599,0.908-0.894c-0.008-0.022-0.022-0.044-0.038-0.06
	C561.502,232.741,549.407,236.674,537.208,240.638z M533.385,239.42c-0.073-0.133-0.089-0.177-0.118-0.222
	c-3.66-5.033-7.313-10.065-10.981-15.092c-0.088-0.125-0.347-0.206-0.509-0.185c-1.734,0.237-3.469,0.495-5.193,0.745
	c-5.831,0.849-11.657,1.691-17.483,2.54c-0.701,0.103-1.398,0.206-2.096,0.309c0,0.022,0,0.053,0,0.053
	C509.106,231.523,521.201,235.457,533.385,239.42z M510.863,272.769c0.029,0.009,0.07,0.016,0.103,0.016
	c7.452-10.258,14.906-20.517,22.427-30.87c-0.2,0.044-0.281,0.052-0.348,0.073c-5.867,1.904-11.734,3.809-17.592,5.734
	c-0.158,0.053-0.343,0.274-0.372,0.443c-0.494,2.804-0.971,5.616-1.451,8.413c-0.741,4.332-1.486,8.656-2.229,12.987
	C511.218,270.629,511.04,271.7,510.863,272.769z M535.776,242.652c-0.016,0.215-0.022,0.281-0.022,0.339
	c0,6.162,0,12.324-0.008,18.486c0,0.304,0.118,0.443,0.369,0.569c3.616,1.896,7.225,3.793,10.834,5.696
	c3.646,1.911,7.306,3.838,10.952,5.75c0.096,0.051,0.206,0.089,0.405,0.169C550.779,263.302,543.318,253.036,535.776,242.652z
	 M535.769,238.623c0.118-0.147,0.177-0.214,0.229-0.288c3.615-4.975,7.231-9.955,10.855-14.93c0.17-0.229,0.155-0.398,0.037-0.634
	c-3.631-7.351-7.262-14.709-10.893-22.065c-0.053-0.098-0.127-0.185-0.229-0.348C535.769,213.141,535.769,225.833,535.769,238.623z"
	/>
<radialGradient id="SVGID_23_" cx="-825.6787" cy="952.1533" r="62.1613" gradientTransform="matrix(0.709 0 0 0.709 799.6421 -292.7129)" gradientUnits="userSpaceOnUse">
	<stop  offset="0" style="stop-color:#FD6729"/>
	<stop  offset="0.2374" style="stop-color:#FD6329"/>
	<stop  offset="0.4612" style="stop-color:#FC582B"/>
	<stop  offset="0.6795" style="stop-color:#FC452D"/>
	<stop  offset="0.8931" style="stop-color:#FB2A30"/>
	<stop  offset="1" style="stop-color:#FA1A32"/>
</radialGradient>
<path fill-rule="evenodd" clip-rule="evenodd" fill="url(#SVGID_23_)" d="M186.326,425.325c0.158-0.93,0.295-1.778,0.438-2.627
	c0.875-5.093,1.749-10.185,2.62-15.27c0.734-4.265,1.462-8.531,2.203-12.796c0.048-0.28,0-0.457-0.207-0.665
	c-4.55-4.427-9.1-8.855-13.646-13.291c-2.774-2.708-5.549-5.417-8.328-8.117c-0.088-0.082-0.202-0.148-0.31-0.222
	c0.021-0.044,0.036-0.088,0.052-0.14c0.513-0.082,1.025-0.17,1.538-0.244c5.532-0.804,11.066-1.602,16.598-2.406
	c4.192-0.605,8.38-1.217,12.575-1.822c0.318-0.044,0.487-0.17,0.628-0.457c2.793-5.676,5.59-11.357,8.395-17.033
	c1.55-3.129,3.111-6.258,4.664-9.388c0.229-0.464,0.446-0.929,0.705-1.476c0.316,0.62,0.598,1.166,0.874,1.72
	c4.307,8.73,8.612,17.453,12.907,26.184c0.159,0.324,0.366,0.413,0.683,0.457c3.318,0.48,6.639,0.967,9.956,1.447
	c3.819,0.554,7.635,1.106,11.454,1.66c2.915,0.428,5.83,0.855,8.741,1.276c0.17,0.022,0.336,0.06,0.513,0.082
	c-0.568,0.597-1.096,1.173-1.656,1.719c-6.838,6.664-13.679,13.336-20.521,19.992c-0.243,0.235-0.316,0.443-0.262,0.783
	c0.89,5.084,1.764,10.169,2.635,15.261c0.86,4.996,1.712,9.992,2.568,14.988c0.015,0.104,0,0.206,0,0.377
	c-1.012-0.525-1.989-1.033-2.96-1.543c-5.324-2.797-10.649-5.602-15.974-8.398c-2.855-1.505-5.716-3.003-8.568-4.517
	c-0.288-0.155-0.494-0.14-0.778,0.008c-8.996,4.746-18.004,9.476-27.007,14.206C186.71,425.154,186.551,425.222,186.326,425.325z
	 M216.362,386.884c0.17,0.066,0.222,0.095,0.276,0.104c5.897,1.918,11.794,3.837,17.683,5.764c0.299,0.095,0.429-0.038,0.603-0.207
	c5.648-5.506,11.306-11.018,16.962-16.53c0.303-0.295,0.605-0.599,0.908-0.894c-0.015-0.022-0.03-0.044-0.041-0.06
	C240.657,378.987,228.562,382.92,216.362,386.884z M212.539,385.666c-0.069-0.133-0.092-0.177-0.117-0.222
	c-3.661-5.033-7.313-10.065-10.982-15.092c-0.092-0.125-0.347-0.206-0.509-0.185c-1.734,0.237-3.464,0.495-5.191,0.745
	c-5.83,0.849-11.656,1.691-17.487,2.54c-0.697,0.103-1.395,0.206-2.096,0.309l0.004,0.053
	C188.26,377.77,200.359,381.703,212.539,385.666z M190.017,419.015c0.033,0.009,0.069,0.016,0.106,0.016
	c7.454-10.259,14.904-20.517,22.424-30.87c-0.203,0.044-0.276,0.051-0.351,0.073c-5.863,1.904-11.727,3.809-17.586,5.734
	c-0.163,0.053-0.344,0.274-0.373,0.443c-0.495,2.804-0.971,5.616-1.45,8.413c-0.746,4.332-1.49,8.656-2.232,12.987
	C190.374,416.875,190.192,417.946,190.017,419.015z M214.931,388.898c-0.015,0.215-0.026,0.281-0.026,0.339
	c0,6.162,0,12.324-0.003,18.486c0,0.304,0.118,0.443,0.369,0.569c3.616,1.896,7.221,3.793,10.833,5.696
	c3.649,1.911,7.303,3.838,10.956,5.75c0.096,0.051,0.199,0.089,0.405,0.169C229.931,409.548,222.47,399.282,214.931,388.898z
	 M214.923,384.868c0.122-0.146,0.178-0.213,0.229-0.287c3.615-4.975,7.232-9.955,10.855-14.93c0.17-0.229,0.155-0.398,0.041-0.634
	c-3.635-7.351-7.266-14.709-10.9-22.065c-0.048-0.098-0.122-0.186-0.226-0.348C214.923,359.387,214.923,372.079,214.923,384.868z"/>
<radialGradient id="SVGID_24_" cx="74.9976" cy="927.5273" r="62.1605" gradientTransform="matrix(0.709 0 0 0.709 799.6421 -292.7129)" gradientUnits="userSpaceOnUse">
	<stop  offset="0" style="stop-color:#FD6729"/>
	<stop  offset="0.2374" style="stop-color:#FD6329"/>
	<stop  offset="0.4612" style="stop-color:#FC582B"/>
	<stop  offset="0.6795" style="stop-color:#FC452D"/>
	<stop  offset="0.8931" style="stop-color:#FB2A30"/>
	<stop  offset="1" style="stop-color:#FA1A32"/>
</radialGradient>
<path fill-rule="evenodd" clip-rule="evenodd" fill="url(#SVGID_24_)" d="M824.9,407.865c0.154-0.931,0.295-1.779,0.436-2.629
	c0.878-5.091,1.749-10.183,2.619-15.268c0.738-4.267,1.462-8.531,2.207-12.797c0.044-0.28,0-0.458-0.206-0.664
	c-4.554-4.429-9.101-8.855-13.646-13.291c-2.775-2.708-5.551-5.417-8.332-8.118c-0.089-0.081-0.2-0.147-0.303-0.222
	c0.015-0.043,0.029-0.088,0.044-0.141c0.517-0.08,1.025-0.169,1.542-0.243c5.528-0.805,11.063-1.601,16.598-2.405
	c4.191-0.605,8.377-1.218,12.576-1.822c0.316-0.045,0.486-0.171,0.627-0.458c2.79-5.675,5.587-11.358,8.391-17.033
	c1.55-3.129,3.114-6.257,4.664-9.387c0.229-0.465,0.45-0.931,0.709-1.476c0.317,0.62,0.598,1.165,0.87,1.72
	c4.311,8.729,8.613,17.453,12.908,26.184c0.162,0.324,0.368,0.413,0.687,0.457c3.313,0.479,6.634,0.967,9.955,1.447
	c3.815,0.553,7.631,1.106,11.454,1.66c2.915,0.428,5.83,0.855,8.737,1.276c0.17,0.022,0.34,0.052,0.517,0.08
	c-0.567,0.599-1.1,1.175-1.66,1.721c-6.834,6.663-13.675,13.335-20.517,19.991c-0.243,0.236-0.317,0.443-0.266,0.782
	c0.893,5.085,1.764,10.17,2.635,15.263c0.863,4.996,1.713,9.992,2.568,14.988c0.016,0.103,0,0.206,0,0.375
	c-1.011-0.523-1.985-1.033-2.959-1.542c-5.321-2.796-10.65-5.602-15.971-8.397c-2.856-1.507-5.719-3.004-8.568-4.517
	c-0.287-0.155-0.494-0.141-0.781,0.007c-8.997,4.745-18,9.476-27.004,14.206C825.284,407.694,825.121,407.761,824.9,407.865z
	 M854.937,369.423c0.17,0.067,0.222,0.089,0.272,0.103c5.897,1.92,11.794,3.839,17.684,5.765c0.302,0.096,0.436-0.037,0.604-0.207
	c5.646-5.505,11.306-11.018,16.959-16.53c0.303-0.296,0.605-0.598,0.908-0.893c-0.015-0.022-0.03-0.045-0.037-0.06
	C879.231,361.526,867.136,365.46,854.937,369.423z M851.114,368.205c-0.074-0.133-0.097-0.176-0.118-0.221
	c-3.661-5.033-7.314-10.066-10.981-15.092c-0.097-0.126-0.347-0.207-0.51-0.185c-1.733,0.235-3.468,0.494-5.194,0.745
	c-5.831,0.849-11.654,1.689-17.483,2.538c-0.702,0.104-1.396,0.206-2.097,0.311v0.051
	C826.834,360.309,838.93,364.243,851.114,368.205z M828.59,401.555c0.03,0.007,0.066,0.016,0.104,0.016
	c7.454-10.259,14.908-20.517,22.428-30.87c-0.206,0.044-0.28,0.051-0.354,0.073c-5.86,1.904-11.728,3.808-17.587,5.734
	c-0.163,0.051-0.34,0.272-0.369,0.443c-0.494,2.804-0.974,5.614-1.454,8.412c-0.745,4.333-1.482,8.657-2.229,12.988
	C828.945,399.414,828.768,400.484,828.59,401.555z M853.505,371.438c-0.015,0.213-0.03,0.279-0.03,0.339c0,6.162,0,12.324,0,18.486
	c0,0.303,0.119,0.443,0.369,0.567c3.617,1.897,7.219,3.794,10.835,5.698c3.646,1.911,7.298,3.837,10.951,5.748
	c0.097,0.053,0.199,0.089,0.406,0.171C868.501,392.086,861.047,381.821,853.505,371.438z M853.497,367.408
	c0.118-0.147,0.178-0.214,0.229-0.288c3.616-4.974,7.232-9.954,10.855-14.929c0.17-0.229,0.155-0.398,0.037-0.636
	c-3.631-7.35-7.262-14.707-10.9-22.065c-0.044-0.096-0.117-0.185-0.222-0.346C853.497,341.925,853.497,354.619,853.497,367.408z"/>
<radialGradient id="SVGID_25_" cx="-24.9497" cy="1402.4902" r="62.1605" gradientTransform="matrix(0.709 0 0 0.709 799.6421 -292.7129)" gradientUnits="userSpaceOnUse">
	<stop  offset="0" style="stop-color:#FD6729"/>
	<stop  offset="0.2374" style="stop-color:#FD6329"/>
	<stop  offset="0.4612" style="stop-color:#FC582B"/>
	<stop  offset="0.6795" style="stop-color:#FC452D"/>
	<stop  offset="0.8931" style="stop-color:#FB2A30"/>
	<stop  offset="1" style="stop-color:#FA1A32"/>
</radialGradient>
<path fill-rule="evenodd" clip-rule="evenodd" fill="url(#SVGID_25_)" d="M754.038,744.606c0.162-0.931,0.295-1.779,0.442-2.629
	c0.871-5.091,1.749-10.183,2.62-15.268c0.73-4.265,1.461-8.531,2.199-12.797c0.052-0.28,0-0.458-0.199-0.664
	c-4.554-4.429-9.1-8.855-13.652-13.291c-2.775-2.708-5.551-5.417-8.325-8.118c-0.088-0.081-0.207-0.147-0.31-0.221
	c0.022-0.044,0.036-0.089,0.051-0.142c0.51-0.08,1.026-0.168,1.535-0.243c5.536-0.804,11.07-1.601,16.598-2.405
	c4.192-0.605,8.384-1.217,12.576-1.822c0.316-0.045,0.486-0.17,0.634-0.458c2.79-5.675,5.587-11.358,8.392-17.032
	c1.55-3.13,3.106-6.258,4.664-9.388c0.229-0.465,0.442-0.931,0.708-1.476c0.311,0.62,0.591,1.166,0.871,1.72
	c4.303,8.73,8.612,17.453,12.907,26.184c0.155,0.324,0.369,0.413,0.68,0.457c3.32,0.479,6.642,0.967,9.956,1.447
	c3.822,0.552,7.637,1.106,11.461,1.66c2.907,0.428,5.822,0.855,8.737,1.276c0.17,0.022,0.332,0.059,0.509,0.08
	c-0.568,0.599-1.092,1.175-1.652,1.721c-6.842,6.664-13.683,13.335-20.524,19.991c-0.243,0.236-0.317,0.443-0.258,0.782
	c0.893,5.085,1.764,10.17,2.635,15.263c0.855,4.996,1.712,9.992,2.568,14.988c0.015,0.103,0,0.206,0,0.375
	c-1.011-0.523-1.993-1.033-2.96-1.541c-5.328-2.797-10.649-5.602-15.97-8.398c-2.864-1.507-5.72-3.004-8.568-4.517
	c-0.295-0.155-0.502-0.141-0.782,0.007c-8.996,4.745-18.007,9.476-27.011,14.207C754.422,744.436,754.267,744.502,754.038,744.606z
	 M784.074,706.165c0.178,0.066,0.229,0.095,0.28,0.102c5.896,1.92,11.794,3.839,17.683,5.765c0.303,0.096,0.429-0.037,0.598-0.207
	c5.653-5.505,11.307-11.018,16.967-16.53c0.303-0.296,0.605-0.598,0.908-0.893c-0.016-0.022-0.03-0.045-0.045-0.06
	C808.369,698.268,796.273,702.201,784.074,706.165z M780.259,704.946c-0.073-0.132-0.096-0.176-0.125-0.221
	c-3.653-5.033-7.307-10.066-10.981-15.092c-0.089-0.126-0.347-0.207-0.51-0.185c-1.734,0.235-3.461,0.494-5.188,0.745
	c-5.83,0.849-11.661,1.689-17.483,2.538c-0.701,0.104-1.402,0.208-2.096,0.311v0.051
	C755.979,697.05,768.075,700.984,780.259,704.946z M757.735,738.296c0.029,0.007,0.066,0.016,0.104,0.016
	c7.453-10.259,14.899-20.517,22.428-30.87c-0.206,0.044-0.28,0.051-0.354,0.073c-5.867,1.904-11.727,3.808-17.587,5.734
	c-0.162,0.051-0.347,0.272-0.376,0.443c-0.494,2.804-0.967,5.616-1.446,8.412c-0.745,4.333-1.49,8.657-2.229,12.988
	C758.09,736.156,757.912,737.226,757.735,738.296z M782.643,708.18c-0.015,0.213-0.022,0.279-0.022,0.339
	c0,6.162,0,12.324-0.007,18.486c0,0.303,0.126,0.443,0.376,0.567c3.608,1.897,7.218,3.794,10.827,5.698
	c3.652,1.911,7.306,3.837,10.959,5.748c0.096,0.053,0.199,0.089,0.405,0.171C797.646,728.827,790.185,718.563,782.643,708.18z
	 M782.635,704.149c0.126-0.147,0.178-0.214,0.229-0.288c3.623-4.974,7.232-9.954,10.863-14.929c0.162-0.229,0.154-0.398,0.037-0.636
	c-3.639-7.35-7.27-14.707-10.9-22.065c-0.052-0.096-0.118-0.184-0.229-0.346C782.635,678.666,782.635,691.36,782.635,704.149z"/>
<radialGradient id="SVGID_26_" cx="-762.0098" cy="1448.6846" r="62.1613" gradientTransform="matrix(0.709 0 0 0.709 799.6421 -292.7129)" gradientUnits="userSpaceOnUse">
	<stop  offset="0" style="stop-color:#FD6729"/>
	<stop  offset="0.2374" style="stop-color:#FD6329"/>
	<stop  offset="0.4612" style="stop-color:#FC582B"/>
	<stop  offset="0.6795" style="stop-color:#FC452D"/>
	<stop  offset="0.8931" style="stop-color:#FB2A30"/>
	<stop  offset="1" style="stop-color:#FA1A32"/>
</radialGradient>
<path fill-rule="evenodd" clip-rule="evenodd" fill="url(#SVGID_26_)" d="M231.466,777.358c0.158-0.931,0.291-1.78,0.438-2.629
	c0.875-5.092,1.749-10.184,2.62-15.268c0.734-4.267,1.461-8.531,2.203-12.797c0.048-0.281,0-0.458-0.207-0.664
	c-4.55-4.429-9.099-8.855-13.646-13.291c-2.778-2.709-5.549-5.417-8.328-8.119c-0.088-0.08-0.203-0.146-0.307-0.221
	c0.02-0.043,0.03-0.088,0.048-0.141c0.514-0.08,1.026-0.169,1.539-0.243c5.527-0.805,11.066-1.601,16.598-2.405
	c4.192-0.605,8.38-1.218,12.575-1.822c0.317-0.045,0.487-0.171,0.628-0.459c2.793-5.674,5.59-11.357,8.395-17.032
	c1.55-3.129,3.11-6.257,4.664-9.387c0.229-0.466,0.446-0.931,0.705-1.477c0.316,0.621,0.598,1.166,0.874,1.72
	c4.306,8.729,8.612,17.454,12.907,26.185c0.159,0.324,0.366,0.412,0.683,0.457c3.317,0.479,6.639,0.966,9.956,1.447
	c3.819,0.552,7.634,1.106,11.453,1.66c2.916,0.428,5.831,0.855,8.742,1.276c0.166,0.022,0.336,0.059,0.513,0.08
	c-0.568,0.599-1.096,1.175-1.656,1.72c-6.838,6.664-13.679,13.335-20.521,19.992c-0.243,0.236-0.317,0.442-0.258,0.782
	c0.886,5.085,1.76,10.169,2.631,15.263c0.859,4.996,1.712,9.992,2.568,14.988c0.015,0.103,0,0.206,0,0.375
	c-1.011-0.523-1.989-1.033-2.96-1.543c-5.324-2.796-10.649-5.601-15.974-8.396c-2.855-1.507-5.716-3.004-8.568-4.518
	c-0.288-0.154-0.494-0.14-0.778,0.007c-8.996,4.746-18.004,9.477-27.007,14.206C231.85,777.188,231.69,777.254,231.466,777.358z
	 M261.502,738.916c0.169,0.066,0.222,0.089,0.28,0.103c5.893,1.92,11.79,3.839,17.679,5.765c0.299,0.096,0.432-0.037,0.602-0.208
	c5.653-5.504,11.307-11.017,16.963-16.529c0.303-0.296,0.605-0.598,0.908-0.893c-0.016-0.022-0.03-0.045-0.041-0.06
	C285.797,731.02,273.701,734.953,261.502,738.916z M257.683,737.697c-0.073-0.133-0.096-0.176-0.122-0.22
	c-3.656-5.033-7.313-10.067-10.981-15.092c-0.092-0.126-0.347-0.207-0.509-0.185c-1.734,0.235-3.465,0.494-5.191,0.745
	c-5.83,0.849-11.656,1.689-17.487,2.538c-0.697,0.104-1.398,0.206-2.096,0.311l0.004,0.051
	C233.398,729.802,245.499,733.736,257.683,737.697z M235.155,771.048c0.033,0.007,0.07,0.015,0.107,0.015
	c7.453-10.258,14.903-20.516,22.428-30.869c-0.207,0.044-0.28,0.051-0.354,0.073c-5.863,1.904-11.73,3.808-17.587,5.734
	c-0.162,0.051-0.343,0.272-0.372,0.442c-0.494,2.805-0.971,5.615-1.45,8.413c-0.745,4.332-1.487,8.657-2.232,12.988
	C235.514,768.915,235.336,769.978,235.155,771.048z M260.07,740.931c-0.015,0.214-0.022,0.28-0.022,0.34
	c0,6.162,0,12.324-0.007,18.486c0,0.303,0.117,0.442,0.369,0.567c3.611,1.897,7.221,3.794,10.833,5.698
	c3.646,1.911,7.303,3.837,10.956,5.748c0.092,0.053,0.203,0.089,0.402,0.17C275.07,761.579,267.612,751.313,260.07,740.931z
	 M260.063,736.901c0.122-0.148,0.178-0.215,0.229-0.288c3.617-4.974,7.233-9.955,10.856-14.929c0.169-0.229,0.155-0.398,0.041-0.636
	c-3.636-7.35-7.267-14.707-10.9-22.065c-0.048-0.096-0.122-0.185-0.226-0.347C260.063,711.418,260.063,724.112,260.063,736.901z"/>
<radialGradient id="SVGID_27_" cx="-372.8486" cy="1736.4717" r="62.1593" gradientTransform="matrix(0.709 0 0 0.709 799.6421 -292.7129)" gradientUnits="userSpaceOnUse">
	<stop  offset="0" style="stop-color:#FD6729"/>
	<stop  offset="0.2374" style="stop-color:#FD6329"/>
	<stop  offset="0.4612" style="stop-color:#FC582B"/>
	<stop  offset="0.6795" style="stop-color:#FC452D"/>
	<stop  offset="0.8931" style="stop-color:#FB2A30"/>
	<stop  offset="1" style="stop-color:#FA1A32"/>
</radialGradient>
<path fill-rule="evenodd" clip-rule="evenodd" fill="url(#SVGID_27_)" d="M507.38,981.395c0.158-0.929,0.295-1.778,0.442-2.627
	c0.871-5.092,1.746-10.185,2.62-15.27c0.73-4.265,1.458-8.53,2.199-12.796c0.052-0.28,0-0.457-0.203-0.664
	c-4.554-4.428-9.104-8.856-13.649-13.292c-2.774-2.708-5.549-5.415-8.328-8.117c-0.088-0.081-0.202-0.147-0.306-0.222
	c0.018-0.044,0.033-0.088,0.051-0.14c0.51-0.081,1.022-0.17,1.535-0.243c5.531-0.805,11.066-1.603,16.598-2.405
	c4.192-0.605,8.382-1.219,12.574-1.824c0.316-0.044,0.486-0.169,0.635-0.457c2.789-5.676,5.586-11.357,8.391-17.033
	c1.55-3.128,3.106-6.258,4.664-9.388c0.229-0.464,0.443-0.929,0.708-1.475c0.311,0.619,0.591,1.166,0.871,1.719
	c4.303,8.73,8.612,17.453,12.907,26.184c0.155,0.326,0.369,0.414,0.68,0.459c3.32,0.479,6.642,0.966,9.956,1.445
	c3.822,0.554,7.638,1.106,11.461,1.66c2.907,0.428,5.822,0.855,8.737,1.277c0.17,0.021,0.332,0.059,0.509,0.081
	c-0.567,0.597-1.092,1.173-1.652,1.72c-6.842,6.664-13.683,13.335-20.523,19.992c-0.244,0.235-0.318,0.442-0.259,0.782
	c0.893,5.084,1.764,10.169,2.635,15.261c0.855,4.996,1.712,9.992,2.568,14.988c0.015,0.104,0,0.207,0,0.377
	c-1.011-0.523-1.993-1.033-2.96-1.543c-5.328-2.797-10.649-5.601-15.978-8.398c-2.856-1.505-5.712-3.003-8.561-4.516
	c-0.295-0.155-0.502-0.141-0.782,0.007c-8.996,4.746-18,9.476-27.009,14.206C507.764,981.226,507.604,981.292,507.38,981.395z
	 M537.414,942.953c0.178,0.066,0.229,0.088,0.28,0.104c5.896,1.919,11.794,3.837,17.683,5.764c0.303,0.097,0.429-0.036,0.598-0.207
	c5.653-5.505,11.307-11.018,16.967-16.53c0.303-0.295,0.605-0.599,0.908-0.894c-0.016-0.022-0.03-0.044-0.045-0.058
	C561.709,935.057,549.613,938.989,537.414,942.953z M533.599,941.735c-0.073-0.133-0.096-0.177-0.125-0.222
	c-3.653-5.033-7.314-10.065-10.981-15.092c-0.089-0.125-0.347-0.206-0.51-0.185c-1.733,0.237-3.461,0.495-5.188,0.745
	c-5.832,0.849-11.658,1.691-17.485,2.54c-0.701,0.103-1.398,0.206-2.096,0.31v0.052C509.313,933.84,521.415,937.772,533.599,941.735
	z M511.073,975.086c0.03,0.007,0.07,0.014,0.104,0.014c7.455-10.258,14.901-20.517,22.43-30.87c-0.207,0.044-0.28,0.053-0.354,0.075
	c-5.867,1.903-11.727,3.808-17.588,5.733c-0.159,0.052-0.344,0.273-0.373,0.442c-0.495,2.806-0.971,5.616-1.45,8.413
	c-0.745,4.332-1.487,8.656-2.229,12.989C511.428,972.952,511.251,974.016,511.073,975.086z M535.982,944.968
	c-0.007,0.215-0.022,0.281-0.022,0.339c0,6.162,0,12.326-0.007,18.488c0,0.302,0.125,0.441,0.376,0.567
	c3.608,1.897,7.218,3.793,10.827,5.696c3.652,1.913,7.306,3.839,10.959,5.75c0.096,0.051,0.199,0.089,0.405,0.169
	C550.986,965.617,543.525,955.352,535.982,944.968z M535.976,940.938c0.125-0.147,0.177-0.214,0.229-0.287
	c3.623-4.974,7.232-9.956,10.863-14.93c0.162-0.229,0.155-0.399,0.037-0.635c-3.639-7.35-7.27-14.709-10.9-22.065
	c-0.052-0.096-0.126-0.185-0.229-0.348C535.976,915.456,535.976,928.15,535.976,940.938z"/>
</svg>
