<?xml version="1.0" encoding="utf-8"?>
<!-- Generator: Adobe Illustrator 16.0.0, SVG Export Plug-In . SVG Version: 6.00 Build 0)  -->
<!DOCTYPE svg PUBLIC "-//W3C//DTD SVG 1.1//EN" "http://www.w3.org/Graphics/SVG/1.1/DTD/svg11.dtd">
<svg version="1.1" id="Capa_1" xmlns="http://www.w3.org/2000/svg" xmlns:xlink="http://www.w3.org/1999/xlink" x="0px" y="0px"
	 width="1080px" height="1080px" viewBox="0 0 1080 1080" enable-background="new 0 0 1080 1080" xml:space="preserve">
<g>
	<g>
		<g>
			<g>
				<path fill-rule="evenodd" clip-rule="evenodd" fill="#FFFFFF" d="M1012.037,547.472c0,266.059-215.686,481.759-481.758,481.759
					c-266.073,0-481.767-215.7-481.767-481.759c0-266.067,215.693-481.767,481.767-481.767
					C796.352,65.705,1012.037,281.404,1012.037,547.472z"/>
			</g>
		</g>
	</g>
</g>
<radialGradient id="SVGID_2_" cx="774.3525" cy="993.2109" r="41.3813" gradientTransform="matrix(0.7358 0 0 0.7358 -152.0569 126.4871)" gradientUnits="userSpaceOnUse">
	<stop  offset="0" style="stop-color:#F2F2F2"/>
	<stop  offset="0.2261" style="stop-color:#ECECEC"/>
	<stop  offset="0.525" style="stop-color:#DBDBDB"/>
	<stop  offset="0.8631" style="stop-color:#C0C0C0"/>
	<stop  offset="1" style="stop-color:#B3B3B3"/>
</radialGradient>
<path fill="url(#SVGID_2_)" d="M441.064,866.138l8.884-27.114l-27.088-8.871c-14.978-4.907-31.096,3.256-36.002,18.229
	c-4.891,14.95,3.271,31.065,18.253,35.969C420.081,889.262,436.168,881.081,441.064,866.138"/>
<radialGradient id="SVGID_4_" cx="799.71" cy="917.2432" r="41.7987" gradientTransform="matrix(0.7358 0 0 0.7358 -152.0569 126.4871)" gradientUnits="userSpaceOnUse">
	<stop  offset="0" style="stop-color:#F2F2F2"/>
	<stop  offset="0.2261" style="stop-color:#ECECEC"/>
	<stop  offset="0.525" style="stop-color:#DBDBDB"/>
	<stop  offset="0.8631" style="stop-color:#C0C0C0"/>
	<stop  offset="1" style="stop-color:#B3B3B3"/>
</radialGradient>
<path fill="url(#SVGID_4_)" d="M425.65,823.489l26.453,10.697l10.684-26.427c5.914-14.612-1.142-31.242-15.752-37.15
	c-14.583-5.896-31.212,1.155-37.123,15.765C404.001,800.985,411.068,817.586,425.65,823.489"/>
<radialGradient id="SVGID_5_" cx="691.2539" cy="945.8926" r="36.5564" gradientTransform="matrix(0.7358 0 0 0.7358 -152.0569 126.4871)" gradientUnits="userSpaceOnUse">
	<stop  offset="0" style="stop-color:#F2F2F2"/>
	<stop  offset="0.2261" style="stop-color:#ECECEC"/>
	<stop  offset="0.525" style="stop-color:#DBDBDB"/>
	<stop  offset="0.8631" style="stop-color:#C0C0C0"/>
	<stop  offset="1" style="stop-color:#B3B3B3"/>
</radialGradient>
<path fill="url(#SVGID_5_)" d="M374.071,833.888l11.446-21.847l-21.822-11.439c-12.061-6.321-26.97-1.661-33.293,10.397
	c-6.312,12.048-1.657,26.951,10.419,33.272C352.882,850.596,367.765,845.92,374.071,833.888"/>
<radialGradient id="SVGID_6_" cx="723.0273" cy="886.7813" r="36.7893" gradientTransform="matrix(0.7358 0 0 0.7358 -152.0569 126.4871)" gradientUnits="userSpaceOnUse">
	<stop  offset="0" style="stop-color:#F2F2F2"/>
	<stop  offset="0.2261" style="stop-color:#ECECEC"/>
	<stop  offset="0.525" style="stop-color:#DBDBDB"/>
	<stop  offset="0.8631" style="stop-color:#C0C0C0"/>
	<stop  offset="1" style="stop-color:#B3B3B3"/>
</radialGradient>
<path fill="url(#SVGID_6_)" d="M367.027,795.32l21.025,12.905l12.886-21.004c7.128-11.612,3.492-26.8-8.118-33.921
	c-11.592-7.115-26.771-3.477-33.9,8.129C351.789,773.041,355.44,788.207,367.027,795.32"/>
<radialGradient id="SVGID_7_" cx="624.9238" cy="893.0313" r="32.249" gradientTransform="matrix(0.7358 0 0 0.7358 -152.0569 126.4871)" gradientUnits="userSpaceOnUse">
	<stop  offset="0" style="stop-color:#F2F2F2"/>
	<stop  offset="0.2261" style="stop-color:#ECECEC"/>
	<stop  offset="0.525" style="stop-color:#DBDBDB"/>
	<stop  offset="0.8631" style="stop-color:#C0C0C0"/>
	<stop  offset="1" style="stop-color:#B3B3B3"/>
</radialGradient>
<path fill="url(#SVGID_7_)" d="M320.989,796.055l12.515-17.509l-17.49-12.505c-9.672-6.899-23.114-4.67-30.021,5.001
	c-6.897,9.648-4.658,23.09,5.01,30.002C300.67,807.952,314.091,805.7,320.989,796.055"/>
<radialGradient id="SVGID_8_" cx="659.5098" cy="846.9834" r="32.3499" gradientTransform="matrix(0.7358 0 0 0.7358 -152.0569 126.4871)" gradientUnits="userSpaceOnUse">
	<stop  offset="0" style="stop-color:#F2F2F2"/>
	<stop  offset="0.2261" style="stop-color:#ECECEC"/>
	<stop  offset="0.525" style="stop-color:#DBDBDB"/>
	<stop  offset="0.8631" style="stop-color:#C0C0C0"/>
	<stop  offset="1" style="stop-color:#B3B3B3"/>
</radialGradient>
<path fill="url(#SVGID_8_)" d="M319.53,761.875l16.616,13.68l13.656-16.605c7.553-9.184,6.23-22.74-2.948-30.289
	c-9.163-7.539-22.72-6.214-30.274,2.963C309.028,740.8,310.372,754.341,319.53,761.875"/>
<radialGradient id="SVGID_9_" cx="566.7568" cy="840.4434" r="29.4266" gradientTransform="matrix(0.7358 0 0 0.7358 -152.0569 126.4871)" gradientUnits="userSpaceOnUse">
	<stop  offset="0" style="stop-color:#F2F2F2"/>
	<stop  offset="0.2261" style="stop-color:#ECECEC"/>
	<stop  offset="0.525" style="stop-color:#DBDBDB"/>
	<stop  offset="0.8631" style="stop-color:#C0C0C0"/>
	<stop  offset="1" style="stop-color:#B3B3B3"/>
</radialGradient>
<path fill="url(#SVGID_9_)" d="M275.901,757.455l12.606-14.963l-14.951-12.601c-8.266-6.956-20.612-5.903-27.575,2.357
	c-6.948,8.255-5.89,20.598,2.371,27.562C256.621,766.775,268.947,765.702,275.901,757.455"/>
<radialGradient id="SVGID_10_" cx="601.6621" cy="801.7227" r="29.464" gradientTransform="matrix(0.7358 0 0 0.7358 -152.0569 126.4871)" gradientUnits="userSpaceOnUse">
	<stop  offset="0" style="stop-color:#F2F2F2"/>
	<stop  offset="0.2261" style="stop-color:#ECECEC"/>
	<stop  offset="0.525" style="stop-color:#DBDBDB"/>
	<stop  offset="0.8631" style="stop-color:#C0C0C0"/>
	<stop  offset="1" style="stop-color:#B3B3B3"/>
</radialGradient>
<path fill="url(#SVGID_10_)" d="M277.043,726.375l14.076,13.594l13.58-14.063c7.512-7.781,7.292-20.164-0.481-27.666
	c-7.765-7.498-20.146-7.284-27.657,0.495C269.048,706.505,269.285,718.878,277.043,726.375"/>
<radialGradient id="SVGID_11_" cx="1105.458" cy="993.2109" r="41.3813" gradientTransform="matrix(0.7358 0 0 0.7358 -152.0569 126.4871)" gradientUnits="userSpaceOnUse">
	<stop  offset="0" style="stop-color:#F2F2F2"/>
	<stop  offset="0.2261" style="stop-color:#ECECEC"/>
	<stop  offset="0.525" style="stop-color:#DBDBDB"/>
	<stop  offset="0.8631" style="stop-color:#C0C0C0"/>
	<stop  offset="1" style="stop-color:#B3B3B3"/>
</radialGradient>
<path fill="url(#SVGID_11_)" d="M637.941,866.138l-8.882-27.114l27.084-8.871c14.979-4.907,31.099,3.256,36.003,18.229
	c4.896,14.95-3.272,31.065-18.247,35.969C658.923,889.262,642.838,881.081,637.941,866.138"/>
<radialGradient id="SVGID_12_" cx="1080.0996" cy="917.2432" r="41.7987" gradientTransform="matrix(0.7358 0 0 0.7358 -152.0569 126.4871)" gradientUnits="userSpaceOnUse">
	<stop  offset="0" style="stop-color:#F2F2F2"/>
	<stop  offset="0.2261" style="stop-color:#ECECEC"/>
	<stop  offset="0.525" style="stop-color:#DBDBDB"/>
	<stop  offset="0.8631" style="stop-color:#C0C0C0"/>
	<stop  offset="1" style="stop-color:#B3B3B3"/>
</radialGradient>
<path fill="url(#SVGID_12_)" d="M653.354,823.489l-26.449,10.697l-10.687-26.427c-5.911-14.612,1.141-31.242,15.749-37.15
	c14.587-5.896,31.214,1.155,37.125,15.765C675.007,800.985,667.938,817.586,653.354,823.489"/>
<radialGradient id="SVGID_13_" cx="1188.5547" cy="945.8926" r="36.557" gradientTransform="matrix(0.7358 0 0 0.7358 -152.0569 126.4871)" gradientUnits="userSpaceOnUse">
	<stop  offset="0" style="stop-color:#F2F2F2"/>
	<stop  offset="0.2261" style="stop-color:#ECECEC"/>
	<stop  offset="0.525" style="stop-color:#DBDBDB"/>
	<stop  offset="0.8631" style="stop-color:#C0C0C0"/>
	<stop  offset="1" style="stop-color:#B3B3B3"/>
</radialGradient>
<path fill="url(#SVGID_13_)" d="M704.933,833.888l-11.446-21.847l21.822-11.439c12.063-6.321,26.974-1.661,33.295,10.397
	c6.313,12.048,1.656,26.951-10.413,33.272C726.124,850.596,711.242,845.92,704.933,833.888"/>
<radialGradient id="SVGID_14_" cx="1156.7832" cy="886.7813" r="36.7893" gradientTransform="matrix(0.7358 0 0 0.7358 -152.0569 126.4871)" gradientUnits="userSpaceOnUse">
	<stop  offset="0" style="stop-color:#F2F2F2"/>
	<stop  offset="0.2261" style="stop-color:#ECECEC"/>
	<stop  offset="0.525" style="stop-color:#DBDBDB"/>
	<stop  offset="0.8631" style="stop-color:#C0C0C0"/>
	<stop  offset="1" style="stop-color:#B3B3B3"/>
</radialGradient>
<path fill="url(#SVGID_14_)" d="M711.977,795.32l-21.021,12.905l-12.89-21.004c-7.125-11.612-3.49-26.8,8.122-33.921
	c11.59-7.115,26.774-3.477,33.903,8.129C727.216,773.041,723.563,788.207,711.977,795.32"/>
<radialGradient id="SVGID_15_" cx="1254.8867" cy="893.0313" r="32.2506" gradientTransform="matrix(0.7358 0 0 0.7358 -152.0569 126.4871)" gradientUnits="userSpaceOnUse">
	<stop  offset="0" style="stop-color:#F2F2F2"/>
	<stop  offset="0.2261" style="stop-color:#ECECEC"/>
	<stop  offset="0.525" style="stop-color:#DBDBDB"/>
	<stop  offset="0.8631" style="stop-color:#C0C0C0"/>
	<stop  offset="1" style="stop-color:#B3B3B3"/>
</radialGradient>
<path fill="url(#SVGID_15_)" d="M758.017,796.055L745.5,778.546l17.49-12.505c9.672-6.899,23.114-4.67,30.021,5.001
	c6.901,9.648,4.665,23.09-5.011,30.002C778.337,807.952,764.917,805.7,758.017,796.055"/>
<radialGradient id="SVGID_16_" cx="1220.2979" cy="846.9834" r="32.3507" gradientTransform="matrix(0.7358 0 0 0.7358 -152.0569 126.4871)" gradientUnits="userSpaceOnUse">
	<stop  offset="0" style="stop-color:#F2F2F2"/>
	<stop  offset="0.2261" style="stop-color:#ECECEC"/>
	<stop  offset="0.525" style="stop-color:#DBDBDB"/>
	<stop  offset="0.8631" style="stop-color:#C0C0C0"/>
	<stop  offset="1" style="stop-color:#B3B3B3"/>
</radialGradient>
<path fill="url(#SVGID_16_)" d="M759.479,761.875l-16.62,13.68l-13.657-16.605c-7.553-9.184-6.231-22.74,2.948-30.289
	c9.163-7.539,22.724-6.214,30.276,2.963C769.976,740.8,768.637,754.341,759.479,761.875"/>
<radialGradient id="SVGID_17_" cx="1313.0527" cy="840.4434" r="29.4276" gradientTransform="matrix(0.7358 0 0 0.7358 -152.0569 126.4871)" gradientUnits="userSpaceOnUse">
	<stop  offset="0" style="stop-color:#F2F2F2"/>
	<stop  offset="0.2261" style="stop-color:#ECECEC"/>
	<stop  offset="0.525" style="stop-color:#DBDBDB"/>
	<stop  offset="0.8631" style="stop-color:#C0C0C0"/>
	<stop  offset="1" style="stop-color:#B3B3B3"/>
</radialGradient>
<path fill="url(#SVGID_17_)" d="M803.104,757.455l-12.608-14.963l14.951-12.601c8.266-6.956,20.612-5.903,27.579,2.357
	c6.948,8.255,5.889,20.598-2.376,27.562C822.384,766.775,810.06,765.702,803.104,757.455"/>
<radialGradient id="SVGID_18_" cx="1278.1465" cy="801.7227" r="29.4631" gradientTransform="matrix(0.7358 0 0 0.7358 -152.0569 126.4871)" gradientUnits="userSpaceOnUse">
	<stop  offset="0" style="stop-color:#F2F2F2"/>
	<stop  offset="0.2261" style="stop-color:#ECECEC"/>
	<stop  offset="0.525" style="stop-color:#DBDBDB"/>
	<stop  offset="0.8631" style="stop-color:#C0C0C0"/>
	<stop  offset="1" style="stop-color:#B3B3B3"/>
</radialGradient>
<path fill="url(#SVGID_18_)" d="M801.964,726.375l-14.077,13.594l-13.579-14.063c-7.509-7.781-7.295-20.164,0.483-27.666
	c7.76-7.498,20.144-7.284,27.653,0.495C809.956,706.505,809.721,718.878,801.964,726.375"/>
<radialGradient id="SVGID_19_" cx="624.2305" cy="893.002" r="32.249" gradientTransform="matrix(0.7358 0 0 0.7358 -152.0569 126.4871)" gradientUnits="userSpaceOnUse">
	<stop  offset="0" style="stop-color:#F2F2F2"/>
	<stop  offset="0.2261" style="stop-color:#ECECEC"/>
	<stop  offset="0.525" style="stop-color:#DBDBDB"/>
	<stop  offset="0.8631" style="stop-color:#C0C0C0"/>
	<stop  offset="1" style="stop-color:#B3B3B3"/>
</radialGradient>
<path fill="url(#SVGID_19_)" d="M320.48,796.033l12.514-17.509l-17.49-12.505c-9.671-6.9-23.113-4.672-30.02,5
	c-6.9,9.649-4.658,23.091,5.009,30.002C300.161,807.93,313.581,805.679,320.48,796.033"/>
<radialGradient id="SVGID_20_" cx="658.8184" cy="846.9531" r="32.3508" gradientTransform="matrix(0.7358 0 0 0.7358 -152.0569 126.4871)" gradientUnits="userSpaceOnUse">
	<stop  offset="0" style="stop-color:#F2F2F2"/>
	<stop  offset="0.2261" style="stop-color:#ECECEC"/>
	<stop  offset="0.525" style="stop-color:#DBDBDB"/>
	<stop  offset="0.8631" style="stop-color:#C0C0C0"/>
	<stop  offset="1" style="stop-color:#B3B3B3"/>
</radialGradient>
<path fill="url(#SVGID_20_)" d="M319.021,761.854l16.616,13.68l13.656-16.605c7.554-9.184,6.232-22.741-2.948-30.291
	c-9.162-7.537-22.719-6.214-30.274,2.963C308.52,740.776,309.862,754.319,319.021,761.854"/>
<radialGradient id="SVGID_21_" cx="863.5635" cy="979.4014" r="10.2417" gradientTransform="matrix(0.7358 0 0 0.7358 -152.0569 126.4871)" gradientUnits="userSpaceOnUse">
	<stop  offset="0" style="stop-color:#F2F2F2"/>
	<stop  offset="0.2261" style="stop-color:#ECECEC"/>
	<stop  offset="0.525" style="stop-color:#DBDBDB"/>
	<stop  offset="0.8631" style="stop-color:#C0C0C0"/>
	<stop  offset="1" style="stop-color:#B3B3B3"/>
</radialGradient>
<path fill="url(#SVGID_21_)" d="M490.87,847.097c0,0.122,0,0.247-0.008,0.386c-0.007,0.16-0.025,0.313-0.039,0.459
	c-0.023,0.097-0.023,0.197-0.03,0.292c-0.021,0.127-0.041,0.247-0.08,0.381c-0.021,0.125-0.052,0.24-0.075,0.36
	c-0.04,0.119-0.07,0.245-0.107,0.355c-0.035,0.117-0.064,0.229-0.12,0.344c-0.061,0.209-0.152,0.404-0.241,0.601
	c-0.168,0.351-0.367,0.705-0.591,1.03c-0.055,0.095-0.138,0.202-0.204,0.291c-0.072,0.1-0.153,0.199-0.231,0.28
	c-0.14,0.188-0.306,0.368-0.481,0.542c-0.071,0.085-0.168,0.16-0.256,0.244c-0.487,0.436-1.026,0.815-1.62,1.129
	c-0.089,0.044-0.183,0.084-0.282,0.136c-0.071,0.023-0.158,0.063-0.242,0.097c-0.086,0.047-0.183,0.085-0.269,0.11
	c-0.398,0.151-0.801,0.271-1.218,0.347c-0.105,0.025-0.222,0.037-0.328,0.052c-0.362,0.052-0.738,0.093-1.113,0.093
	c-4.158,0-7.537-3.377-7.537-7.528c0-4.164,3.379-7.541,7.537-7.541c0.194,0,0.375,0.007,0.559,0.025
	c0.192,0.007,0.377,0.037,0.555,0.066c0.131,0.007,0.258,0.025,0.378,0.065c0.179,0.035,0.341,0.061,0.503,0.12
	c0.028,0.007,0.074,0.007,0.093,0.017c0.193,0.052,0.384,0.122,0.572,0.188c0.086,0.034,0.183,0.082,0.269,0.119
	c0.104,0.043,0.207,0.092,0.317,0.121c0.192,0.104,0.384,0.211,0.568,0.314c0.16,0.095,0.303,0.188,0.441,0.287
	c0.051,0.026,0.095,0.066,0.131,0.093c0.124,0.092,0.244,0.174,0.365,0.277c0.147,0.117,0.307,0.25,0.443,0.397
	c0.088,0.07,0.169,0.162,0.254,0.235c0.111,0.115,0.215,0.222,0.301,0.352c0.109,0.114,0.199,0.221,0.292,0.351
	c0.066,0.084,0.13,0.162,0.186,0.254c0.288,0.417,0.521,0.853,0.713,1.322c0.039,0.085,0.083,0.18,0.11,0.265
	c0.056,0.145,0.104,0.281,0.147,0.425c0.037,0.125,0.067,0.235,0.107,0.358c0.129,0.476,0.199,0.981,0.225,1.497
	C490.87,846.828,490.87,846.96,490.87,847.097"/>
<radialGradient id="SVGID_22_" cx="941.4912" cy="1004.1426" r="16.9277" gradientTransform="matrix(0.7358 0 0 0.7358 -152.0569 126.4871)" gradientUnits="userSpaceOnUse">
	<stop  offset="0" style="stop-color:#F2F2F2"/>
	<stop  offset="0.2261" style="stop-color:#ECECEC"/>
	<stop  offset="0.525" style="stop-color:#DBDBDB"/>
	<stop  offset="0.8631" style="stop-color:#C0C0C0"/>
	<stop  offset="1" style="stop-color:#B3B3B3"/>
</radialGradient>
<path fill="url(#SVGID_22_)" d="M553.124,865.295c0,0.219,0,0.419-0.008,0.64c-0.019,0.269-0.044,0.517-0.07,0.786
	c-0.022,0.144-0.033,0.307-0.07,0.465c-0.015,0.218-0.059,0.421-0.1,0.611c-0.044,0.207-0.103,0.414-0.147,0.617
	c-0.052,0.181-0.11,0.388-0.162,0.576c-0.056,0.19-0.121,0.379-0.199,0.579c-0.11,0.343-0.251,0.671-0.409,1
	c-0.27,0.567-0.602,1.144-0.979,1.686c-0.093,0.167-0.214,0.329-0.335,0.479c-0.122,0.174-0.244,0.328-0.37,0.477
	c-0.232,0.31-0.509,0.602-0.808,0.885c-0.129,0.137-0.273,0.277-0.428,0.406c-0.798,0.724-1.683,1.352-2.664,1.867
	c-0.159,0.07-0.318,0.144-0.465,0.219c-0.13,0.059-0.267,0.125-0.414,0.162c-0.136,0.08-0.291,0.144-0.439,0.195
	c-0.66,0.243-1.324,0.436-2.007,0.561c-0.181,0.047-0.373,0.063-0.542,0.089c-0.602,0.085-1.226,0.154-1.838,0.154
	c-6.894,0-12.454-5.582-12.454-12.454c0-6.885,5.561-12.456,12.454-12.456c0.31,0,0.612,0.008,0.926,0.033
	c0.311,0.037,0.613,0.078,0.912,0.115c0.218,0.007,0.424,0.059,0.631,0.118c0.28,0.047,0.557,0.087,0.815,0.184
	c0.052,0.015,0.121,0.015,0.173,0.052c0.299,0.073,0.624,0.181,0.93,0.306c0.148,0.049,0.304,0.111,0.439,0.186
	c0.185,0.073,0.354,0.154,0.531,0.206c0.325,0.174,0.639,0.343,0.949,0.528c0.254,0.144,0.494,0.287,0.719,0.453
	c0.081,0.052,0.155,0.11,0.222,0.162c0.191,0.137,0.405,0.292,0.59,0.466c0.27,0.188,0.517,0.412,0.742,0.645
	c0.14,0.13,0.288,0.259,0.413,0.396c0.181,0.188,0.358,0.362,0.506,0.564c0.178,0.195,0.328,0.396,0.477,0.591
	c0.121,0.137,0.213,0.283,0.298,0.438c0.473,0.668,0.863,1.402,1.199,2.166c0.063,0.145,0.126,0.296,0.174,0.451
	c0.104,0.224,0.17,0.468,0.251,0.689c0.052,0.195,0.11,0.396,0.162,0.591c0.214,0.808,0.344,1.619,0.388,2.476
	C553.124,864.868,553.124,865.086,553.124,865.295"/>
<radialGradient id="SVGID_23_" cx="1015.2129" cy="979.4014" r="10.2402" gradientTransform="matrix(0.7358 0 0 0.7358 -152.0569 126.4871)" gradientUnits="userSpaceOnUse">
	<stop  offset="0" style="stop-color:#F2F2F2"/>
	<stop  offset="0.2261" style="stop-color:#ECECEC"/>
	<stop  offset="0.525" style="stop-color:#DBDBDB"/>
	<stop  offset="0.8631" style="stop-color:#C0C0C0"/>
	<stop  offset="1" style="stop-color:#B3B3B3"/>
</radialGradient>
<path fill="url(#SVGID_23_)" d="M587.378,847.097c0,0.122,0,0.247,0.014,0.386c0.004,0.16,0.02,0.313,0.034,0.459
	c0.021,0.097,0.029,0.197,0.04,0.292c0.019,0.127,0.037,0.247,0.066,0.381c0.025,0.125,0.06,0.24,0.085,0.36
	c0.037,0.119,0.063,0.245,0.104,0.355c0.033,0.117,0.07,0.229,0.118,0.344c0.063,0.209,0.147,0.404,0.24,0.601
	c0.177,0.351,0.368,0.705,0.586,1.03c0.07,0.095,0.144,0.202,0.211,0.291c0.069,0.1,0.154,0.199,0.225,0.28
	c0.144,0.188,0.31,0.368,0.491,0.542c0.073,0.085,0.169,0.16,0.266,0.244c0.476,0.436,1.007,0.815,1.608,1.129
	c0.096,0.044,0.181,0.084,0.28,0.136c0.078,0.023,0.162,0.063,0.24,0.097c0.092,0.047,0.181,0.085,0.273,0.11
	c0.395,0.151,0.793,0.271,1.214,0.347c0.11,0.025,0.222,0.037,0.332,0.052c0.368,0.052,0.734,0.093,1.11,0.093
	c4.166,0,7.531-3.377,7.531-7.528c0-4.164-3.365-7.541-7.531-7.541c-0.195,0-0.376,0.007-0.561,0.025
	c-0.182,0.007-0.377,0.037-0.55,0.066c-0.133,0.007-0.259,0.025-0.38,0.065c-0.185,0.035-0.34,0.061-0.494,0.12
	c-0.041,0.007-0.078,0.007-0.107,0.017c-0.178,0.052-0.373,0.122-0.564,0.188c-0.093,0.034-0.182,0.082-0.273,0.119
	c-0.107,0.043-0.207,0.092-0.314,0.121c-0.195,0.104-0.383,0.211-0.567,0.314c-0.155,0.095-0.303,0.188-0.443,0.287
	c-0.044,0.026-0.096,0.066-0.133,0.093c-0.125,0.092-0.243,0.174-0.361,0.277c-0.155,0.117-0.31,0.25-0.446,0.397
	c-0.081,0.07-0.17,0.162-0.24,0.235c-0.11,0.115-0.221,0.222-0.31,0.352c-0.104,0.114-0.199,0.221-0.295,0.351
	c-0.067,0.084-0.126,0.162-0.178,0.254c-0.287,0.417-0.527,0.853-0.723,1.322c-0.037,0.085-0.081,0.18-0.11,0.265
	c-0.049,0.145-0.097,0.281-0.145,0.425c-0.041,0.125-0.066,0.235-0.104,0.358c-0.122,0.476-0.206,0.981-0.226,1.497
	C587.378,846.828,587.378,846.96,587.378,847.097"/>
<g>
	
		<radialGradient id="SVGID_24_" cx="939.9043" cy="386.3008" r="250.7398" gradientTransform="matrix(0.7358 0 0 0.7358 -152.0569 126.4871)" gradientUnits="userSpaceOnUse">
		<stop  offset="0" style="stop-color:#F2F2F2"/>
		<stop  offset="0.2261" style="stop-color:#ECECEC"/>
		<stop  offset="0.525" style="stop-color:#DBDBDB"/>
		<stop  offset="0.8631" style="stop-color:#C0C0C0"/>
		<stop  offset="1" style="stop-color:#B3B3B3"/>
	</radialGradient>
	<path fill-rule="evenodd" clip-rule="evenodd" fill="url(#SVGID_24_)" d="M363.725,466.062c1.992-7.306,3.782-14.675,6.052-21.896
		c1.365-4.356,0.944-8.017-1.661-11.773c-4.098-5.915-7.785-12.111-11.855-18.036c-1.741-2.539-1.891-4.438-0.006-7.089
		c4.166-5.86,7.773-12.114,11.888-18.018c2.62-3.761,3.077-7.446,1.701-11.782c-2.126-6.67-3.68-13.52-5.819-20.183
		c-1.011-3.14-0.044-4.872,2.365-6.717c5.869-4.482,11.517-9.246,17.328-13.796c2.706-2.11,4.041-4.615,4.369-8.147
		c0.596-6.609,1.228-13.224,0.874-19.84c-0.283-5.354,1.469-8.365,6.9-9.878c6.358-1.774,12.421-4.616,18.697-6.724
		c3.585-1.203,5.624-3.491,6.859-6.93c2.436-6.77,5.139-13.444,7.516-20.234c1.082-3.093,2.766-4.555,6.171-4.628
		c7.188-0.15,14.361-0.903,21.54-0.963c4.249-0.033,7.095-1.704,9.528-5.011c3.818-5.178,8.099-10.021,11.809-15.269
		c2.823-4.008,5.794-5.093,10.58-3.405c6.405,2.257,13.165,3.519,19.682,5.501c3.639,1.106,6.495,0.369,9.527-1.786
		c5.396-3.842,11.145-7.18,16.553-11.004c3.713-2.615,6.816-2.973,10.724-0.073c5.768,4.277,12.037,7.878,18.011,11.879
		c2.398,1.612,4.753,1.896,7.513,1.092c7.273-2.108,14.635-3.919,21.893-6.081c3.385-1.003,5.698-0.304,7.827,2.579
		c4.056,5.475,8.49,10.663,12.604,16.095c2.834,3.737,6.177,5.595,11.085,5.524c6.605-0.097,13.214,0.79,19.826,0.892
		c3.553,0.061,5.554,1.333,6.715,4.731c2.141,6.27,4.79,12.368,6.89,18.645c1.646,4.922,4.757,7.815,9.672,9.365
		c5.956,1.879,11.719,4.351,17.646,6.332c3.944,1.32,5.693,3.602,5.704,7.922c0.016,6.996,0.823,13.981,0.938,20.974
		c0.063,3.815,1.649,6.402,4.538,8.615c5.41,4.151,10.576,8.628,16.115,12.59c3.261,2.332,4.283,4.639,3.021,8.598
		c-2.185,6.845-3.701,13.9-5.712,20.809c-0.981,3.368-0.554,6.224,1.406,9.125c3.911,5.807,7.494,11.844,11.501,17.582
		c2.396,3.435,2.546,6.421,0.134,9.859c-3.802,5.423-7.24,11.106-11.078,16.497c-2.66,3.734-3.106,7.428-1.73,11.771
		c1.996,6.317,3.351,12.837,5.388,19.14c1.225,3.793,0.72,6.272-2.712,8.689c-5.569,3.919-10.694,8.45-16.122,12.567
		c-3.085,2.337-4.505,5.118-4.809,9.097c-0.527,6.988-1.077,13.974-0.914,20.973c0.084,3.979-1.336,6.306-5.271,7.539
		c-4.87,1.523-9.441,4.105-14.375,5.291c-8.022,1.922-12.69,6.412-14.693,14.476c-1.325,5.284-3.89,10.255-5.786,15.404
		c-0.981,2.66-2.72,3.705-5.542,3.934c-6.982,0.546-13.956,1.402-20.967,1.019c-4.661-0.254-7.923,1.598-10.646,5.192
		c-4.232,5.578-8.764,10.933-12.948,16.553c-2,2.679-4.125,3.39-7.325,2.458c-7.084-2.074-14.313-3.658-21.357-5.863
		c-3.645-1.152-6.494-0.628-9.523,1.523c-5.239,3.726-10.886,6.917-15.974,10.826c-4.306,3.305-7.919,3.286-12.218,0.104
		c-5.003-3.721-10.539-6.731-15.527-10.469c-3.595-2.693-7.044-2.93-11.137-1.676c-6.338,1.949-12.831,3.358-19.138,5.376
		c-3.791,1.207-6.432,0.576-8.87-2.639c-4.229-5.574-8.908-10.814-13.1-16.405c-2.631-3.5-5.72-5.128-10.131-4.984
		c-7,0.229-13.989-0.276-20.974-0.959c-3.325-0.321-5.148-1.591-6.207-4.686c-2.093-6.085-4.734-12-6.523-18.173
		c-1.611-5.564-5.06-8.329-10.413-9.938c-6.153-1.849-12.049-4.546-18.133-6.63c-3.17-1.085-4.492-2.982-4.561-6.277
		c-0.133-7.158-0.465-14.298-1.067-21.446c-0.395-4.729-2.073-7.678-5.63-10.345c-5.428-4.081-10.609-8.487-15.924-12.72
		C364.924,469.519,363.363,468.394,363.725,466.062z M615.599,536.859c4.284,0,7.158-0.262,9.963,0.059
		c5.007,0.572,7.144-1.737,8.126-6.42c1.161-5.55,2.995-10.952,4.42-16.445c0.752-2.897,2.476-4.425,5.376-5.119
		c5.701-1.361,11.303-3.231,17.044-4.383c4.716-0.941,6.225-3.453,5.771-7.981c-0.523-5.263-0.582-10.572-1.106-15.84
		c-0.45-4.488,1.1-7.546,5.093-9.775c4.627-2.575,8.974-5.646,13.52-8.372c3.447-2.073,4.612-4.667,2.934-8.55
		c-2.173-5.037-3.956-10.246-6.162-15.269c-1.805-4.081-1.609-7.332,1.727-10.768c3.934-4.054,7.177-8.782,10.809-13.139
		c2.25-2.69,2.73-4.952,0.018-7.875c-3.988-4.287-7.442-9.066-11.229-13.541c-2.567-3.037-3.28-6.019-1.523-9.879
		c2.424-5.328,4.202-10.951,6.439-16.379c1.32-3.188,0.538-5.401-2.303-7.199c-4.79-3.051-9.396-6.409-14.307-9.239
		c-3.974-2.287-5.469-5.313-5.021-9.8c0.567-5.64,0.683-11.324,1.129-16.978c0.288-3.672-1.259-5.557-4.842-6.383
		c-5.534-1.28-10.93-3.178-16.486-4.285c-4.59-0.911-6.778-3.476-7.73-7.826c-1.14-5.174-2.712-10.251-3.859-15.427
		c-0.883-3.993-3.052-5.82-7.185-5.517c-6.033,0.442-12.085,0.689-18.118,1.104c-3.373,0.229-5.642-0.967-7.413-4.008
		c-2.955-5.063-6.538-9.756-9.483-14.818c-1.988-3.428-4.195-4.343-7.907-2.797c-5.764,2.398-11.719,4.324-17.502,6.693
		c-2.818,1.154-4.9,0.794-7.221-1.188c-4.602-3.93-9.605-7.391-14.133-11.405c-3.262-2.886-5.753-3.409-9.154-0.092
		c-3.782,3.686-8.277,6.619-12.232,10.132c-3.477,3.089-6.816,4.101-11.28,1.864c-4.037-2.026-8.718-2.794-12.683-4.923
		c-5.838-3.141-9.631-1.73-12.199,4.026c-5.896,13.242-14.922,20.331-30.104,15.476c-0.173-0.06-0.375-0.017-0.567-0.02
		c-8.393-0.236-9.732-0.266-10.576,8.146c-1.532,15.255-9.35,22.221-24.146,24.229c-9.266,1.255-9.169,2.41-7.93,11.9
		c0.122,0.937,0.257,1.874,0.4,2.808c1.574,10.093,0.434,18.844-10.861,22.899c-1.727,0.621-3.122,2.111-4.731,3.118
		c-7.575,4.745-8.601,5.376-4.291,12.892c7.572,13.211,5.583,23.612-5.223,33.933c-6.187,5.907-5.489,6.639-0.076,13.199
		c0.243,0.295,0.471,0.604,0.749,0.856c9.795,8.822,12.465,18.216,5.447,30.721c-5.159,9.182-3.636,9.351,5.059,15.579
		c16.712,11.966,14.313,5.018,13.923,25.387c-0.24,12.837-0.645,13.398,11.997,15.793c10.396,1.967,16.361,6.176,18.363,17.549
		c2.37,13.498,3.579,14.357,17.23,12.834c11.608-1.299,17.684,3.029,23.197,12.604c7.38,12.804,5.094,11.563,18.011,6.199
		c1.044-0.433,2.246-0.603,3.185-1.188c8.472-5.291,15.051-2.73,22.076,3.642c10.786,9.8,11.805,10.073,22.351,0.506
		c8.498-7.716,15.992-8.114,25.87-3.336c11.664,5.649,12.395,5.27,18.896-6.258C600.167,539.675,605.717,533.291,615.599,536.859z"
		/>
	
		<radialGradient id="SVGID_25_" cx="1054.1113" cy="714.1055" r="106.719" gradientTransform="matrix(0.7358 0 0 0.7358 -152.0569 126.4871)" gradientUnits="userSpaceOnUse">
		<stop  offset="0" style="stop-color:#F2F2F2"/>
		<stop  offset="0.2261" style="stop-color:#ECECEC"/>
		<stop  offset="0.525" style="stop-color:#DBDBDB"/>
		<stop  offset="0.8631" style="stop-color:#C0C0C0"/>
		<stop  offset="1" style="stop-color:#B3B3B3"/>
	</radialGradient>
	<path fill-rule="evenodd" clip-rule="evenodd" fill="url(#SVGID_25_)" d="M568.123,584.061c8.83,2.417,16.926,4.395,24.855,6.907
		c4.314,1.365,7.022,0.398,9.62-3.225c3.97-5.528,8.498-10.646,12.604-16.077c2.853-3.771,6.284-5.818,11.147-5.343
		c2.244,0.218,4.535-0.012,6.805-0.045c10.387-0.151,10.458-0.181,13.952,9.911c15.287,44.164,30.538,88.343,45.759,132.533
		c0.583,1.701,2.222,3.801,0.73,5.273c-1.579,1.568-3.542-0.409-5.158-1.056c-17.397-6.944-34.818-13.845-52.059-21.169
		c-4.789-2.037-7.413-1.114-10.166,3.063c-8.741,13.269-17.76,26.356-26.723,39.474c-0.889,1.302-1.324,3.642-3.417,3.18
		c-1.645-0.357-1.42-2.485-1.841-3.877c-10.376-34.22-20.719-68.458-31.059-102.692c-3.222-10.676-6.199-21.428-9.716-32.007
		c-1.347-4.065-0.476-6.409,3.152-8.28C560.729,588.504,563.942,584.646,568.123,584.061z"/>
	
		<radialGradient id="SVGID_26_" cx="824.9297" cy="714.2744" r="109.9688" gradientTransform="matrix(0.7358 0 0 0.7358 -152.0569 126.4871)" gradientUnits="userSpaceOnUse">
		<stop  offset="0" style="stop-color:#F2F2F2"/>
		<stop  offset="0.2261" style="stop-color:#ECECEC"/>
		<stop  offset="0.525" style="stop-color:#DBDBDB"/>
		<stop  offset="0.8631" style="stop-color:#C0C0C0"/>
		<stop  offset="1" style="stop-color:#B3B3B3"/>
	</radialGradient>
	<path fill-rule="evenodd" clip-rule="evenodd" fill="url(#SVGID_26_)" d="M449.94,566.563c6.879-1.365,11.637,1.175,15.491,6.901
		c3.683,5.468,8.446,10.194,12.42,15.492c2.078,2.772,4.277,3.188,7.351,2.271c6.166-1.853,12.483-3.233,18.568-5.3
		c5.918-2.011,10.825-1.177,15.911,2.558c12.984,9.523,12.604,4.72,6.479,20.619c-16.081,41.681-32.252,83.333-48.422,124.979
		c-0.581,1.506-0.566,3.839-2.593,4.026c-2.029,0.185-2.413-2.11-3.221-3.506c-7.981-13.756-16.117-27.426-23.737-41.374
		c-2.385-4.37-4.705-4.702-9.017-3.21c-17.714,6.139-35.538,11.955-53.352,17.803c-1.853,0.605-4.133,2.564-5.739,0.664
		c-1.493-1.763,0.5-3.939,1.28-5.737c10.679-24.674,21.455-49.305,32.206-73.941c7.87-18.043,15.891-36.032,23.528-54.172
		C439.649,568.566,442.618,564.23,449.94,566.563z"/>
	
		<radialGradient id="SVGID_27_" cx="940.7393" cy="386.3916" r="162.9531" gradientTransform="matrix(0.7358 0 0 0.7358 -152.0569 126.4871)" gradientUnits="userSpaceOnUse">
		<stop  offset="0" style="stop-color:#F2F2F2"/>
		<stop  offset="0.2261" style="stop-color:#ECECEC"/>
		<stop  offset="0.525" style="stop-color:#DBDBDB"/>
		<stop  offset="0.8631" style="stop-color:#C0C0C0"/>
		<stop  offset="1" style="stop-color:#B3B3B3"/>
	</radialGradient>
	<path fill-rule="evenodd" clip-rule="evenodd" fill="url(#SVGID_27_)" d="M660.015,410.779
		c0,66.212-53.678,119.893-119.895,119.893c-66.219,0-119.9-53.681-119.9-119.893c0-66.215,53.682-119.895,119.9-119.895
		C606.337,290.885,660.015,344.564,660.015,410.779z"/>
</g>
</svg>
