<?xml version="1.0" encoding="utf-8"?>
<!-- Generator: Adobe Illustrator 16.0.3, SVG Export Plug-In . SVG Version: 6.00 Build 0)  -->
<!DOCTYPE svg PUBLIC "-//W3C//DTD SVG 1.1//EN" "http://www.w3.org/Graphics/SVG/1.1/DTD/svg11.dtd">
<svg version="1.1" id="Capa_1" xmlns="http://www.w3.org/2000/svg" xmlns:xlink="http://www.w3.org/1999/xlink" x="0px" y="0px"
	 width="960px" height="960px" viewBox="0 0 960 960" enable-background="new 0 0 960 960" xml:space="preserve">
<g>
	<g>
		<g>
			<g>
				<path fill-rule="evenodd" clip-rule="evenodd" fill="#FFFFFF" d="M855,479.998C855,687.104,687.11,855,480.007,855
					C272.893,855,105,687.104,105,479.998C105,272.888,272.893,105,480.007,105C687.11,105,855,272.888,855,479.998z"/>
			</g>
		</g>
	</g>
	<g>
		<defs>
			<path id="SVGID_23_" d="M855,479.998C855,687.104,687.11,855,480.007,855C272.893,855,105,687.104,105,479.998
				C105,272.888,272.893,105,480.007,105C687.11,105,855,272.888,855,479.998z"/>
		</defs>
		<clipPath id="SVGID_2_">
			<use xlink:href="#SVGID_23_"  overflow="visible"/>
		</clipPath>
		<g opacity="0.3" clip-path="url(#SVGID_2_)">
			<g>
				<path fill="#7E4186" d="M668.566,918.9c-5.788,0-11.518-1.078-17.038-3.193c-34.844-13.354-71.394-22.438-108.633-27.008
					c-29.875-3.654-60.892-4.246-92.343-1.75c-32.936,2.613-65.433,8.686-96.609,18.039c-8.618,2.586-17.795,5.74-29.757,10.262
					c-5.95,2.24-12.041,3.375-18.109,3.375c-12.516,0-24.152-4.814-32.758-13.568c-8.729-8.869-13.525-21.049-13.525-34.299V852.92
					V844c0-2.531-0.012-5.066-0.024-7.613c-0.106-18.373-0.226-37.373,4.185-56.375c13.746-59.299,48.352-103.121,102.874-130.244
					c2.745-1.371,5.526-2.063,8.283-2.063c6.24,0,10.425,3.342,13.027,5.873c20.124,19.467,43.61,31.891,69.771,36.928
					c10.603,2.045,21.05,3.078,31.059,3.078c35.479,0,67.822-13.094,96.111-38.92c3.042-2.777,7.874-6.461,14.75-6.461
					c3.477,0,7.013,0.967,10.816,2.963c58.515,30.836,92.854,79.051,102.102,143.313c4.213,29.289,2.899,58.225,1.069,82.65
					C712.035,900.941,692.589,918.9,668.566,918.9z M488.612,861.965c19.22,0,38.451,1.158,57.137,3.453
					c39.129,4.793,77.544,14.355,114.177,28.379c2.829,1.1,5.741,1.646,8.641,1.646c11.613,0,21.01-8.623,21.859-20.063
					c1.741-23.178,2.995-50.518-0.892-77.568c-8.188-56.904-37.311-97.957-89.027-125.469
					c-32.662,29.65-70.187,44.695-111.538,44.695c-11.494,0-23.427-1.18-35.486-3.494c-29.793-5.734-56.536-19.559-79.523-41.092
					c-46.653,24.236-75.179,61.193-87.16,112.857c-3.78,16.328-3.685,33.137-3.578,50.938c0.012,2.584,0.035,5.162,0.035,7.73v8.936
					v17.852c0,7.156,2.342,13.322,6.775,17.836c6.348,6.451,16.284,8.307,25.882,4.697c12.486-4.707,22.138-8.027,31.303-10.775
					c32.758-9.834,66.894-16.211,101.471-18.951C462.07,862.502,475.502,861.965,488.612,861.965z"/>
			</g>
			<g>
				<path fill="#7E4186" d="M487.614,686.217h-0.084c-36.454-0.016-70.639-14.135-96.253-39.73
					c-25.604-25.592-39.747-59.74-39.819-96.158c-0.07-36.398,14.085-70.657,39.854-96.476
					c25.483-25.54,59.538-39.598,95.896-39.598h0.286c36.466,0.077,70.662,14.337,96.277,40.162
					c25.519,25.721,39.45,59.778,39.235,95.894C623.008,625.221,562.258,686.217,487.614,686.217z M487.209,437.709
					c-30.083,0-58.242,11.618-79.303,32.715c-21.336,21.377-33.044,49.736-32.99,79.859c0.125,61.99,50.652,112.449,112.626,112.48
					l0.072,11.732v-11.732c61.724,0,111.93-50.473,111.942-112.521c0.178-29.912-11.352-58.043-32.432-79.304
					c-21.198-21.365-49.486-33.167-79.678-33.229H487.209z"/>
			</g>
			<g>
				<path fill="#7E4186" d="M901.13,795.113c-7.595,0-14.263-2.527-20.146-4.756c-1.534-0.586-3.055-1.166-4.552-1.674
					c-11.637-3.914-23.809-7.287-36.183-10.043c-6.834-1.525-13.859-2.854-20.884-3.971c-27.884-4.389-57.124-5.049-87.005-1.932
					c-0.988,0.1-1.914,0.152-2.771,0.152c-8.047,0-14.126-4.574-16.688-12.545c-14.062-43.771-41.066-79.139-80.291-105.1
					c-1.676-1.113-6.739-4.471-7.749-11.025c-1.017-6.529,2.775-11.23,4.018-12.777c12.729-15.813,28.835-28.791,47.853-38.596
					c7.779-4.01,15.417-2.84,21.87,3.309c19.273,18.361,42.701,27.664,69.641,27.664c26.149-0.006,49.196-9.115,68.547-27.082
					c4.268-3.963,8.719-5.885,13.61-5.885c4.433,0,8.07,1.664,10.424,2.914c41.066,21.926,66.193,56.053,74.668,101.416l0.227,1.205
					c1.503,8.033,3.209,17.131,2.532,26.328c-0.513,6.932-0.976,14.346-0.893,21.518c0.024,1.15,0.048,2.291,0.083,3.424
					c0.215,8.859,0.464,18.896-5.842,29.088c-4.035,6.543-9.871,11.916-16.408,15.1c-2.77,1.354-5.646,2.295-8.558,2.793
					C904.874,794.953,903.008,795.113,901.13,795.113z M769.135,747.334c18.222,0,36.348,1.402,53.892,4.166
					c7.5,1.186,15.012,2.615,22.328,4.244c13.177,2.936,26.144,6.537,38.54,10.709c1.783,0.598,3.591,1.275,5.421,1.967
					c5.081,1.936,9.912,3.715,13.288,3.115c0.755-0.125,1.521-0.385,2.318-0.773c2.514-1.221,5.027-3.602,6.728-6.348
					c2.52-4.061,2.531-8.566,2.33-16.168c-0.023-1.229-0.061-2.471-0.072-3.727c-0.095-8.053,0.398-16.07,0.951-23.537
					c0.452-6.141-0.832-13-2.199-20.26l-0.237-1.232c-7.084-37.994-27.089-65.553-61.143-84.217
					c-23.521,21.23-51.431,31.99-82.999,31.998c-32.183,0-60.299-10.783-83.644-32.066c-12.629,6.863-23.309,15.113-32.413,25.053
					c39.033,27.734,66.426,64.24,81.634,108.76C745.732,747.906,757.582,747.334,769.135,747.334z"/>
			</g>
			<g>
				<path fill="#7E4186" d="M74.252,795.098c-9.984,0-19.304-3.852-26.232-10.846c-6.954-7.018-10.728-16.516-10.639-26.736
					c0.012-1.475-0.647-3.541-1.284-5.537c-1.068-3.318-2.281-7.074-1.567-11.383c1.235-8.094,1.9-16.152,2.536-23.943
					c1.35-16.406,2.741-33.367,9.623-49.668c14.114-33.439,37.506-58.51,69.521-74.5c7.06-3.533,14.37-2.381,20.396,3.299
					c20.54,19.313,45.062,28.703,72.898,28.012c25.352-0.67,47.484-9.766,65.741-27.035c1.581-1.494,6.412-6.066,13.729-6.066
					c3.221,0,6.454,0.875,9.865,2.682c18.198,9.592,33.828,22.25,46.463,37.633c1.308,1.604,5.289,6.447,4.273,13.152
					c-1.005,6.699-6.389,10.264-8.161,11.428c-34.267,22.648-59.429,53.094-74.787,90.492c-1.829,4.475-3.398,9.16-5.188,14.801
					c-2.413,7.631-8.237,12.012-15.98,12.012c-0.714,0-1.474-0.035-2.283-0.115c-12.61-1.252-25.162-1.885-37.304-1.885
					c-31.707,0-62.551,4.33-91.707,12.855c-6.044,1.764-11.934,3.854-18.174,6.059c-3.014,1.068-6.032,2.131-9.069,3.17
					C82.773,794.385,78.507,795.098,74.252,795.098z M57.885,743.063c0.142,0.514,0.362,1.184,0.534,1.74
					c1.041,3.23,2.474,7.664,2.419,12.932c-0.041,5.016,2.063,8.209,3.846,10.002c3.637,3.68,9.259,4.879,14.702,3.027
					c2.937-0.994,5.86-2.033,8.772-3.064c6.275-2.219,12.754-4.512,19.428-6.467c31.291-9.158,64.357-13.797,98.286-13.797
					c11.352,0,23.029,0.52,34.761,1.547c1.379-4.191,2.734-7.988,4.296-11.803c16.231-39.539,42.238-72.113,77.35-96.91
					c-9.253-9.994-19.915-18.262-32.39-25.088c-22.311,20.475-49.138,31.246-79.767,32.057
					c-33.175,0.852-62.307-9.906-86.953-31.953c-25.382,13.596-43.343,33.531-54.872,60.818c-5.42,12.85-6.549,26.576-7.856,42.465
					C59.799,726.436,59.132,734.561,57.885,743.063z"/>
			</g>
			<g>
				<path fill="#7E4186" d="M768.844,625.16l-1.283-0.006c-28.461-0.359-54.623-11.512-73.676-31.412
					c-18.721-19.551-29.015-45.734-28.254-71.863c0.144-57.267,45.334-102.098,102.922-102.098h0.285
					c27.267,0.071,52.857,10.826,72.065,30.292c19.184,19.43,29.715,45.232,29.632,72.638
					C870.369,579.205,824.738,625.16,768.844,625.16z M768.779,443.238c-44.739,0-79.649,34.63-79.696,78.846l-0.012,0.344
					c-0.612,19.938,7.321,40.008,21.751,55.092c10.377,10.838,28.693,23.82,57.029,24.178l0.992,0.01
					c43.01,0,78.098-35.467,78.234-79.066c0.06-21.176-8.065-41.1-22.862-56.097C809.429,451.574,789.74,443.289,768.779,443.238z"
					/>
			</g>
			<g>
				<path fill="#7E4186" d="M207.043,625.066l-1.087-0.01c-28.594-0.287-54.777-11.404-73.748-31.303
					c-19.195-20.133-29.169-47.238-28.075-76.316c2.116-56.225,49.666-99.982,107.367-97.724
					c25.52,1.007,50.789,12.703,69.331,32.106c18.649,19.516,28.991,45.313,28.379,70.775
					C308.515,579.988,263.633,625.066,207.043,625.066z M207.28,443.087c-43.11,0-78.115,33.048-79.708,75.226
					c-0.849,22.699,6.823,43.746,21.609,59.256c14.572,15.271,34.814,23.811,57.018,24.031l0.844,0.01
					c43.598,0,78.181-34.895,78.722-79.439c0.962-40.551-34.161-77.41-75.192-79.015
					C209.479,443.105,208.387,443.087,207.28,443.087z"/>
			</g>
			<g>
				<path fill="#7E4186" d="M405.136,340.304l-2.828-0.458c-5.759-0.912-8.605-4.389-9.795-6.377
					c-3.18-5.328-1.378-10.462-0.784-12.15c1.962-6.909,3.001-12.956,3.161-18.483c0.464-15.579-3.772-30.085-12.599-43.115
					c-4.879-7.221-4.873-14.878,0.024-22.15c8.854-13.157,20.491-23.67,34.6-31.245c8.06-4.32,15.595-3.332,22.203,2.52
					c11.363,10.062,25.614,15.591,40.115,15.591c14.502,0,28.776-5.518,40.211-15.538c4.053-3.551,8.225-5.266,12.789-5.266
					c3.186,0,6.288,0.85,9.497,2.603c13.967,7.655,25.65,18.302,34.743,31.655c4.778,7.019,4.79,14.524,0.048,21.724
					c-12.291,18.637-15.523,38.35-9.866,60.229l0.049,0.122c3.743,9.473-1.249,14.979-3.579,16.901
					c-2.495,2.077-5.538,3.18-8.783,3.18c-3.286,0-5.8-1.144-7.156-1.756l-0.225-0.101c-22.44-7.551-45.191-11.369-67.62-11.369
					c-22.471,0-45.328,3.836-67.94,11.398L405.136,340.304z M479.341,303.366c20.587,0,41.363,2.886,61.95,8.564
					c-2.793-22.321,1.973-43.455,14.239-63.03c-6.251-8.59-13.675-15.375-22.607-20.679c-15.38,12.703-34.339,19.681-53.689,19.681
					c-19.314,0-38.201-6.954-53.499-19.642c-9.093,5.271-16.533,11.999-22.606,20.459c10.709,16.735,15.796,35.113,15.214,54.814
					c-0.084,2.698-0.31,5.453-0.678,8.285C438.203,306.207,458.896,303.366,479.341,303.366z"/>
			</g>
			<g>
				<path fill="#7E4186" d="M322.742,379.222c-21.432,0-41.477-8.326-56.453-23.451c-14.774-14.917-22.797-34.706-22.602-55.721
					c0.439-44.396,35.872-79.165,80.683-79.165l0.725,0.003c41.578,0.333,76.975,36.635,77.296,79.246
					c0.154,20.705-7.916,40.353-22.738,55.313c-15.143,15.279-35.278,23.727-56.72,23.775H322.742z M324.37,244.335
					c-32.306,0-56.904,24.057-57.219,55.943c-0.143,14.703,5.467,28.553,15.803,38.986c10.537,10.638,24.669,16.495,39.788,16.495
					v11.734l0.13-11.734c15.155-0.033,29.4-6,40.115-16.818c10.39-10.501,16.059-24.211,15.939-38.623
					c-0.213-29.584-25.471-55.744-54.021-55.982H324.37z"/>
			</g>
			<g>
				<path fill="#7E4186" d="M635.762,379.228c-21.265,0-41.174-8.195-56.066-23.077c-14.894-14.883-23.096-34.79-23.071-56.023
					c0.036-43.696,35.753-79.24,79.625-79.24c43.479,0.113,78.686,35.723,78.71,79.365c0.006,21.297-8.189,41.182-23.059,56.006
					C677.041,371.074,657.098,379.228,635.762,379.228z M636.392,244.344c-31.095,0-56.292,25.031-56.304,55.798
					c-0.024,14.964,5.729,28.962,16.188,39.422c10.465,10.447,24.484,16.206,39.485,16.206l0,0c15.096,0,29.144-5.72,39.581-16.123
					c10.424-10.391,16.164-24.375,16.152-39.387C691.489,269.506,666.772,244.427,636.392,244.344z"/>
			</g>
			<g>
				<path fill="#7E4186" d="M348.653,488.797c-1.688,0-3.471-0.201-5.289-0.6c-2.318-0.506-5.159-0.586-8.165-0.662
					c-1.486-0.037-2.937-0.08-4.352-0.164c-1.735-0.006-3.435-0.029-5.117-0.053c-1.634-0.018-3.25-0.043-4.854-0.043
					c-2.354,0-4.244,0.055-5.955,0.162c-0.559,0.041-1.094,0.061-1.604,0.061c-5.087,0-12.105-1.814-16.593-10.48
					c-14.561-28.051-36.55-45.392-67.228-53.038c-3.792-0.939-7.905-1.489-12.255-2.065l-0.879-0.119
					c-5.79-0.779-9.878-3.328-12.173-7.577c-1.568-2.91-2.816-7.7,0.186-14.023c10.607-22.247,27.32-39.297,49.689-50.651
					c2.495-1.266,5.074-1.908,7.667-1.908c6.311,0,10.424,3.735,12.183,5.334c13.705,12.457,29.763,18.922,47.734,19.213
					l1.331,0.012c18.732,0,35.005-6.371,48.358-18.946c6.437-6.046,14.032-7.158,21.924-3.001
					c20.047,10.528,35.777,26.217,46.748,46.61c0.999,1.852,4.041,7.503,1.783,14.014c-1.498,4.333-4.886,7.672-10.067,9.916
					c-27.576,11.966-49.327,30.888-64.637,56.252C365.329,479.955,359.981,488.797,348.653,488.797z M320.876,463.822
					c1.712,0,3.435,0.021,5.182,0.044c1.688,0.024,3.4,0.054,5.147,0.054l0.742,0.018c1.254,0.083,2.55,0.116,3.857,0.152
					c3.388,0.089,7.179,0.188,11.149,0.91c0.023-0.024,0.035-0.054,0.047-0.077c16.688-27.635,39.878-48.706,68.999-62.726
					c-7.928-12.661-18.114-22.431-30.939-29.708c-17.906,15.776-39.42,23.569-63.793,23.145
					c-22.714-0.362-43.068-8.109-60.56-23.043c-12.444,7.039-22.227,16.186-29.631,27.732c1.354,0.264,2.716,0.562,4.088,0.9
					c36.217,9.024,63.508,30.101,81.146,62.668C317.726,463.843,319.211,463.822,320.876,463.822z"/>
			</g>
			<g>
				<path fill="#7E4186" d="M662.34,488.732c-0.881,0-1.784-0.074-2.687-0.221c-8.226-0.639-16.713-1.287-25.128-1.287
					c-3.613,0-6.93,0.117-10.145,0.363c-0.435,0.029-0.874,0.045-1.29,0.045c-4.22,0-10.139-1.545-14.441-8.924
					c-9.193-15.766-21.525-29.631-36.645-41.187c-11.946-9.147-25.281-16.136-39.651-20.782c-5.189-1.68-10.995-3.554-13.396-10.002
					c-2.4-6.44,0.725-11.606,3.483-16.173c10.482-17.375,25.056-30.951,43.313-40.356c7.654-3.943,14.988-2.885,21.264,2.812
					c13.693,12.436,30.999,19.285,48.745,19.285c17.733,0,35.076-6.84,48.834-19.264c3.856-3.483,7.91-5.183,12.379-5.183
					c2.96,0,5.86,0.767,8.879,2.335c22.298,11.554,38.998,29.088,49.624,52.114c2.841,6.13,1.772,10.801,0.387,13.639
					c-3.036,6.225-9.313,7.672-11.382,8.157c-17.982,4.189-33.576,12.857-47.645,26.502c-7.767,7.527-14.275,16.646-19.915,27.875
					C675.58,481.152,671.801,488.732,662.34,488.732z M634.525,463.769c7.869,0,15.772,0.511,23.048,1.061
					c6.483-12.225,14.013-22.408,22.939-31.064c14.536-14.094,31.094-24.146,49.339-29.943
					c-7.798-13.33-18.322-23.626-31.938-31.269c-17.793,15.027-39.688,23.204-62.152,23.204c-22.513,0-44.418-8.209-62.045-23.198
					c-11.149,6.223-20.135,14.201-27.332,24.238c14.352,5.384,27.724,12.79,39.871,22.093
					c16.604,12.691,30.346,27.831,40.888,45.032C629.521,463.822,631.97,463.769,634.525,463.769z"/>
			</g>
			<g>
				<path fill="#7E4186" d="M479.198,233.766h-0.059c-39.219-0.039-69.915-30.906-69.891-70.287
					c0.029-37.654,32.021-69.467,69.865-69.467l0.904,0.003c38.201,0.525,69.224,32.493,69.142,71.267
					C549.088,203.046,517.697,233.766,479.198,233.766z M479.114,117.465c-24.698,0-46.391,21.508-46.402,46.031
					c-0.023,26.226,20.385,46.786,46.445,46.818l0.041,11.723v-11.723c25.591,0,46.457-20.224,46.51-45.08
					c0.048-25.991-20.587-47.418-46.005-47.763L479.114,117.465z"/>
			</g>
		</g>
	</g>
</g>
</svg>
