<?xml version="1.0" encoding="utf-8"?>
<!-- Generator: Adobe Illustrator 16.0.3, SVG Export Plug-In . SVG Version: 6.00 Build 0)  -->
<!DOCTYPE svg PUBLIC "-//W3C//DTD SVG 1.1//EN" "http://www.w3.org/Graphics/SVG/1.1/DTD/svg11.dtd">
<svg version="1.1" id="Capa_1" xmlns="http://www.w3.org/2000/svg" xmlns:xlink="http://www.w3.org/1999/xlink" x="0px" y="0px"
	 width="960px" height="960px" viewBox="0 0 960 960" enable-background="new 0 0 960 960" xml:space="preserve">
<g>
	<g>
		<g>
			<g>
				<path fill-rule="evenodd" clip-rule="evenodd" fill="#FFFFFF" d="M855,508.951c0,207.105-167.9,375-375,375
					c-207.111,0-375-167.895-375-375c0-207.112,167.889-375,375-375C687.1,133.951,855,301.839,855,508.951z"/>
			</g>
		</g>
	</g>
	<g opacity="0.3">
		<g>
			<path fill="#7E4186" d="M697.958,782.941c-6.733,0-13.401-1.252-19.808-3.709c-40.507-15.529-83-26.086-126.288-31.396
				c-34.719-4.252-70.78-4.936-107.341-2.037c-38.273,3.041-76.047,10.096-112.286,20.975c-10.026,3.002-20.693,6.668-34.601,11.928
				c-6.917,2.604-14.001,3.92-21.05,3.92c-14.548,0-28.074-5.594-38.083-15.77c-10.15-10.314-15.725-24.473-15.725-39.875v-20.732
				v-10.373c0-2.939-0.012-5.889-0.023-8.85c-0.125-21.352-0.255-43.441,4.873-65.529c15.975-68.93,56.209-119.875,119.572-151.405
				c3.197-1.593,6.43-2.395,9.64-2.395c7.25,0,12.111,3.883,15.131,6.825c23.403,22.627,50.692,37.073,81.109,42.928
				c12.325,2.375,24.473,3.576,36.098,3.576c41.255,0,78.839-15.225,111.727-45.248c3.536-3.221,9.164-7.506,17.151-7.506
				c4.035,0,8.154,1.124,12.563,3.444c68.017,35.845,107.948,91.896,118.692,166.597c4.897,34.047,3.376,67.684,1.248,96.08
				C748.491,762.064,725.884,782.941,697.958,782.941z M488.767,716.754c22.345,0,44.685,1.35,66.412,4.018
				c45.493,5.572,90.154,16.686,132.729,32.99c3.286,1.281,6.668,1.914,10.05,1.914c13.496,0,24.419-10.027,25.406-23.32
				c2.026-26.945,3.481-58.727-1.041-90.172c-9.515-66.146-43.377-113.875-103.49-145.855
				c-37.957,34.469-81.578,51.961-129.656,51.961c-13.349,0-27.231-1.371-41.244-4.066c-34.636-6.662-65.718-22.736-92.438-47.764
				c-54.235,28.172-87.385,71.137-101.315,131.189c-4.397,18.98-4.278,38.52-4.159,59.217c0.011,3,0.023,5.998,0.035,8.986v10.385
				v20.752c-0.012,8.32,2.722,15.484,7.881,20.734c7.368,7.494,18.934,9.656,30.083,5.463c14.512-5.477,25.732-9.34,36.382-12.531
				c38.077-11.432,77.758-18.842,117.962-22.027C457.917,717.381,473.534,716.754,488.767,716.754z"/>
		</g>
		<g>
			<path fill="#7E4186" d="M487.613,512.463h-0.102c-42.373-0.029-82.119-16.436-111.894-46.188
				c-29.762-29.753-46.2-69.446-46.283-111.778c-0.071-42.311,16.379-82.135,46.331-112.144
				c29.62-29.691,69.212-46.034,111.466-46.034h0.345c42.385,0.089,82.132,16.664,111.918,46.688
				c29.654,29.89,45.844,69.488,45.605,111.469C644.988,441.555,574.387,512.463,487.613,512.463z M487.132,223.576
				c-34.956,0-67.702,13.512-92.176,38.035c-24.806,24.848-38.415,57.819-38.349,92.832c0.137,72.059,58.876,130.715,130.917,130.75
				l0.089,13.643v-13.643c71.743,0,130.109-58.671,130.121-130.798c0.201-34.775-13.193-67.47-37.702-92.184
				c-24.64-24.838-57.528-38.555-92.615-38.635H487.132z"/>
		</g>
	</g>
</g>
</svg>
