<?xml version="1.0" encoding="utf-8"?>
<!-- Generator: Adobe Illustrator 16.0.0, SVG Export Plug-In . SVG Version: 6.00 Build 0)  -->
<!DOCTYPE svg PUBLIC "-//W3C//DTD SVG 1.1//EN" "http://www.w3.org/Graphics/SVG/1.1/DTD/svg11.dtd">
<svg version="1.1" id="Capa_1" xmlns="http://www.w3.org/2000/svg" xmlns:xlink="http://www.w3.org/1999/xlink" x="0px" y="0px"
	 width="1080px" height="1080px" viewBox="0 0 1080 1080" enable-background="new 0 0 1080 1080" xml:space="preserve">
<g>
	<g>
		<g>
			<g>
				<path fill-rule="evenodd" clip-rule="evenodd" fill="#FFFFFF" d="M1015.876,544.341c0,266.056-215.687,481.76-481.759,481.76
					S52.351,810.396,52.351,544.341c0-266.069,215.694-481.766,481.767-481.766S1015.876,278.271,1015.876,544.341z"/>
			</g>
		</g>
	</g>
</g>
<radialGradient id="SVGID_2_" cx="471.3398" cy="267.3672" r="4.8784" gradientTransform="matrix(0.8753 0 0 0.8753 52.3606 -77.9473)" gradientUnits="userSpaceOnUse">
	<stop  offset="0" style="stop-color:#A1D9FA"/>
	<stop  offset="1" style="stop-color:#49B1BA"/>
</radialGradient>
<path fill="url(#SVGID_2_)" d="M469.181,156.069c0,0.067,0,0.141-0.003,0.214c-0.004,0.096-0.015,0.177-0.022,0.266
	c-0.015,0.051-0.015,0.11-0.019,0.162c-0.011,0.073-0.021,0.14-0.044,0.214c-0.011,0.075-0.03,0.14-0.045,0.206
	c-0.021,0.067-0.036,0.141-0.059,0.2c-0.019,0.067-0.037,0.134-0.066,0.198c-0.037,0.12-0.088,0.229-0.137,0.341
	c-0.096,0.2-0.211,0.398-0.335,0.583c-0.033,0.051-0.078,0.11-0.119,0.162c-0.04,0.06-0.085,0.111-0.129,0.162
	c-0.081,0.103-0.173,0.207-0.272,0.303c-0.045,0.052-0.096,0.096-0.144,0.141c-0.277,0.251-0.583,0.465-0.919,0.643
	c-0.053,0.022-0.104,0.044-0.159,0.073c-0.04,0.014-0.093,0.036-0.141,0.059c-0.048,0.021-0.104,0.044-0.151,0.06
	c-0.225,0.089-0.453,0.155-0.689,0.198c-0.059,0.016-0.126,0.022-0.188,0.03c-0.203,0.029-0.418,0.052-0.627,0.052
	c-2.358,0-4.272-1.911-4.272-4.266c0-2.362,1.914-4.273,4.272-4.273c0.106,0,0.209,0,0.317,0.016c0.106,0,0.208,0.014,0.31,0.036
	c0.077,0,0.147,0.016,0.218,0.037c0.1,0.016,0.192,0.038,0.284,0.066c0.015,0,0.04,0,0.052,0.008
	c0.111,0.028,0.218,0.073,0.324,0.11c0.048,0.016,0.104,0.045,0.151,0.067c0.06,0.021,0.118,0.051,0.182,0.066
	c0.11,0.058,0.217,0.118,0.32,0.176c0.091,0.06,0.174,0.111,0.249,0.162c0.031,0.016,0.057,0.038,0.076,0.052
	c0.069,0.053,0.14,0.104,0.207,0.162c0.084,0.067,0.173,0.141,0.25,0.223c0.052,0.044,0.099,0.096,0.145,0.133
	c0.063,0.065,0.121,0.125,0.174,0.198c0.059,0.067,0.11,0.127,0.161,0.2c0.041,0.052,0.074,0.096,0.107,0.147
	c0.163,0.235,0.293,0.48,0.406,0.745c0.018,0.052,0.044,0.103,0.057,0.155c0.035,0.08,0.062,0.154,0.087,0.236
	c0.022,0.073,0.037,0.133,0.059,0.207c0.074,0.265,0.115,0.552,0.13,0.848C469.181,155.914,469.181,155.987,469.181,156.069"/>
<radialGradient id="SVGID_4_" cx="490.6523" cy="273.3838" r="6.0967" gradientTransform="matrix(0.8753 0 0 0.8753 52.3606 -77.9473)" gradientUnits="userSpaceOnUse">
	<stop  offset="0" style="stop-color:#A1D9FA"/>
	<stop  offset="1" style="stop-color:#49B1BA"/>
</radialGradient>
<path fill="url(#SVGID_4_)" d="M487.151,161.332c0,0.096,0,0.176-0.004,0.271c-0.008,0.118-0.019,0.222-0.029,0.34
	c-0.012,0.06-0.015,0.134-0.029,0.2c-0.008,0.087-0.026,0.176-0.045,0.258c-0.019,0.088-0.046,0.177-0.062,0.266
	c-0.022,0.082-0.049,0.169-0.071,0.251c-0.021,0.08-0.052,0.162-0.085,0.243c-0.048,0.148-0.106,0.288-0.173,0.429
	c-0.118,0.242-0.259,0.494-0.421,0.723c-0.04,0.074-0.093,0.141-0.144,0.207c-0.052,0.074-0.104,0.141-0.159,0.205
	c-0.099,0.134-0.218,0.26-0.349,0.378c-0.05,0.059-0.112,0.118-0.179,0.176c-0.344,0.312-0.723,0.576-1.144,0.799
	c-0.066,0.029-0.134,0.064-0.2,0.096c-0.055,0.022-0.113,0.051-0.177,0.064c-0.059,0.038-0.126,0.067-0.189,0.089
	c-0.282,0.104-0.567,0.186-0.858,0.236c-0.077,0.022-0.158,0.031-0.234,0.038c-0.257,0.037-0.522,0.066-0.784,0.066
	c-2.955,0-5.339-2.392-5.339-5.335c0-2.953,2.384-5.336,5.339-5.336c0.133,0,0.262,0,0.396,0.014
	c0.132,0.016,0.262,0.029,0.389,0.045c0.094,0.007,0.183,0.029,0.275,0.051c0.118,0.022,0.235,0.038,0.345,0.082
	c0.023,0.007,0.054,0.007,0.075,0.022c0.13,0.029,0.267,0.073,0.397,0.132c0.063,0.016,0.131,0.044,0.189,0.075
	c0.081,0.036,0.151,0.073,0.229,0.087c0.14,0.075,0.272,0.148,0.405,0.229c0.107,0.06,0.211,0.126,0.31,0.191
	c0.033,0.022,0.063,0.053,0.093,0.075c0.085,0.058,0.173,0.125,0.254,0.198c0.115,0.082,0.222,0.178,0.317,0.273
	c0.06,0.058,0.122,0.118,0.178,0.169c0.075,0.082,0.155,0.156,0.218,0.244c0.074,0.081,0.14,0.17,0.203,0.25
	c0.051,0.06,0.092,0.127,0.127,0.193c0.204,0.287,0.371,0.597,0.515,0.93c0.025,0.059,0.052,0.125,0.074,0.191
	c0.042,0.096,0.074,0.198,0.106,0.296c0.022,0.08,0.049,0.169,0.071,0.25c0.091,0.347,0.146,0.693,0.165,1.063
	C487.151,161.146,487.151,161.242,487.151,161.332"/>
<radialGradient id="SVGID_5_" cx="513.0137" cy="278.4385" r="7.3169" gradientTransform="matrix(0.8753 0 0 0.8753 52.3606 -77.9473)" gradientUnits="userSpaceOnUse">
	<stop  offset="0" style="stop-color:#A1D9FA"/>
	<stop  offset="1" style="stop-color:#49B1BA"/>
</radialGradient>
<path fill="url(#SVGID_5_)" d="M507.793,165.759c0,0.111,0,0.214-0.005,0.332c-0.005,0.133-0.021,0.267-0.032,0.398
	c-0.018,0.073-0.022,0.162-0.033,0.235c-0.015,0.111-0.033,0.216-0.059,0.318c-0.022,0.103-0.048,0.214-0.07,0.31
	c-0.033,0.104-0.056,0.215-0.088,0.311c-0.026,0.096-0.061,0.191-0.097,0.294c-0.063,0.172-0.133,0.341-0.214,0.503
	c-0.144,0.303-0.306,0.599-0.498,0.879c-0.052,0.08-0.115,0.169-0.179,0.249c-0.061,0.082-0.124,0.163-0.19,0.238
	c-0.12,0.16-0.259,0.316-0.413,0.456c-0.063,0.073-0.141,0.141-0.222,0.207c-0.409,0.369-0.867,0.694-1.371,0.968
	c-0.079,0.035-0.162,0.064-0.237,0.109c-0.066,0.021-0.137,0.06-0.21,0.082c-0.075,0.036-0.151,0.073-0.233,0.096
	c-0.332,0.133-0.675,0.229-1.025,0.296c-0.092,0.021-0.192,0.028-0.284,0.035c-0.307,0.052-0.628,0.082-0.945,0.082
	c-3.538,0-6.405-2.871-6.405-6.398c0-3.542,2.867-6.405,6.405-6.405c0.163,0,0.317,0,0.477,0.014
	c0.162,0.016,0.313,0.038,0.469,0.06c0.114,0.007,0.218,0.029,0.324,0.059c0.151,0.022,0.288,0.044,0.425,0.104
	c0.021,0,0.063,0,0.085,0.016c0.154,0.042,0.317,0.103,0.476,0.16c0.082,0.031,0.158,0.06,0.233,0.098
	c0.092,0.036,0.177,0.073,0.269,0.103c0.166,0.089,0.328,0.169,0.485,0.273c0.135,0.073,0.257,0.153,0.375,0.235
	c0.04,0.022,0.077,0.052,0.108,0.081c0.108,0.075,0.208,0.148,0.311,0.237c0.134,0.103,0.263,0.214,0.381,0.332
	c0.07,0.066,0.145,0.14,0.211,0.207c0.092,0.096,0.184,0.191,0.259,0.287c0.088,0.103,0.169,0.199,0.245,0.309
	c0.063,0.067,0.111,0.141,0.158,0.223c0.245,0.347,0.445,0.723,0.61,1.114c0.029,0.074,0.067,0.154,0.093,0.229
	c0.045,0.118,0.088,0.242,0.126,0.36c0.032,0.096,0.055,0.2,0.088,0.303c0.106,0.407,0.174,0.834,0.194,1.271
	C507.793,165.537,507.793,165.648,507.793,165.759"/>
<radialGradient id="SVGID_6_" cx="566.5195" cy="294.9473" r="9.7539" gradientTransform="matrix(0.8753 0 0 0.8753 52.3606 -77.9473)" gradientUnits="userSpaceOnUse">
	<stop  offset="0" style="stop-color:#A1D9FA"/>
	<stop  offset="1" style="stop-color:#49B1BA"/>
</radialGradient>
<path fill="url(#SVGID_6_)" d="M556.759,180.209c0,0.147,0,0.28,0,0.435c-0.007,0.185-0.029,0.354-0.052,0.531
	c-0.015,0.103-0.022,0.223-0.04,0.325c-0.019,0.146-0.041,0.287-0.086,0.421c-0.018,0.14-0.055,0.287-0.084,0.42
	c-0.037,0.134-0.078,0.28-0.118,0.398c-0.033,0.141-0.078,0.267-0.133,0.392c-0.077,0.236-0.181,0.472-0.284,0.688
	c-0.185,0.398-0.409,0.788-0.664,1.15c-0.07,0.125-0.151,0.235-0.232,0.347s-0.166,0.221-0.255,0.316
	c-0.162,0.215-0.348,0.422-0.55,0.613c-0.085,0.096-0.195,0.185-0.299,0.28c-0.542,0.487-1.158,0.922-1.834,1.277
	c-0.1,0.045-0.207,0.096-0.306,0.147c-0.093,0.037-0.192,0.082-0.285,0.11c-0.099,0.052-0.202,0.096-0.31,0.132
	c-0.45,0.171-0.9,0.296-1.372,0.385c-0.119,0.038-0.248,0.045-0.373,0.06c-0.413,0.059-0.838,0.103-1.266,0.103
	c-4.716,0-8.539-3.822-8.539-8.53c0-4.723,3.823-8.538,8.539-8.538c0.218,0,0.428,0,0.634,0.014
	c0.219,0.021,0.425,0.053,0.632,0.082c0.144,0.007,0.287,0.035,0.432,0.073c0.199,0.037,0.38,0.066,0.564,0.133
	c0.037,0.007,0.078,0.014,0.114,0.022c0.207,0.066,0.421,0.141,0.635,0.221c0.107,0.038,0.211,0.073,0.31,0.118
	c0.123,0.06,0.232,0.104,0.358,0.148c0.218,0.125,0.436,0.236,0.649,0.354c0.178,0.111,0.34,0.214,0.498,0.316
	c0.056,0.038,0.104,0.075,0.151,0.111c0.137,0.104,0.273,0.207,0.405,0.325c0.182,0.133,0.351,0.28,0.507,0.442
	c0.099,0.089,0.195,0.178,0.283,0.273c0.126,0.125,0.24,0.251,0.351,0.383c0.114,0.134,0.218,0.273,0.325,0.407
	c0.081,0.096,0.144,0.191,0.21,0.296c0.325,0.463,0.591,0.966,0.812,1.49c0.041,0.103,0.093,0.205,0.122,0.31
	c0.063,0.155,0.114,0.317,0.17,0.472c0.04,0.134,0.081,0.267,0.118,0.414c0.14,0.538,0.232,1.099,0.262,1.688
	C556.759,179.914,556.759,180.054,556.759,180.209"/>
<radialGradient id="SVGID_7_" cx="592.5391" cy="306.5361" r="10.9795" gradientTransform="matrix(0.8753 0 0 0.8753 52.3606 -77.9473)" gradientUnits="userSpaceOnUse">
	<stop  offset="0" style="stop-color:#A1D9FA"/>
	<stop  offset="1" style="stop-color:#49B1BA"/>
</radialGradient>
<path fill="url(#SVGID_7_)" d="M580.604,190.349c0,0.169,0,0.324,0,0.486c-0.011,0.214-0.033,0.405-0.056,0.605
	c-0.025,0.118-0.025,0.251-0.044,0.36c-0.022,0.172-0.052,0.334-0.093,0.474c-0.029,0.163-0.07,0.325-0.106,0.472
	c-0.04,0.156-0.081,0.31-0.129,0.459c-0.037,0.153-0.085,0.294-0.147,0.434c-0.089,0.267-0.203,0.532-0.313,0.776
	c-0.215,0.449-0.47,0.886-0.75,1.298c-0.088,0.133-0.177,0.267-0.266,0.391c-0.093,0.118-0.184,0.245-0.287,0.356
	c-0.182,0.235-0.389,0.472-0.621,0.686c-0.092,0.11-0.213,0.206-0.339,0.309c-0.605,0.555-1.295,1.048-2.055,1.439
	c-0.111,0.061-0.237,0.118-0.351,0.17c-0.101,0.037-0.21,0.097-0.318,0.126c-0.11,0.059-0.228,0.111-0.343,0.154
	c-0.506,0.193-1.015,0.324-1.55,0.429c-0.133,0.045-0.28,0.052-0.42,0.066c-0.462,0.074-0.938,0.118-1.417,0.118
	c-5.311,0-9.616-4.303-9.616-9.608c0-5.32,4.306-9.609,9.616-9.609c0.243,0,0.479,0,0.712,0.022
	c0.243,0.016,0.476,0.053,0.705,0.082c0.166,0.014,0.324,0.044,0.486,0.089c0.226,0.043,0.433,0.073,0.635,0.146
	c0.04,0.016,0.089,0.022,0.133,0.029c0.229,0.073,0.473,0.155,0.716,0.251c0.115,0.038,0.232,0.081,0.343,0.134
	c0.134,0.066,0.263,0.109,0.406,0.169c0.243,0.134,0.487,0.259,0.73,0.392c0.196,0.125,0.381,0.236,0.554,0.36
	c0.066,0.038,0.125,0.082,0.173,0.127c0.151,0.109,0.308,0.221,0.459,0.354c0.202,0.156,0.395,0.325,0.568,0.501
	c0.113,0.098,0.217,0.2,0.316,0.312c0.144,0.14,0.277,0.28,0.398,0.434c0.129,0.149,0.247,0.296,0.365,0.452
	c0.089,0.11,0.159,0.213,0.232,0.338c0.369,0.525,0.672,1.086,0.915,1.669c0.048,0.125,0.104,0.235,0.137,0.362
	c0.077,0.162,0.13,0.345,0.192,0.522c0.048,0.156,0.089,0.303,0.129,0.466c0.162,0.604,0.266,1.239,0.299,1.904
	C580.604,190.017,580.604,190.179,580.604,190.349"/>
<radialGradient id="SVGID_8_" cx="614.4941" cy="326.8652" r="12.1992" gradientTransform="matrix(0.8753 0 0 0.8753 52.3606 -77.9473)" gradientUnits="userSpaceOnUse">
	<stop  offset="0" style="stop-color:#A1D9FA"/>
	<stop  offset="1" style="stop-color:#49B1BA"/>
</radialGradient>
<path fill="url(#SVGID_8_)" d="M600.887,208.141c0,0.2,0,0.362,0,0.547c-0.007,0.236-0.036,0.449-0.063,0.672
	c-0.019,0.125-0.029,0.28-0.048,0.398c-0.021,0.185-0.056,0.369-0.106,0.522c-0.026,0.185-0.074,0.362-0.111,0.532
	c-0.044,0.162-0.092,0.34-0.14,0.509c-0.045,0.163-0.104,0.325-0.17,0.48c-0.1,0.294-0.226,0.59-0.351,0.855
	c-0.233,0.509-0.517,0.989-0.834,1.454c-0.092,0.141-0.192,0.287-0.291,0.428c-0.104,0.126-0.207,0.273-0.317,0.398
	c-0.203,0.258-0.433,0.516-0.69,0.761c-0.1,0.118-0.239,0.221-0.376,0.347c-0.676,0.612-1.443,1.159-2.284,1.594
	c-0.126,0.06-0.266,0.133-0.392,0.185c-0.11,0.051-0.236,0.11-0.351,0.148c-0.126,0.058-0.258,0.118-0.384,0.169
	c-0.564,0.214-1.129,0.361-1.72,0.472c-0.151,0.045-0.31,0.061-0.469,0.074c-0.516,0.089-1.044,0.133-1.575,0.133
	c-5.896,0-10.683-4.781-10.683-10.679c0-5.911,4.786-10.678,10.683-10.678c0.273,0,0.531,0,0.79,0.029
	c0.27,0.022,0.527,0.058,0.785,0.096c0.186,0.007,0.365,0.044,0.543,0.089c0.244,0.044,0.477,0.089,0.704,0.169
	c0.048,0.016,0.097,0.022,0.148,0.029c0.255,0.089,0.523,0.178,0.793,0.28c0.126,0.038,0.258,0.098,0.384,0.148
	c0.148,0.067,0.292,0.125,0.45,0.185c0.27,0.147,0.539,0.287,0.812,0.443c0.218,0.132,0.422,0.265,0.62,0.398
	c0.07,0.044,0.13,0.089,0.185,0.14c0.178,0.118,0.347,0.252,0.509,0.392c0.229,0.169,0.443,0.36,0.639,0.561
	c0.122,0.109,0.24,0.214,0.347,0.339c0.163,0.155,0.307,0.317,0.443,0.487c0.144,0.171,0.272,0.331,0.406,0.502
	c0.099,0.125,0.18,0.236,0.258,0.377c0.409,0.582,0.742,1.21,1.018,1.853c0.049,0.141,0.119,0.265,0.148,0.405
	c0.084,0.178,0.147,0.383,0.222,0.583c0.048,0.169,0.096,0.331,0.14,0.509c0.177,0.672,0.292,1.373,0.328,2.118
	C600.887,207.779,600.887,207.956,600.887,208.141"/>
<radialGradient id="SVGID_9_" cx="631.1699" cy="359.1875" r="13.4194" gradientTransform="matrix(0.8753 0 0 0.8753 52.3606 -77.9473)" gradientUnits="userSpaceOnUse">
	<stop  offset="0" style="stop-color:#A1D9FA"/>
	<stop  offset="1" style="stop-color:#49B1BA"/>
</radialGradient>
<path fill="url(#SVGID_9_)" d="M616.551,236.436c0,0.214,0,0.398,0,0.597c-0.011,0.267-0.044,0.496-0.069,0.738
	c-0.022,0.141-0.033,0.303-0.056,0.443c-0.022,0.199-0.06,0.405-0.115,0.575c-0.032,0.199-0.084,0.398-0.124,0.583
	c-0.053,0.185-0.101,0.377-0.156,0.562c-0.044,0.176-0.106,0.354-0.185,0.531c-0.106,0.325-0.242,0.641-0.384,0.937
	c-0.258,0.554-0.571,1.093-0.914,1.594c-0.104,0.155-0.215,0.324-0.321,0.474c-0.118,0.14-0.229,0.303-0.351,0.442
	c-0.225,0.28-0.477,0.561-0.764,0.834c-0.107,0.132-0.259,0.243-0.413,0.383c-0.742,0.672-1.587,1.271-2.509,1.756
	c-0.142,0.066-0.296,0.141-0.433,0.2c-0.122,0.051-0.259,0.125-0.388,0.162c-0.14,0.066-0.28,0.125-0.42,0.185
	c-0.62,0.236-1.24,0.398-1.894,0.523c-0.162,0.053-0.34,0.06-0.513,0.082c-0.567,0.096-1.151,0.141-1.734,0.141
	c-6.487,0-11.749-5.263-11.749-11.741c0-6.503,5.262-11.749,11.749-11.749c0.296,0,0.583,0,0.871,0.037
	c0.296,0.014,0.583,0.059,0.863,0.103c0.203,0.007,0.395,0.045,0.598,0.096c0.27,0.052,0.524,0.096,0.774,0.186
	c0.053,0.021,0.104,0.028,0.163,0.037c0.276,0.096,0.576,0.185,0.871,0.303c0.14,0.051,0.28,0.103,0.42,0.162
	c0.163,0.08,0.321,0.141,0.495,0.205c0.299,0.162,0.598,0.325,0.896,0.487c0.236,0.141,0.461,0.296,0.683,0.442
	c0.074,0.045,0.14,0.098,0.199,0.149c0.195,0.132,0.384,0.271,0.564,0.442c0.251,0.176,0.483,0.383,0.693,0.605
	c0.141,0.125,0.273,0.235,0.392,0.376c0.174,0.169,0.336,0.354,0.483,0.538c0.158,0.185,0.299,0.369,0.45,0.547
	c0.106,0.141,0.192,0.25,0.28,0.412c0.454,0.644,0.819,1.328,1.114,2.038c0.06,0.154,0.137,0.287,0.174,0.442
	c0.092,0.198,0.159,0.428,0.235,0.642c0.056,0.193,0.104,0.369,0.156,0.569c0.199,0.736,0.32,1.513,0.364,2.331
	C616.551,236.028,616.551,236.229,616.551,236.436"/>
<radialGradient id="SVGID_10_" cx="631.166" cy="393.542" r="14.6367" gradientTransform="matrix(0.8753 0 0 0.8753 52.3606 -77.9473)" gradientUnits="userSpaceOnUse">
	<stop  offset="0" style="stop-color:#A1D9FA"/>
	<stop  offset="1" style="stop-color:#49B1BA"/>
</radialGradient>
<path fill="url(#SVGID_10_)" d="M617.613,266.507c0,0.236,0,0.437,0,0.658c-0.007,0.28-0.044,0.538-0.069,0.797
	c-0.026,0.153-0.037,0.338-0.06,0.487c-0.025,0.214-0.07,0.434-0.129,0.618c-0.037,0.229-0.089,0.437-0.137,0.637
	c-0.051,0.198-0.106,0.411-0.166,0.611c-0.048,0.198-0.118,0.392-0.199,0.583c-0.125,0.354-0.272,0.701-0.42,1.025
	c-0.28,0.599-0.624,1.188-1,1.734c-0.115,0.178-0.232,0.355-0.354,0.518c-0.122,0.154-0.248,0.332-0.377,0.479
	c-0.247,0.312-0.523,0.621-0.833,0.916c-0.119,0.141-0.285,0.266-0.454,0.421c-0.809,0.729-1.728,1.38-2.738,1.911
	c-0.151,0.073-0.317,0.154-0.469,0.221c-0.133,0.051-0.284,0.133-0.421,0.178c-0.151,0.066-0.306,0.133-0.461,0.198
	c-0.676,0.267-1.354,0.436-2.066,0.569c-0.173,0.058-0.365,0.066-0.557,0.096c-0.617,0.096-1.255,0.146-1.894,0.146
	c-7.073,0-12.819-5.74-12.819-12.804c0-7.1,5.746-12.817,12.819-12.817c0.324,0,0.639,0,0.948,0.036
	c0.328,0.021,0.639,0.066,0.945,0.11c0.221,0.007,0.432,0.052,0.649,0.111c0.295,0.052,0.571,0.096,0.849,0.198
	c0.051,0.022,0.11,0.038,0.174,0.045c0.306,0.096,0.631,0.2,0.951,0.324c0.155,0.061,0.31,0.118,0.461,0.185
	c0.174,0.09,0.351,0.147,0.539,0.214c0.324,0.185,0.649,0.362,0.978,0.532c0.258,0.162,0.502,0.324,0.745,0.487
	c0.078,0.051,0.156,0.11,0.215,0.162c0.214,0.146,0.421,0.303,0.616,0.48c0.272,0.198,0.527,0.42,0.764,0.663
	c0.147,0.141,0.291,0.258,0.42,0.407c0.192,0.191,0.366,0.39,0.528,0.589c0.174,0.2,0.325,0.398,0.487,0.599
	c0.122,0.154,0.214,0.28,0.313,0.45c0.486,0.7,0.89,1.453,1.218,2.22c0.059,0.179,0.144,0.318,0.185,0.487
	c0.099,0.214,0.169,0.465,0.258,0.701c0.06,0.207,0.115,0.4,0.166,0.613c0.218,0.804,0.351,1.653,0.395,2.546
	C617.613,266.064,617.613,266.286,617.613,266.507"/>
<radialGradient id="SVGID_11_" cx="610.3047" cy="423.8369" r="15.8584" gradientTransform="matrix(0.8753 0 0 0.8753 52.3606 -77.9473)" gradientUnits="userSpaceOnUse">
	<stop  offset="0" style="stop-color:#A1D9FA"/>
	<stop  offset="1" style="stop-color:#49B1BA"/>
</radialGradient>
<path fill="url(#SVGID_11_)" d="M600.422,293.016c0,0.252,0,0.472,0,0.708c-0.01,0.312-0.051,0.592-0.077,0.872
	c-0.033,0.162-0.041,0.36-0.069,0.522c-0.026,0.236-0.07,0.474-0.134,0.672c-0.044,0.245-0.1,0.48-0.151,0.694
	c-0.059,0.221-0.113,0.442-0.181,0.656c-0.056,0.223-0.129,0.428-0.218,0.635c-0.129,0.385-0.295,0.768-0.457,1.107
	c-0.303,0.649-0.672,1.291-1.085,1.889c-0.118,0.185-0.248,0.376-0.377,0.554c-0.132,0.177-0.272,0.361-0.413,0.523
	c-0.262,0.333-0.561,0.665-0.904,0.981c-0.125,0.162-0.306,0.296-0.482,0.458c-0.879,0.797-1.871,1.506-2.972,2.082
	c-0.161,0.073-0.343,0.161-0.505,0.236c-0.147,0.058-0.311,0.14-0.454,0.185c-0.162,0.08-0.339,0.153-0.505,0.221
	c-0.728,0.28-1.469,0.472-2.236,0.62c-0.185,0.052-0.398,0.073-0.604,0.096c-0.665,0.111-1.358,0.169-2.053,0.169
	c-7.667,0-13.881-6.221-13.881-13.881c0-7.689,6.214-13.881,13.881-13.881c0.354,0,0.694,0,1.03,0.036
	c0.357,0.022,0.693,0.073,1.022,0.126c0.239,0.007,0.472,0.059,0.707,0.118c0.318,0.059,0.616,0.103,0.916,0.214
	c0.059,0.022,0.121,0.029,0.188,0.045c0.328,0.11,0.687,0.22,1.03,0.354c0.166,0.06,0.343,0.133,0.505,0.2
	c0.188,0.096,0.381,0.162,0.58,0.235c0.354,0.198,0.704,0.383,1.059,0.574c0.28,0.172,0.547,0.356,0.805,0.519
	c0.088,0.064,0.174,0.125,0.235,0.185c0.233,0.153,0.454,0.323,0.665,0.517c0.302,0.213,0.575,0.465,0.83,0.723
	c0.162,0.147,0.313,0.28,0.454,0.442c0.21,0.207,0.398,0.414,0.575,0.635c0.185,0.214,0.351,0.427,0.527,0.649
	c0.129,0.162,0.232,0.296,0.34,0.487c0.528,0.761,0.96,1.571,1.321,2.405c0.063,0.191,0.147,0.347,0.199,0.531
	c0.106,0.229,0.185,0.494,0.276,0.761c0.067,0.214,0.122,0.428,0.181,0.656c0.236,0.87,0.381,1.794,0.432,2.76
	C600.422,292.535,600.422,292.771,600.422,293.016"/>
<radialGradient id="SVGID_12_" cx="629.4678" cy="267.3672" r="4.8779" gradientTransform="matrix(0.8753 0 0 0.8753 52.3606 -77.9473)" gradientUnits="userSpaceOnUse">
	<stop  offset="0" style="stop-color:#A1D9FA"/>
	<stop  offset="1" style="stop-color:#49B1BA"/>
</radialGradient>
<path fill="url(#SVGID_12_)" d="M599.046,156.069c0,0.067,0,0.141,0.004,0.214c0.004,0.096,0.011,0.177,0.021,0.266
	c0.011,0.051,0.016,0.11,0.019,0.162c0.015,0.073,0.026,0.14,0.041,0.214c0.015,0.075,0.033,0.14,0.048,0.206
	c0.022,0.067,0.037,0.141,0.06,0.2c0.015,0.067,0.04,0.134,0.065,0.198c0.038,0.12,0.086,0.229,0.137,0.341
	c0.101,0.2,0.211,0.398,0.333,0.583c0.04,0.051,0.081,0.11,0.117,0.162c0.041,0.06,0.089,0.111,0.13,0.162
	c0.081,0.103,0.177,0.207,0.276,0.303c0.044,0.052,0.096,0.096,0.147,0.141c0.273,0.251,0.576,0.465,0.915,0.643
	c0.056,0.022,0.101,0.044,0.159,0.073c0.044,0.014,0.093,0.036,0.136,0.059c0.053,0.021,0.104,0.044,0.156,0.06
	c0.225,0.089,0.449,0.155,0.686,0.198c0.063,0.016,0.125,0.022,0.191,0.03c0.207,0.029,0.414,0.052,0.628,0.052
	c2.361,0,4.27-1.911,4.27-4.266c0-2.362-1.908-4.273-4.27-4.273c-0.107,0-0.214,0-0.317,0.016c-0.104,0-0.215,0.014-0.311,0.036
	c-0.077,0-0.147,0.016-0.218,0.037c-0.103,0.016-0.191,0.038-0.28,0.066c-0.022,0-0.044,0-0.059,0.008
	c-0.104,0.028-0.211,0.073-0.32,0.11c-0.053,0.016-0.104,0.045-0.156,0.067c-0.059,0.021-0.113,0.051-0.177,0.066
	c-0.11,0.058-0.218,0.118-0.32,0.176c-0.089,0.06-0.178,0.111-0.252,0.162c-0.025,0.016-0.055,0.038-0.081,0.052
	c-0.066,0.053-0.132,0.104-0.199,0.162c-0.089,0.067-0.177,0.141-0.254,0.223c-0.045,0.044-0.096,0.096-0.137,0.133
	c-0.063,0.065-0.125,0.125-0.174,0.198c-0.06,0.067-0.114,0.127-0.17,0.2c-0.036,0.052-0.069,0.096-0.1,0.147
	c-0.162,0.235-0.298,0.48-0.409,0.745c-0.019,0.052-0.045,0.103-0.063,0.155c-0.026,0.08-0.052,0.154-0.081,0.236
	c-0.022,0.073-0.037,0.133-0.06,0.207c-0.069,0.265-0.118,0.552-0.129,0.848C599.046,155.914,599.046,155.987,599.046,156.069"/>
<radialGradient id="SVGID_13_" cx="610.1621" cy="273.3838" r="6.0967" gradientTransform="matrix(0.8753 0 0 0.8753 52.3606 -77.9473)" gradientUnits="userSpaceOnUse">
	<stop  offset="0" style="stop-color:#A1D9FA"/>
	<stop  offset="1" style="stop-color:#49B1BA"/>
</radialGradient>
<path fill="url(#SVGID_13_)" d="M581.08,161.332c0,0.096,0,0.176,0.003,0.271c0.004,0.118,0.015,0.222,0.025,0.34
	c0.012,0.06,0.016,0.134,0.03,0.2c0.011,0.087,0.022,0.176,0.048,0.258c0.015,0.088,0.037,0.177,0.059,0.266
	c0.026,0.082,0.045,0.169,0.07,0.251c0.022,0.08,0.048,0.162,0.081,0.243c0.053,0.148,0.115,0.288,0.177,0.429
	c0.123,0.242,0.26,0.494,0.418,0.723c0.044,0.074,0.096,0.141,0.147,0.207c0.048,0.074,0.104,0.141,0.154,0.205
	c0.104,0.134,0.219,0.26,0.348,0.378c0.056,0.059,0.118,0.118,0.185,0.176c0.343,0.312,0.727,0.576,1.144,0.799
	c0.066,0.029,0.133,0.064,0.195,0.096c0.06,0.022,0.118,0.051,0.178,0.064c0.066,0.038,0.125,0.067,0.195,0.089
	c0.277,0.104,0.561,0.186,0.853,0.236c0.081,0.022,0.158,0.031,0.24,0.038c0.258,0.037,0.52,0.066,0.789,0.066
	c2.944,0,5.336-2.392,5.336-5.335c0-2.953-2.392-5.336-5.336-5.336c-0.141,0-0.27,0-0.398,0.014
	c-0.133,0.016-0.267,0.029-0.391,0.045c-0.093,0.007-0.185,0.029-0.273,0.051c-0.126,0.022-0.24,0.038-0.351,0.082
	c-0.026,0.007-0.052,0.007-0.078,0.022c-0.125,0.029-0.262,0.073-0.391,0.132c-0.07,0.016-0.129,0.044-0.195,0.075
	c-0.078,0.036-0.144,0.073-0.222,0.087c-0.144,0.075-0.272,0.148-0.406,0.229c-0.114,0.06-0.214,0.126-0.313,0.191
	c-0.033,0.022-0.066,0.053-0.093,0.075c-0.088,0.058-0.173,0.125-0.258,0.198c-0.106,0.082-0.214,0.178-0.317,0.273
	c-0.059,0.058-0.117,0.118-0.173,0.169c-0.078,0.082-0.155,0.156-0.219,0.244c-0.073,0.081-0.14,0.17-0.202,0.25
	c-0.052,0.06-0.093,0.127-0.129,0.193c-0.207,0.287-0.373,0.597-0.51,0.93c-0.033,0.059-0.056,0.125-0.077,0.191
	c-0.041,0.096-0.074,0.198-0.107,0.296c-0.025,0.08-0.044,0.169-0.07,0.25c-0.096,0.347-0.147,0.693-0.162,1.063
	C581.08,161.146,581.08,161.242,581.08,161.332"/>
<radialGradient id="SVGID_14_" cx="587.7988" cy="278.4385" r="7.3164" gradientTransform="matrix(0.8753 0 0 0.8753 52.3606 -77.9473)" gradientUnits="userSpaceOnUse">
	<stop  offset="0" style="stop-color:#A1D9FA"/>
	<stop  offset="1" style="stop-color:#49B1BA"/>
</radialGradient>
<path fill="url(#SVGID_14_)" d="M560.438,165.759c0,0.111,0,0.214,0,0.332c0.007,0.133,0.021,0.267,0.036,0.398
	c0.015,0.073,0.022,0.162,0.029,0.235c0.019,0.111,0.033,0.216,0.063,0.318c0.015,0.103,0.044,0.214,0.07,0.31
	c0.025,0.104,0.055,0.215,0.088,0.311c0.021,0.096,0.059,0.191,0.097,0.294c0.059,0.172,0.132,0.341,0.213,0.503
	c0.141,0.303,0.307,0.599,0.499,0.879c0.051,0.08,0.114,0.169,0.177,0.249c0.056,0.082,0.126,0.163,0.185,0.238
	c0.129,0.16,0.266,0.316,0.417,0.456c0.065,0.073,0.141,0.141,0.222,0.207c0.409,0.369,0.871,0.694,1.372,0.968
	c0.077,0.035,0.158,0.064,0.233,0.109c0.069,0.021,0.144,0.06,0.213,0.082c0.078,0.036,0.155,0.073,0.229,0.096
	c0.339,0.133,0.682,0.229,1.032,0.296c0.093,0.021,0.189,0.028,0.28,0.035c0.311,0.052,0.628,0.082,0.949,0.082
	c3.535,0,6.405-2.871,6.405-6.398c0-3.542-2.87-6.405-6.405-6.405c-0.166,0-0.321,0-0.479,0.014c-0.159,0.016-0.318,0.038-0.47,0.06
	c-0.11,0.007-0.213,0.029-0.323,0.059c-0.151,0.022-0.288,0.044-0.422,0.104c-0.029,0-0.065,0-0.088,0.016
	c-0.159,0.042-0.317,0.103-0.479,0.16c-0.074,0.031-0.151,0.06-0.229,0.098c-0.089,0.036-0.173,0.073-0.269,0.103
	c-0.166,0.089-0.325,0.169-0.484,0.273c-0.132,0.073-0.255,0.153-0.376,0.235c-0.036,0.022-0.073,0.052-0.114,0.081
	c-0.104,0.075-0.203,0.148-0.303,0.237c-0.133,0.103-0.262,0.214-0.38,0.332c-0.074,0.066-0.151,0.14-0.211,0.207
	c-0.091,0.096-0.184,0.191-0.262,0.287c-0.092,0.103-0.17,0.199-0.243,0.309c-0.063,0.067-0.11,0.141-0.159,0.223
	c-0.247,0.347-0.446,0.723-0.608,1.114c-0.033,0.074-0.066,0.154-0.093,0.229c-0.051,0.118-0.088,0.242-0.125,0.36
	c-0.033,0.096-0.063,0.2-0.088,0.303c-0.107,0.407-0.178,0.834-0.199,1.271C560.438,165.537,560.438,165.648,560.438,165.759"/>
<radialGradient id="SVGID_15_" cx="534.293" cy="294.9473" r="9.7544" gradientTransform="matrix(0.8753 0 0 0.8753 52.3606 -77.9473)" gradientUnits="userSpaceOnUse">
	<stop  offset="0" style="stop-color:#A1D9FA"/>
	<stop  offset="1" style="stop-color:#49B1BA"/>
</radialGradient>
<path fill="url(#SVGID_15_)" d="M511.472,180.209c0,0.147,0,0.28,0,0.435c0.008,0.185,0.026,0.354,0.048,0.531
	c0.019,0.103,0.022,0.223,0.039,0.325c0.021,0.146,0.047,0.287,0.083,0.421c0.025,0.14,0.063,0.287,0.093,0.42
	c0.036,0.134,0.073,0.28,0.117,0.398c0.034,0.141,0.078,0.267,0.133,0.392c0.074,0.236,0.174,0.472,0.277,0.688
	c0.188,0.398,0.413,0.788,0.664,1.15c0.077,0.125,0.159,0.235,0.24,0.347c0.076,0.111,0.166,0.221,0.255,0.316
	c0.162,0.215,0.343,0.422,0.549,0.613c0.081,0.096,0.191,0.185,0.3,0.28c0.542,0.487,1.154,0.922,1.825,1.277
	c0.104,0.045,0.215,0.096,0.313,0.147c0.09,0.037,0.189,0.082,0.281,0.11c0.104,0.052,0.206,0.096,0.31,0.132
	c0.447,0.171,0.9,0.296,1.373,0.385c0.122,0.038,0.251,0.045,0.376,0.06c0.414,0.059,0.834,0.103,1.259,0.103
	c4.723,0,8.546-3.822,8.546-8.53c0-4.723-3.823-8.538-8.546-8.538c-0.214,0-0.425,0-0.635,0.014
	c-0.21,0.021-0.417,0.053-0.624,0.082c-0.146,0.007-0.291,0.035-0.432,0.073c-0.202,0.037-0.384,0.066-0.564,0.133
	c-0.036,0.007-0.081,0.014-0.122,0.022c-0.199,0.066-0.416,0.141-0.631,0.221c-0.104,0.038-0.206,0.073-0.31,0.118
	c-0.118,0.06-0.232,0.104-0.362,0.148c-0.217,0.125-0.427,0.236-0.645,0.354c-0.174,0.111-0.34,0.214-0.494,0.316
	c-0.061,0.038-0.111,0.075-0.151,0.111c-0.142,0.104-0.277,0.207-0.41,0.325c-0.178,0.133-0.347,0.28-0.509,0.442
	c-0.093,0.089-0.192,0.178-0.277,0.273c-0.125,0.125-0.247,0.251-0.351,0.383c-0.117,0.134-0.221,0.273-0.324,0.407
	c-0.081,0.096-0.148,0.191-0.211,0.296c-0.324,0.463-0.594,0.966-0.812,1.49c-0.045,0.103-0.093,0.205-0.121,0.31
	c-0.067,0.155-0.119,0.317-0.171,0.472c-0.044,0.134-0.081,0.267-0.117,0.414c-0.141,0.538-0.236,1.099-0.263,1.688
	C511.472,179.914,511.472,180.054,511.472,180.209"/>
<radialGradient id="SVGID_16_" cx="508.2666" cy="306.5361" r="10.9775" gradientTransform="matrix(0.8753 0 0 0.8753 52.3606 -77.9473)" gradientUnits="userSpaceOnUse">
	<stop  offset="0" style="stop-color:#A1D9FA"/>
	<stop  offset="1" style="stop-color:#49B1BA"/>
</radialGradient>
<path fill="url(#SVGID_16_)" d="M487.624,190.349c0,0.169,0,0.324,0,0.486c0.007,0.214,0.033,0.405,0.059,0.605
	c0.015,0.118,0.026,0.251,0.04,0.36c0.022,0.172,0.053,0.334,0.096,0.474c0.027,0.163,0.067,0.325,0.101,0.472
	c0.044,0.156,0.085,0.31,0.129,0.459c0.037,0.153,0.093,0.294,0.151,0.434c0.089,0.267,0.199,0.532,0.317,0.776
	c0.206,0.449,0.461,0.886,0.745,1.298c0.085,0.133,0.178,0.267,0.27,0.391c0.089,0.118,0.188,0.245,0.281,0.356
	c0.182,0.235,0.395,0.472,0.623,0.686c0.089,0.11,0.214,0.206,0.336,0.309c0.608,0.555,1.303,1.048,2.053,1.439
	c0.12,0.061,0.242,0.118,0.354,0.17c0.106,0.037,0.213,0.097,0.32,0.126c0.112,0.059,0.232,0.111,0.347,0.154
	c0.506,0.193,1.015,0.324,1.543,0.429c0.14,0.045,0.278,0.052,0.424,0.066c0.465,0.074,0.941,0.118,1.417,0.118
	c5.311,0,9.61-4.303,9.61-9.608c0-5.32-4.3-9.609-9.61-9.609c-0.243,0-0.476,0-0.716,0.022c-0.236,0.016-0.472,0.053-0.701,0.082
	c-0.162,0.014-0.325,0.044-0.487,0.089c-0.221,0.043-0.432,0.073-0.634,0.146c-0.045,0.016-0.089,0.022-0.136,0.029
	c-0.227,0.073-0.472,0.155-0.71,0.251c-0.114,0.038-0.234,0.081-0.347,0.134c-0.136,0.066-0.262,0.109-0.406,0.169
	c-0.243,0.134-0.486,0.259-0.731,0.392c-0.194,0.125-0.379,0.236-0.561,0.36c-0.059,0.038-0.113,0.082-0.165,0.127
	c-0.158,0.109-0.307,0.221-0.458,0.354c-0.203,0.156-0.396,0.325-0.571,0.501c-0.107,0.098-0.218,0.2-0.317,0.312
	c-0.143,0.14-0.273,0.28-0.392,0.434c-0.132,0.149-0.251,0.296-0.365,0.452c-0.092,0.11-0.168,0.213-0.236,0.338
	c-0.365,0.525-0.671,1.086-0.914,1.669c-0.049,0.125-0.108,0.235-0.138,0.362c-0.073,0.162-0.135,0.345-0.195,0.522
	c-0.044,0.156-0.085,0.303-0.129,0.466c-0.159,0.604-0.262,1.239-0.295,1.904C487.624,190.017,487.624,190.179,487.624,190.349"/>
<radialGradient id="SVGID_17_" cx="486.3086" cy="326.8652" r="12.1992" gradientTransform="matrix(0.8753 0 0 0.8753 52.3606 -77.9473)" gradientUnits="userSpaceOnUse">
	<stop  offset="0" style="stop-color:#A1D9FA"/>
	<stop  offset="1" style="stop-color:#49B1BA"/>
</radialGradient>
<path fill="url(#SVGID_17_)" d="M467.336,208.141c0,0.2,0,0.362,0,0.547c0.012,0.236,0.04,0.449,0.067,0.672
	c0.018,0.125,0.025,0.28,0.048,0.398c0.021,0.185,0.055,0.369,0.104,0.522c0.028,0.185,0.073,0.362,0.113,0.532
	c0.044,0.162,0.092,0.34,0.14,0.509c0.041,0.163,0.101,0.325,0.167,0.48c0.104,0.294,0.225,0.59,0.351,0.855
	c0.232,0.509,0.521,0.989,0.834,1.454c0.092,0.141,0.191,0.287,0.292,0.428c0.106,0.126,0.21,0.273,0.316,0.398
	c0.207,0.258,0.436,0.516,0.693,0.761c0.101,0.118,0.237,0.221,0.377,0.347c0.676,0.612,1.443,1.159,2.284,1.594
	c0.126,0.06,0.262,0.133,0.388,0.185c0.112,0.051,0.239,0.11,0.354,0.148c0.125,0.058,0.255,0.118,0.381,0.169
	c0.566,0.214,1.128,0.361,1.722,0.472c0.151,0.045,0.311,0.061,0.465,0.074c0.521,0.089,1.048,0.133,1.58,0.133
	c5.896,0,10.678-4.781,10.678-10.679c0-5.911-4.782-10.678-10.678-10.678c-0.27,0-0.532,0-0.794,0.029
	c-0.266,0.022-0.531,0.058-0.786,0.096c-0.181,0.007-0.357,0.044-0.542,0.089c-0.243,0.044-0.473,0.089-0.705,0.169
	c-0.044,0.016-0.092,0.022-0.146,0.029c-0.253,0.089-0.522,0.178-0.794,0.28c-0.126,0.038-0.256,0.098-0.381,0.148
	c-0.151,0.067-0.292,0.125-0.45,0.185c-0.271,0.147-0.543,0.287-0.813,0.443c-0.217,0.132-0.421,0.265-0.623,0.398
	c-0.066,0.044-0.129,0.089-0.182,0.14c-0.177,0.118-0.347,0.252-0.509,0.392c-0.229,0.169-0.443,0.36-0.635,0.561
	c-0.125,0.109-0.247,0.214-0.354,0.339c-0.158,0.155-0.305,0.317-0.438,0.487c-0.145,0.171-0.277,0.331-0.409,0.502
	c-0.101,0.125-0.174,0.236-0.259,0.377c-0.406,0.582-0.741,1.21-1.019,1.853c-0.048,0.141-0.114,0.265-0.147,0.405
	c-0.085,0.178-0.147,0.383-0.219,0.583c-0.048,0.169-0.096,0.331-0.14,0.509c-0.183,0.672-0.292,1.373-0.332,2.118
	C467.336,207.779,467.336,207.956,467.336,208.141"/>
<radialGradient id="SVGID_18_" cx="469.6406" cy="359.1875" r="13.4185" gradientTransform="matrix(0.8753 0 0 0.8753 52.3606 -77.9473)" gradientUnits="userSpaceOnUse">
	<stop  offset="0" style="stop-color:#A1D9FA"/>
	<stop  offset="1" style="stop-color:#49B1BA"/>
</radialGradient>
<path fill="url(#SVGID_18_)" d="M451.68,236.436c0,0.214,0,0.398,0,0.597c0.003,0.267,0.037,0.496,0.061,0.738
	c0.028,0.141,0.035,0.303,0.061,0.443c0.022,0.199,0.06,0.405,0.115,0.575c0.033,0.199,0.081,0.398,0.125,0.583
	c0.048,0.185,0.096,0.377,0.151,0.562c0.048,0.176,0.114,0.354,0.185,0.531c0.114,0.325,0.251,0.641,0.388,0.937
	c0.255,0.554,0.568,1.093,0.919,1.594c0.097,0.155,0.21,0.324,0.321,0.474c0.11,0.14,0.228,0.303,0.343,0.442
	c0.227,0.28,0.483,0.561,0.768,0.834c0.106,0.132,0.262,0.243,0.413,0.383c0.741,0.672,1.583,1.271,2.511,1.756
	c0.142,0.066,0.29,0.141,0.427,0.2c0.125,0.051,0.262,0.125,0.391,0.162c0.137,0.066,0.278,0.125,0.425,0.185
	c0.616,0.236,1.235,0.398,1.889,0.523c0.162,0.053,0.336,0.06,0.513,0.082c0.568,0.096,1.151,0.141,1.734,0.141
	c6.483,0,11.75-5.263,11.75-11.741c0-6.503-5.267-11.749-11.75-11.749c-0.295,0-0.583,0-0.871,0.037
	c-0.295,0.014-0.583,0.059-0.863,0.103c-0.199,0.007-0.398,0.045-0.598,0.096c-0.269,0.052-0.521,0.096-0.774,0.186
	c-0.048,0.021-0.103,0.028-0.158,0.037c-0.28,0.096-0.58,0.185-0.871,0.303c-0.146,0.051-0.288,0.103-0.425,0.162
	c-0.166,0.08-0.324,0.141-0.494,0.205c-0.3,0.162-0.598,0.325-0.896,0.487c-0.236,0.141-0.462,0.296-0.684,0.442
	c-0.073,0.045-0.144,0.098-0.202,0.149c-0.192,0.132-0.381,0.271-0.558,0.442c-0.255,0.176-0.487,0.383-0.7,0.605
	c-0.138,0.125-0.267,0.235-0.388,0.376c-0.174,0.169-0.332,0.354-0.483,0.538c-0.159,0.185-0.303,0.369-0.446,0.547
	c-0.111,0.141-0.196,0.25-0.288,0.412c-0.446,0.644-0.813,1.328-1.118,2.038c-0.056,0.154-0.129,0.287-0.17,0.442
	c-0.088,0.198-0.155,0.428-0.236,0.642c-0.056,0.193-0.104,0.369-0.151,0.569c-0.195,0.736-0.324,1.513-0.361,2.331
	C451.68,236.028,451.68,236.229,451.68,236.436"/>
<radialGradient id="SVGID_19_" cx="469.6387" cy="393.542" r="14.6367" gradientTransform="matrix(0.8753 0 0 0.8753 52.3606 -77.9473)" gradientUnits="userSpaceOnUse">
	<stop  offset="0" style="stop-color:#A1D9FA"/>
	<stop  offset="1" style="stop-color:#49B1BA"/>
</radialGradient>
<path fill="url(#SVGID_19_)" d="M450.609,266.507c0,0.236,0,0.437,0,0.658c0.008,0.28,0.045,0.538,0.07,0.797
	c0.03,0.153,0.037,0.338,0.063,0.487c0.026,0.214,0.066,0.434,0.125,0.618c0.037,0.229,0.093,0.437,0.137,0.637
	c0.056,0.198,0.11,0.411,0.166,0.611c0.053,0.198,0.126,0.392,0.204,0.583c0.121,0.354,0.269,0.701,0.42,1.025
	c0.28,0.599,0.62,1.188,1,1.734c0.115,0.178,0.229,0.355,0.351,0.518c0.126,0.154,0.251,0.332,0.38,0.479
	c0.248,0.312,0.521,0.621,0.834,0.916c0.118,0.141,0.284,0.266,0.45,0.421c0.812,0.729,1.727,1.38,2.741,1.911
	c0.148,0.073,0.318,0.154,0.465,0.221c0.134,0.051,0.285,0.133,0.421,0.178c0.151,0.066,0.311,0.133,0.465,0.198
	c0.676,0.267,1.351,0.436,2.063,0.569c0.178,0.058,0.369,0.066,0.562,0.096c0.616,0.096,1.254,0.146,1.893,0.146
	c7.074,0,12.815-5.74,12.815-12.804c0-7.1-5.741-12.817-12.815-12.817c-0.324,0-0.639,0-0.952,0.036
	c-0.324,0.021-0.638,0.066-0.94,0.11c-0.221,0.007-0.436,0.052-0.655,0.111c-0.293,0.052-0.565,0.096-0.843,0.198
	c-0.056,0.022-0.111,0.038-0.177,0.045c-0.303,0.096-0.628,0.2-0.949,0.324c-0.154,0.061-0.313,0.118-0.465,0.185
	c-0.174,0.09-0.346,0.147-0.535,0.214c-0.324,0.185-0.654,0.362-0.978,0.532c-0.258,0.162-0.505,0.324-0.745,0.487
	c-0.082,0.051-0.155,0.11-0.218,0.162c-0.21,0.146-0.417,0.303-0.612,0.48c-0.272,0.198-0.532,0.42-0.765,0.663
	c-0.146,0.141-0.291,0.258-0.42,0.407c-0.191,0.191-0.365,0.39-0.534,0.589c-0.167,0.2-0.323,0.398-0.484,0.599
	c-0.122,0.154-0.215,0.28-0.313,0.45c-0.487,0.7-0.886,1.453-1.218,2.22c-0.06,0.179-0.141,0.318-0.181,0.487
	c-0.104,0.214-0.175,0.465-0.263,0.701c-0.056,0.207-0.11,0.4-0.166,0.613c-0.219,0.804-0.35,1.653-0.395,2.546
	C450.609,266.064,450.609,266.286,450.609,266.507"/>
<radialGradient id="SVGID_20_" cx="490.5039" cy="423.8369" r="15.8589" gradientTransform="matrix(0.8753 0 0 0.8753 52.3606 -77.9473)" gradientUnits="userSpaceOnUse">
	<stop  offset="0" style="stop-color:#A1D9FA"/>
	<stop  offset="1" style="stop-color:#49B1BA"/>
</radialGradient>
<path fill="url(#SVGID_20_)" d="M467.805,293.016c0,0.252,0,0.472,0,0.708c0.008,0.312,0.048,0.592,0.078,0.872
	c0.028,0.162,0.04,0.36,0.068,0.522c0.023,0.236,0.071,0.474,0.134,0.672c0.041,0.245,0.1,0.48,0.147,0.694
	c0.06,0.221,0.118,0.442,0.186,0.656c0.055,0.223,0.129,0.428,0.217,0.635c0.13,0.385,0.292,0.768,0.454,1.107
	c0.307,0.649,0.672,1.291,1.085,1.889c0.121,0.185,0.251,0.376,0.38,0.554c0.133,0.177,0.27,0.361,0.413,0.523
	c0.262,0.333,0.562,0.665,0.9,0.981c0.129,0.162,0.306,0.296,0.487,0.458c0.878,0.797,1.874,1.506,2.971,2.082
	c0.162,0.073,0.337,0.161,0.503,0.236c0.146,0.058,0.307,0.14,0.46,0.185c0.161,0.08,0.336,0.153,0.502,0.221
	c0.73,0.28,1.462,0.472,2.232,0.62c0.191,0.052,0.401,0.073,0.605,0.096c0.671,0.111,1.361,0.169,2.055,0.169
	c7.664,0,13.882-6.221,13.882-13.881c0-7.689-6.218-13.881-13.882-13.881c-0.354,0-0.693,0-1.032,0.036
	c-0.352,0.022-0.691,0.073-1.022,0.126c-0.237,0.007-0.465,0.059-0.705,0.118c-0.321,0.059-0.616,0.103-0.915,0.214
	c-0.059,0.022-0.122,0.029-0.188,0.045c-0.332,0.11-0.683,0.22-1.029,0.354c-0.166,0.06-0.341,0.133-0.502,0.2
	c-0.192,0.096-0.38,0.162-0.583,0.235c-0.354,0.198-0.705,0.383-1.059,0.574c-0.28,0.172-0.548,0.356-0.809,0.519
	c-0.085,0.064-0.17,0.125-0.236,0.185c-0.229,0.153-0.452,0.323-0.664,0.517c-0.299,0.213-0.578,0.465-0.823,0.723
	c-0.166,0.147-0.317,0.28-0.461,0.442c-0.206,0.207-0.396,0.414-0.571,0.635c-0.189,0.214-0.355,0.427-0.528,0.649
	c-0.129,0.162-0.229,0.296-0.34,0.487c-0.528,0.761-0.963,1.571-1.322,2.405c-0.062,0.191-0.151,0.347-0.193,0.531
	c-0.111,0.229-0.188,0.494-0.28,0.761c-0.067,0.214-0.126,0.428-0.186,0.656c-0.232,0.87-0.38,1.794-0.428,2.76
	C467.805,292.535,467.805,292.771,467.805,293.016"/>
<radialGradient id="SVGID_21_" cx="556.2773" cy="752.0859" r="247.9895" gradientTransform="matrix(0.8753 0 0 0.8753 52.3606 -77.9473)" gradientUnits="userSpaceOnUse">
	<stop  offset="0" style="stop-color:#A1D9FA"/>
	<stop  offset="1" style="stop-color:#49B1BA"/>
</radialGradient>
<path fill-rule="evenodd" clip-rule="evenodd" fill="url(#SVGID_21_)" d="M745.56,382.126c-17.483-16.509-41.53-16.582-60.979-1.275
	c-3.016,2.367-9.107,9.983-9.901,0.552c-1.144-13.505-9.129-11.947-17.516-11.954c-77.711-0.029-155.422,0.207-233.134-0.223
	c-13.265-0.066-22.29,2.082-19.577,20.03c-3.399-2.038-4.738-2.487-5.579-3.395c-15.122-16.178-33.398-21.152-53.486-11.992
	c-20.805,9.489-29.506,27.223-28.971,50.012c0.587,25.18,12.046,45.592,28.093,63.533c23.818,26.625,51.098,49.79,76.993,74.343
	c8.418,7.979,16.724,16.088,24.772,24.442c3.154,3.269,5.224,7.667,3.194,12.279c-2.387,5.439-7.279,4.178-11.634,3.121
	c-6.867-1.645-13.029-0.832-15.272,6.635c-2.421,8.045,3.265,12.428,9.527,15.564c13.785,6.893,29.83,1.173,38.767-13.586
	c2.336-3.858,3.608-11.225,10.021-4.819c10.174,10.163,22.369,17.801,32.871,27.438c11.97,10.988,13.395,24.752,4.103,38.212
	c-4.814,6.975-4.513,12.479,0.203,19.416c8.019,11.823,1.863,66.434-7.867,75.977c-0.316,0.309-0.612,0.752-1,0.877
	c-17.625,5.638-33.778,13.845-49.987,22.913c63.4-0.125,129.075,0.185,141.171,1.182c7.047,0,17.974-0.125,16.619-0.096
	c-1.052,0.022-2.384-1.291-3.159-2.303c-6.943-9.122-17.438-13.66-27.493-15.519c-16.51-3.041-22.797-13.336-25.608-27.595
	c-3.927-19.903-11.339-39.967,2.029-59.421c3.524-5.137,1.232-10.008-1.911-14.855c-9.842-15.151-8.377-27.962,5.096-40.221
	c8.571-7.792,18.449-14.177,26.807-22.168c6.935-6.642,10.341-7.202,15.292,2.229c7.579,14.435,25.553,19.27,39.08,11.896
	c5.761-3.144,10.79-7.417,8.716-14.811c-2.117-7.551-8.092-8.591-15.028-6.988c-4.317,0.994-9.188,2.485-11.809-2.806
	c-2.226-4.479-0.446-8.929,2.317-12.53c2.687-3.498,6.051-6.494,9.272-9.549c31.425-29.786,64.003-58.36,93.833-89.791
	c12.502-13.166,21.316-28.767,25.368-46.552C764.707,418.737,762.645,398.251,745.56,382.126z M438.466,545.08
	c-7.491-6.488-14.088-11.447-19.8-17.27c-21.79-22.235-48.17-39.896-65.818-66.271c-6.052-9.039-10.085-18.869-12.926-29.252
	c-2.454-8.953-1.793-17.646,2.8-25.926c6.935-12.486,18.734-17.076,30.317-11.652c12.122,5.667,16.639,18.545,11.052,31.688
	c-0.694,1.631-1.712,3.129-2.558,4.701c-3.247,6.036-4.405,12.065,2.052,16.648c5.937,4.214,11.266,1.615,15.291-3.239
	c7.347-8.856,10.666-5.373,12.317,3.667c5.712,31.306,14.853,61.555,27.214,90.867C438.856,540.099,438.466,541.516,438.466,545.08z
	 M735.047,443.651c-4.826,12.671-12.225,24.08-21.959,33.201c-22.704,21.292-43.585,44.544-68.09,63.902
	c-0.924,0.723-2.393,0.761-6.44,1.948c13.554-33.003,23.041-64.418,29.199-96.822c1.299-6.826,4.62-8.443,9.701-2.672
	c4.778,5.431,10.425,9.401,17.343,4.427c7.96-5.718,3.502-12.243,0.311-18.855c-7.147-14.811-2.232-29.097,11.394-34.596
	c12.771-5.145,25.697,1.837,31.276,16.951C741.929,422.384,739.051,433.121,735.047,443.651z"/>
<radialGradient id="SVGID_22_" cx="550.4043" cy="363.7656" r="50.3521" gradientTransform="matrix(0.8753 0 0 0.8753 52.3606 -77.9473)" gradientUnits="userSpaceOnUse">
	<stop  offset="0" style="stop-color:#A1D9FA"/>
	<stop  offset="1" style="stop-color:#49B1BA"/>
</radialGradient>
<path fill-rule="evenodd" clip-rule="evenodd" fill="url(#SVGID_22_)" d="M506.198,283.414c0.159-0.929,0.296-1.778,0.443-2.626
	c0.871-5.093,1.745-10.177,2.62-15.27c0.729-4.265,1.458-8.531,2.199-12.797c0.052-0.28,0-0.456-0.203-0.656
	c-4.553-4.428-9.1-8.863-13.649-13.298c-2.774-2.71-5.549-5.418-8.328-8.118c-0.089-0.081-0.202-0.141-0.306-0.214
	c0.018-0.052,0.033-0.096,0.051-0.141c0.51-0.082,1.022-0.169,1.535-0.251c5.531-0.797,11.066-1.593,16.597-2.398
	c4.193-0.612,8.385-1.226,12.576-1.831c0.317-0.043,0.487-0.162,0.631-0.449c2.79-5.683,5.591-11.365,8.395-17.031
	c1.547-3.138,3.107-6.268,4.661-9.396c0.229-0.458,0.446-0.93,0.709-1.476c0.313,0.619,0.594,1.166,0.87,1.718
	c4.306,8.73,8.612,17.454,12.907,26.185c0.159,0.324,0.369,0.42,0.684,0.465c3.317,0.472,6.638,0.959,9.955,1.439
	c3.819,0.554,7.638,1.105,11.457,1.66c2.911,0.429,5.827,0.856,8.741,1.276c0.166,0.022,0.333,0.06,0.51,0.089
	c-0.568,0.59-1.1,1.166-1.656,1.712c-6.838,6.672-13.679,13.335-20.521,19.992c-0.243,0.235-0.317,0.442-0.258,0.782
	c0.889,5.084,1.76,10.177,2.634,15.261c0.856,4.997,1.713,10.001,2.564,14.995c0.016,0.097,0,0.207,0,0.377
	c-1.011-0.53-1.989-1.04-2.959-1.549c-5.324-2.797-10.646-5.594-15.971-8.399c-2.858-1.504-5.719-2.994-8.567-4.516
	c-0.292-0.154-0.499-0.141-0.779,0.008c-8.999,4.744-18.003,9.476-27.01,14.213C506.582,283.244,506.424,283.312,506.198,283.414z
	 M536.235,244.973c0.173,0.066,0.226,0.096,0.28,0.111c5.894,1.92,11.789,3.831,17.683,5.756c0.299,0.096,0.428-0.029,0.598-0.198
	c5.653-5.514,11.306-11.018,16.963-16.531c0.303-0.302,0.604-0.598,0.907-0.9c-0.011-0.022-0.025-0.045-0.04-0.052
	C560.53,237.076,548.435,241.01,536.235,244.973z M532.417,243.756c-0.078-0.134-0.093-0.178-0.123-0.214
	c-3.656-5.041-7.31-10.074-10.98-15.1c-0.089-0.125-0.348-0.198-0.51-0.177c-1.734,0.229-3.465,0.487-5.191,0.737
	c-5.83,0.85-11.656,1.697-17.483,2.547c-0.701,0.103-1.398,0.198-2.096,0.303c0,0.029,0,0.058,0,0.058
	C508.137,235.866,520.232,239.8,532.417,243.756z M509.893,277.104c0.029,0.008,0.07,0.015,0.104,0.021
	c7.454-10.264,14.903-20.515,22.428-30.876c-0.203,0.044-0.281,0.051-0.351,0.073c-5.867,1.911-11.731,3.815-17.59,5.735
	c-0.159,0.058-0.344,0.28-0.373,0.449c-0.495,2.804-0.975,5.609-1.454,8.412c-0.737,4.325-1.483,8.657-2.225,12.982
	C510.247,274.973,510.07,276.043,509.893,277.104z M534.804,246.988c-0.011,0.221-0.022,0.28-0.022,0.347
	c0,6.161,0,12.324-0.007,18.486c0,0.303,0.122,0.437,0.372,0.567c3.612,1.89,7.221,3.794,10.83,5.691
	c3.649,1.918,7.307,3.836,10.956,5.756c0.096,0.051,0.203,0.089,0.405,0.169C549.807,267.637,542.346,257.371,534.804,246.988z
	 M534.796,242.959c0.122-0.141,0.178-0.214,0.229-0.28c3.615-4.981,7.232-9.963,10.855-14.938c0.17-0.229,0.154-0.398,0.041-0.634
	c-3.636-7.352-7.266-14.709-10.896-22.06c-0.052-0.103-0.122-0.191-0.229-0.354C534.796,217.476,534.796,230.169,534.796,242.959z"
	/>
</svg>
