<?xml version="1.0" encoding="utf-8"?>
<!-- Generator: Adobe Illustrator 16.0.0, SVG Export Plug-In . SVG Version: 6.00 Build 0)  -->
<!DOCTYPE svg PUBLIC "-//W3C//DTD SVG 1.1//EN" "http://www.w3.org/Graphics/SVG/1.1/DTD/svg11.dtd">
<svg version="1.1" id="Capa_1" xmlns="http://www.w3.org/2000/svg" xmlns:xlink="http://www.w3.org/1999/xlink" x="0px" y="0px"
	 width="1080px" height="1080px" viewBox="0 0 1080 1080" enable-background="new 0 0 1080 1080" xml:space="preserve">
<g>
	<g>
		<g>
			<g>
				<path fill-rule="evenodd" clip-rule="evenodd" fill="#FFFFFF" d="M1018.719,548.786c0,266.059-215.687,481.759-481.758,481.759
					c-266.074,0-481.767-215.7-481.767-481.759C55.193,282.72,270.887,67.02,536.96,67.02
					C803.032,67.02,1018.719,282.72,1018.719,548.786z"/>
			</g>
		</g>
	</g>
</g>
<radialGradient id="SVGID_2_" cx="542.626" cy="590.7471" r="219.61" gradientTransform="matrix(0.9884 0 0 0.9884 5.7759 0.897)" gradientUnits="userSpaceOnUse">
	<stop  offset="0" style="stop-color:#F2F2F2"/>
	<stop  offset="0.2261" style="stop-color:#ECECEC"/>
	<stop  offset="0.525" style="stop-color:#DBDBDB"/>
	<stop  offset="0.8631" style="stop-color:#C0C0C0"/>
	<stop  offset="1" style="stop-color:#B3B3B3"/>
</radialGradient>
<path fill-rule="evenodd" clip-rule="evenodd" fill="url(#SVGID_2_)" stroke="#CCCCCC" stroke-miterlimit="10" d="M748.401,386.571
	c-17.481-16.509-41.533-16.579-60.98-1.276c-3.017,2.372-9.106,9.988-9.903,0.557c-1.145-13.505-9.129-11.951-17.513-11.955
	c-77.711-0.029-155.424,0.2-233.136-0.221c-13.264-0.066-22.29,2.077-19.578,20.024c-3.397-2.033-4.735-2.483-5.579-3.391
	c-15.121-16.177-33.396-21.151-53.484-11.992c-20.806,9.49-29.504,27.22-28.972,50.009c0.587,25.183,12.048,45.596,28.092,63.532
	c23.819,26.63,51.1,49.792,76.995,74.345c8.417,7.98,16.723,16.092,24.773,24.441c3.152,3.269,5.224,7.667,3.195,12.283
	c-2.39,5.439-7.282,4.17-11.635,3.122c-6.868-1.646-13.028-0.834-15.273,6.631c-2.421,8.048,3.264,12.431,9.526,15.563
	c13.785,6.896,29.831,1.178,38.767-13.582c2.335-3.859,3.61-11.229,10.024-4.819c10.171,10.161,22.366,17.796,32.87,27.438
	c11.97,10.984,13.395,24.752,4.104,38.209c-4.82,6.978-4.513,12.479,0.199,19.421c8.023,11.817,1.867,66.428-7.865,75.974
	c-0.318,0.311-0.614,0.753-1,0.878c-17.625,5.639-33.779,13.841-49.988,22.911c63.402-0.126,129.074,0.188,141.167,1.181
	c7.048,0.004,17.978-0.122,16.621-0.096c-1.048,0.021-2.384-1.288-3.156-2.3c-6.944-9.124-17.438-13.663-27.493-15.519
	c-16.509-3.045-22.796-13.335-25.609-27.593c-3.927-19.903-11.343-39.973,2.031-59.422c3.523-5.137,1.232-10.011-1.913-14.856
	c-9.843-15.15-8.376-27.966,5.092-40.224c8.575-7.793,18.455-14.173,26.812-22.168c6.93-6.639,10.339-7.203,15.291,2.229
	c7.579,14.435,25.549,19.269,39.078,11.896c5.764-3.14,10.793-7.416,8.716-14.807c-2.118-7.554-8.089-8.594-15.027-6.997
	c-4.316,1-9.187,2.491-11.808-2.8c-2.224-4.479-0.45-8.926,2.318-12.527c2.685-3.497,6.052-6.498,9.27-9.553
	c31.424-29.781,64.005-58.359,93.836-89.786c12.502-13.166,21.312-28.771,25.364-46.552
	C767.549,423.186,765.488,402.703,748.401,386.571z M441.306,549.528c-7.49-6.487-14.088-11.446-19.8-17.273
	c-21.789-22.235-48.168-39.891-65.818-66.262c-6.052-9.045-10.084-18.878-12.926-29.258c-2.453-8.955-1.793-17.645,2.803-25.925
	c6.932-12.491,18.733-17.08,30.315-11.657c12.123,5.672,16.638,18.55,11.051,31.689c-0.695,1.635-1.712,3.133-2.558,4.7
	c-3.247,6.041-4.405,12.07,2.054,16.652c5.937,4.214,11.262,1.613,15.289-3.239c7.348-8.855,10.668-5.372,12.316,3.668
	c5.714,31.301,14.853,61.555,27.217,90.863C441.698,544.547,441.306,545.964,441.306,549.528z M737.887,448.093
	c-4.828,12.679-12.222,24.084-21.957,33.209c-22.708,21.291-43.585,44.541-68.09,63.897c-0.926,0.727-2.396,0.761-6.439,1.949
	c13.549-33.003,23.039-64.422,29.199-96.819c1.295-6.826,4.616-8.446,9.7-2.676c4.778,5.437,10.421,9.406,17.343,4.433
	c7.955-5.724,3.498-12.244,0.311-18.856c-7.152-14.814-2.238-29.099,11.393-34.596c12.768-5.147,25.698,1.833,31.277,16.951
	C744.771,426.828,741.894,437.569,737.887,448.093z"/>
<radialGradient id="SVGID_4_" cx="542.6255" cy="270.7754" r="56.139" gradientTransform="matrix(0.9884 0 0 0.9884 5.7759 0.897)" gradientUnits="userSpaceOnUse">
	<stop  offset="0" style="stop-color:#F2F2F2"/>
	<stop  offset="0.2261" style="stop-color:#ECECEC"/>
	<stop  offset="0.525" style="stop-color:#DBDBDB"/>
	<stop  offset="0.8631" style="stop-color:#C0C0C0"/>
	<stop  offset="1" style="stop-color:#B3B3B3"/>
</radialGradient>
<path fill-rule="evenodd" clip-rule="evenodd" fill="url(#SVGID_4_)" stroke="#CCCCCC" stroke-miterlimit="10" d="M506.948,322.626
	c0.201-1.17,0.373-2.24,0.554-3.31c1.101-6.41,2.201-12.815,3.299-19.225c0.921-5.365,1.838-10.738,2.772-16.11
	c0.062-0.351,0-0.575-0.257-0.83c-5.731-5.576-11.455-11.154-17.183-16.737c-3.494-3.413-6.988-6.823-10.488-10.222
	c-0.11-0.106-0.253-0.181-0.382-0.275c0.02-0.061,0.041-0.111,0.062-0.174c0.641-0.104,1.288-0.215,1.935-0.313
	c6.965-1.004,13.934-2.008,20.897-3.022c5.278-0.768,10.551-1.538,15.833-2.299c0.394-0.06,0.612-0.211,0.793-0.571
	c3.512-7.151,7.037-14.307,10.567-21.443c1.948-3.947,3.911-7.888,5.87-11.825c0.288-0.579,0.562-1.17,0.89-1.856
	c0.397,0.778,0.749,1.469,1.1,2.162c5.417,10.993,10.841,21.978,16.25,32.966c0.199,0.406,0.461,0.523,0.855,0.584
	c4.178,0.597,8.363,1.209,12.536,1.814c4.807,0.693,9.616,1.395,14.424,2.089c3.668,0.538,7.335,1.078,11.003,1.608
	c0.212,0.03,0.421,0.07,0.645,0.107c-0.716,0.741-1.38,1.472-2.088,2.158c-8.608,8.397-17.221,16.789-25.833,25.173
	c-0.307,0.294-0.399,0.557-0.324,0.981c1.118,6.405,2.214,12.812,3.313,19.217c1.081,6.287,2.156,12.582,3.233,18.874
	c0.018,0.125,0,0.265,0,0.476c-1.274-0.664-2.501-1.306-3.728-1.948c-6.701-3.52-13.401-7.048-20.107-10.575
	c-3.596-1.893-7.198-3.774-10.789-5.683c-0.365-0.199-0.624-0.177-0.977,0.007c-11.33,5.975-22.669,11.93-34.008,17.89
	C507.433,322.411,507.234,322.496,506.948,322.626z M544.763,274.226c0.218,0.085,0.286,0.117,0.355,0.137
	c7.421,2.417,14.845,4.826,22.262,7.251c0.376,0.121,0.539-0.041,0.753-0.255c7.118-6.934,14.235-13.871,21.356-20.814
	c0.38-0.377,0.761-0.749,1.145-1.126c-0.019-0.029-0.037-0.056-0.052-0.078C575.351,264.285,560.125,269.236,544.763,274.226z
	 M539.957,272.694c-0.093-0.166-0.118-0.226-0.153-0.272c-4.604-6.344-9.206-12.68-13.825-19.007
	c-0.114-0.155-0.437-0.255-0.643-0.229c-2.183,0.294-4.361,0.619-6.535,0.937c-7.341,1.066-14.677,2.133-22.015,3.199
	c-0.882,0.129-1.76,0.255-2.637,0.388c0,0.029,0,0.065,0,0.065C509.384,262.757,524.617,267.709,539.957,272.694z M511.597,314.682
	c0.037,0.008,0.089,0.018,0.133,0.021c9.385-12.918,18.766-25.829,28.234-38.869c-0.254,0.056-0.351,0.066-0.444,0.096
	c-7.384,2.398-14.764,4.797-22.14,7.218c-0.206,0.066-0.434,0.347-0.471,0.561c-0.622,3.532-1.222,7.063-1.824,10.591
	c-0.938,5.453-1.876,10.899-2.811,16.35C512.042,311.991,511.82,313.339,511.597,314.682z M542.96,276.764
	c-0.015,0.273-0.027,0.354-0.027,0.433c0,7.759,0,15.516-0.008,23.271c0,0.384,0.153,0.554,0.465,0.716
	c4.55,2.384,9.092,4.778,13.639,7.17c4.594,2.409,9.196,4.83,13.793,7.242c0.121,0.067,0.254,0.111,0.509,0.215
	C561.85,302.763,552.458,289.837,542.96,276.764z M542.953,271.69c0.154-0.181,0.224-0.269,0.288-0.357
	c4.558-6.266,9.105-12.539,13.667-18.8c0.215-0.288,0.199-0.502,0.052-0.802c-4.575-9.254-9.148-18.515-13.719-27.777
	c-0.064-0.125-0.154-0.236-0.288-0.438C542.953,239.607,542.953,255.592,542.953,271.69z"/>
</svg>
