<?xml version="1.0" encoding="utf-8"?>
<!-- Generator: Adobe Illustrator 16.0.0, SVG Export Plug-In . SVG Version: 6.00 Build 0)  -->
<!DOCTYPE svg PUBLIC "-//W3C//DTD SVG 1.1//EN" "http://www.w3.org/Graphics/SVG/1.1/DTD/svg11.dtd">
<svg version="1.1" id="Capa_1" xmlns="http://www.w3.org/2000/svg" xmlns:xlink="http://www.w3.org/1999/xlink" x="0px" y="0px"
	 width="1080px" height="1080px" viewBox="0 0 1080 1080" enable-background="new 0 0 1080 1080" xml:space="preserve">
<g>
	<g>
		<defs>
			<path id="SVGID_3_" d="M-81.829-563.579c0,152.971-72.714,288.957-185.458,375.285c-79.532,60.895-178.984,97.074-286.889,97.074
				c-108.073,0-207.671-36.301-287.268-97.369c-112.527-86.342-185.078-222.188-185.078-374.99
				c0-260.875,211.479-472.34,472.346-472.34C-293.305-1035.919-81.829-824.454-81.829-563.579z"/>
		</defs>
		<clipPath id="SVGID_2_">
			<use xlink:href="#SVGID_3_"  overflow="visible"/>
		</clipPath>
		<g clip-path="url(#SVGID_2_)">
		</g>
	</g>
</g>
<g>
	<g>
		<g>
			<g>
				<path fill-rule="evenodd" clip-rule="evenodd" fill="#FFFFFF" d="M1020.822,539.059c0,266.059-215.688,481.759-481.76,481.759
					c-266.071,0-481.765-215.7-481.765-481.759c0-266.066,215.694-481.767,481.765-481.767
					C805.135,57.292,1020.822,272.992,1020.822,539.059z"/>
			</g>
		</g>
	</g>
</g>
<path fill-rule="evenodd" clip-rule="evenodd" fill="#FFFFFF" d="M387.646,684.58c1.114-6.623,2.214-13.25,3.354-19.881
	c4.609-26.87,9.232-53.736,13.841-80.603c2.985-17.42,5.924-34.843,9.009-52.244c0.187-1.057,1.312-2.443,2.304-2.768
	c36.383-11.941,72.792-23.768,109.209-35.604c0.44-0.144,0.915-0.188,2.188-0.445C480.843,557.326,434.575,621,388.307,684.69
	C388.087,684.657,387.864,684.624,387.646,684.58z"/>
<path fill-rule="evenodd" clip-rule="evenodd" fill="#FFFFFF" d="M542.331,497.588c46.818,64.455,93.133,128.201,139.896,192.563
	c-1.255-0.521-1.908-0.73-2.505-1.044c-22.679-11.903-45.361-23.822-68.029-35.736c-22.411-11.782-44.809-23.585-67.246-35.326
	c-1.557-0.819-2.299-1.651-2.299-3.532c0.058-38.268,0.048-76.523,0.048-114.788C542.196,499.33,542.247,498.95,542.331,497.588z"/>
<g>
	
		<radialGradient id="SVGID_4_" cx="413.5049" cy="429.418" r="313.7537" gradientTransform="matrix(0.7573 0 0 0.7573 222.6748 117.0244)" gradientUnits="userSpaceOnUse">
		<stop  offset="0" style="stop-color:#C69C6D"/>
		<stop  offset="0.2717" style="stop-color:#C2986A"/>
		<stop  offset="0.5277" style="stop-color:#B78D5F"/>
		<stop  offset="0.7765" style="stop-color:#A47A4E"/>
		<stop  offset="1" style="stop-color:#8C6239"/>
	</radialGradient>
	<path fill-rule="evenodd" clip-rule="evenodd" fill="url(#SVGID_4_)" d="M309.435,513.506c2.566-9.409,4.873-18.9,7.795-28.202
		c1.755-5.611,1.216-10.324-2.14-15.162c-5.277-7.619-10.026-15.597-15.27-23.23c-2.245-3.27-2.436-5.716-0.007-9.129
		c5.365-7.547,10.011-15.602,15.31-23.206c3.376-4.841,3.965-9.59,2.192-15.172c-2.74-8.595-4.738-17.413-7.495-25.997
		c-1.303-4.043-0.057-6.272,3.046-8.648c7.559-5.773,14.832-11.91,22.317-17.771c3.489-2.719,5.203-5.944,5.627-10.494
		c0.767-8.513,1.581-17.032,1.127-25.552c-0.367-6.896,1.891-10.775,8.886-12.723c8.188-2.284,15.998-5.944,24.081-8.657
		c4.618-1.549,7.243-4.498,8.836-8.925c3.134-8.724,6.618-17.317,9.679-26.062c1.395-3.986,3.563-5.868,7.948-5.96
		c9.256-0.196,18.496-1.166,27.745-1.243c5.47-0.042,9.134-2.192,12.267-6.45c4.919-6.671,10.436-12.911,15.208-19.668
		c3.638-5.162,7.463-6.557,13.629-4.387c8.249,2.908,16.956,4.535,25.35,7.089c4.685,1.423,8.365,0.472,12.269-2.303
		c6.952-4.949,14.354-9.247,21.319-14.17c4.782-3.372,8.78-3.829,13.812-0.096c7.43,5.505,15.5,10.147,23.195,15.298
		c3.09,2.074,6.124,2.443,9.677,1.407c9.367-2.713,18.849-5.049,28.197-7.834c4.359-1.292,7.337-0.387,10.079,3.324
		c5.225,7.052,10.937,13.734,16.236,20.73c3.649,4.812,7.956,7.202,14.276,7.113c8.505-0.124,17.018,1.015,25.537,1.147
		c4.573,0.078,7.147,1.716,8.651,6.096c2.754,8.074,6.167,15.93,8.869,24.01c2.12,6.344,6.124,10.066,12.454,12.063
		c7.673,2.42,15.093,5.604,22.729,8.154c5.08,1.701,7.333,4.639,7.345,10.206c0.022,9.01,1.063,18.006,1.21,27.01
		c0.08,4.914,2.124,8.247,5.843,11.1c6.972,5.343,13.624,11.109,20.757,16.213c4.2,3.004,5.52,5.974,3.889,11.074
		c-2.81,8.814-4.764,17.902-7.354,26.799c-1.263,4.336-0.712,8.014,1.812,11.752c5.037,7.479,9.653,15.255,14.813,22.645
		c3.085,4.426,3.278,8.27,0.176,12.698c-4.896,6.984-9.327,14.306-14.271,21.245c-3.425,4.812-4,9.568-2.229,15.162
		c2.571,8.137,4.316,16.535,6.94,24.649c1.575,4.886,0.926,8.08-3.496,11.194c-7.17,5.045-13.772,10.881-20.762,16.184
		c-3.974,3.012-5.801,6.594-6.191,11.716c-0.68,8.999-1.386,17.996-1.182,27.015c0.111,5.12-1.719,8.12-6.785,9.707
		c-6.27,1.963-12.161,5.287-18.515,6.815c-10.332,2.476-16.345,8.258-18.925,18.642c-1.706,6.808-5.008,13.209-7.453,19.845
		c-1.266,3.424-3.502,4.77-7.14,5.062c-8.991,0.705-17.974,1.809-27,1.313c-6.003-0.328-10.203,2.061-13.712,6.688
		c-5.45,7.188-11.287,14.081-16.678,21.319c-2.57,3.451-5.31,4.365-9.432,3.167c-9.124-2.671-18.435-4.713-27.507-7.554
		c-4.696-1.483-8.363-0.808-12.26,1.963c-6.756,4.801-14.023,8.911-20.579,13.944c-5.542,4.259-10.199,4.232-15.734,0.134
		c-6.446-4.791-13.575-8.669-20.003-13.483c-4.625-3.469-9.07-3.775-14.343-2.16c-8.158,2.511-16.523,4.325-24.645,6.927
		c-4.882,1.554-8.284,0.741-11.424-3.398c-5.446-7.18-11.47-13.929-16.873-21.128c-3.387-4.513-7.367-6.608-13.046-6.42
		c-9.016,0.295-18.018-0.358-27.014-1.237c-4.283-0.412-6.631-2.047-7.993-6.036c-2.695-7.838-6.099-15.453-8.402-23.404
		c-2.077-7.167-6.518-10.727-13.413-12.798c-7.924-2.383-15.516-5.855-23.354-8.542c-4.083-1.395-5.786-3.836-5.875-8.084
		c-0.169-9.217-0.598-18.412-1.373-27.619c-0.51-6.091-2.672-9.888-7.251-13.324c-6.993-5.258-13.664-10.933-20.509-16.382
		C310.979,517.959,308.968,516.51,309.435,513.506z M633.833,604.69c5.516,0,9.217-0.339,12.832,0.073
		c6.448,0.738,9.197-2.236,10.463-8.268c1.498-7.148,3.86-14.104,5.695-21.181c0.969-3.73,3.187-5.697,6.924-6.591
		c7.347-1.756,14.554-4.165,21.952-5.645c6.077-1.214,8.019-4.45,7.436-10.281c-0.675-6.777-0.757-13.615-1.432-20.401
		c-0.576-5.781,1.421-9.719,6.564-12.59c5.954-3.317,11.561-7.272,17.406-10.781c4.442-2.672,5.943-6.015,3.781-11.015
		c-2.803-6.487-5.094-13.194-7.938-19.663c-2.322-5.258-2.069-9.442,2.225-13.866c5.067-5.226,9.244-11.313,13.925-16.927
		c2.895-3.464,3.515-6.375,0.021-10.139c-5.137-5.524-9.583-11.68-14.461-17.441c-3.311-3.912-4.226-7.754-1.963-12.724
		c3.122-6.86,5.413-14.103,8.297-21.095c1.695-4.107,0.686-6.956-2.971-9.273c-6.168-3.929-12.099-8.254-18.425-11.899
		c-5.121-2.945-7.043-6.841-6.469-12.62c0.734-7.261,0.88-14.585,1.458-21.865c0.363-4.731-1.624-7.158-6.238-8.223
		c-7.127-1.648-14.075-4.091-21.233-5.52c-5.912-1.173-8.731-4.476-9.958-10.077c-1.463-6.663-3.494-13.202-4.968-19.87
		c-1.14-5.143-3.933-7.493-9.254-7.106c-7.771,0.572-15.564,0.89-23.335,1.421c-4.343,0.296-7.266-1.244-9.546-5.159
		c-3.804-6.52-8.422-12.567-12.214-19.087c-2.561-4.412-5.402-5.595-10.184-3.602c-7.425,3.088-15.096,5.571-22.542,8.619
		c-3.631,1.491-6.31,1.022-9.298-1.527c-5.928-5.062-12.373-9.52-18.203-14.689c-4.205-3.715-7.41-4.391-11.792-0.121
		c-4.869,4.748-10.662,8.527-15.754,13.051c-4.479,3.979-8.778,5.28-14.527,2.401c-5.199-2.607-11.229-3.597-16.335-6.339
		c-7.518-4.047-12.404-2.232-15.712,5.184c-7.594,17.056-19.217,26.185-38.771,19.93c-0.225-0.074-0.483-0.018-0.73-0.022
		c-10.808-0.306-12.535-0.343-13.622,10.494c-1.974,19.646-12.044,28.619-31.101,31.203c-11.933,1.615-11.808,3.104-10.212,15.328
		c0.157,1.205,0.33,2.412,0.515,3.614c2.026,12.997,0.559,24.27-13.988,29.493c-2.223,0.798-4.021,2.72-6.092,4.016
		c-9.756,6.11-11.078,6.926-5.527,16.604c9.752,17.014,7.191,30.412-6.727,43.703c-7.967,7.608-7.072,8.549-0.096,16.999
		c0.313,0.38,0.605,0.779,0.963,1.104c12.616,11.36,16.055,23.46,7.013,39.566c-6.642,11.825-4.679,12.043,6.518,20.065
		c21.524,15.412,18.436,6.465,17.93,32.697c-0.308,16.533-0.829,17.253,15.454,20.337c13.391,2.535,21.074,7.956,23.651,22.605
		c3.053,17.382,4.611,18.49,22.191,16.527c14.95-1.672,22.777,3.903,29.876,16.234c9.505,16.49,6.559,14.893,23.197,7.985
		c1.345-0.558,2.895-0.775,4.101-1.53c10.911-6.816,19.386-3.518,28.435,4.688c13.889,12.624,15.203,12.975,28.785,0.649
		c10.944-9.937,20.596-10.45,33.319-4.294c15.024,7.275,15.964,6.784,24.337-8.06C613.956,608.313,621.105,600.093,633.833,604.69z"
		/>
	
		<radialGradient id="SVGID_5_" cx="556.416" cy="839.6055" r="133.5388" gradientTransform="matrix(0.7573 0 0 0.7573 222.6748 117.0244)" gradientUnits="userSpaceOnUse">
		<stop  offset="0" style="stop-color:#C69C6D"/>
		<stop  offset="0.2717" style="stop-color:#C2986A"/>
		<stop  offset="0.5277" style="stop-color:#B78D5F"/>
		<stop  offset="0.7765" style="stop-color:#A47A4E"/>
		<stop  offset="1" style="stop-color:#8C6239"/>
	</radialGradient>
	<path fill-rule="evenodd" clip-rule="evenodd" fill="url(#SVGID_5_)" d="M572.687,665.48c11.375,3.115,21.8,5.66,32.018,8.896
		c5.552,1.761,9.041,0.514,12.385-4.154c5.114-7.117,10.941-13.708,16.234-20.704c3.675-4.856,8.09-7.493,14.354-6.881
		c2.894,0.279,5.845-0.015,8.768-0.057c13.378-0.195,13.47-0.235,17.971,12.765c19.688,56.878,39.331,113.78,58.932,170.692
		c0.755,2.192,2.863,4.897,0.943,6.794c-2.037,2.019-4.563-0.528-6.644-1.36c-22.409-8.946-44.845-17.831-67.047-27.266
		c-6.17-2.623-9.55-1.435-13.096,3.944c-11.258,17.093-22.872,33.946-34.416,50.844c-1.144,1.675-1.703,4.688-4.4,4.096
		c-2.12-0.462-1.832-3.204-2.371-4.996c-13.365-44.073-26.686-88.17-40.005-132.261c-4.146-13.748-7.981-27.602-12.507-41.224
		c-1.738-5.235-0.616-8.255,4.055-10.664C563.161,671.204,567.303,666.237,572.687,665.48z"/>
	
		<radialGradient id="SVGID_6_" cx="269.6362" cy="839.8145" r="137.6053" gradientTransform="matrix(0.7573 0 0 0.7573 222.6748 117.0244)" gradientUnits="userSpaceOnUse">
		<stop  offset="0" style="stop-color:#C69C6D"/>
		<stop  offset="0.2717" style="stop-color:#C2986A"/>
		<stop  offset="0.5277" style="stop-color:#B78D5F"/>
		<stop  offset="0.7765" style="stop-color:#A47A4E"/>
		<stop  offset="1" style="stop-color:#8C6239"/>
	</radialGradient>
	<path fill-rule="evenodd" clip-rule="evenodd" fill="url(#SVGID_6_)" d="M420.476,642.946c8.859-1.76,14.989,1.511,19.952,8.887
		c4.743,7.043,10.878,13.131,15.994,19.954c2.675,3.567,5.509,4.107,9.47,2.923c7.941-2.385,16.077-4.162,23.915-6.823
		c7.621-2.59,13.94-1.516,20.49,3.291c16.725,12.267,16.238,6.082,8.343,26.558c-20.705,53.684-41.534,107.327-62.358,160.968
		c-0.751,1.94-0.732,4.94-3.341,5.184c-2.612,0.24-3.107-2.717-4.147-4.513c-10.28-17.719-20.76-35.328-30.573-53.29
		c-3.07-5.626-6.061-6.056-11.61-4.136c-22.815,7.91-45.774,15.397-68.715,22.933c-2.389,0.777-5.325,3.303-7.395,0.856
		c-1.92-2.273,0.646-5.078,1.65-7.392c13.754-31.781,27.634-63.503,41.48-95.232c10.136-23.238,20.467-46.408,30.304-69.769
		C407.221,645.526,411.044,639.944,420.476,642.946z"/>
	
		<radialGradient id="SVGID_7_" cx="414.5513" cy="429.5293" r="203.906" gradientTransform="matrix(0.7573 0 0 0.7573 222.6748 117.0244)" gradientUnits="userSpaceOnUse">
		<stop  offset="0" style="stop-color:#C69C6D"/>
		<stop  offset="0.2717" style="stop-color:#C2986A"/>
		<stop  offset="0.5277" style="stop-color:#B78D5F"/>
		<stop  offset="0.7765" style="stop-color:#A47A4E"/>
		<stop  offset="1" style="stop-color:#8C6239"/>
	</radialGradient>
	<path fill-rule="evenodd" clip-rule="evenodd" fill="url(#SVGID_7_)" d="M691.039,442.305c0,85.278-69.136,154.416-154.418,154.416
		c-85.285,0-154.423-69.138-154.423-154.416c0-85.279,69.139-154.417,154.423-154.417
		C621.903,287.888,691.039,357.025,691.039,442.305z"/>
</g>
</svg>
