<?xml version="1.0" encoding="utf-8"?>
<!-- Generator: Adobe Illustrator 16.0.0, SVG Export Plug-In . SVG Version: 6.00 Build 0)  -->
<!DOCTYPE svg PUBLIC "-//W3C//DTD SVG 1.1//EN" "http://www.w3.org/Graphics/SVG/1.1/DTD/svg11.dtd">
<svg version="1.1" id="Capa_1" xmlns="http://www.w3.org/2000/svg" xmlns:xlink="http://www.w3.org/1999/xlink" x="0px" y="0px"
	 width="1080px" height="1080px" viewBox="0 0 1080 1080" enable-background="new 0 0 1080 1080" xml:space="preserve">
<g>
	<g>
		<g>
			<g>
				<path fill-rule="evenodd" clip-rule="evenodd" fill="#FFFFFF" d="M1012.038,540.002c0,266.06-215.687,481.761-481.762,481.761
					c-266.071,0-481.764-215.701-481.764-481.761c0-266.067,215.692-481.765,481.764-481.765
					C796.352,58.237,1012.038,273.935,1012.038,540.002z"/>
			</g>
		</g>
	</g>
</g>
<g>
	
		<radialGradient id="SVGID_2_" cx="281.6758" cy="620.1768" r="27.2777" gradientTransform="matrix(1.1162 0 0 1.1162 92.8335 72.5845)" gradientUnits="userSpaceOnUse">
		<stop  offset="0" style="stop-color:#FD6729"/>
		<stop  offset="0.2374" style="stop-color:#FD6329"/>
		<stop  offset="0.4612" style="stop-color:#FC582B"/>
		<stop  offset="0.6795" style="stop-color:#FC452D"/>
		<stop  offset="0.8931" style="stop-color:#FB2A30"/>
		<stop  offset="1" style="stop-color:#FA1A32"/>
	</radialGradient>
	<path fill="url(#SVGID_2_)" d="M430.604,773.689l8.886-27.112l-27.088-8.871c-14.979-4.907-31.096,3.255-36.003,18.229
		c-4.89,14.952,3.272,31.065,18.254,35.97C409.624,796.815,425.708,788.635,430.604,773.689"/>
	
		<radialGradient id="SVGID_4_" cx="298.3906" cy="570.0977" r="27.5533" gradientTransform="matrix(1.1162 0 0 1.1162 92.8335 72.5845)" gradientUnits="userSpaceOnUse">
		<stop  offset="0" style="stop-color:#FD6729"/>
		<stop  offset="0.2374" style="stop-color:#FD6329"/>
		<stop  offset="0.4612" style="stop-color:#FC582B"/>
		<stop  offset="0.6795" style="stop-color:#FC452D"/>
		<stop  offset="0.8931" style="stop-color:#FB2A30"/>
		<stop  offset="1" style="stop-color:#FA1A32"/>
	</radialGradient>
	<path fill="url(#SVGID_4_)" d="M415.191,731.042l26.453,10.697l10.687-26.427c5.911-14.611-1.145-31.242-15.753-37.15
		c-14.586-5.896-31.213,1.154-37.124,15.763C393.543,708.538,400.609,725.139,415.191,731.042"/>
	
		<radialGradient id="SVGID_5_" cx="226.8975" cy="588.9844" r="24.0974" gradientTransform="matrix(1.1162 0 0 1.1162 92.8335 72.5845)" gradientUnits="userSpaceOnUse">
		<stop  offset="0" style="stop-color:#FD6729"/>
		<stop  offset="0.2374" style="stop-color:#FD6329"/>
		<stop  offset="0.4612" style="stop-color:#FC582B"/>
		<stop  offset="0.6795" style="stop-color:#FC452D"/>
		<stop  offset="0.8931" style="stop-color:#FB2A30"/>
		<stop  offset="1" style="stop-color:#FA1A32"/>
	</radialGradient>
	<path fill="url(#SVGID_5_)" d="M363.613,741.44l11.445-21.848l-21.822-11.438c-12.062-6.321-26.969-1.661-33.294,10.397
		c-6.31,12.048-1.656,26.951,10.421,33.272C342.421,758.148,357.307,753.474,363.613,741.44"/>
	
		<radialGradient id="SVGID_6_" cx="247.8418" cy="550.0176" r="24.2507" gradientTransform="matrix(1.1162 0 0 1.1162 92.8335 72.5845)" gradientUnits="userSpaceOnUse">
		<stop  offset="0" style="stop-color:#FD6729"/>
		<stop  offset="0.2374" style="stop-color:#FD6329"/>
		<stop  offset="0.4612" style="stop-color:#FC582B"/>
		<stop  offset="0.6795" style="stop-color:#FC452D"/>
		<stop  offset="0.8931" style="stop-color:#FB2A30"/>
		<stop  offset="1" style="stop-color:#FA1A32"/>
	</radialGradient>
	<path fill="url(#SVGID_6_)" d="M356.568,702.874l21.026,12.903l12.885-21.003c7.13-11.612,3.491-26.8-8.117-33.921
		c-11.594-7.115-26.771-3.477-33.9,8.128C341.333,680.595,344.983,695.76,356.568,702.874"/>
	
		<radialGradient id="SVGID_7_" cx="183.1729" cy="554.1387" r="21.2577" gradientTransform="matrix(1.1162 0 0 1.1162 92.8335 72.5845)" gradientUnits="userSpaceOnUse">
		<stop  offset="0" style="stop-color:#FD6729"/>
		<stop  offset="0.2374" style="stop-color:#FD6329"/>
		<stop  offset="0.4612" style="stop-color:#FC582B"/>
		<stop  offset="0.6795" style="stop-color:#FC452D"/>
		<stop  offset="0.8931" style="stop-color:#FB2A30"/>
		<stop  offset="1" style="stop-color:#FA1A32"/>
	</radialGradient>
	<path fill="url(#SVGID_7_)" d="M310.529,703.607l12.516-17.509l-17.49-12.504c-9.671-6.9-23.113-4.672-30.021,4.999
		c-6.896,9.649-4.657,23.092,5.012,30.003C290.212,715.504,303.633,713.253,310.529,703.607"/>
	
		<radialGradient id="SVGID_8_" cx="205.9707" cy="523.7832" r="21.3254" gradientTransform="matrix(1.1162 0 0 1.1162 92.8335 72.5845)" gradientUnits="userSpaceOnUse">
		<stop  offset="0" style="stop-color:#FD6729"/>
		<stop  offset="0.2374" style="stop-color:#FD6329"/>
		<stop  offset="0.4612" style="stop-color:#FC582B"/>
		<stop  offset="0.6795" style="stop-color:#FC452D"/>
		<stop  offset="0.8931" style="stop-color:#FB2A30"/>
		<stop  offset="1" style="stop-color:#FA1A32"/>
	</radialGradient>
	<path fill="url(#SVGID_8_)" d="M309.072,669.429l16.615,13.679l13.656-16.604c7.554-9.185,6.232-22.741-2.948-30.291
		c-9.161-7.539-22.718-6.214-30.276,2.963C298.569,648.352,299.912,661.894,309.072,669.429"/>
	
		<radialGradient id="SVGID_9_" cx="144.8311" cy="519.4746" r="19.3974" gradientTransform="matrix(1.1162 0 0 1.1162 92.8335 72.5845)" gradientUnits="userSpaceOnUse">
		<stop  offset="0" style="stop-color:#FD6729"/>
		<stop  offset="0.2374" style="stop-color:#FD6329"/>
		<stop  offset="0.4612" style="stop-color:#FC582B"/>
		<stop  offset="0.6795" style="stop-color:#FC452D"/>
		<stop  offset="0.8931" style="stop-color:#FB2A30"/>
		<stop  offset="1" style="stop-color:#FA1A32"/>
	</radialGradient>
	<path fill="url(#SVGID_9_)" d="M265.441,665.009l12.609-14.963l-14.953-12.602c-8.265-6.955-20.611-5.903-27.574,2.357
		c-6.949,8.255-5.89,20.597,2.373,27.56C246.161,674.329,258.489,673.256,265.441,665.009"/>
	
		<radialGradient id="SVGID_10_" cx="167.8398" cy="493.9492" r="19.4222" gradientTransform="matrix(1.1162 0 0 1.1162 92.8335 72.5845)" gradientUnits="userSpaceOnUse">
		<stop  offset="0" style="stop-color:#FD6729"/>
		<stop  offset="0.2374" style="stop-color:#FD6329"/>
		<stop  offset="0.4612" style="stop-color:#FC582B"/>
		<stop  offset="0.6795" style="stop-color:#FC452D"/>
		<stop  offset="0.8931" style="stop-color:#FB2A30"/>
		<stop  offset="1" style="stop-color:#FA1A32"/>
	</radialGradient>
	<path fill="url(#SVGID_10_)" d="M266.586,633.928l14.072,13.594l13.584-14.063c7.508-7.781,7.291-20.165-0.484-27.666
		c-7.763-7.498-20.146-7.285-27.655,0.493C258.59,614.059,258.829,626.43,266.586,633.928"/>
	
		<radialGradient id="SVGID_11_" cx="119.5898" cy="476.748" r="16.7803" gradientTransform="matrix(1.1162 0 0 1.1162 92.8335 72.5845)" gradientUnits="userSpaceOnUse">
		<stop  offset="0" style="stop-color:#FD6729"/>
		<stop  offset="0.2374" style="stop-color:#FD6329"/>
		<stop  offset="0.4612" style="stop-color:#FC582B"/>
		<stop  offset="0.6795" style="stop-color:#FC452D"/>
		<stop  offset="0.8931" style="stop-color:#FB2A30"/>
		<stop  offset="1" style="stop-color:#FA1A32"/>
	</radialGradient>
	<path fill="url(#SVGID_11_)" d="M233.299,618.091l13.379-10.409l-10.401-13.364c-5.748-7.388-16.397-8.724-23.79-2.975
		c-7.375,5.742-8.697,16.395-2.951,23.781C215.283,622.516,225.922,623.824,233.299,618.091"/>
	
		<radialGradient id="SVGID_12_" cx="144.3154" cy="459.7852" r="16.7188" gradientTransform="matrix(1.1162 0 0 1.1162 92.8335 72.5845)" gradientUnits="userSpaceOnUse">
		<stop  offset="0" style="stop-color:#FD6729"/>
		<stop  offset="0.2374" style="stop-color:#FD6329"/>
		<stop  offset="0.4612" style="stop-color:#FC582B"/>
		<stop  offset="0.6795" style="stop-color:#FC452D"/>
		<stop  offset="0.8931" style="stop-color:#FB2A30"/>
		<stop  offset="1" style="stop-color:#FA1A32"/>
	</radialGradient>
	<path fill="url(#SVGID_12_)" d="M239.867,591.959l9.479,14.055l14.04-9.472c7.765-5.243,9.813-15.774,4.576-23.53
		c-5.232-7.753-15.76-9.797-23.527-4.558C236.675,573.684,234.645,584.214,239.867,591.959"/>
	
		<radialGradient id="SVGID_13_" cx="101.7031" cy="440.8262" r="14.2001" gradientTransform="matrix(1.1162 0 0 1.1162 92.8335 72.5845)" gradientUnits="userSpaceOnUse">
		<stop  offset="0" style="stop-color:#FD6729"/>
		<stop  offset="0.2374" style="stop-color:#FD6329"/>
		<stop  offset="0.4612" style="stop-color:#FC582B"/>
		<stop  offset="0.6795" style="stop-color:#FC452D"/>
		<stop  offset="0.8931" style="stop-color:#FB2A30"/>
		<stop  offset="1" style="stop-color:#FA1A32"/>
	</radialGradient>
	<path fill="url(#SVGID_13_)" d="M210.436,577.587l12.97-6.597l-6.59-12.964c-3.649-7.155-12.405-10.014-19.571-6.372
		c-7.152,3.634-10,12.397-6.358,19.563C194.524,578.383,203.283,581.222,210.436,577.587"/>
	
		<radialGradient id="SVGID_14_" cx="126.1191" cy="430.5986" r="14.088" gradientTransform="matrix(1.1162 0 0 1.1162 92.8335 72.5845)" gradientUnits="userSpaceOnUse">
		<stop  offset="0" style="stop-color:#FD6729"/>
		<stop  offset="0.2374" style="stop-color:#FD6329"/>
		<stop  offset="0.4612" style="stop-color:#FC582B"/>
		<stop  offset="0.6795" style="stop-color:#FC452D"/>
		<stop  offset="0.8931" style="stop-color:#FB2A30"/>
		<stop  offset="1" style="stop-color:#FA1A32"/>
	</radialGradient>
	<path fill="url(#SVGID_14_)" d="M220.225,556.628l5.697,13.396l13.381-5.702c7.396-3.154,10.833-11.7,7.685-19.092
		c-3.144-7.383-11.689-10.826-19.088-7.675C220.505,540.703,217.082,549.248,220.225,556.628"/>
	
		<radialGradient id="SVGID_15_" cx="103.9473" cy="406.2422" r="14.3606" gradientTransform="matrix(1.1162 0 0 1.1162 92.8335 72.5845)" gradientUnits="userSpaceOnUse">
		<stop  offset="0" style="stop-color:#FD6729"/>
		<stop  offset="0.2374" style="stop-color:#FD6329"/>
		<stop  offset="0.4612" style="stop-color:#FC582B"/>
		<stop  offset="0.6795" style="stop-color:#FC452D"/>
		<stop  offset="0.8931" style="stop-color:#FB2A30"/>
		<stop  offset="1" style="stop-color:#FA1A32"/>
	</radialGradient>
	<path fill="url(#SVGID_15_)" d="M200.619,535.16l11.99,8.244l8.231-11.985c4.558-6.627,2.874-15.686-3.745-20.231
		c-6.615-4.546-15.672-2.867-20.225,3.76C192.314,521.563,194.008,530.618,200.619,535.16"/>
</g>
<radialGradient id="SVGID_16_" cx="391.1045" cy="661.668" r="17.9492" gradientTransform="matrix(1.1162 0 0 1.1162 92.8335 72.5845)" gradientUnits="userSpaceOnUse">
	<stop  offset="0" style="stop-color:#FD6729"/>
	<stop  offset="0.2374" style="stop-color:#FD6329"/>
	<stop  offset="0.4612" style="stop-color:#FC582B"/>
	<stop  offset="0.6795" style="stop-color:#FC452D"/>
	<stop  offset="0.8931" style="stop-color:#FB2A30"/>
	<stop  offset="1" style="stop-color:#FA1A32"/>
</radialGradient>
<path fill="url(#SVGID_16_)" d="M549.42,811.128c0,0.347,0,0.675-0.022,1.026c-0.021,0.428-0.059,0.841-0.104,1.25
	c-0.037,0.252-0.06,0.514-0.104,0.761c-0.037,0.331-0.104,0.656-0.184,0.988c-0.061,0.325-0.141,0.653-0.222,0.981
	c-0.082,0.311-0.17,0.639-0.266,0.945c-0.081,0.31-0.186,0.615-0.31,0.926c-0.186,0.531-0.414,1.066-0.657,1.583
	c-0.458,0.94-0.967,1.867-1.564,2.728c-0.164,0.265-0.37,0.535-0.554,0.778c-0.186,0.269-0.392,0.517-0.591,0.764
	c-0.391,0.49-0.826,0.963-1.3,1.413c-0.206,0.229-0.449,0.449-0.699,0.657c-1.271,1.173-2.701,2.177-4.288,2.999
	c-0.244,0.122-0.495,0.248-0.738,0.347c-0.206,0.104-0.429,0.207-0.657,0.292c-0.229,0.1-0.472,0.203-0.715,0.288
	c-1.049,0.405-2.119,0.715-3.226,0.922c-0.288,0.06-0.599,0.104-0.886,0.145c-0.966,0.144-1.948,0.225-2.952,0.225
	c-11.07,0-20.044-8.974-20.044-20.018c0-11.069,8.974-20.039,20.044-20.039c0.51,0,1.004,0.019,1.497,0.059
	c0.489,0.044,0.982,0.104,1.455,0.165c0.346,0.041,0.68,0.104,1.026,0.185c0.449,0.085,0.885,0.167,1.313,0.311
	c0.089,0.019,0.191,0.037,0.266,0.063c0.495,0.141,1.012,0.325,1.507,0.51c0.243,0.084,0.486,0.185,0.715,0.288
	c0.288,0.125,0.554,0.246,0.842,0.35c0.509,0.266,1.025,0.535,1.521,0.823c0.413,0.243,0.797,0.49,1.165,0.76
	c0.126,0.082,0.251,0.162,0.355,0.244c0.324,0.229,0.656,0.472,0.959,0.737c0.413,0.328,0.826,0.68,1.194,1.048
	c0.229,0.207,0.452,0.432,0.657,0.657c0.288,0.288,0.576,0.576,0.819,0.904c0.266,0.306,0.517,0.616,0.761,0.94
	c0.184,0.229,0.347,0.454,0.495,0.702c0.76,1.088,1.394,2.262,1.91,3.49c0.104,0.229,0.206,0.472,0.288,0.716
	c0.141,0.373,0.266,0.741,0.392,1.114c0.096,0.324,0.184,0.634,0.266,0.963c0.347,1.273,0.554,2.608,0.612,3.98
	C549.42,810.431,549.42,810.777,549.42,811.128"/>
<radialGradient id="SVGID_17_" cx="328.8047" cy="600.9697" r="3.8262" gradientTransform="matrix(1.1162 0 0 1.1162 92.8335 72.5845)" gradientUnits="userSpaceOnUse">
	<stop  offset="0" style="stop-color:#FD6729"/>
	<stop  offset="0.2374" style="stop-color:#FD6329"/>
	<stop  offset="0.4612" style="stop-color:#FC582B"/>
	<stop  offset="0.6795" style="stop-color:#FC452D"/>
	<stop  offset="0.8931" style="stop-color:#FB2A30"/>
	<stop  offset="1" style="stop-color:#FA1A32"/>
</radialGradient>
<path fill="url(#SVGID_17_)" d="M464.113,743.37c0,0.071,0,0.141-0.004,0.218c-0.004,0.093-0.015,0.177-0.021,0.262
	c-0.016,0.056-0.016,0.111-0.02,0.167c-0.011,0.069-0.021,0.14-0.044,0.214c-0.011,0.069-0.03,0.136-0.044,0.207
	c-0.022,0.065-0.041,0.136-0.06,0.198c-0.019,0.066-0.037,0.13-0.07,0.196c-0.033,0.117-0.084,0.229-0.136,0.339
	c-0.096,0.199-0.207,0.398-0.332,0.583c-0.034,0.056-0.082,0.114-0.119,0.166c-0.04,0.056-0.088,0.111-0.129,0.159
	c-0.08,0.106-0.173,0.21-0.272,0.306c-0.044,0.048-0.096,0.093-0.147,0.141c-0.272,0.246-0.58,0.461-0.916,0.638
	c-0.051,0.026-0.106,0.048-0.161,0.077c-0.042,0.016-0.09,0.037-0.138,0.056c-0.048,0.026-0.103,0.048-0.154,0.063
	c-0.225,0.084-0.45,0.15-0.687,0.195c-0.06,0.016-0.125,0.021-0.188,0.029c-0.203,0.029-0.417,0.053-0.632,0.053
	c-2.354,0-4.27-1.912-4.27-4.267c0-2.361,1.915-4.272,4.27-4.272c0.11,0,0.215,0.004,0.317,0.015
	c0.111,0.004,0.214,0.019,0.314,0.037c0.073,0.003,0.146,0.015,0.218,0.036c0.099,0.019,0.191,0.034,0.283,0.066
	c0.016,0.005,0.041,0.005,0.053,0.011c0.109,0.03,0.218,0.071,0.32,0.108c0.052,0.019,0.106,0.043,0.154,0.066
	c0.059,0.025,0.118,0.051,0.181,0.069c0.107,0.06,0.219,0.118,0.321,0.177c0.094,0.056,0.17,0.108,0.251,0.162
	c0.03,0.016,0.052,0.037,0.073,0.053c0.071,0.051,0.138,0.1,0.207,0.158c0.085,0.066,0.175,0.141,0.251,0.226
	c0.053,0.04,0.096,0.092,0.144,0.133c0.063,0.066,0.122,0.125,0.171,0.198c0.063,0.066,0.114,0.127,0.165,0.199
	c0.037,0.049,0.074,0.093,0.107,0.145c0.163,0.236,0.296,0.483,0.403,0.749c0.021,0.048,0.048,0.104,0.062,0.151
	c0.029,0.082,0.061,0.159,0.085,0.239c0.019,0.071,0.037,0.134,0.06,0.203c0.073,0.271,0.114,0.558,0.129,0.849
	C464.113,743.219,464.113,743.293,464.113,743.37"/>
<radialGradient id="SVGID_18_" cx="345.6416" cy="602.3027" r="4.7817" gradientTransform="matrix(1.1162 0 0 1.1162 92.8335 72.5845)" gradientUnits="userSpaceOnUse">
	<stop  offset="0" style="stop-color:#FD6729"/>
	<stop  offset="0.2374" style="stop-color:#FD6329"/>
	<stop  offset="0.4612" style="stop-color:#FC582B"/>
	<stop  offset="0.6795" style="stop-color:#FC452D"/>
	<stop  offset="0.8931" style="stop-color:#FB2A30"/>
	<stop  offset="1" style="stop-color:#FA1A32"/>
</radialGradient>
<path fill="url(#SVGID_18_)" d="M483.972,744.857c0,0.092,0,0.177-0.003,0.273c-0.008,0.114-0.019,0.221-0.029,0.335
	c-0.011,0.063-0.016,0.134-0.03,0.2c-0.007,0.091-0.025,0.181-0.044,0.262c-0.019,0.088-0.044,0.178-0.063,0.266
	c-0.021,0.077-0.048,0.166-0.069,0.247s-0.052,0.163-0.085,0.248c-0.048,0.146-0.107,0.287-0.177,0.427
	c-0.114,0.244-0.258,0.49-0.416,0.724c-0.042,0.07-0.094,0.14-0.145,0.206c-0.052,0.074-0.107,0.141-0.159,0.203
	c-0.1,0.133-0.218,0.258-0.347,0.38c-0.057,0.06-0.118,0.118-0.185,0.174c-0.339,0.311-0.72,0.58-1.141,0.801
	c-0.069,0.029-0.136,0.063-0.198,0.092c-0.057,0.026-0.115,0.056-0.178,0.071c-0.059,0.032-0.125,0.062-0.188,0.085
	c-0.283,0.103-0.568,0.184-0.859,0.239c-0.078,0.019-0.159,0.025-0.232,0.037c-0.258,0.036-0.528,0.065-0.79,0.065
	c-2.951,0-5.335-2.391-5.335-5.335c0-2.952,2.384-5.34,5.335-5.34c0.134,0,0.262,0.004,0.399,0.016
	c0.133,0.015,0.262,0.033,0.391,0.048c0.092,0.003,0.181,0.025,0.27,0.052c0.121,0.019,0.24,0.037,0.351,0.077
	c0.022,0.008,0.051,0.008,0.072,0.021c0.127,0.034,0.267,0.077,0.399,0.133c0.063,0.019,0.13,0.048,0.188,0.078
	c0.077,0.033,0.151,0.066,0.229,0.089c0.137,0.073,0.274,0.147,0.406,0.225c0.107,0.063,0.21,0.125,0.306,0.196
	c0.037,0.021,0.066,0.048,0.097,0.069c0.085,0.06,0.174,0.126,0.255,0.2c0.113,0.08,0.221,0.177,0.317,0.276
	c0.059,0.055,0.12,0.11,0.177,0.169c0.077,0.082,0.151,0.155,0.214,0.24c0.078,0.085,0.145,0.17,0.207,0.255
	c0.051,0.059,0.088,0.122,0.129,0.188c0.203,0.289,0.368,0.602,0.513,0.931c0.025,0.059,0.052,0.126,0.074,0.192
	c0.043,0.096,0.069,0.198,0.106,0.294c0.021,0.085,0.048,0.17,0.069,0.255c0.093,0.344,0.148,0.693,0.167,1.06
	C483.972,744.673,483.972,744.766,483.972,744.857"/>
<radialGradient id="SVGID_19_" cx="361.4844" cy="613.0371" r="5.7393" gradientTransform="matrix(1.1162 0 0 1.1162 92.8335 72.5845)" gradientUnits="userSpaceOnUse">
	<stop  offset="0" style="stop-color:#FD6729"/>
	<stop  offset="0.2374" style="stop-color:#FD6329"/>
	<stop  offset="0.4612" style="stop-color:#FC582B"/>
	<stop  offset="0.6795" style="stop-color:#FC452D"/>
	<stop  offset="0.8931" style="stop-color:#FB2A30"/>
	<stop  offset="1" style="stop-color:#FA1A32"/>
</radialGradient>
<path fill="url(#SVGID_19_)" d="M502.725,756.838c0,0.115,0,0.219-0.007,0.333c-0.004,0.136-0.019,0.266-0.034,0.397
	c-0.015,0.078-0.018,0.162-0.028,0.241c-0.016,0.11-0.034,0.214-0.059,0.313c-0.023,0.107-0.048,0.215-0.074,0.314
	c-0.03,0.104-0.053,0.21-0.085,0.306c-0.026,0.1-0.06,0.195-0.097,0.296c-0.066,0.17-0.137,0.343-0.213,0.506
	c-0.145,0.298-0.311,0.594-0.503,0.874c-0.048,0.08-0.11,0.17-0.173,0.254c-0.063,0.078-0.126,0.162-0.192,0.233
	c-0.122,0.162-0.258,0.317-0.413,0.461c-0.063,0.074-0.141,0.14-0.221,0.206c-0.41,0.369-0.868,0.694-1.374,0.963
	c-0.076,0.037-0.158,0.07-0.235,0.111c-0.066,0.025-0.137,0.06-0.211,0.084c-0.073,0.034-0.15,0.071-0.231,0.097
	c-0.333,0.129-0.676,0.226-1.026,0.292c-0.092,0.021-0.192,0.029-0.284,0.04c-0.307,0.048-0.628,0.082-0.944,0.082
	c-3.54,0-6.41-2.871-6.41-6.403c0-3.538,2.87-6.405,6.41-6.405c0.162,0,0.316,0.004,0.476,0.019
	c0.162,0.015,0.314,0.037,0.469,0.055c0.113,0.012,0.219,0.034,0.325,0.06c0.15,0.026,0.288,0.048,0.421,0.104
	c0.024,0,0.062,0.004,0.088,0.015c0.155,0.044,0.317,0.103,0.477,0.166c0.081,0.026,0.158,0.059,0.231,0.093
	c0.094,0.036,0.178,0.073,0.27,0.103c0.166,0.093,0.328,0.174,0.486,0.273c0.133,0.077,0.255,0.155,0.373,0.236
	c0.041,0.025,0.078,0.055,0.111,0.081c0.104,0.074,0.207,0.147,0.31,0.236c0.133,0.1,0.263,0.217,0.38,0.336
	c0.071,0.066,0.145,0.136,0.211,0.206c0.093,0.096,0.186,0.188,0.258,0.287c0.089,0.101,0.167,0.2,0.248,0.307
	c0.063,0.071,0.106,0.141,0.159,0.222c0.243,0.351,0.442,0.724,0.607,1.114c0.03,0.078,0.067,0.155,0.092,0.232
	c0.046,0.118,0.09,0.24,0.127,0.357c0.032,0.101,0.055,0.2,0.085,0.304c0.11,0.409,0.177,0.83,0.195,1.272
	C502.725,756.617,502.725,756.729,502.725,756.838"/>
<radialGradient id="SVGID_20_" cx="403.4414" cy="625.9805" r="7.6499" gradientTransform="matrix(1.1162 0 0 1.1162 92.8335 72.5845)" gradientUnits="userSpaceOnUse">
	<stop  offset="0" style="stop-color:#FD6729"/>
	<stop  offset="0.2374" style="stop-color:#FD6329"/>
	<stop  offset="0.4612" style="stop-color:#FC582B"/>
	<stop  offset="0.6795" style="stop-color:#FC452D"/>
	<stop  offset="0.8931" style="stop-color:#FB2A30"/>
	<stop  offset="1" style="stop-color:#FA1A32"/>
</radialGradient>
<path fill="url(#SVGID_20_)" d="M551.692,771.288c0,0.15,0,0.284,0,0.436c-0.008,0.188-0.029,0.357-0.052,0.531
	c-0.015,0.107-0.021,0.222-0.044,0.324c-0.015,0.148-0.036,0.292-0.082,0.421c-0.021,0.141-0.059,0.287-0.087,0.421
	c-0.037,0.133-0.074,0.276-0.119,0.401c-0.029,0.138-0.073,0.267-0.132,0.392c-0.082,0.232-0.178,0.469-0.281,0.683
	c-0.186,0.402-0.413,0.79-0.665,1.155c-0.073,0.122-0.154,0.236-0.235,0.347c-0.081,0.111-0.162,0.218-0.251,0.317
	c-0.162,0.21-0.347,0.417-0.554,0.609c-0.08,0.096-0.191,0.184-0.295,0.28c-0.546,0.49-1.159,0.926-1.837,1.276
	c-0.096,0.048-0.207,0.1-0.303,0.147c-0.097,0.037-0.192,0.086-0.288,0.115c-0.096,0.048-0.199,0.096-0.31,0.133
	c-0.451,0.169-0.9,0.294-1.373,0.384c-0.118,0.032-0.251,0.04-0.376,0.059c-0.407,0.059-0.834,0.099-1.263,0.099
	c-4.716,0-8.538-3.822-8.538-8.53c0-4.723,3.822-8.539,8.538-8.539c0.222,0,0.429,0.005,0.636,0.019
	c0.22,0.023,0.427,0.048,0.627,0.078c0.146,0.007,0.287,0.037,0.435,0.074c0.199,0.036,0.384,0.066,0.569,0.133
	c0.036,0.011,0.073,0.014,0.109,0.025c0.206,0.066,0.421,0.137,0.636,0.222c0.11,0.032,0.214,0.073,0.31,0.118
	c0.125,0.055,0.235,0.104,0.362,0.146c0.213,0.122,0.427,0.233,0.649,0.354c0.177,0.111,0.338,0.21,0.493,0.318
	c0.052,0.036,0.104,0.073,0.155,0.11c0.133,0.099,0.273,0.202,0.397,0.321c0.186,0.132,0.355,0.283,0.511,0.442
	c0.103,0.085,0.198,0.177,0.287,0.272c0.126,0.126,0.236,0.255,0.347,0.388c0.118,0.134,0.214,0.27,0.325,0.402
	c0.081,0.1,0.14,0.192,0.214,0.299c0.324,0.466,0.591,0.967,0.812,1.491c0.037,0.103,0.089,0.203,0.119,0.31
	c0.065,0.154,0.117,0.317,0.169,0.469c0.045,0.137,0.082,0.266,0.119,0.413c0.14,0.538,0.235,1.1,0.265,1.694
	C551.692,770.996,551.692,771.137,551.692,771.288"/>
<g>
	
		<radialGradient id="SVGID_21_" cx="499.9346" cy="620.1768" r="27.2782" gradientTransform="matrix(1.1162 0 0 1.1162 92.8335 72.5845)" gradientUnits="userSpaceOnUse">
		<stop  offset="0" style="stop-color:#FD6729"/>
		<stop  offset="0.2374" style="stop-color:#FD6329"/>
		<stop  offset="0.4612" style="stop-color:#FC582B"/>
		<stop  offset="0.6795" style="stop-color:#FC452D"/>
		<stop  offset="0.8931" style="stop-color:#FB2A30"/>
		<stop  offset="1" style="stop-color:#FA1A32"/>
	</radialGradient>
	<path fill="url(#SVGID_21_)" d="M627.485,773.689l-8.886-27.112l27.083-8.871c14.981-4.907,31.1,3.255,36.007,18.229
		c4.894,14.952-3.276,31.065-18.25,35.97C648.466,796.815,632.377,788.635,627.485,773.689"/>
	
		<radialGradient id="SVGID_22_" cx="483.2178" cy="570.0977" r="27.5533" gradientTransform="matrix(1.1162 0 0 1.1162 92.8335 72.5845)" gradientUnits="userSpaceOnUse">
		<stop  offset="0" style="stop-color:#FD6729"/>
		<stop  offset="0.2374" style="stop-color:#FD6329"/>
		<stop  offset="0.4612" style="stop-color:#FC582B"/>
		<stop  offset="0.6795" style="stop-color:#FC452D"/>
		<stop  offset="0.8931" style="stop-color:#FB2A30"/>
		<stop  offset="1" style="stop-color:#FA1A32"/>
	</radialGradient>
	<path fill="url(#SVGID_22_)" d="M642.894,731.042l-26.449,10.697l-10.687-26.427c-5.911-14.611,1.144-31.242,15.75-37.15
		c14.589-5.896,31.216,1.154,37.127,15.763C664.546,708.538,657.476,725.139,642.894,731.042"/>
	
		<radialGradient id="SVGID_23_" cx="554.709" cy="588.9844" r="24.0985" gradientTransform="matrix(1.1162 0 0 1.1162 92.8335 72.5845)" gradientUnits="userSpaceOnUse">
		<stop  offset="0" style="stop-color:#FD6729"/>
		<stop  offset="0.2374" style="stop-color:#FD6329"/>
		<stop  offset="0.4612" style="stop-color:#FC582B"/>
		<stop  offset="0.6795" style="stop-color:#FC452D"/>
		<stop  offset="0.8931" style="stop-color:#FB2A30"/>
		<stop  offset="1" style="stop-color:#FA1A32"/>
	</radialGradient>
	<path fill="url(#SVGID_23_)" d="M694.472,741.44l-11.445-21.848l21.822-11.438c12.065-6.321,26.974-1.661,33.298,10.397
		c6.31,12.048,1.652,26.951-10.414,33.272C715.667,758.148,700.781,753.474,694.472,741.44"/>
	
		<radialGradient id="SVGID_24_" cx="533.7676" cy="550.0176" r="24.2507" gradientTransform="matrix(1.1162 0 0 1.1162 92.8335 72.5845)" gradientUnits="userSpaceOnUse">
		<stop  offset="0" style="stop-color:#FD6729"/>
		<stop  offset="0.2374" style="stop-color:#FD6329"/>
		<stop  offset="0.4612" style="stop-color:#FC582B"/>
		<stop  offset="0.6795" style="stop-color:#FC452D"/>
		<stop  offset="0.8931" style="stop-color:#FB2A30"/>
		<stop  offset="1" style="stop-color:#FA1A32"/>
	</radialGradient>
	<path fill="url(#SVGID_24_)" d="M701.52,702.874l-21.025,12.903l-12.885-21.003c-7.129-11.612-3.49-26.8,8.118-33.921
		c11.594-7.115,26.773-3.477,33.903,8.128C716.76,680.595,713.106,695.76,701.52,702.874"/>
	
		<radialGradient id="SVGID_25_" cx="598.4346" cy="554.1387" r="21.2588" gradientTransform="matrix(1.1162 0 0 1.1162 92.8335 72.5845)" gradientUnits="userSpaceOnUse">
		<stop  offset="0" style="stop-color:#FD6729"/>
		<stop  offset="0.2374" style="stop-color:#FD6329"/>
		<stop  offset="0.4612" style="stop-color:#FC582B"/>
		<stop  offset="0.6795" style="stop-color:#FC452D"/>
		<stop  offset="0.8931" style="stop-color:#FB2A30"/>
		<stop  offset="1" style="stop-color:#FA1A32"/>
	</radialGradient>
	<path fill="url(#SVGID_25_)" d="M747.556,703.607l-12.516-17.509l17.489-12.504c9.676-6.9,23.114-4.672,30.021,4.999
		c6.901,9.649,4.665,23.092-5.011,30.003C767.881,715.504,754.456,713.253,747.556,703.607"/>
	
		<radialGradient id="SVGID_26_" cx="575.6348" cy="523.7832" r="21.3259" gradientTransform="matrix(1.1162 0 0 1.1162 92.8335 72.5845)" gradientUnits="userSpaceOnUse">
		<stop  offset="0" style="stop-color:#FD6729"/>
		<stop  offset="0.2374" style="stop-color:#FD6329"/>
		<stop  offset="0.4612" style="stop-color:#FC582B"/>
		<stop  offset="0.6795" style="stop-color:#FC452D"/>
		<stop  offset="0.8931" style="stop-color:#FB2A30"/>
		<stop  offset="1" style="stop-color:#FA1A32"/>
	</radialGradient>
	<path fill="url(#SVGID_26_)" d="M749.017,669.429l-16.619,13.679l-13.653-16.604c-7.556-9.185-6.236-22.741,2.945-30.291
		c9.165-7.539,22.723-6.214,30.278,2.963C759.519,648.352,758.175,661.894,749.017,669.429"/>
	
		<radialGradient id="SVGID_27_" cx="636.7764" cy="519.4746" r="19.3985" gradientTransform="matrix(1.1162 0 0 1.1162 92.8335 72.5845)" gradientUnits="userSpaceOnUse">
		<stop  offset="0" style="stop-color:#FD6729"/>
		<stop  offset="0.2374" style="stop-color:#FD6329"/>
		<stop  offset="0.4612" style="stop-color:#FC582B"/>
		<stop  offset="0.6795" style="stop-color:#FC452D"/>
		<stop  offset="0.8931" style="stop-color:#FB2A30"/>
		<stop  offset="1" style="stop-color:#FA1A32"/>
	</radialGradient>
	<path fill="url(#SVGID_27_)" d="M792.647,665.009l-12.613-14.963l14.953-12.602c8.265-6.955,20.611-5.903,27.578,2.357
		c6.951,8.255,5.889,20.597-2.377,27.56C811.924,674.329,799.599,673.256,792.647,665.009"/>
	
		<radialGradient id="SVGID_28_" cx="613.7676" cy="493.9492" r="19.4218" gradientTransform="matrix(1.1162 0 0 1.1162 92.8335 72.5845)" gradientUnits="userSpaceOnUse">
		<stop  offset="0" style="stop-color:#FD6729"/>
		<stop  offset="0.2374" style="stop-color:#FD6329"/>
		<stop  offset="0.4612" style="stop-color:#FC582B"/>
		<stop  offset="0.6795" style="stop-color:#FC452D"/>
		<stop  offset="0.8931" style="stop-color:#FB2A30"/>
		<stop  offset="1" style="stop-color:#FA1A32"/>
	</radialGradient>
	<path fill="url(#SVGID_28_)" d="M791.504,633.928l-14.075,13.594l-13.578-14.063c-7.514-7.781-7.299-20.165,0.479-27.666
		c7.765-7.498,20.147-7.285,27.653,0.493C799.495,614.059,799.26,626.43,791.504,633.928"/>
	
		<radialGradient id="SVGID_29_" cx="662.0156" cy="476.748" r="16.7809" gradientTransform="matrix(1.1162 0 0 1.1162 92.8335 72.5845)" gradientUnits="userSpaceOnUse">
		<stop  offset="0" style="stop-color:#FD6729"/>
		<stop  offset="0.2374" style="stop-color:#FD6329"/>
		<stop  offset="0.4612" style="stop-color:#FC582B"/>
		<stop  offset="0.6795" style="stop-color:#FC452D"/>
		<stop  offset="0.8931" style="stop-color:#FB2A30"/>
		<stop  offset="1" style="stop-color:#FA1A32"/>
	</radialGradient>
	<path fill="url(#SVGID_29_)" d="M824.786,618.091l-13.379-10.409l10.405-13.364c5.749-7.388,16.398-8.724,23.794-2.975
		c7.372,5.742,8.692,16.395,2.943,23.781C842.809,622.516,832.166,623.824,824.786,618.091"/>
	
		<radialGradient id="SVGID_30_" cx="637.293" cy="459.7852" r="16.7192" gradientTransform="matrix(1.1162 0 0 1.1162 92.8335 72.5845)" gradientUnits="userSpaceOnUse">
		<stop  offset="0" style="stop-color:#FD6729"/>
		<stop  offset="0.2374" style="stop-color:#FD6329"/>
		<stop  offset="0.4612" style="stop-color:#FC582B"/>
		<stop  offset="0.6795" style="stop-color:#FC452D"/>
		<stop  offset="0.8931" style="stop-color:#FB2A30"/>
		<stop  offset="1" style="stop-color:#FA1A32"/>
	</radialGradient>
	<path fill="url(#SVGID_30_)" d="M818.218,591.959l-9.475,14.055l-14.044-9.472c-7.764-5.243-9.808-15.774-4.569-23.53
		c5.226-7.753,15.758-9.797,23.521-4.558C821.422,573.684,823.443,584.214,818.218,591.959"/>
	
		<radialGradient id="SVGID_31_" cx="679.9063" cy="440.8262" r="14.2001" gradientTransform="matrix(1.1162 0 0 1.1162 92.8335 72.5845)" gradientUnits="userSpaceOnUse">
		<stop  offset="0" style="stop-color:#FD6729"/>
		<stop  offset="0.2374" style="stop-color:#FD6329"/>
		<stop  offset="0.4612" style="stop-color:#FC582B"/>
		<stop  offset="0.6795" style="stop-color:#FC452D"/>
		<stop  offset="0.8931" style="stop-color:#FB2A30"/>
		<stop  offset="1" style="stop-color:#FA1A32"/>
	</radialGradient>
	<path fill="url(#SVGID_31_)" d="M847.657,577.587l-12.974-6.597l6.591-12.964c3.645-7.155,12.404-10.014,19.57-6.372
		c7.151,3.634,10,12.397,6.361,19.563C863.561,578.383,854.808,581.222,847.657,577.587"/>
	
		<radialGradient id="SVGID_32_" cx="655.4883" cy="430.5986" r="14.0885" gradientTransform="matrix(1.1162 0 0 1.1162 92.8335 72.5845)" gradientUnits="userSpaceOnUse">
		<stop  offset="0" style="stop-color:#FD6729"/>
		<stop  offset="0.2374" style="stop-color:#FD6329"/>
		<stop  offset="0.4612" style="stop-color:#FC582B"/>
		<stop  offset="0.6795" style="stop-color:#FC452D"/>
		<stop  offset="0.8931" style="stop-color:#FB2A30"/>
		<stop  offset="1" style="stop-color:#FA1A32"/>
	</radialGradient>
	<path fill="url(#SVGID_32_)" d="M837.864,556.628l-5.698,13.396l-13.372-5.702c-7.402-3.154-10.841-11.7-7.697-19.092
		c3.151-7.383,11.697-10.826,19.092-7.675C837.583,540.703,841.008,549.248,837.864,556.628"/>
	
		<radialGradient id="SVGID_33_" cx="677.6611" cy="406.2422" r="14.3611" gradientTransform="matrix(1.1162 0 0 1.1162 92.8335 72.5845)" gradientUnits="userSpaceOnUse">
		<stop  offset="0" style="stop-color:#FD6729"/>
		<stop  offset="0.2374" style="stop-color:#FD6329"/>
		<stop  offset="0.4612" style="stop-color:#FC582B"/>
		<stop  offset="0.6795" style="stop-color:#FC452D"/>
		<stop  offset="0.8931" style="stop-color:#FB2A30"/>
		<stop  offset="1" style="stop-color:#FA1A32"/>
	</radialGradient>
	<path fill="url(#SVGID_33_)" d="M857.472,535.16l-11.992,8.244l-8.236-11.985c-4.552-6.627-2.87-15.686,3.75-20.231
		c6.619-4.546,15.668-2.867,20.221,3.76C865.774,521.563,864.084,530.618,857.472,535.16"/>
</g>
<radialGradient id="SVGID_34_" cx="452.8018" cy="600.9697" r="3.8267" gradientTransform="matrix(1.1162 0 0 1.1162 92.8335 72.5845)" gradientUnits="userSpaceOnUse">
	<stop  offset="0" style="stop-color:#FD6729"/>
	<stop  offset="0.2374" style="stop-color:#FD6329"/>
	<stop  offset="0.4612" style="stop-color:#FC582B"/>
	<stop  offset="0.6795" style="stop-color:#FC452D"/>
	<stop  offset="0.8931" style="stop-color:#FB2A30"/>
	<stop  offset="1" style="stop-color:#FA1A32"/>
</radialGradient>
<path fill="url(#SVGID_34_)" d="M593.973,743.37c0,0.071,0,0.141,0.007,0.218c0.007,0.093,0.015,0.177,0.022,0.262
	c0.015,0.056,0.015,0.111,0.021,0.167c0.008,0.069,0.021,0.14,0.037,0.214c0.016,0.069,0.037,0.136,0.053,0.207
	c0.014,0.065,0.036,0.136,0.059,0.198c0.014,0.066,0.037,0.13,0.065,0.196c0.037,0.117,0.081,0.229,0.133,0.339
	c0.104,0.199,0.207,0.398,0.332,0.583c0.037,0.056,0.082,0.114,0.119,0.166c0.044,0.056,0.087,0.111,0.133,0.159
	c0.081,0.106,0.169,0.21,0.272,0.306c0.044,0.048,0.097,0.093,0.148,0.141c0.272,0.246,0.575,0.461,0.915,0.638
	c0.051,0.026,0.104,0.048,0.162,0.077c0.043,0.016,0.088,0.037,0.133,0.056c0.051,0.026,0.103,0.048,0.155,0.063
	c0.229,0.084,0.45,0.15,0.687,0.195c0.065,0.016,0.124,0.021,0.191,0.029c0.206,0.029,0.412,0.053,0.627,0.053
	c2.362,0,4.272-1.912,4.272-4.267c0-2.361-1.91-4.272-4.272-4.272c-0.11,0-0.215,0.004-0.317,0.015
	c-0.104,0.004-0.214,0.019-0.31,0.037c-0.074,0.003-0.148,0.015-0.215,0.036c-0.104,0.019-0.199,0.034-0.28,0.066
	c-0.021,0.005-0.044,0.005-0.059,0.011c-0.104,0.03-0.214,0.071-0.324,0.108c-0.053,0.019-0.104,0.043-0.155,0.066
	c-0.059,0.025-0.118,0.051-0.178,0.069c-0.11,0.06-0.214,0.118-0.325,0.177c-0.08,0.056-0.169,0.108-0.25,0.162
	c-0.023,0.016-0.052,0.037-0.073,0.053c-0.067,0.051-0.133,0.1-0.2,0.158c-0.088,0.066-0.177,0.141-0.258,0.226
	c-0.045,0.04-0.096,0.092-0.133,0.133c-0.066,0.066-0.126,0.125-0.178,0.198c-0.059,0.066-0.11,0.127-0.169,0.199
	c-0.037,0.049-0.067,0.093-0.096,0.145c-0.164,0.236-0.303,0.483-0.414,0.749c-0.022,0.048-0.044,0.104-0.06,0.151
	c-0.029,0.082-0.059,0.159-0.08,0.239c-0.022,0.071-0.045,0.134-0.059,0.203c-0.074,0.271-0.119,0.558-0.134,0.849
	C593.973,743.219,593.973,743.293,593.973,743.37"/>
<radialGradient id="SVGID_35_" cx="435.6875" cy="602.3027" r="4.7827" gradientTransform="matrix(1.1162 0 0 1.1162 92.8335 72.5845)" gradientUnits="userSpaceOnUse">
	<stop  offset="0" style="stop-color:#FD6729"/>
	<stop  offset="0.2374" style="stop-color:#FD6329"/>
	<stop  offset="0.4612" style="stop-color:#FC582B"/>
	<stop  offset="0.6795" style="stop-color:#FC452D"/>
	<stop  offset="0.8931" style="stop-color:#FB2A30"/>
	<stop  offset="1" style="stop-color:#FA1A32"/>
</radialGradient>
<path fill="url(#SVGID_35_)" d="M573.804,744.857c0,0.092,0,0.177,0.006,0.273c0.008,0.114,0.016,0.221,0.022,0.335
	c0.015,0.063,0.021,0.134,0.03,0.2c0.014,0.091,0.028,0.181,0.051,0.262c0.015,0.088,0.037,0.178,0.06,0.266
	c0.022,0.077,0.044,0.166,0.074,0.247c0.021,0.081,0.044,0.163,0.081,0.248c0.051,0.146,0.11,0.287,0.177,0.427
	c0.118,0.244,0.258,0.49,0.413,0.724c0.045,0.07,0.096,0.14,0.147,0.206c0.052,0.074,0.104,0.141,0.154,0.203
	c0.105,0.133,0.223,0.258,0.347,0.38c0.061,0.06,0.119,0.118,0.186,0.174c0.347,0.311,0.73,0.58,1.145,0.801
	c0.065,0.029,0.132,0.063,0.198,0.092c0.06,0.026,0.111,0.056,0.177,0.071c0.06,0.032,0.127,0.062,0.191,0.085
	c0.281,0.103,0.562,0.184,0.857,0.239c0.074,0.019,0.154,0.025,0.235,0.037c0.26,0.036,0.525,0.065,0.79,0.065
	c2.944,0,5.336-2.391,5.336-5.335c0-2.952-2.392-5.34-5.336-5.34c-0.141,0-0.265,0.004-0.397,0.016
	c-0.133,0.015-0.267,0.033-0.393,0.048c-0.087,0.003-0.184,0.025-0.272,0.052c-0.125,0.019-0.243,0.037-0.347,0.077
	c-0.029,0.008-0.059,0.008-0.074,0.021c-0.133,0.034-0.266,0.077-0.399,0.133c-0.064,0.019-0.132,0.048-0.191,0.078
	c-0.081,0.033-0.147,0.066-0.228,0.089c-0.133,0.073-0.267,0.147-0.399,0.225c-0.117,0.063-0.214,0.125-0.317,0.196
	c-0.029,0.021-0.066,0.048-0.088,0.069c-0.088,0.06-0.178,0.126-0.259,0.2c-0.11,0.08-0.222,0.177-0.317,0.276
	c-0.06,0.055-0.125,0.11-0.177,0.169c-0.074,0.082-0.155,0.155-0.214,0.24c-0.074,0.085-0.148,0.17-0.207,0.255
	c-0.052,0.059-0.089,0.122-0.133,0.188c-0.198,0.289-0.369,0.602-0.502,0.931c-0.029,0.059-0.059,0.126-0.08,0.192
	c-0.037,0.096-0.074,0.198-0.104,0.294c-0.03,0.085-0.052,0.17-0.074,0.255c-0.089,0.344-0.147,0.693-0.163,1.06
	C573.804,744.673,573.804,744.766,573.804,744.857"/>
<radialGradient id="SVGID_36_" cx="420.127" cy="613.0371" r="5.7383" gradientTransform="matrix(1.1162 0 0 1.1162 92.8335 72.5845)" gradientUnits="userSpaceOnUse">
	<stop  offset="0" style="stop-color:#FD6729"/>
	<stop  offset="0.2374" style="stop-color:#FD6329"/>
	<stop  offset="0.4612" style="stop-color:#FC582B"/>
	<stop  offset="0.6795" style="stop-color:#FC452D"/>
	<stop  offset="0.8931" style="stop-color:#FB2A30"/>
	<stop  offset="1" style="stop-color:#FA1A32"/>
</radialGradient>
<path fill="url(#SVGID_36_)" d="M555.368,756.838c0,0.115,0,0.219,0,0.333c0.007,0.136,0.021,0.266,0.035,0.397
	c0.016,0.078,0.023,0.162,0.031,0.241c0.021,0.11,0.037,0.214,0.065,0.313c0.015,0.107,0.046,0.215,0.067,0.314
	c0.028,0.104,0.059,0.21,0.088,0.306c0.022,0.1,0.06,0.195,0.097,0.296c0.059,0.17,0.133,0.343,0.214,0.506
	c0.14,0.298,0.31,0.594,0.502,0.874c0.051,0.08,0.11,0.17,0.17,0.254c0.059,0.078,0.132,0.162,0.191,0.233
	c0.125,0.162,0.266,0.317,0.412,0.461c0.068,0.074,0.141,0.14,0.223,0.206c0.413,0.369,0.87,0.694,1.372,0.963
	c0.082,0.037,0.163,0.07,0.237,0.111c0.065,0.025,0.139,0.06,0.213,0.084c0.074,0.034,0.155,0.071,0.229,0.097
	c0.34,0.129,0.678,0.226,1.033,0.292c0.088,0.021,0.185,0.029,0.28,0.04c0.311,0.048,0.627,0.082,0.944,0.082
	c3.534,0,6.405-2.871,6.405-6.403c0-3.538-2.871-6.405-6.405-6.405c-0.163,0-0.317,0.004-0.479,0.019
	c-0.154,0.015-0.318,0.037-0.465,0.055c-0.11,0.012-0.222,0.034-0.325,0.06c-0.154,0.026-0.288,0.048-0.421,0.104
	c-0.029,0-0.066,0.004-0.088,0.015c-0.162,0.044-0.317,0.103-0.479,0.166c-0.074,0.026-0.155,0.059-0.229,0.093
	c-0.096,0.036-0.176,0.073-0.272,0.103c-0.163,0.093-0.324,0.174-0.488,0.273c-0.133,0.077-0.25,0.155-0.368,0.236
	c-0.037,0.025-0.074,0.055-0.118,0.081c-0.104,0.074-0.199,0.147-0.303,0.236c-0.133,0.1-0.258,0.217-0.376,0.336
	c-0.074,0.066-0.156,0.136-0.215,0.206c-0.096,0.096-0.183,0.188-0.257,0.287c-0.097,0.101-0.17,0.2-0.251,0.307
	c-0.06,0.071-0.104,0.141-0.156,0.222c-0.243,0.351-0.442,0.724-0.611,1.114c-0.03,0.078-0.067,0.155-0.089,0.232
	c-0.053,0.118-0.089,0.24-0.126,0.357c-0.029,0.101-0.06,0.2-0.088,0.304c-0.111,0.409-0.178,0.83-0.199,1.272
	C555.368,756.617,555.368,756.729,555.368,756.838"/>
<radialGradient id="SVGID_37_" cx="378.1709" cy="625.9805" r="7.6499" gradientTransform="matrix(1.1162 0 0 1.1162 92.8335 72.5845)" gradientUnits="userSpaceOnUse">
	<stop  offset="0" style="stop-color:#FD6729"/>
	<stop  offset="0.2374" style="stop-color:#FD6329"/>
	<stop  offset="0.4612" style="stop-color:#FC582B"/>
	<stop  offset="0.6795" style="stop-color:#FC452D"/>
	<stop  offset="0.8931" style="stop-color:#FB2A30"/>
	<stop  offset="1" style="stop-color:#FA1A32"/>
</radialGradient>
<path fill="url(#SVGID_37_)" d="M506.4,771.288c0,0.15,0,0.284,0,0.436c0.011,0.188,0.028,0.357,0.052,0.531
	c0.019,0.107,0.021,0.222,0.035,0.324c0.023,0.148,0.049,0.292,0.086,0.421c0.025,0.141,0.063,0.287,0.092,0.421
	c0.037,0.133,0.074,0.276,0.119,0.401c0.028,0.138,0.076,0.267,0.133,0.392c0.073,0.232,0.173,0.469,0.277,0.683
	c0.188,0.402,0.412,0.79,0.662,1.155c0.074,0.122,0.159,0.236,0.236,0.347c0.08,0.111,0.17,0.218,0.257,0.317
	c0.163,0.21,0.348,0.417,0.554,0.609c0.082,0.096,0.186,0.184,0.295,0.28c0.547,0.49,1.159,0.926,1.83,1.276
	c0.104,0.048,0.214,0.1,0.311,0.147c0.089,0.037,0.191,0.086,0.28,0.115c0.103,0.048,0.208,0.096,0.31,0.133
	c0.45,0.169,0.9,0.294,1.374,0.384c0.124,0.032,0.251,0.04,0.376,0.059c0.413,0.059,0.834,0.099,1.261,0.099
	c4.725,0,8.546-3.822,8.546-8.53c0-4.723-3.821-8.539-8.546-8.539c-0.22,0-0.427,0.005-0.634,0.019
	c-0.214,0.023-0.421,0.048-0.627,0.078c-0.147,0.007-0.288,0.037-0.435,0.074c-0.201,0.036-0.384,0.066-0.562,0.133
	c-0.037,0.011-0.082,0.014-0.119,0.025c-0.206,0.066-0.421,0.137-0.635,0.222c-0.102,0.032-0.207,0.073-0.31,0.118
	c-0.117,0.055-0.229,0.104-0.361,0.146c-0.214,0.122-0.428,0.233-0.643,0.354c-0.177,0.111-0.339,0.21-0.493,0.318
	c-0.059,0.036-0.111,0.073-0.155,0.11c-0.142,0.099-0.273,0.202-0.406,0.321c-0.178,0.132-0.354,0.283-0.509,0.442
	c-0.096,0.085-0.192,0.177-0.281,0.272c-0.124,0.126-0.243,0.255-0.347,0.388c-0.118,0.134-0.222,0.27-0.331,0.402
	c-0.077,0.1-0.143,0.192-0.205,0.299c-0.325,0.466-0.598,0.967-0.813,1.491c-0.045,0.103-0.093,0.203-0.125,0.31
	c-0.063,0.154-0.114,0.317-0.166,0.469c-0.045,0.137-0.082,0.266-0.119,0.413c-0.144,0.538-0.236,1.1-0.265,1.694
	C506.4,770.996,506.4,771.137,506.4,771.288"/>
<g>
	
		<radialGradient id="SVGID_38_" cx="391.2598" cy="226.8984" r="165.2842" gradientTransform="matrix(1.1162 0 0 1.1162 92.8335 72.5845)" gradientUnits="userSpaceOnUse">
		<stop  offset="0" style="stop-color:#FD6729"/>
		<stop  offset="0.2374" style="stop-color:#FD6329"/>
		<stop  offset="0.4612" style="stop-color:#FC582B"/>
		<stop  offset="0.6795" style="stop-color:#FC452D"/>
		<stop  offset="0.8931" style="stop-color:#FB2A30"/>
		<stop  offset="1" style="stop-color:#FA1A32"/>
	</radialGradient>
	<path fill-rule="evenodd" clip-rule="evenodd" fill="url(#SVGID_38_)" d="M353.775,381.192c1.992-7.307,3.782-14.675,6.052-21.896
		c1.365-4.357,0.944-8.018-1.66-11.774c-4.1-5.915-7.786-12.11-11.856-18.036c-1.742-2.538-1.893-4.439-0.007-7.088
		c4.166-5.86,7.774-12.114,11.888-18.018c2.621-3.761,3.079-7.446,1.703-11.782c-2.126-6.672-3.68-13.52-5.819-20.184
		c-1.011-3.141-0.045-4.871,2.364-6.716c5.87-4.483,11.517-9.247,17.329-13.797c2.707-2.11,4.039-4.615,4.368-8.147
		c0.594-6.608,1.226-13.225,0.875-19.84c-0.284-5.354,1.469-8.366,6.899-9.879c6.358-1.774,12.421-4.615,18.697-6.722
		c3.583-1.204,5.623-3.491,6.859-6.931c2.436-6.771,5.137-13.445,7.513-20.234c1.086-3.093,2.769-4.555,6.174-4.627
		c7.188-0.152,14.361-0.905,21.542-0.964c4.247-0.033,7.092-1.705,9.523-5.011c3.82-5.177,8.104-10.021,11.812-15.269
		c2.823-4.007,5.794-5.093,10.58-3.405c6.405,2.257,13.165,3.52,19.682,5.501c3.639,1.106,6.494,0.368,9.528-1.786
		c5.392-3.842,11.141-7.181,16.551-11.003c3.711-2.616,6.819-2.975,10.723-0.074c5.771,4.276,12.037,7.878,18.015,11.878
		c2.399,1.612,4.754,1.896,7.514,1.092c7.269-2.106,14.634-3.918,21.888-6.081c3.388-1.004,5.697-0.302,7.83,2.579
		c4.052,5.477,8.487,10.665,12.605,16.096c2.834,3.738,6.176,5.595,11.085,5.523c6.604-0.096,13.21,0.79,19.821,0.894
		c3.559,0.06,5.558,1.332,6.717,4.729c2.139,6.271,4.79,12.37,6.893,18.646c1.645,4.922,4.753,7.814,9.668,9.365
		c5.955,1.878,11.72,4.35,17.645,6.332c3.948,1.319,5.698,3.601,5.705,7.922c0.015,6.995,0.827,13.98,0.938,20.973
		c0.065,3.815,1.653,6.401,4.539,8.616c5.409,4.151,10.575,8.627,16.117,12.59c3.262,2.331,4.279,4.638,3.019,8.597
		c-2.185,6.846-3.697,13.9-5.713,20.809c-0.981,3.368-0.553,6.224,1.41,9.124c3.911,5.809,7.491,11.846,11.498,17.583
		c2.397,3.435,2.546,6.42,0.133,9.859c-3.801,5.424-7.24,11.106-11.077,16.497c-2.657,3.734-3.106,7.429-1.727,11.771
		c1.993,6.317,3.35,12.837,5.387,19.139c1.226,3.794,0.716,6.273-2.716,8.69c-5.563,3.918-10.693,8.449-16.117,12.567
		c-3.085,2.336-4.51,5.118-4.812,9.096c-0.525,6.988-1.078,13.975-0.915,20.974c0.088,3.979-1.337,6.307-5.27,7.538
		c-4.87,1.523-9.439,4.107-14.376,5.292c-8.022,1.922-12.688,6.412-14.694,14.476c-1.321,5.283-3.889,10.253-5.785,15.404
		c-0.982,2.661-2.716,3.705-5.543,3.935c-6.98,0.546-13.955,1.401-20.966,1.018c-4.656-0.255-7.919,1.598-10.642,5.191
		c-4.237,5.579-8.768,10.934-12.953,16.554c-1.999,2.679-4.125,3.391-7.32,2.458c-7.084-2.074-14.316-3.657-21.357-5.863
		c-3.646-1.152-6.494-0.628-9.521,1.523c-5.246,3.727-10.893,6.918-15.978,10.826c-4.31,3.306-7.919,3.287-12.22,0.104
		c-5.005-3.721-10.54-6.73-15.528-10.469c-3.592-2.693-7.042-2.93-11.139-1.675c-6.335,1.947-12.829,3.356-19.136,5.376
		c-3.789,1.206-6.432,0.575-8.871-2.639c-4.229-5.575-8.903-10.814-13.099-16.405c-2.63-3.501-5.72-5.128-10.13-4.984
		c-6.999,0.229-13.987-0.277-20.973-0.96c-3.325-0.321-5.148-1.591-6.207-4.687c-2.092-6.084-4.734-11.999-6.523-18.173
		c-1.612-5.564-5.06-8.327-10.413-9.937c-6.155-1.849-12.048-4.546-18.133-6.63c-3.17-1.086-4.494-2.982-4.561-6.277
		c-0.133-7.158-0.465-14.298-1.066-21.445c-0.395-4.73-2.074-7.679-5.631-10.348c-5.429-4.08-10.608-8.486-15.923-12.718
		C354.976,384.649,353.414,383.523,353.775,381.192z M605.647,451.99c4.288,0,7.158-0.263,9.963,0.059
		c5.011,0.572,7.144-1.738,8.125-6.42c1.166-5.55,2.995-10.952,4.421-16.445c0.752-2.897,2.479-4.425,5.38-5.119
		c5.704-1.361,11.298-3.231,17.04-4.383c4.723-0.94,6.229-3.454,5.771-7.981c-0.523-5.263-0.582-10.571-1.106-15.841
		c-0.45-4.487,1.1-7.546,5.1-9.775c4.62-2.574,8.974-5.645,13.513-8.372c3.446-2.073,4.613-4.667,2.937-8.549
		c-2.177-5.037-3.954-10.247-6.162-15.269c-1.808-4.081-1.608-7.332,1.728-10.768c3.934-4.055,7.173-8.782,10.812-13.14
		c2.243-2.69,2.723-4.952,0.015-7.874c-3.992-4.287-7.446-9.066-11.232-13.543c-2.568-3.036-3.276-6.018-1.521-9.877
		c2.421-5.328,4.199-10.952,6.443-16.38c1.313-3.188,0.53-5.402-2.31-7.198c-4.79-3.053-9.396-6.409-14.304-9.24
		c-3.977-2.288-5.468-5.313-5.025-9.801c0.569-5.637,0.688-11.323,1.13-16.977c0.287-3.671-1.255-5.557-4.842-6.384
		c-5.534-1.28-10.929-3.177-16.486-4.284c-4.591-0.911-6.775-3.476-7.727-7.826c-1.137-5.173-2.716-10.25-3.86-15.427
		c-0.885-3.992-3.055-5.819-7.188-5.517c-6.03,0.442-12.082,0.69-18.118,1.104c-3.373,0.229-5.638-0.967-7.41-4.007
		c-2.958-5.063-6.538-9.757-9.483-14.819c-1.992-3.428-4.198-4.344-7.91-2.797c-5.764,2.398-11.719,4.324-17.498,6.693
		c-2.819,1.155-4.9,0.793-7.225-1.188c-4.598-3.93-9.601-7.391-14.134-11.405c-3.261-2.886-5.748-3.409-9.149-0.092
		c-3.787,3.686-8.281,6.619-12.236,10.133c-3.477,3.088-6.813,4.099-11.278,1.862c-4.037-2.025-8.72-2.793-12.683-4.923
		c-5.839-3.139-9.632-1.729-12.2,4.027c-5.896,13.242-14.921,20.33-30.102,15.475c-0.174-0.059-0.376-0.015-0.568-0.019
		c-8.391-0.235-9.734-0.265-10.575,8.147c-1.536,15.254-9.352,22.221-24.147,24.228c-9.265,1.255-9.169,2.41-7.93,11.899
		c0.122,0.938,0.255,1.875,0.398,2.81c1.575,10.091,0.436,18.844-10.859,22.898c-1.727,0.62-3.122,2.11-4.73,3.119
		c-7.576,4.744-8.601,5.376-4.291,12.893c7.571,13.209,5.582,23.61-5.226,33.932c-6.185,5.907-5.487,6.638-0.074,13.199
		c0.244,0.295,0.469,0.604,0.75,0.855c9.793,8.822,12.464,18.217,5.446,30.722c-5.158,9.181-3.635,9.352,5.059,15.579
		c16.711,11.967,14.313,5.019,13.923,25.387c-0.24,12.837-0.646,13.398,11.995,15.793c10.398,1.967,16.361,6.176,18.365,17.549
		c2.369,13.498,3.579,14.357,17.229,12.833c11.608-1.298,17.687,3.03,23.198,12.604c7.381,12.805,5.093,11.565,18.011,6.199
		c1.044-0.432,2.248-0.601,3.186-1.188c8.472-5.291,15.053-2.73,22.078,3.644c10.782,9.8,11.801,10.072,22.347,0.504
		c8.502-7.715,15.993-8.113,25.874-3.335c11.66,5.649,12.391,5.269,18.894-6.258C590.215,454.806,595.766,448.422,605.647,451.99z"
		/>
	
		<radialGradient id="SVGID_39_" cx="466.5449" cy="442.9844" r="70.3462" gradientTransform="matrix(1.1162 0 0 1.1162 92.8335 72.5845)" gradientUnits="userSpaceOnUse">
		<stop  offset="0" style="stop-color:#FD6729"/>
		<stop  offset="0.2374" style="stop-color:#FD6329"/>
		<stop  offset="0.4612" style="stop-color:#FC582B"/>
		<stop  offset="0.6795" style="stop-color:#FC452D"/>
		<stop  offset="0.8931" style="stop-color:#FB2A30"/>
		<stop  offset="1" style="stop-color:#FA1A32"/>
	</radialGradient>
	<path fill-rule="evenodd" clip-rule="evenodd" fill="url(#SVGID_39_)" d="M558.173,499.191c8.833,2.417,16.929,4.395,24.862,6.907
		c4.31,1.365,7.019,0.398,9.616-3.225c3.971-5.527,8.494-10.646,12.604-16.077c2.849-3.771,6.28-5.818,11.144-5.343
		c2.243,0.217,4.539-0.012,6.804-0.044c10.392-0.152,10.458-0.182,13.957,9.911c15.283,44.164,30.538,88.343,45.755,132.533
		c0.583,1.701,2.222,3.801,0.73,5.273c-1.578,1.568-3.543-0.41-5.158-1.056c-17.395-6.944-34.818-13.845-52.059-21.169
		c-4.789-2.037-7.409-1.115-10.162,3.062c-8.744,13.271-17.763,26.357-26.724,39.475c-0.892,1.303-1.327,3.644-3.416,3.181
		c-1.646-0.357-1.423-2.486-1.844-3.877c-10.377-34.221-20.716-68.459-31.055-102.693c-3.226-10.675-6.2-21.428-9.713-32.007
		c-1.352-4.066-0.479-6.409,3.144-8.28C550.777,503.634,553.995,499.777,558.173,499.191z"/>
	
		<radialGradient id="SVGID_40_" cx="315.4697" cy="443.0938" r="72.4897" gradientTransform="matrix(1.1162 0 0 1.1162 92.8335 72.5845)" gradientUnits="userSpaceOnUse">
		<stop  offset="0" style="stop-color:#FD6729"/>
		<stop  offset="0.2374" style="stop-color:#FD6329"/>
		<stop  offset="0.4612" style="stop-color:#FC582B"/>
		<stop  offset="0.6795" style="stop-color:#FC452D"/>
		<stop  offset="0.8931" style="stop-color:#FB2A30"/>
		<stop  offset="1" style="stop-color:#FA1A32"/>
	</radialGradient>
	<path fill-rule="evenodd" clip-rule="evenodd" fill="url(#SVGID_40_)" d="M439.992,481.694c6.878-1.366,11.635,1.173,15.49,6.899
		c3.683,5.469,8.446,10.195,12.421,15.493c2.077,2.772,4.275,3.188,7.35,2.27c6.166-1.852,12.483-3.231,18.568-5.298
		c5.918-2.012,10.822-1.178,15.908,2.557c12.988,9.523,12.605,4.72,6.48,20.62c-16.079,41.681-32.253,83.332-48.418,124.979
		c-0.583,1.506-0.568,3.838-2.595,4.025c-2.029,0.185-2.413-2.109-3.221-3.505c-7.981-13.756-16.118-27.427-23.737-41.375
		c-2.384-4.368-4.705-4.701-9.015-3.21c-17.715,6.141-35.542,11.955-53.354,17.804c-1.853,0.605-4.133,2.564-5.741,0.665
		c-1.491-1.764,0.501-3.942,1.279-5.738c10.681-24.675,21.459-49.305,32.206-73.941c7.871-18.044,15.893-36.033,23.531-54.173
		C429.7,483.697,432.667,479.361,439.992,481.694z"/>
	
		<radialGradient id="SVGID_41_" cx="391.8105" cy="226.959" r="107.4175" gradientTransform="matrix(1.1162 0 0 1.1162 92.8335 72.5845)" gradientUnits="userSpaceOnUse">
		<stop  offset="0" style="stop-color:#FD6729"/>
		<stop  offset="0.2374" style="stop-color:#FD6329"/>
		<stop  offset="0.4612" style="stop-color:#FC582B"/>
		<stop  offset="0.6795" style="stop-color:#FC452D"/>
		<stop  offset="0.8931" style="stop-color:#FB2A30"/>
		<stop  offset="1" style="stop-color:#FA1A32"/>
	</radialGradient>
	<path fill-rule="evenodd" clip-rule="evenodd" fill="url(#SVGID_41_)" d="M650.067,325.91c0,66.212-53.682,119.893-119.896,119.893
		c-66.222,0-119.903-53.681-119.903-119.893c0-66.216,53.682-119.896,119.903-119.896
		C596.386,206.014,650.067,259.694,650.067,325.91z"/>
</g>
</svg>
