<?xml version="1.0" encoding="utf-8"?>
<!-- Generator: Adobe Illustrator 16.0.0, SVG Export Plug-In . SVG Version: 6.00 Build 0)  -->
<!DOCTYPE svg PUBLIC "-//W3C//DTD SVG 1.1//EN" "http://www.w3.org/Graphics/SVG/1.1/DTD/svg11.dtd">
<svg version="1.1" id="Capa_1" xmlns="http://www.w3.org/2000/svg" xmlns:xlink="http://www.w3.org/1999/xlink" x="0px" y="0px"
	 width="1080px" height="1080px" viewBox="0 0 1080 1080" enable-background="new 0 0 1080 1080" xml:space="preserve">
<g>
	<g>
		<g>
			<g>
				<path fill-rule="evenodd" clip-rule="evenodd" fill="#FFFFFF" d="M1025.158,550.009c0,266.061-215.69,481.76-481.759,481.76
					c-266.073,0-481.767-215.699-481.767-481.76c0-266.065,215.693-481.766,481.767-481.766
					C809.468,68.243,1025.158,283.943,1025.158,550.009z"/>
			</g>
		</g>
	</g>
</g>
<g>
	<g>
		
			<radialGradient id="SVGID_2_" cx="256.5293" cy="966.8008" r="34.9721" gradientTransform="matrix(0.8706 0 0 0.8706 197.019 -66.8799)" gradientUnits="userSpaceOnUse">
			<stop  offset="0" style="stop-color:#FAE118"/>
			<stop  offset="1" style="stop-color:#FD6729"/>
		</radialGradient>
		<path fill="url(#SVGID_2_)" d="M443.727,783.698l8.885-27.113l-27.088-8.871c-14.98-4.907-31.096,3.255-36.002,18.229
			c-4.891,14.951,3.271,31.064,18.253,35.968C422.745,806.823,438.831,798.643,443.727,783.698"/>
		
			<radialGradient id="SVGID_4_" cx="277.959" cy="902.5977" r="35.3243" gradientTransform="matrix(0.8706 0 0 0.8706 197.019 -66.8799)" gradientUnits="userSpaceOnUse">
			<stop  offset="0" style="stop-color:#FAE118"/>
			<stop  offset="1" style="stop-color:#FD6729"/>
		</radialGradient>
		<path fill="url(#SVGID_4_)" d="M428.313,741.051l26.454,10.696l10.685-26.427c5.912-14.611-1.144-31.243-15.751-37.15
			c-14.585-5.896-31.214,1.155-37.123,15.763C406.664,718.546,413.731,735.146,428.313,741.051"/>
		
			<radialGradient id="SVGID_5_" cx="186.3008" cy="926.8096" r="30.895" gradientTransform="matrix(0.8706 0 0 0.8706 197.019 -66.8799)" gradientUnits="userSpaceOnUse">
			<stop  offset="0" style="stop-color:#FAE118"/>
			<stop  offset="1" style="stop-color:#FD6729"/>
		</radialGradient>
		<path fill="url(#SVGID_5_)" d="M376.733,751.448l11.448-21.848l-21.824-11.439c-12.06-6.32-26.97-1.661-33.292,10.398
			c-6.313,12.047-1.657,26.951,10.418,33.271C355.544,768.156,370.428,763.48,376.733,751.448"/>
		
			<radialGradient id="SVGID_6_" cx="213.1523" cy="876.8516" r="31.0905" gradientTransform="matrix(0.8706 0 0 0.8706 197.019 -66.8799)" gradientUnits="userSpaceOnUse">
			<stop  offset="0" style="stop-color:#FAE118"/>
			<stop  offset="1" style="stop-color:#FD6729"/>
		</radialGradient>
		<path fill="url(#SVGID_6_)" d="M369.689,712.882l21.026,12.902l12.885-21.003c7.129-11.612,3.492-26.8-8.118-33.921
			c-11.592-7.114-26.771-3.476-33.899,8.13C354.454,690.602,358.104,705.768,369.689,712.882"/>
		
			<radialGradient id="SVGID_7_" cx="130.2417" cy="882.1348" r="27.2553" gradientTransform="matrix(0.8706 0 0 0.8706 197.019 -66.8799)" gradientUnits="userSpaceOnUse">
			<stop  offset="0" style="stop-color:#FAE118"/>
			<stop  offset="1" style="stop-color:#FD6729"/>
		</radialGradient>
		<path fill="url(#SVGID_7_)" d="M323.651,713.614l12.516-17.507l-17.49-12.506c-9.673-6.9-23.114-4.671-30.021,5.001
			c-6.9,9.647-4.658,23.091,5.01,30.001C303.333,725.513,316.754,723.261,323.651,713.614"/>
		
			<radialGradient id="SVGID_8_" cx="159.4727" cy="843.2188" r="27.3405" gradientTransform="matrix(0.8706 0 0 0.8706 197.019 -66.8799)" gradientUnits="userSpaceOnUse">
			<stop  offset="0" style="stop-color:#FAE118"/>
			<stop  offset="1" style="stop-color:#FD6729"/>
		</radialGradient>
		<path fill="url(#SVGID_8_)" d="M322.192,679.436l16.616,13.68l13.657-16.604c7.553-9.186,6.231-22.741-2.949-30.291
			c-9.161-7.539-22.719-6.213-30.274,2.963C311.691,658.359,313.034,671.901,322.192,679.436"/>
		
			<radialGradient id="SVGID_9_" cx="81.0845" cy="837.6934" r="24.8685" gradientTransform="matrix(0.8706 0 0 0.8706 197.019 -66.8799)" gradientUnits="userSpaceOnUse">
			<stop  offset="0" style="stop-color:#FAE118"/>
			<stop  offset="1" style="stop-color:#FD6729"/>
		</radialGradient>
		<path fill="url(#SVGID_9_)" d="M278.564,675.017l12.606-14.964l-14.951-12.6c-8.266-6.956-20.611-5.904-27.575,2.356
			c-6.949,8.256-5.89,20.597,2.372,27.56C259.284,684.336,271.61,683.263,278.564,675.017"/>
		
			<radialGradient id="SVGID_10_" cx="110.585" cy="804.9688" r="24.9002" gradientTransform="matrix(0.8706 0 0 0.8706 197.019 -66.8799)" gradientUnits="userSpaceOnUse">
			<stop  offset="0" style="stop-color:#FAE118"/>
			<stop  offset="1" style="stop-color:#FD6729"/>
		</radialGradient>
		<path fill="url(#SVGID_10_)" d="M279.704,643.937l14.077,13.593l13.581-14.062c7.511-7.783,7.293-20.165-0.48-27.668
			c-7.767-7.496-20.147-7.284-27.658,0.495C271.71,624.065,271.949,636.438,279.704,643.937"/>
		
			<radialGradient id="SVGID_11_" cx="48.7256" cy="782.917" r="21.5127" gradientTransform="matrix(0.8706 0 0 0.8706 197.019 -66.8799)" gradientUnits="userSpaceOnUse">
			<stop  offset="0" style="stop-color:#FAE118"/>
			<stop  offset="1" style="stop-color:#FD6729"/>
		</radialGradient>
		<path fill="url(#SVGID_11_)" d="M246.421,628.099l13.378-10.409l-10.4-13.365c-5.752-7.386-16.397-8.723-23.789-2.974
			c-7.378,5.742-8.699,16.395-2.953,23.781C228.404,632.523,239.043,633.833,246.421,628.099"/>
		
			<radialGradient id="SVGID_12_" cx="80.4248" cy="761.168" r="21.4356" gradientTransform="matrix(0.8706 0 0 0.8706 197.019 -66.8799)" gradientUnits="userSpaceOnUse">
			<stop  offset="0" style="stop-color:#FAE118"/>
			<stop  offset="1" style="stop-color:#FD6729"/>
		</radialGradient>
		<path fill="url(#SVGID_12_)" d="M252.989,601.968l9.479,14.054l14.038-9.472c7.766-5.243,9.813-15.774,4.576-23.529
			c-5.23-7.754-15.76-9.798-23.527-4.558C249.794,583.69,247.768,594.223,252.989,601.968"/>
		
			<radialGradient id="SVGID_13_" cx="25.793" cy="736.8623" r="18.2056" gradientTransform="matrix(0.8706 0 0 0.8706 197.019 -66.8799)" gradientUnits="userSpaceOnUse">
			<stop  offset="0" style="stop-color:#FAE118"/>
			<stop  offset="1" style="stop-color:#FD6729"/>
		</radialGradient>
		<path fill="url(#SVGID_13_)" d="M223.559,587.595l12.97-6.598l-6.593-12.962c-3.647-7.155-12.405-10.014-19.571-6.373
			c-7.15,3.635-10.002,12.399-6.357,19.564C207.646,588.392,216.404,591.229,223.559,587.595"/>
		
			<radialGradient id="SVGID_14_" cx="57.0957" cy="723.749" r="18.0621" gradientTransform="matrix(0.8706 0 0 0.8706 197.019 -66.8799)" gradientUnits="userSpaceOnUse">
			<stop  offset="0" style="stop-color:#FAE118"/>
			<stop  offset="1" style="stop-color:#FD6729"/>
		</radialGradient>
		<path fill="url(#SVGID_14_)" d="M233.346,566.638l5.697,13.394l13.38-5.702c7.398-3.153,10.833-11.699,7.686-19.092
			c-3.144-7.383-11.689-10.826-19.088-7.674C233.626,550.712,230.202,559.258,233.346,566.638"/>
		
			<radialGradient id="SVGID_15_" cx="28.6694" cy="692.5215" r="18.4107" gradientTransform="matrix(0.8706 0 0 0.8706 197.019 -66.8799)" gradientUnits="userSpaceOnUse">
			<stop  offset="0" style="stop-color:#FAE118"/>
			<stop  offset="1" style="stop-color:#FD6729"/>
		</radialGradient>
		<path fill="url(#SVGID_15_)" d="M213.739,545.168l11.992,8.243l8.232-11.984c4.555-6.626,2.872-15.686-3.746-20.23
			c-6.617-4.547-15.673-2.867-20.227,3.76C205.437,531.571,207.131,540.626,213.739,545.168"/>
	</g>
	
		<radialGradient id="SVGID_16_" cx="396.8237" cy="1033.0146" r="51.7725" gradientTransform="matrix(0.8706 0 0 0.8706 197.019 -66.8799)" gradientUnits="userSpaceOnUse">
		<stop  offset="0" style="stop-color:#FAE118"/>
		<stop  offset="1" style="stop-color:#FD6729"/>
	</radialGradient>
	<path fill="url(#SVGID_16_)" d="M587.586,832.481c0,0.786,0,1.523-0.044,2.31c-0.048,0.968-0.136,1.894-0.232,2.815
		c-0.093,0.562-0.14,1.154-0.232,1.713c-0.092,0.741-0.229,1.479-0.417,2.217c-0.137,0.738-0.317,1.477-0.502,2.214
		c-0.188,0.694-0.373,1.436-0.602,2.126c-0.185,0.693-0.417,1.387-0.697,2.081c-0.413,1.198-0.923,2.399-1.476,3.561
		c-1.019,2.122-2.17,4.2-3.514,6.137c-0.364,0.602-0.826,1.202-1.247,1.757c-0.42,0.602-0.874,1.154-1.336,1.712
		c-0.878,1.106-1.848,2.173-2.911,3.183c-0.461,0.511-1.019,1.016-1.575,1.481c-2.86,2.631-6.088,4.896-9.649,6.744
		c-0.554,0.276-1.11,0.554-1.664,0.783c-0.461,0.229-0.971,0.465-1.477,0.648c-0.509,0.229-1.063,0.462-1.616,0.649
		c-2.357,0.92-4.76,1.613-7.255,2.078c-0.648,0.136-1.339,0.229-1.984,0.324c-2.174,0.321-4.391,0.505-6.653,0.505
		c-24.896,0-45.088-20.19-45.088-45.038c0-24.898,20.192-45.084,45.088-45.084c1.155,0,2.263,0.046,3.373,0.138
		c1.106,0.092,2.218,0.229,3.28,0.373c0.782,0.092,1.521,0.228,2.307,0.413c1.019,0.188,1.988,0.372,2.955,0.697
		c0.188,0.044,0.425,0.085,0.602,0.136c1.11,0.321,2.266,0.738,3.376,1.151c0.554,0.188,1.107,0.418,1.616,0.649
		c0.643,0.277,1.248,0.554,1.893,0.787c1.152,0.597,2.307,1.199,3.417,1.845c0.927,0.553,1.801,1.11,2.632,1.713
		c0.28,0.18,0.562,0.369,0.79,0.553c0.737,0.508,1.476,1.059,2.17,1.661c0.922,0.737,1.845,1.523,2.678,2.356
		c0.51,0.461,1.019,0.971,1.476,1.479c0.65,0.646,1.3,1.292,1.85,2.03c0.602,0.69,1.154,1.388,1.708,2.122
		c0.421,0.508,0.786,1.019,1.111,1.571c1.708,2.45,3.14,5.089,4.291,7.855c0.236,0.51,0.469,1.063,0.649,1.612
		c0.325,0.835,0.602,1.664,0.882,2.497c0.229,0.74,0.413,1.432,0.602,2.17c0.782,2.863,1.248,5.868,1.384,8.963
		C587.586,830.914,587.586,831.699,587.586,832.481"/>
	
		<radialGradient id="SVGID_17_" cx="316.9521" cy="942.1758" r="4.9041" gradientTransform="matrix(0.8706 0 0 0.8706 197.019 -66.8799)" gradientUnits="userSpaceOnUse">
		<stop  offset="0" style="stop-color:#FAE118"/>
		<stop  offset="1" style="stop-color:#FD6729"/>
	</radialGradient>
	<path fill="url(#SVGID_17_)" d="M477.233,753.378c0,0.07,0,0.14-0.003,0.218c-0.004,0.092-0.015,0.177-0.022,0.262
		c-0.013,0.055-0.013,0.11-0.019,0.167c-0.011,0.069-0.021,0.14-0.044,0.213c-0.013,0.071-0.03,0.138-0.044,0.207
		c-0.022,0.066-0.039,0.136-0.059,0.199c-0.02,0.066-0.038,0.129-0.069,0.195c-0.035,0.119-0.087,0.229-0.136,0.34
		c-0.097,0.199-0.209,0.398-0.336,0.584c-0.031,0.054-0.077,0.113-0.116,0.164c-0.041,0.057-0.087,0.111-0.13,0.16
		c-0.08,0.105-0.173,0.209-0.272,0.307c-0.043,0.047-0.097,0.092-0.146,0.139c-0.277,0.248-0.582,0.461-0.917,0.64
		c-0.053,0.025-0.105,0.048-0.161,0.076c-0.04,0.016-0.09,0.038-0.141,0.057c-0.046,0.025-0.101,0.048-0.151,0.063
		c-0.225,0.083-0.451,0.151-0.688,0.195c-0.059,0.014-0.126,0.022-0.188,0.029c-0.203,0.029-0.418,0.051-0.63,0.051
		c-2.355,0-4.271-1.911-4.271-4.265c0-2.361,1.916-4.272,4.271-4.272c0.109,0,0.212,0.003,0.317,0.015
		c0.109,0.004,0.212,0.018,0.313,0.036c0.075,0.003,0.146,0.016,0.217,0.037c0.1,0.019,0.191,0.032,0.284,0.066
		c0.015,0.004,0.041,0.004,0.051,0.012c0.112,0.029,0.219,0.07,0.323,0.105c0.051,0.019,0.105,0.045,0.151,0.068
		c0.062,0.025,0.12,0.051,0.183,0.069c0.109,0.059,0.218,0.117,0.322,0.177c0.092,0.055,0.171,0.107,0.25,0.162
		c0.027,0.015,0.054,0.037,0.074,0.053c0.07,0.051,0.138,0.099,0.207,0.158c0.085,0.066,0.173,0.141,0.251,0.225
		c0.052,0.04,0.098,0.093,0.144,0.134c0.063,0.066,0.121,0.124,0.172,0.199c0.061,0.066,0.111,0.126,0.164,0.199
		c0.039,0.047,0.073,0.092,0.106,0.145c0.163,0.234,0.295,0.482,0.404,0.748c0.021,0.047,0.046,0.104,0.062,0.151
		c0.031,0.081,0.059,0.158,0.085,0.239c0.02,0.07,0.036,0.133,0.059,0.202c0.073,0.271,0.114,0.558,0.129,0.851
		C477.233,753.227,477.233,753.3,477.233,753.378"/>
	
		<radialGradient id="SVGID_18_" cx="336.3672" cy="943.8857" r="6.1306" gradientTransform="matrix(0.8706 0 0 0.8706 197.019 -66.8799)" gradientUnits="userSpaceOnUse">
		<stop  offset="0" style="stop-color:#FAE118"/>
		<stop  offset="1" style="stop-color:#FD6729"/>
	</radialGradient>
	<path fill="url(#SVGID_18_)" d="M495.204,754.864c0,0.094,0,0.177-0.004,0.273c-0.008,0.114-0.019,0.222-0.029,0.336
		c-0.012,0.063-0.015,0.132-0.029,0.2c-0.008,0.092-0.026,0.181-0.044,0.262c-0.021,0.089-0.045,0.177-0.063,0.266
		c-0.022,0.076-0.049,0.165-0.071,0.246c-0.021,0.082-0.051,0.163-0.084,0.248c-0.047,0.146-0.109,0.288-0.176,0.427
		c-0.116,0.245-0.258,0.492-0.418,0.725c-0.041,0.07-0.093,0.14-0.145,0.206c-0.052,0.075-0.105,0.141-0.16,0.204
		c-0.098,0.133-0.216,0.257-0.346,0.379c-0.053,0.06-0.116,0.117-0.183,0.174c-0.341,0.31-0.721,0.579-1.142,0.801
		c-0.068,0.028-0.135,0.063-0.2,0.092c-0.055,0.025-0.113,0.056-0.179,0.069c-0.057,0.034-0.123,0.063-0.186,0.085
		c-0.287,0.104-0.569,0.186-0.859,0.24c-0.078,0.019-0.159,0.027-0.233,0.037c-0.259,0.037-0.525,0.066-0.787,0.066
		c-2.954,0-5.34-2.391-5.34-5.336c0-2.952,2.386-5.339,5.34-5.339c0.133,0,0.262,0.003,0.396,0.015
		c0.132,0.016,0.262,0.033,0.391,0.048c0.093,0.004,0.18,0.025,0.271,0.053c0.12,0.018,0.238,0.036,0.349,0.077
		c0.021,0.006,0.052,0.006,0.074,0.021c0.127,0.034,0.263,0.078,0.398,0.133c0.063,0.019,0.129,0.048,0.186,0.078
		c0.081,0.032,0.151,0.066,0.23,0.089c0.139,0.073,0.273,0.147,0.404,0.224c0.108,0.063,0.214,0.126,0.311,0.196
		c0.034,0.021,0.066,0.048,0.094,0.069c0.085,0.06,0.174,0.126,0.255,0.201c0.114,0.079,0.222,0.177,0.316,0.275
		c0.06,0.056,0.12,0.111,0.178,0.17c0.078,0.081,0.153,0.154,0.217,0.239c0.075,0.085,0.142,0.17,0.204,0.255
		c0.052,0.06,0.091,0.123,0.129,0.189c0.203,0.287,0.369,0.6,0.514,0.93c0.025,0.058,0.054,0.124,0.073,0.19
		c0.045,0.097,0.072,0.201,0.106,0.296c0.022,0.085,0.049,0.17,0.071,0.255c0.092,0.344,0.146,0.694,0.165,1.06
		C495.204,754.681,495.204,754.772,495.204,754.864"/>
	
		<radialGradient id="SVGID_19_" cx="358.8496" cy="944.6279" r="7.3567" gradientTransform="matrix(0.8706 0 0 0.8706 197.019 -66.8799)" gradientUnits="userSpaceOnUse">
		<stop  offset="0" style="stop-color:#FAE118"/>
		<stop  offset="1" style="stop-color:#FD6729"/>
	</radialGradient>
	<path fill="url(#SVGID_19_)" d="M515.846,755.511c0,0.113,0,0.218-0.006,0.331c-0.003,0.138-0.021,0.268-0.033,0.399
		c-0.016,0.077-0.021,0.162-0.031,0.24c-0.015,0.11-0.033,0.214-0.059,0.313c-0.022,0.107-0.048,0.215-0.072,0.314
		c-0.029,0.103-0.054,0.21-0.087,0.307c-0.025,0.099-0.059,0.195-0.096,0.294c-0.064,0.17-0.135,0.344-0.214,0.507
		c-0.145,0.298-0.309,0.594-0.499,0.874c-0.051,0.081-0.113,0.17-0.177,0.255c-0.062,0.076-0.126,0.162-0.191,0.231
		c-0.119,0.163-0.258,0.317-0.413,0.463c-0.063,0.072-0.14,0.139-0.222,0.205c-0.409,0.369-0.869,0.694-1.37,0.964
		c-0.079,0.036-0.161,0.07-0.238,0.111c-0.066,0.025-0.137,0.058-0.213,0.085c-0.071,0.032-0.151,0.069-0.23,0.095
		c-0.331,0.13-0.675,0.225-1.027,0.291c-0.091,0.022-0.189,0.03-0.282,0.041c-0.307,0.049-0.627,0.081-0.945,0.081
		c-3.538,0-6.407-2.87-6.407-6.401c0-3.539,2.869-6.405,6.407-6.405c0.163,0,0.318,0.003,0.477,0.019
		c0.162,0.014,0.313,0.035,0.469,0.055c0.114,0.012,0.218,0.033,0.324,0.059c0.151,0.026,0.288,0.048,0.423,0.104
		c0.024,0,0.063,0.003,0.087,0.014c0.155,0.044,0.317,0.104,0.476,0.166c0.079,0.025,0.159,0.06,0.23,0.092
		c0.095,0.038,0.18,0.075,0.271,0.104c0.167,0.092,0.329,0.173,0.487,0.273c0.133,0.076,0.255,0.154,0.373,0.236
		c0.04,0.025,0.077,0.055,0.11,0.08c0.105,0.074,0.207,0.147,0.31,0.236c0.134,0.1,0.263,0.218,0.38,0.336
		c0.07,0.066,0.145,0.137,0.211,0.206c0.092,0.097,0.185,0.188,0.259,0.288c0.088,0.1,0.167,0.2,0.246,0.308
		c0.063,0.069,0.109,0.139,0.159,0.221c0.243,0.351,0.443,0.723,0.608,1.114c0.03,0.078,0.066,0.154,0.093,0.232
		c0.045,0.117,0.089,0.24,0.125,0.357c0.033,0.1,0.058,0.198,0.087,0.303c0.109,0.409,0.175,0.831,0.195,1.273
		C515.846,755.289,515.846,755.4,515.846,755.511"/>
	
		<radialGradient id="SVGID_20_" cx="412.6411" cy="956.8818" r="9.8066" gradientTransform="matrix(0.8706 0 0 0.8706 197.019 -66.8799)" gradientUnits="userSpaceOnUse">
		<stop  offset="0" style="stop-color:#FAE118"/>
		<stop  offset="1" style="stop-color:#FD6729"/>
	</radialGradient>
	<path fill="url(#SVGID_20_)" d="M564.812,766.183c0,0.15,0,0.283,0,0.435c-0.007,0.188-0.029,0.357-0.051,0.53
		c-0.016,0.107-0.022,0.224-0.041,0.325c-0.019,0.147-0.041,0.292-0.085,0.422c-0.019,0.14-0.056,0.287-0.085,0.42
		c-0.037,0.133-0.077,0.277-0.118,0.403c-0.033,0.136-0.081,0.265-0.133,0.391c-0.081,0.231-0.181,0.468-0.28,0.682
		c-0.188,0.403-0.413,0.789-0.668,1.155c-0.07,0.122-0.151,0.236-0.232,0.347s-0.166,0.218-0.255,0.317
		c-0.162,0.211-0.347,0.417-0.55,0.609c-0.085,0.095-0.191,0.184-0.299,0.28c-0.542,0.49-1.155,0.927-1.833,1.277
		c-0.101,0.047-0.207,0.099-0.308,0.147c-0.092,0.036-0.191,0.083-0.283,0.114c-0.1,0.047-0.203,0.095-0.31,0.133
		c-0.451,0.17-0.9,0.294-1.373,0.384c-0.118,0.032-0.251,0.039-0.377,0.058c-0.409,0.06-0.833,0.101-1.262,0.101
		c-4.716,0-8.539-3.822-8.539-8.53c0-4.725,3.823-8.54,8.539-8.54c0.218,0,0.429,0.004,0.635,0.019
		c0.218,0.022,0.425,0.048,0.627,0.078c0.147,0.007,0.288,0.036,0.437,0.073c0.198,0.038,0.38,0.066,0.56,0.133
		c0.041,0.012,0.082,0.016,0.118,0.025c0.207,0.068,0.421,0.138,0.636,0.223c0.106,0.032,0.21,0.073,0.31,0.118
		c0.121,0.056,0.232,0.104,0.354,0.147c0.221,0.122,0.435,0.233,0.652,0.354c0.177,0.11,0.34,0.211,0.498,0.318
		c0.052,0.037,0.104,0.073,0.151,0.11c0.137,0.101,0.27,0.202,0.402,0.321c0.185,0.133,0.354,0.284,0.51,0.442
		c0.1,0.085,0.195,0.177,0.283,0.273c0.126,0.126,0.24,0.254,0.351,0.388c0.118,0.133,0.214,0.269,0.325,0.401
		c0.081,0.101,0.14,0.192,0.211,0.299c0.324,0.465,0.59,0.966,0.812,1.492c0.04,0.102,0.092,0.202,0.122,0.309
		c0.065,0.155,0.113,0.316,0.169,0.468c0.041,0.138,0.081,0.267,0.118,0.413c0.14,0.539,0.232,1.101,0.262,1.695
		C564.812,765.89,564.812,766.03,564.812,766.183"/>
	
		<radialGradient id="SVGID_21_" cx="438.7988" cy="968.5352" r="11.0369" gradientTransform="matrix(0.8706 0 0 0.8706 197.019 -66.8799)" gradientUnits="userSpaceOnUse">
		<stop  offset="0" style="stop-color:#FAE118"/>
		<stop  offset="1" style="stop-color:#FD6729"/>
	</radialGradient>
	<path fill="url(#SVGID_21_)" d="M588.653,776.321c0,0.174,0,0.325,0,0.491c-0.008,0.215-0.03,0.405-0.052,0.601
		c-0.022,0.119-0.026,0.252-0.045,0.362c-0.021,0.17-0.052,0.331-0.096,0.476c-0.029,0.162-0.066,0.325-0.104,0.473
		c-0.04,0.152-0.081,0.31-0.13,0.458c-0.036,0.151-0.084,0.291-0.15,0.436c-0.085,0.265-0.199,0.53-0.31,0.77
		c-0.215,0.451-0.469,0.89-0.753,1.303c-0.082,0.135-0.174,0.267-0.263,0.388c-0.092,0.119-0.188,0.243-0.287,0.359
		c-0.182,0.23-0.388,0.467-0.62,0.682c-0.093,0.11-0.214,0.207-0.339,0.314c-0.61,0.553-1.296,1.044-2.056,1.438
		c-0.111,0.056-0.236,0.114-0.351,0.167c-0.1,0.04-0.211,0.098-0.321,0.129c-0.107,0.055-0.226,0.107-0.34,0.151
		c-0.509,0.195-1.015,0.328-1.55,0.427c-0.133,0.044-0.28,0.053-0.421,0.066c-0.461,0.078-0.937,0.119-1.416,0.119
		c-5.311,0-9.616-4.303-9.616-9.609c0-5.316,4.306-9.608,9.616-9.608c0.243,0,0.479,0,0.712,0.025
		c0.243,0.015,0.476,0.049,0.704,0.081c0.167,0.013,0.325,0.045,0.487,0.086c0.226,0.044,0.429,0.078,0.636,0.15
		c0.039,0.013,0.088,0.02,0.132,0.029c0.229,0.075,0.473,0.156,0.716,0.248c0.114,0.038,0.232,0.085,0.34,0.137
		c0.137,0.063,0.266,0.11,0.409,0.166c0.243,0.133,0.487,0.259,0.73,0.395c0.196,0.123,0.38,0.236,0.558,0.357
		c0.063,0.041,0.122,0.085,0.17,0.129c0.155,0.107,0.31,0.223,0.457,0.355c0.203,0.151,0.396,0.321,0.568,0.498
		c0.114,0.099,0.222,0.199,0.317,0.31c0.144,0.14,0.277,0.284,0.399,0.436c0.129,0.151,0.243,0.299,0.364,0.45
		c0.089,0.114,0.159,0.215,0.233,0.339c0.368,0.525,0.671,1.09,0.914,1.671c0.045,0.126,0.104,0.233,0.141,0.362
		c0.074,0.163,0.126,0.347,0.188,0.524c0.049,0.15,0.09,0.299,0.13,0.462c0.162,0.604,0.266,1.239,0.296,1.906
		C588.653,775.993,588.653,776.155,588.653,776.321"/>
	
		<radialGradient id="SVGID_22_" cx="460.874" cy="988.9746" r="12.2639" gradientTransform="matrix(0.8706 0 0 0.8706 197.019 -66.8799)" gradientUnits="userSpaceOnUse">
		<stop  offset="0" style="stop-color:#FAE118"/>
		<stop  offset="1" style="stop-color:#FD6729"/>
	</radialGradient>
	<path fill="url(#SVGID_22_)" d="M608.94,794.118c0,0.195,0,0.361,0,0.545c-0.007,0.236-0.037,0.451-0.06,0.669
		c-0.021,0.129-0.032,0.28-0.052,0.402c-0.021,0.185-0.055,0.364-0.106,0.521c-0.025,0.184-0.074,0.364-0.111,0.534
		c-0.047,0.163-0.092,0.34-0.144,0.505c-0.04,0.167-0.1,0.325-0.166,0.484c-0.1,0.295-0.225,0.59-0.351,0.855
		c-0.232,0.502-0.516,0.99-0.834,1.447c-0.096,0.147-0.191,0.294-0.292,0.432c-0.103,0.129-0.206,0.272-0.316,0.398
		c-0.204,0.258-0.433,0.517-0.689,0.76c-0.104,0.119-0.241,0.227-0.377,0.351c-0.675,0.613-1.443,1.156-2.288,1.595
		c-0.122,0.058-0.262,0.129-0.392,0.184c-0.106,0.048-0.231,0.107-0.347,0.147c-0.126,0.06-0.258,0.119-0.383,0.167
		c-0.564,0.218-1.13,0.365-1.721,0.477c-0.151,0.044-0.31,0.058-0.468,0.072c-0.518,0.086-1.044,0.13-1.576,0.13
		c-5.896,0-10.683-4.782-10.683-10.675c0-5.911,4.786-10.679,10.683-10.679c0.273,0,0.532,0,0.79,0.028
		c0.269,0.02,0.531,0.057,0.786,0.094c0.185,0.007,0.365,0.048,0.542,0.092c0.243,0.045,0.477,0.085,0.705,0.17
		c0.048,0.014,0.096,0.022,0.144,0.029c0.259,0.085,0.528,0.17,0.798,0.277c0.125,0.041,0.257,0.095,0.383,0.147
		c0.148,0.07,0.292,0.13,0.451,0.184c0.269,0.151,0.538,0.293,0.811,0.444c0.215,0.133,0.421,0.269,0.62,0.401
		c0.067,0.044,0.129,0.088,0.185,0.136c0.178,0.122,0.347,0.252,0.509,0.396c0.229,0.168,0.443,0.356,0.639,0.556
		c0.122,0.11,0.24,0.218,0.352,0.34c0.158,0.158,0.302,0.321,0.436,0.486c0.146,0.17,0.275,0.337,0.408,0.502
		c0.101,0.126,0.182,0.233,0.259,0.378c0.41,0.583,0.742,1.21,1.019,1.854c0.048,0.138,0.118,0.262,0.151,0.403
		c0.081,0.18,0.144,0.384,0.214,0.583c0.052,0.17,0.097,0.331,0.144,0.512c0.178,0.672,0.292,1.374,0.329,2.119
		C608.94,793.752,608.94,793.929,608.94,794.118"/>
	
		<radialGradient id="SVGID_23_" cx="477.6372" cy="1021.4717" r="13.4897" gradientTransform="matrix(0.8706 0 0 0.8706 197.019 -66.8799)" gradientUnits="userSpaceOnUse">
		<stop  offset="0" style="stop-color:#FAE118"/>
		<stop  offset="1" style="stop-color:#FD6729"/>
	</radialGradient>
	<path fill="url(#SVGID_23_)" d="M624.601,822.409c0,0.217,0,0.4,0,0.6c-0.008,0.264-0.041,0.495-0.067,0.734
		c-0.021,0.145-0.032,0.307-0.055,0.447c-0.022,0.199-0.059,0.401-0.114,0.571c-0.033,0.204-0.085,0.403-0.126,0.583
		c-0.052,0.186-0.099,0.376-0.154,0.562c-0.044,0.181-0.107,0.357-0.185,0.53c-0.107,0.325-0.244,0.646-0.384,0.939
		c-0.258,0.552-0.572,1.091-0.915,1.593c-0.104,0.158-0.215,0.325-0.321,0.473c-0.118,0.143-0.232,0.306-0.351,0.442
		c-0.225,0.283-0.477,0.564-0.764,0.835c-0.107,0.132-0.259,0.246-0.413,0.388c-0.742,0.67-1.587,1.269-2.514,1.755
		c-0.136,0.063-0.287,0.138-0.427,0.2c-0.122,0.048-0.259,0.121-0.388,0.162c-0.141,0.063-0.281,0.125-0.421,0.185
		c-0.624,0.235-1.24,0.398-1.893,0.521c-0.163,0.051-0.34,0.062-0.513,0.083c-0.569,0.094-1.152,0.142-1.739,0.142
		c-6.482,0-11.744-5.263-11.744-11.744c0-6.503,5.262-11.745,11.744-11.745c0.296,0,0.587,0,0.875,0.036
		c0.295,0.015,0.583,0.056,0.864,0.1c0.202,0.007,0.395,0.048,0.593,0.099c0.274,0.053,0.528,0.094,0.779,0.186
		c0.048,0.022,0.104,0.029,0.162,0.038c0.277,0.092,0.575,0.184,0.871,0.297c0.14,0.053,0.28,0.107,0.421,0.167
		c0.162,0.081,0.321,0.136,0.494,0.202c0.299,0.167,0.594,0.324,0.896,0.488c0.236,0.143,0.462,0.294,0.683,0.441
		c0.074,0.048,0.141,0.101,0.2,0.151c0.195,0.133,0.383,0.274,0.564,0.436c0.25,0.186,0.482,0.392,0.693,0.608
		c0.14,0.126,0.273,0.24,0.392,0.378c0.173,0.174,0.335,0.354,0.479,0.537c0.162,0.186,0.302,0.366,0.453,0.551
		c0.106,0.137,0.191,0.25,0.28,0.413c0.454,0.642,0.819,1.328,1.118,2.037c0.056,0.155,0.133,0.288,0.17,0.442
		c0.088,0.199,0.154,0.429,0.236,0.643c0.056,0.188,0.103,0.369,0.154,0.564c0.2,0.738,0.321,1.512,0.362,2.328
		C624.601,822.006,624.601,822.204,624.601,822.409"/>
	
		<radialGradient id="SVGID_24_" cx="477.6367" cy="1056.0107" r="14.717" gradientTransform="matrix(0.8706 0 0 0.8706 197.019 -66.8799)" gradientUnits="userSpaceOnUse">
		<stop  offset="0" style="stop-color:#FAE118"/>
		<stop  offset="1" style="stop-color:#FD6729"/>
	</radialGradient>
	<path fill="url(#SVGID_24_)" d="M625.671,852.481c0,0.234,0,0.436,0,0.653c-0.008,0.287-0.048,0.542-0.074,0.799
		c-0.025,0.156-0.037,0.34-0.059,0.488c-0.026,0.218-0.071,0.438-0.126,0.62c-0.04,0.229-0.092,0.439-0.141,0.638
		c-0.051,0.199-0.106,0.41-0.166,0.612c-0.047,0.199-0.121,0.392-0.198,0.583c-0.122,0.354-0.273,0.701-0.425,1.022
		c-0.277,0.599-0.62,1.188-0.996,1.737c-0.115,0.174-0.233,0.355-0.354,0.514c-0.125,0.158-0.248,0.335-0.377,0.483
		c-0.246,0.31-0.523,0.62-0.833,0.911c-0.118,0.145-0.288,0.266-0.454,0.425c-0.809,0.727-1.724,1.379-2.738,1.911
		c-0.15,0.07-0.317,0.151-0.469,0.222c-0.133,0.051-0.284,0.129-0.42,0.177c-0.151,0.066-0.311,0.133-0.465,0.198
		c-0.672,0.263-1.352,0.436-2.063,0.568c-0.174,0.057-0.366,0.068-0.558,0.094c-0.617,0.099-1.255,0.151-1.897,0.151
		c-7.069,0-12.815-5.742-12.815-12.808c0-7.096,5.746-12.815,12.815-12.815c0.329,0,0.643,0,0.952,0.037
		c0.328,0.019,0.639,0.066,0.945,0.11c0.222,0.007,0.432,0.051,0.649,0.107c0.295,0.055,0.572,0.099,0.849,0.199
		c0.052,0.025,0.11,0.037,0.173,0.044c0.307,0.101,0.631,0.202,0.949,0.325c0.154,0.059,0.313,0.122,0.465,0.184
		c0.177,0.088,0.351,0.147,0.538,0.214c0.325,0.186,0.649,0.362,0.975,0.536c0.259,0.161,0.506,0.324,0.745,0.486
		c0.081,0.052,0.158,0.106,0.218,0.163c0.214,0.143,0.417,0.299,0.616,0.479c0.273,0.198,0.527,0.42,0.761,0.659
		c0.15,0.142,0.295,0.262,0.424,0.41c0.188,0.192,0.365,0.388,0.527,0.587c0.17,0.203,0.325,0.402,0.487,0.602
		c0.121,0.151,0.214,0.277,0.313,0.45c0.487,0.701,0.89,1.454,1.218,2.221c0.06,0.174,0.145,0.315,0.185,0.488
		c0.1,0.213,0.17,0.461,0.258,0.7c0.06,0.203,0.115,0.398,0.166,0.612c0.218,0.805,0.352,1.653,0.399,2.542
		C625.671,852.038,625.671,852.259,625.671,852.481"/>
	
		<radialGradient id="SVGID_25_" cx="456.6606" cy="1086.4658" r="15.9424" gradientTransform="matrix(0.8706 0 0 0.8706 197.019 -66.8799)" gradientUnits="userSpaceOnUse">
		<stop  offset="0" style="stop-color:#FAE118"/>
		<stop  offset="1" style="stop-color:#FD6729"/>
	</radialGradient>
	<path fill="url(#SVGID_25_)" d="M608.475,878.992c0,0.252,0,0.47,0,0.709c-0.011,0.31-0.051,0.587-0.077,0.867
		c-0.033,0.165-0.04,0.366-0.069,0.527c-0.026,0.236-0.071,0.473-0.133,0.672c-0.045,0.243-0.101,0.476-0.151,0.693
		c-0.06,0.218-0.115,0.442-0.182,0.656c-0.059,0.218-0.132,0.429-0.221,0.636c-0.126,0.383-0.292,0.764-0.454,1.107
		c-0.303,0.647-0.668,1.287-1.085,1.884c-0.118,0.186-0.247,0.381-0.38,0.555c-0.134,0.177-0.272,0.362-0.41,0.523
		c-0.262,0.337-0.564,0.668-0.903,0.984c-0.126,0.16-0.307,0.293-0.487,0.459c-0.875,0.793-1.867,1.498-2.967,2.08
		c-0.163,0.071-0.343,0.163-0.505,0.232c-0.148,0.06-0.311,0.145-0.454,0.189c-0.163,0.076-0.34,0.151-0.506,0.218
		c-0.728,0.283-1.465,0.476-2.24,0.618c-0.185,0.057-0.395,0.075-0.601,0.101c-0.668,0.107-1.358,0.167-2.053,0.167
		c-7.664,0-13.881-6.222-13.881-13.879c0-7.689,6.217-13.88,13.881-13.88c0.354,0,0.694,0,1.03,0.035
		c0.354,0.022,0.693,0.07,1.022,0.123c0.239,0.007,0.472,0.06,0.704,0.117c0.321,0.06,0.62,0.107,0.919,0.214
		c0.06,0.025,0.121,0.034,0.188,0.048c0.329,0.107,0.688,0.218,1.03,0.355c0.166,0.058,0.343,0.129,0.506,0.195
		c0.188,0.096,0.376,0.162,0.579,0.236c0.354,0.199,0.704,0.383,1.059,0.578c0.281,0.17,0.546,0.351,0.805,0.518
		c0.088,0.065,0.17,0.125,0.236,0.185c0.232,0.155,0.449,0.325,0.664,0.512c0.303,0.218,0.575,0.466,0.83,0.725
		c0.163,0.146,0.313,0.284,0.454,0.442c0.21,0.205,0.398,0.416,0.575,0.634c0.185,0.215,0.352,0.433,0.524,0.649
		c0.133,0.164,0.235,0.3,0.343,0.488c0.528,0.76,0.956,1.571,1.317,2.409c0.066,0.185,0.151,0.342,0.203,0.527
		c0.106,0.233,0.181,0.498,0.276,0.757c0.066,0.221,0.122,0.436,0.182,0.663c0.232,0.87,0.38,1.79,0.431,2.757
		C608.475,878.51,608.475,878.749,608.475,878.992"/>
	<g>
		
			<radialGradient id="SVGID_26_" cx="536.3525" cy="966.8008" r="34.9718" gradientTransform="matrix(0.8706 0 0 0.8706 197.019 -66.8799)" gradientUnits="userSpaceOnUse">
			<stop  offset="0" style="stop-color:#FAE118"/>
			<stop  offset="1" style="stop-color:#FD6729"/>
		</radialGradient>
		<path fill="url(#SVGID_26_)" d="M640.604,783.698l-8.881-27.113l27.084-8.871c14.978-4.907,31.099,3.255,36.003,18.229
			c4.896,14.951-3.273,31.064-18.247,35.968C661.585,806.823,645.501,798.643,640.604,783.698"/>
		
			<radialGradient id="SVGID_27_" cx="514.9209" cy="902.5977" r="35.3248" gradientTransform="matrix(0.8706 0 0 0.8706 197.019 -66.8799)" gradientUnits="userSpaceOnUse">
			<stop  offset="0" style="stop-color:#FAE118"/>
			<stop  offset="1" style="stop-color:#FD6729"/>
		</radialGradient>
		<path fill="url(#SVGID_27_)" d="M656.017,741.051l-26.449,10.696l-10.687-26.427c-5.911-14.611,1.14-31.243,15.749-37.15
			c14.583-5.896,31.213,1.155,37.125,15.763C677.669,718.546,670.6,735.146,656.017,741.051"/>
		
			<radialGradient id="SVGID_28_" cx="606.5781" cy="926.8096" r="30.8955" gradientTransform="matrix(0.8706 0 0 0.8706 197.019 -66.8799)" gradientUnits="userSpaceOnUse">
			<stop  offset="0" style="stop-color:#FAE118"/>
			<stop  offset="1" style="stop-color:#FD6729"/>
		</radialGradient>
		<path fill="url(#SVGID_28_)" d="M707.595,751.448l-11.446-21.848l21.823-11.439c12.063-6.32,26.973-1.661,33.295,10.398
			c6.313,12.047,1.656,26.951-10.414,33.271C728.786,768.156,713.905,763.48,707.595,751.448"/>
		
			<radialGradient id="SVGID_29_" cx="579.7271" cy="876.8516" r="31.0911" gradientTransform="matrix(0.8706 0 0 0.8706 197.019 -66.8799)" gradientUnits="userSpaceOnUse">
			<stop  offset="0" style="stop-color:#FAE118"/>
			<stop  offset="1" style="stop-color:#FD6729"/>
		</radialGradient>
		<path fill="url(#SVGID_29_)" d="M714.639,712.882l-21.021,12.902l-12.889-21.003c-7.125-11.612-3.494-26.8,8.122-33.921
			c11.59-7.114,26.773-3.476,33.902,8.13C729.879,690.602,726.226,705.768,714.639,712.882"/>
		
			<radialGradient id="SVGID_30_" cx="662.6367" cy="882.1348" r="27.2564" gradientTransform="matrix(0.8706 0 0 0.8706 197.019 -66.8799)" gradientUnits="userSpaceOnUse">
			<stop  offset="0" style="stop-color:#FAE118"/>
			<stop  offset="1" style="stop-color:#FD6729"/>
		</radialGradient>
		<path fill="url(#SVGID_30_)" d="M760.679,713.614l-12.516-17.507l17.49-12.506c9.668-6.9,23.114-4.671,30.021,5.001
			c6.9,9.647,4.664,23.091-5.011,30.001C781,725.513,767.579,723.261,760.679,713.614"/>
		
			<radialGradient id="SVGID_31_" cx="633.4063" cy="843.2188" r="27.3412" gradientTransform="matrix(0.8706 0 0 0.8706 197.019 -66.8799)" gradientUnits="userSpaceOnUse">
			<stop  offset="0" style="stop-color:#FAE118"/>
			<stop  offset="1" style="stop-color:#FD6729"/>
		</radialGradient>
		<path fill="url(#SVGID_31_)" d="M762.141,679.436l-16.62,13.68l-13.66-16.604c-7.549-9.186-6.229-22.741,2.952-30.291
			c9.162-7.539,22.723-6.213,30.272,2.963C772.642,658.359,771.299,671.901,762.141,679.436"/>
		
			<radialGradient id="SVGID_32_" cx="711.7939" cy="837.6934" r="24.8696" gradientTransform="matrix(0.8706 0 0 0.8706 197.019 -66.8799)" gradientUnits="userSpaceOnUse">
			<stop  offset="0" style="stop-color:#FAE118"/>
			<stop  offset="1" style="stop-color:#FD6729"/>
		</radialGradient>
		<path fill="url(#SVGID_32_)" d="M805.767,675.017l-12.608-14.964l14.952-12.6c8.265-6.956,20.611-5.904,27.578,2.356
			c6.949,8.256,5.89,20.597-2.376,27.56C825.048,684.336,812.723,683.263,805.767,675.017"/>
		
			<radialGradient id="SVGID_33_" cx="682.2949" cy="804.9688" r="24.8995" gradientTransform="matrix(0.8706 0 0 0.8706 197.019 -66.8799)" gradientUnits="userSpaceOnUse">
			<stop  offset="0" style="stop-color:#FAE118"/>
			<stop  offset="1" style="stop-color:#FD6729"/>
		</radialGradient>
		<path fill="url(#SVGID_33_)" d="M804.627,643.937l-14.078,13.593l-13.578-14.062c-7.509-7.783-7.295-20.165,0.482-27.668
			c7.761-7.496,20.145-7.284,27.653,0.495C812.619,624.065,812.383,636.438,804.627,643.937"/>
		
			<radialGradient id="SVGID_34_" cx="744.1533" cy="782.917" r="21.5137" gradientTransform="matrix(0.8706 0 0 0.8706 197.019 -66.8799)" gradientUnits="userSpaceOnUse">
			<stop  offset="0" style="stop-color:#FAE118"/>
			<stop  offset="1" style="stop-color:#FD6729"/>
		</radialGradient>
		<path fill="url(#SVGID_34_)" d="M837.91,628.099l-13.38-10.409l10.402-13.365c5.753-7.386,16.398-8.723,23.793-2.974
			c7.376,5.742,8.697,16.395,2.948,23.781C855.925,632.523,845.29,633.833,837.91,628.099"/>
		
			<radialGradient id="SVGID_35_" cx="712.4561" cy="761.168" r="21.436" gradientTransform="matrix(0.8706 0 0 0.8706 197.019 -66.8799)" gradientUnits="userSpaceOnUse">
			<stop  offset="0" style="stop-color:#FAE118"/>
			<stop  offset="1" style="stop-color:#FD6729"/>
		</radialGradient>
		<path fill="url(#SVGID_35_)" d="M831.343,601.968l-9.477,14.054l-14.044-9.472c-7.764-5.243-9.812-15.774-4.568-23.529
			c5.226-7.754,15.756-9.798,23.521-4.558C834.542,583.69,836.567,594.223,831.343,601.968"/>
		
			<radialGradient id="SVGID_36_" cx="767.0874" cy="736.8623" r="18.2043" gradientTransform="matrix(0.8706 0 0 0.8706 197.019 -66.8799)" gradientUnits="userSpaceOnUse">
			<stop  offset="0" style="stop-color:#FAE118"/>
			<stop  offset="1" style="stop-color:#FD6729"/>
		</radialGradient>
		<path fill="url(#SVGID_36_)" d="M860.776,587.595l-12.97-6.598l6.59-12.962c3.646-7.155,12.406-10.014,19.568-6.373
			c7.147,3.635,9.999,12.399,6.365,19.564C876.685,588.392,867.928,591.229,860.776,587.595"/>
		
			<radialGradient id="SVGID_37_" cx="735.7832" cy="723.749" r="18.0625" gradientTransform="matrix(0.8706 0 0 0.8706 197.019 -66.8799)" gradientUnits="userSpaceOnUse">
			<stop  offset="0" style="stop-color:#FAE118"/>
			<stop  offset="1" style="stop-color:#FD6729"/>
		</radialGradient>
		<path fill="url(#SVGID_37_)" d="M850.987,566.638l-5.697,13.394l-13.376-5.702c-7.398-3.153-10.842-11.699-7.694-19.092
			c3.152-7.383,11.694-10.826,19.093-7.674C850.707,550.712,854.128,559.258,850.987,566.638"/>
		
			<radialGradient id="SVGID_38_" cx="764.2109" cy="692.5215" r="18.4112" gradientTransform="matrix(0.8706 0 0 0.8706 197.019 -66.8799)" gradientUnits="userSpaceOnUse">
			<stop  offset="0" style="stop-color:#FAE118"/>
			<stop  offset="1" style="stop-color:#FD6729"/>
		</radialGradient>
		<path fill="url(#SVGID_38_)" d="M870.596,545.168l-11.995,8.243l-8.233-11.984c-4.554-6.626-2.871-15.686,3.745-20.23
			c6.62-4.547,15.672-2.867,20.226,3.76C878.897,531.571,877.204,540.626,870.596,545.168"/>
	</g>
	
		<radialGradient id="SVGID_39_" cx="475.9238" cy="942.1758" r="4.9041" gradientTransform="matrix(0.8706 0 0 0.8706 197.019 -66.8799)" gradientUnits="userSpaceOnUse">
		<stop  offset="0" style="stop-color:#FAE118"/>
		<stop  offset="1" style="stop-color:#FD6729"/>
	</radialGradient>
	<path fill="url(#SVGID_39_)" d="M607.095,753.378c0,0.07,0,0.14,0.008,0.218c0.004,0.092,0.011,0.177,0.022,0.262
		c0.011,0.055,0.015,0.11,0.021,0.167c0.008,0.069,0.022,0.14,0.037,0.213c0.015,0.071,0.033,0.138,0.048,0.207
		c0.02,0.066,0.037,0.136,0.06,0.199c0.019,0.066,0.04,0.129,0.065,0.195c0.038,0.119,0.086,0.229,0.138,0.34
		c0.099,0.199,0.206,0.398,0.332,0.584c0.036,0.054,0.081,0.113,0.117,0.164c0.041,0.057,0.09,0.111,0.13,0.16
		c0.081,0.105,0.173,0.209,0.276,0.307c0.045,0.047,0.097,0.092,0.147,0.139c0.273,0.248,0.576,0.461,0.916,0.64
		c0.052,0.025,0.103,0.048,0.158,0.076c0.044,0.016,0.092,0.038,0.137,0.057c0.052,0.025,0.104,0.048,0.154,0.063
		c0.226,0.083,0.451,0.151,0.688,0.195c0.066,0.014,0.125,0.022,0.191,0.029c0.206,0.029,0.413,0.051,0.627,0.051
		c2.362,0,4.269-1.911,4.269-4.265c0-2.361-1.906-4.272-4.269-4.272c-0.11,0-0.214,0.003-0.317,0.015
		c-0.104,0.004-0.214,0.018-0.31,0.036c-0.078,0.003-0.147,0.016-0.218,0.037c-0.104,0.019-0.196,0.032-0.281,0.066
		c-0.021,0.004-0.044,0.004-0.059,0.012c-0.104,0.029-0.211,0.07-0.321,0.105c-0.051,0.019-0.103,0.045-0.154,0.068
		c-0.059,0.025-0.118,0.051-0.177,0.069c-0.111,0.059-0.218,0.117-0.325,0.177c-0.085,0.055-0.17,0.107-0.251,0.162
		c-0.021,0.015-0.052,0.037-0.074,0.053c-0.07,0.051-0.137,0.099-0.203,0.158c-0.092,0.066-0.177,0.141-0.254,0.225
		c-0.044,0.04-0.096,0.093-0.141,0.134c-0.06,0.066-0.121,0.124-0.17,0.199c-0.059,0.066-0.113,0.126-0.17,0.199
		c-0.036,0.047-0.069,0.092-0.1,0.145c-0.162,0.234-0.298,0.482-0.408,0.748c-0.023,0.047-0.046,0.104-0.063,0.151
		c-0.026,0.081-0.055,0.158-0.081,0.239c-0.022,0.07-0.04,0.133-0.06,0.202c-0.07,0.271-0.118,0.558-0.129,0.851
		C607.095,753.227,607.095,753.3,607.095,753.378"/>
	
		<radialGradient id="SVGID_40_" cx="456.5171" cy="943.8857" r="6.1304" gradientTransform="matrix(0.8706 0 0 0.8706 197.019 -66.8799)" gradientUnits="userSpaceOnUse">
		<stop  offset="0" style="stop-color:#FAE118"/>
		<stop  offset="1" style="stop-color:#FD6729"/>
	</radialGradient>
	<path fill="url(#SVGID_40_)" d="M589.133,754.864c0,0.094,0,0.177,0.003,0.273c0.004,0.114,0.015,0.222,0.026,0.336
		c0.012,0.063,0.015,0.132,0.029,0.2c0.008,0.092,0.022,0.181,0.048,0.262c0.015,0.089,0.037,0.177,0.06,0.266
		c0.025,0.076,0.044,0.165,0.07,0.246c0.021,0.082,0.048,0.163,0.081,0.248c0.052,0.146,0.114,0.288,0.177,0.427
		c0.118,0.245,0.258,0.492,0.417,0.725c0.041,0.07,0.096,0.14,0.144,0.206c0.052,0.075,0.104,0.141,0.159,0.204
		c0.103,0.133,0.218,0.257,0.347,0.379c0.056,0.06,0.114,0.117,0.185,0.174c0.343,0.31,0.728,0.579,1.144,0.801
		c0.066,0.028,0.133,0.063,0.195,0.092c0.06,0.025,0.118,0.056,0.177,0.069c0.067,0.034,0.126,0.063,0.196,0.085
		c0.277,0.104,0.561,0.186,0.853,0.24c0.081,0.019,0.159,0.027,0.239,0.037c0.259,0.037,0.521,0.066,0.787,0.066
		c2.944,0,5.339-2.391,5.339-5.336c0-2.952-2.395-5.339-5.339-5.339c-0.137,0-0.267,0.003-0.399,0.015
		c-0.129,0.016-0.266,0.033-0.388,0.048c-0.092,0.004-0.184,0.025-0.272,0.053c-0.126,0.018-0.24,0.036-0.351,0.077
		c-0.026,0.006-0.052,0.006-0.073,0.021c-0.133,0.034-0.267,0.078-0.396,0.133c-0.07,0.019-0.129,0.048-0.196,0.078
		c-0.077,0.032-0.144,0.066-0.221,0.089c-0.141,0.073-0.272,0.147-0.405,0.224c-0.115,0.063-0.215,0.126-0.313,0.196
		c-0.033,0.021-0.066,0.048-0.093,0.069c-0.089,0.06-0.174,0.126-0.259,0.201c-0.106,0.079-0.214,0.177-0.317,0.275
		c-0.059,0.056-0.118,0.111-0.173,0.17c-0.078,0.081-0.155,0.154-0.218,0.239c-0.074,0.085-0.141,0.17-0.207,0.255
		c-0.048,0.06-0.088,0.123-0.126,0.189c-0.206,0.287-0.372,0.6-0.508,0.93c-0.03,0.058-0.057,0.124-0.078,0.19
		c-0.04,0.097-0.073,0.201-0.106,0.296c-0.026,0.085-0.045,0.17-0.07,0.255c-0.092,0.344-0.148,0.694-0.163,1.06
		C589.133,754.681,589.133,754.772,589.133,754.864"/>
	
		<radialGradient id="SVGID_41_" cx="434.0342" cy="944.6279" r="7.3562" gradientTransform="matrix(0.8706 0 0 0.8706 197.019 -66.8799)" gradientUnits="userSpaceOnUse">
		<stop  offset="0" style="stop-color:#FAE118"/>
		<stop  offset="1" style="stop-color:#FD6729"/>
	</radialGradient>
	<path fill="url(#SVGID_41_)" d="M568.49,755.511c0,0.113,0,0.218,0,0.331c0.008,0.138,0.023,0.268,0.037,0.399
		c0.015,0.077,0.022,0.162,0.03,0.24c0.018,0.11,0.033,0.214,0.062,0.313c0.016,0.107,0.045,0.215,0.071,0.314
		c0.025,0.103,0.055,0.21,0.088,0.307c0.022,0.099,0.059,0.195,0.097,0.294c0.059,0.17,0.132,0.344,0.214,0.507
		c0.14,0.298,0.302,0.594,0.497,0.874c0.052,0.081,0.115,0.17,0.174,0.255c0.06,0.076,0.129,0.162,0.188,0.231
		c0.13,0.163,0.266,0.317,0.417,0.463c0.066,0.072,0.14,0.139,0.222,0.205c0.409,0.369,0.871,0.694,1.372,0.964
		c0.082,0.036,0.159,0.07,0.236,0.111c0.066,0.025,0.141,0.058,0.21,0.085c0.078,0.032,0.156,0.069,0.229,0.095
		c0.341,0.13,0.684,0.225,1.034,0.291c0.092,0.022,0.188,0.03,0.28,0.041c0.31,0.049,0.627,0.081,0.948,0.081
		c3.535,0,6.405-2.87,6.405-6.401c0-3.539-2.87-6.405-6.405-6.405c-0.166,0-0.321,0.003-0.479,0.019
		c-0.159,0.014-0.317,0.035-0.469,0.055c-0.111,0.012-0.218,0.033-0.325,0.059c-0.15,0.026-0.291,0.048-0.42,0.104
		c-0.033,0-0.063,0.003-0.089,0.014c-0.158,0.044-0.317,0.104-0.48,0.166c-0.072,0.025-0.15,0.06-0.229,0.092
		c-0.092,0.038-0.173,0.075-0.27,0.104c-0.162,0.092-0.323,0.173-0.486,0.273c-0.133,0.076-0.251,0.154-0.376,0.236
		c-0.033,0.025-0.071,0.055-0.111,0.08c-0.104,0.074-0.203,0.147-0.302,0.236c-0.133,0.1-0.263,0.218-0.381,0.336
		c-0.073,0.066-0.151,0.137-0.211,0.206c-0.095,0.097-0.184,0.188-0.262,0.288c-0.092,0.1-0.169,0.2-0.247,0.308
		c-0.059,0.069-0.106,0.139-0.155,0.221c-0.242,0.351-0.446,0.723-0.611,1.114c-0.03,0.078-0.066,0.154-0.089,0.232
		c-0.052,0.117-0.089,0.24-0.126,0.357c-0.033,0.1-0.063,0.198-0.088,0.303c-0.11,0.409-0.177,0.831-0.2,1.273
		C568.49,755.289,568.49,755.4,568.49,755.511"/>
	
		<radialGradient id="SVGID_42_" cx="380.2427" cy="956.8818" r="9.8071" gradientTransform="matrix(0.8706 0 0 0.8706 197.019 -66.8799)" gradientUnits="userSpaceOnUse">
		<stop  offset="0" style="stop-color:#FAE118"/>
		<stop  offset="1" style="stop-color:#FD6729"/>
	</radialGradient>
	<path fill="url(#SVGID_42_)" d="M519.523,766.183c0,0.15,0,0.283,0,0.435c0.009,0.188,0.028,0.357,0.049,0.53
		c0.019,0.107,0.022,0.224,0.039,0.325c0.021,0.147,0.046,0.292,0.083,0.422c0.026,0.14,0.063,0.287,0.093,0.42
		c0.036,0.133,0.073,0.277,0.118,0.403c0.031,0.136,0.077,0.265,0.133,0.391c0.072,0.231,0.173,0.468,0.276,0.682
		c0.188,0.403,0.414,0.789,0.664,1.155c0.076,0.122,0.158,0.236,0.236,0.347c0.081,0.11,0.17,0.218,0.258,0.317
		c0.162,0.211,0.344,0.417,0.55,0.609c0.082,0.095,0.188,0.184,0.3,0.28c0.542,0.49,1.154,0.927,1.826,1.277
		c0.103,0.047,0.21,0.099,0.313,0.147c0.089,0.036,0.188,0.083,0.281,0.114c0.103,0.047,0.206,0.095,0.309,0.133
		c0.447,0.17,0.9,0.294,1.374,0.384c0.121,0.032,0.25,0.039,0.375,0.058c0.413,0.06,0.834,0.101,1.259,0.101
		c4.724,0,8.546-3.822,8.546-8.53c0-4.725-3.822-8.54-8.546-8.54c-0.218,0-0.425,0.004-0.631,0.019
		c-0.215,0.022-0.421,0.048-0.628,0.078c-0.146,0.007-0.29,0.036-0.435,0.073c-0.199,0.038-0.384,0.066-0.561,0.133
		c-0.037,0.012-0.082,0.016-0.123,0.025c-0.202,0.068-0.416,0.138-0.631,0.223c-0.103,0.032-0.206,0.073-0.309,0.118
		c-0.118,0.056-0.233,0.104-0.362,0.147c-0.218,0.122-0.428,0.233-0.649,0.354c-0.17,0.11-0.332,0.211-0.491,0.318
		c-0.059,0.037-0.11,0.073-0.151,0.11c-0.14,0.101-0.276,0.202-0.409,0.321c-0.177,0.133-0.351,0.284-0.509,0.442
		c-0.093,0.085-0.192,0.177-0.277,0.273c-0.125,0.126-0.247,0.254-0.351,0.388c-0.118,0.133-0.222,0.269-0.328,0.401
		c-0.078,0.101-0.145,0.192-0.206,0.299c-0.325,0.465-0.596,0.966-0.813,1.492c-0.044,0.102-0.092,0.202-0.124,0.309
		c-0.064,0.155-0.118,0.316-0.167,0.468c-0.045,0.138-0.082,0.267-0.118,0.413c-0.143,0.539-0.235,1.101-0.264,1.695
		C519.523,765.89,519.523,766.03,519.523,766.183"/>
	
		<radialGradient id="SVGID_43_" cx="354.0771" cy="968.5352" r="11.0374" gradientTransform="matrix(0.8706 0 0 0.8706 197.019 -66.8799)" gradientUnits="userSpaceOnUse">
		<stop  offset="0" style="stop-color:#FAE118"/>
		<stop  offset="1" style="stop-color:#FD6729"/>
	</radialGradient>
	<path fill="url(#SVGID_43_)" d="M495.675,776.321c0,0.174,0,0.325,0,0.491c0.01,0.215,0.033,0.405,0.059,0.601
		c0.018,0.119,0.026,0.252,0.043,0.362c0.021,0.17,0.05,0.331,0.094,0.476c0.025,0.162,0.068,0.325,0.102,0.473
		c0.042,0.152,0.085,0.31,0.129,0.458c0.037,0.151,0.093,0.291,0.151,0.436c0.087,0.265,0.199,0.53,0.317,0.77
		c0.207,0.451,0.462,0.89,0.746,1.303c0.083,0.135,0.175,0.267,0.268,0.388c0.09,0.119,0.188,0.243,0.282,0.359
		c0.185,0.23,0.393,0.467,0.623,0.682c0.089,0.11,0.213,0.207,0.336,0.314c0.608,0.553,1.301,1.044,2.055,1.438
		c0.118,0.056,0.238,0.114,0.35,0.167c0.108,0.04,0.215,0.098,0.322,0.129c0.114,0.055,0.231,0.107,0.347,0.151
		c0.506,0.195,1.016,0.328,1.542,0.427c0.139,0.044,0.281,0.053,0.423,0.066c0.467,0.078,0.943,0.119,1.419,0.119
		c5.311,0,9.612-4.303,9.612-9.609c0-5.316-4.302-9.608-9.612-9.608c-0.243,0-0.476,0-0.716,0.025
		c-0.236,0.015-0.472,0.049-0.703,0.081c-0.162,0.013-0.324,0.045-0.486,0.086c-0.222,0.044-0.43,0.078-0.635,0.15
		c-0.043,0.013-0.089,0.02-0.133,0.029c-0.227,0.075-0.473,0.156-0.711,0.248c-0.115,0.038-0.232,0.085-0.347,0.137
		c-0.136,0.063-0.262,0.11-0.405,0.166c-0.246,0.133-0.486,0.259-0.73,0.395c-0.195,0.123-0.38,0.236-0.562,0.357
		c-0.062,0.041-0.114,0.085-0.166,0.129c-0.158,0.107-0.309,0.223-0.458,0.355c-0.204,0.151-0.396,0.321-0.571,0.498
		c-0.108,0.099-0.218,0.199-0.318,0.31c-0.142,0.14-0.274,0.284-0.391,0.436c-0.135,0.151-0.251,0.299-0.366,0.45
		c-0.093,0.114-0.165,0.215-0.235,0.339c-0.365,0.525-0.671,1.09-0.917,1.671c-0.046,0.126-0.104,0.233-0.135,0.362
		c-0.073,0.163-0.132,0.347-0.195,0.524c-0.044,0.15-0.087,0.299-0.129,0.462c-0.158,0.604-0.264,1.239-0.297,1.906
		C495.675,775.993,495.675,776.155,495.675,776.321"/>
	
		<radialGradient id="SVGID_44_" cx="332.0029" cy="988.9746" r="12.2639" gradientTransform="matrix(0.8706 0 0 0.8706 197.019 -66.8799)" gradientUnits="userSpaceOnUse">
		<stop  offset="0" style="stop-color:#FAE118"/>
		<stop  offset="1" style="stop-color:#FD6729"/>
	</radialGradient>
	<path fill="url(#SVGID_44_)" d="M475.389,794.118c0,0.195,0,0.361,0,0.545c0.012,0.236,0.039,0.451,0.064,0.669
		c0.021,0.129,0.028,0.28,0.051,0.402c0.021,0.185,0.054,0.364,0.103,0.521c0.03,0.184,0.074,0.364,0.113,0.534
		c0.046,0.163,0.092,0.34,0.142,0.505c0.041,0.167,0.1,0.325,0.164,0.484c0.104,0.295,0.228,0.59,0.353,0.855
		c0.232,0.502,0.519,0.99,0.834,1.447c0.093,0.147,0.192,0.294,0.291,0.432c0.105,0.129,0.211,0.272,0.317,0.398
		c0.207,0.258,0.437,0.517,0.694,0.76c0.099,0.119,0.236,0.227,0.375,0.351c0.677,0.613,1.444,1.156,2.285,1.595
		c0.126,0.058,0.263,0.129,0.388,0.184c0.113,0.048,0.238,0.107,0.354,0.147c0.125,0.06,0.252,0.119,0.383,0.167
		c0.565,0.218,1.124,0.365,1.721,0.477c0.148,0.044,0.308,0.058,0.465,0.072c0.518,0.086,1.048,0.13,1.579,0.13
		c5.896,0,10.679-4.782,10.679-10.675c0-5.911-4.782-10.679-10.679-10.679c-0.271,0-0.531,0-0.794,0.028
		c-0.268,0.02-0.531,0.057-0.785,0.094c-0.183,0.007-0.358,0.048-0.543,0.092c-0.245,0.045-0.473,0.085-0.704,0.17
		c-0.045,0.014-0.095,0.022-0.145,0.029c-0.255,0.085-0.525,0.17-0.794,0.277c-0.131,0.041-0.258,0.095-0.383,0.147
		c-0.149,0.07-0.292,0.13-0.451,0.184c-0.271,0.151-0.542,0.293-0.811,0.444c-0.221,0.133-0.423,0.269-0.624,0.401
		c-0.068,0.044-0.13,0.088-0.183,0.136c-0.176,0.122-0.348,0.252-0.51,0.396c-0.229,0.168-0.44,0.356-0.634,0.556
		c-0.124,0.11-0.246,0.218-0.354,0.34c-0.158,0.158-0.304,0.321-0.438,0.486c-0.146,0.17-0.277,0.337-0.41,0.502
		c-0.099,0.126-0.173,0.233-0.258,0.378c-0.407,0.583-0.743,1.21-1.019,1.854c-0.048,0.138-0.114,0.262-0.147,0.403
		c-0.085,0.18-0.147,0.384-0.218,0.583c-0.05,0.17-0.096,0.331-0.142,0.512c-0.18,0.672-0.292,1.374-0.331,2.119
		C475.389,793.752,475.389,793.929,475.389,794.118"/>
	
		<radialGradient id="SVGID_45_" cx="315.2437" cy="1021.4717" r="13.4907" gradientTransform="matrix(0.8706 0 0 0.8706 197.019 -66.8799)" gradientUnits="userSpaceOnUse">
		<stop  offset="0" style="stop-color:#FAE118"/>
		<stop  offset="1" style="stop-color:#FD6729"/>
	</radialGradient>
	<path fill="url(#SVGID_45_)" d="M459.73,822.409c0,0.217,0,0.4,0,0.6c0.006,0.264,0.039,0.495,0.064,0.734
		c0.024,0.145,0.033,0.307,0.06,0.447c0.022,0.199,0.059,0.401,0.112,0.571c0.035,0.204,0.083,0.403,0.128,0.583
		c0.047,0.186,0.098,0.376,0.151,0.562c0.046,0.181,0.113,0.357,0.185,0.53c0.111,0.325,0.25,0.646,0.387,0.939
		c0.253,0.552,0.566,1.091,0.919,1.593c0.1,0.158,0.208,0.325,0.321,0.473c0.11,0.143,0.229,0.306,0.345,0.442
		c0.227,0.283,0.481,0.564,0.764,0.835c0.107,0.132,0.264,0.246,0.413,0.388c0.742,0.67,1.583,1.269,2.516,1.755
		c0.138,0.063,0.287,0.138,0.424,0.2c0.125,0.048,0.262,0.121,0.39,0.162c0.136,0.063,0.282,0.125,0.424,0.185
		c0.618,0.235,1.238,0.398,1.892,0.521c0.162,0.051,0.335,0.062,0.511,0.083c0.567,0.094,1.152,0.142,1.736,0.142
		c6.483,0,11.749-5.263,11.749-11.744c0-6.503-5.266-11.745-11.749-11.745c-0.297,0-0.584,0-0.871,0.036
		c-0.298,0.015-0.585,0.056-0.865,0.1c-0.199,0.007-0.396,0.048-0.597,0.099c-0.271,0.053-0.52,0.094-0.774,0.186
		c-0.05,0.022-0.104,0.029-0.159,0.038c-0.28,0.092-0.58,0.184-0.872,0.297c-0.142,0.053-0.288,0.107-0.424,0.167
		c-0.167,0.081-0.325,0.136-0.493,0.202c-0.3,0.167-0.598,0.324-0.896,0.488c-0.236,0.143-0.463,0.294-0.685,0.441
		c-0.07,0.048-0.145,0.101-0.201,0.151c-0.192,0.133-0.38,0.274-0.557,0.436c-0.255,0.186-0.489,0.392-0.701,0.608
		c-0.138,0.126-0.266,0.24-0.388,0.378c-0.176,0.174-0.334,0.354-0.483,0.537c-0.159,0.186-0.303,0.366-0.446,0.551
		c-0.113,0.137-0.198,0.25-0.288,0.413c-0.446,0.642-0.813,1.328-1.118,2.037c-0.056,0.155-0.129,0.288-0.17,0.442
		c-0.089,0.199-0.155,0.429-0.235,0.643c-0.054,0.188-0.104,0.369-0.151,0.564c-0.197,0.738-0.325,1.512-0.364,2.328
		C459.73,822.006,459.73,822.204,459.73,822.409"/>
	
		<radialGradient id="SVGID_46_" cx="315.2427" cy="1056.0107" r="14.7153" gradientTransform="matrix(0.8706 0 0 0.8706 197.019 -66.8799)" gradientUnits="userSpaceOnUse">
		<stop  offset="0" style="stop-color:#FAE118"/>
		<stop  offset="1" style="stop-color:#FD6729"/>
	</radialGradient>
	<path fill="url(#SVGID_46_)" d="M458.663,852.481c0,0.234,0,0.436,0,0.653c0.007,0.287,0.044,0.542,0.069,0.799
		c0.029,0.156,0.037,0.34,0.063,0.488c0.026,0.218,0.066,0.438,0.126,0.62c0.037,0.229,0.092,0.439,0.137,0.638
		c0.055,0.199,0.11,0.41,0.165,0.612c0.052,0.199,0.124,0.392,0.202,0.583c0.123,0.354,0.271,0.701,0.422,1.022
		c0.279,0.599,0.62,1.188,1,1.737c0.112,0.174,0.228,0.355,0.351,0.514c0.126,0.158,0.252,0.335,0.38,0.483
		c0.246,0.31,0.521,0.62,0.834,0.911c0.118,0.145,0.284,0.266,0.451,0.425c0.809,0.727,1.727,1.379,2.739,1.911
		c0.149,0.07,0.319,0.151,0.467,0.222c0.133,0.051,0.283,0.129,0.421,0.177c0.151,0.066,0.31,0.133,0.465,0.198
		c0.675,0.263,1.35,0.436,2.063,0.568c0.177,0.057,0.369,0.068,0.56,0.094c0.617,0.099,1.254,0.151,1.895,0.151
		c7.073,0,12.814-5.742,12.814-12.808c0-7.096-5.741-12.815-12.814-12.815c-0.327,0-0.641,0-0.954,0.037
		c-0.323,0.019-0.637,0.066-0.94,0.11c-0.221,0.007-0.434,0.051-0.652,0.107c-0.297,0.055-0.568,0.099-0.844,0.199
		c-0.056,0.025-0.113,0.037-0.177,0.044c-0.304,0.101-0.629,0.202-0.949,0.325c-0.155,0.059-0.313,0.122-0.465,0.184
		c-0.174,0.088-0.348,0.147-0.537,0.214c-0.324,0.186-0.651,0.362-0.976,0.536c-0.259,0.161-0.506,0.324-0.747,0.486
		c-0.08,0.052-0.153,0.106-0.217,0.163c-0.212,0.143-0.419,0.299-0.612,0.479c-0.275,0.198-0.529,0.42-0.764,0.659
		c-0.149,0.142-0.292,0.262-0.421,0.41c-0.191,0.192-0.367,0.388-0.531,0.587c-0.17,0.203-0.325,0.402-0.487,0.602
		c-0.123,0.151-0.212,0.277-0.313,0.45c-0.486,0.701-0.887,1.454-1.22,2.221c-0.057,0.174-0.139,0.315-0.181,0.488
		c-0.102,0.213-0.171,0.461-0.261,0.7c-0.055,0.203-0.11,0.398-0.165,0.612c-0.218,0.805-0.351,1.653-0.395,2.542
		C458.663,852.038,458.663,852.259,458.663,852.481"/>
	
		<radialGradient id="SVGID_47_" cx="336.2197" cy="1086.4658" r="15.9426" gradientTransform="matrix(0.8706 0 0 0.8706 197.019 -66.8799)" gradientUnits="userSpaceOnUse">
		<stop  offset="0" style="stop-color:#FAE118"/>
		<stop  offset="1" style="stop-color:#FD6729"/>
	</radialGradient>
	<path fill="url(#SVGID_47_)" d="M475.857,878.992c0,0.252,0,0.47,0,0.709c0.008,0.31,0.049,0.587,0.078,0.867
		c0.029,0.165,0.038,0.366,0.068,0.527c0.021,0.236,0.072,0.473,0.132,0.672c0.043,0.243,0.102,0.476,0.15,0.693
		c0.059,0.218,0.118,0.442,0.185,0.656c0.055,0.218,0.129,0.429,0.218,0.636c0.127,0.383,0.289,0.764,0.452,1.107
		c0.306,0.647,0.673,1.287,1.086,1.884c0.12,0.186,0.249,0.381,0.38,0.555c0.133,0.177,0.27,0.362,0.412,0.523
		c0.264,0.337,0.563,0.668,0.902,0.984c0.129,0.16,0.306,0.293,0.486,0.459c0.877,0.793,1.873,1.498,2.971,2.08
		c0.162,0.071,0.34,0.163,0.504,0.232c0.146,0.06,0.308,0.145,0.459,0.189c0.162,0.076,0.334,0.151,0.5,0.218
		c0.731,0.283,1.463,0.476,2.234,0.618c0.193,0.057,0.4,0.075,0.605,0.101c0.671,0.107,1.361,0.167,2.053,0.167
		c7.665,0,13.884-6.222,13.884-13.879c0-7.689-6.219-13.88-13.884-13.88c-0.352,0-0.691,0-1.031,0.035
		c-0.351,0.022-0.691,0.07-1.021,0.123c-0.236,0.007-0.467,0.06-0.705,0.117c-0.321,0.06-0.616,0.107-0.917,0.214
		c-0.06,0.025-0.119,0.034-0.188,0.048c-0.33,0.107-0.683,0.218-1.029,0.355c-0.166,0.058-0.338,0.129-0.5,0.195
		c-0.191,0.096-0.38,0.162-0.585,0.236c-0.354,0.199-0.705,0.383-1.059,0.578c-0.28,0.17-0.547,0.351-0.807,0.518
		c-0.084,0.065-0.169,0.125-0.235,0.185c-0.229,0.155-0.451,0.325-0.665,0.512c-0.299,0.218-0.576,0.466-0.822,0.725
		c-0.167,0.146-0.319,0.284-0.462,0.442c-0.208,0.205-0.395,0.416-0.572,0.634c-0.188,0.215-0.354,0.433-0.527,0.649
		c-0.131,0.164-0.229,0.3-0.339,0.488c-0.529,0.76-0.963,1.571-1.321,2.409c-0.063,0.185-0.151,0.342-0.195,0.527
		c-0.11,0.233-0.188,0.498-0.28,0.757c-0.066,0.221-0.126,0.436-0.185,0.663c-0.233,0.87-0.38,1.79-0.429,2.757
		C475.857,878.51,475.857,878.749,475.857,878.992"/>
</g>
<g>
	
		<radialGradient id="SVGID_48_" cx="397.0244" cy="462.5918" r="211.9053" gradientTransform="matrix(0.8706 0 0 0.8706 197.019 -66.8799)" gradientUnits="userSpaceOnUse">
		<stop  offset="0" style="stop-color:#FAE118"/>
		<stop  offset="1" style="stop-color:#FD6729"/>
	</radialGradient>
	<path fill-rule="evenodd" clip-rule="evenodd" fill="url(#SVGID_48_)" d="M366.896,391.2c1.992-7.305,3.782-14.674,6.052-21.896
		c1.365-4.356,0.944-8.018-1.661-11.773c-4.097-5.916-7.785-12.11-11.855-18.036c-1.741-2.539-1.892-4.439-0.006-7.089
		c4.166-5.859,7.773-12.113,11.888-18.018c2.62-3.76,3.077-7.446,1.701-11.782c-2.125-6.672-3.68-13.52-5.819-20.184
		c-1.011-3.141-0.044-4.871,2.365-6.716c5.869-4.482,11.517-9.247,17.328-13.796c2.707-2.111,4.041-4.616,4.369-8.147
		c0.596-6.608,1.227-13.224,0.874-19.841c-0.284-5.354,1.47-8.365,6.9-9.877c6.358-1.775,12.421-4.616,18.697-6.724
		c3.585-1.204,5.624-3.49,6.86-6.929c2.435-6.771,5.138-13.446,7.514-20.236c1.083-3.092,2.766-4.554,6.172-4.627
		c7.188-0.151,14.361-0.904,21.54-0.962c4.249-0.034,7.095-1.706,9.527-5.012c3.819-5.178,8.101-10.021,11.81-15.269
		c2.823-4.008,5.793-5.093,10.579-3.406c6.406,2.258,13.167,3.52,19.686,5.502c3.636,1.107,6.493,0.369,9.524-1.787
		c5.396-3.841,11.144-7.181,16.554-11.003c3.712-2.615,6.815-2.974,10.723-0.073c5.768,4.276,12.036,7.878,18.011,11.877
		c2.398,1.614,4.753,1.898,7.513,1.094c7.273-2.108,14.635-3.919,21.893-6.082c3.384-1.004,5.697-0.303,7.826,2.579
		c4.056,5.478,8.491,10.665,12.605,16.096c2.834,3.737,6.177,5.595,11.084,5.523c6.605-0.096,13.215,0.79,19.827,0.895
		c3.553,0.058,5.553,1.331,6.716,4.73c2.141,6.268,4.789,12.366,6.889,18.645c1.646,4.923,4.757,7.814,9.672,9.364
		c5.956,1.879,11.719,4.351,17.646,6.332c3.944,1.321,5.693,3.602,5.705,7.922c0.014,6.995,0.822,13.98,0.937,20.975
		c0.063,3.813,1.649,6.401,4.538,8.615c5.41,4.15,10.576,8.626,16.114,12.59c3.263,2.331,4.284,4.637,3.022,8.597
		c-2.185,6.845-3.701,13.899-5.712,20.808c-0.981,3.369-0.553,6.226,1.406,9.125c3.911,5.808,7.494,11.845,11.501,17.582
		c2.396,3.436,2.547,6.42,0.133,9.86c-3.801,5.424-7.239,11.106-11.077,16.497c-2.66,3.733-3.107,7.427-1.73,11.77
		c1.996,6.317,3.351,12.838,5.387,19.14c1.226,3.794,0.721,6.272-2.711,8.69c-5.569,3.918-10.694,8.449-16.122,12.567
		c-3.085,2.337-4.505,5.118-4.808,9.096c-0.528,6.988-1.078,13.974-0.916,20.973c0.085,3.979-1.336,6.307-5.269,7.539
		c-4.871,1.524-9.443,4.106-14.376,5.292c-8.021,1.922-12.69,6.412-14.693,14.476c-1.325,5.283-3.89,10.253-5.787,15.405
		c-0.98,2.659-2.719,3.703-5.541,3.933c-6.982,0.546-13.955,1.401-20.967,1.019c-4.66-0.255-7.923,1.597-10.646,5.191
		c-4.231,5.579-8.763,10.934-12.947,16.554c-2,2.678-4.125,3.39-7.324,2.457c-7.085-2.075-14.313-3.656-21.357-5.863
		c-3.646-1.151-6.495-0.628-9.524,1.523c-5.24,3.728-10.885,6.919-15.974,10.826c-4.307,3.306-7.919,3.287-12.218,0.104
		c-5.003-3.721-10.538-6.73-15.527-10.47c-3.594-2.693-7.044-2.93-11.139-1.675c-6.335,1.948-12.829,3.358-19.136,5.377
		c-3.792,1.205-6.432,0.574-8.871-2.64c-4.228-5.575-8.907-10.814-13.099-16.405c-2.631-3.501-5.72-5.128-10.132-4.983
		c-6.999,0.228-13.988-0.277-20.973-0.961c-3.325-0.319-5.148-1.59-6.206-4.687c-2.093-6.084-4.735-11.998-6.525-18.172
		c-1.61-5.563-5.059-8.328-10.412-9.937c-6.153-1.849-12.048-4.546-18.133-6.63c-3.17-1.085-4.492-2.982-4.561-6.278
		c-0.133-7.156-0.466-14.297-1.066-21.445c-0.395-4.73-2.074-7.679-5.631-10.347c-5.428-4.081-10.609-8.486-15.925-12.719
		C368.096,394.659,366.535,393.533,366.896,391.2z M618.771,461.999c4.284,0,7.158-0.262,9.962,0.06
		c5.008,0.571,7.145-1.739,8.126-6.421c1.162-5.55,2.996-10.952,4.421-16.446c0.753-2.897,2.476-4.424,5.376-5.118
		c5.701-1.361,11.303-3.232,17.044-4.383c4.716-0.94,6.226-3.454,5.771-7.982c-0.524-5.261-0.583-10.57-1.106-15.84
		c-0.451-4.488,1.099-7.545,5.092-9.774c4.627-2.576,8.974-5.646,13.52-8.372c3.447-2.075,4.612-4.668,2.934-8.55
		c-2.174-5.037-3.955-10.247-6.162-15.27c-1.805-4.081-1.609-7.33,1.728-10.767c3.933-4.056,7.177-8.781,10.808-13.139
		c2.25-2.69,2.729-4.952,0.018-7.875c-3.988-4.288-7.442-9.066-11.229-13.542c-2.567-3.037-3.28-6.018-1.523-9.877
		c2.424-5.329,4.202-10.952,6.438-16.38c1.321-3.188,0.539-5.402-2.303-7.199c-4.789-3.051-9.395-6.409-14.306-9.238
		c-3.974-2.289-5.468-5.314-5.021-9.802c0.567-5.638,0.683-11.324,1.129-16.977c0.288-3.673-1.259-5.557-4.842-6.385
		c-5.534-1.28-10.929-3.176-16.486-4.283c-4.591-0.911-6.778-3.476-7.73-7.827c-1.141-5.172-2.712-10.25-3.86-15.427
		c-0.882-3.993-3.051-5.819-7.184-5.517c-6.033,0.444-12.084,0.69-18.117,1.104c-3.373,0.229-5.643-0.966-7.414-4.008
		c-2.955-5.062-6.538-9.755-9.483-14.817c-1.988-3.428-4.195-4.344-7.907-2.797c-5.764,2.397-11.719,4.324-17.501,6.692
		c-2.819,1.155-4.901,0.795-7.222-1.188c-4.602-3.929-9.605-7.39-14.133-11.404c-3.262-2.886-5.752-3.409-9.155-0.092
		c-3.782,3.685-8.276,6.62-12.231,10.131c-3.477,3.09-6.815,4.1-11.28,1.864c-4.037-2.025-8.718-2.792-12.683-4.921
		c-5.838-3.141-9.631-1.731-12.199,4.024c-5.896,13.242-14.922,20.331-30.103,15.476c-0.174-0.06-0.377-0.016-0.568-0.02
		c-8.393-0.236-9.732-0.265-10.575,8.148c-1.534,15.254-9.351,22.221-24.147,24.228c-9.266,1.255-9.17,2.409-7.93,11.9
		c0.122,0.938,0.256,1.874,0.4,2.808c1.574,10.092,0.434,18.844-10.861,22.899c-1.728,0.62-3.122,2.109-4.73,3.118
		c-7.576,4.744-8.602,5.377-4.292,12.893c7.572,13.21,5.584,23.611-5.223,33.933c-6.187,5.907-5.489,6.637-0.075,13.198
		c0.243,0.294,0.47,0.605,0.749,0.855c9.794,8.823,12.464,18.218,5.446,30.723c-5.159,9.18-3.635,9.351,5.059,15.579
		c16.712,11.965,14.313,5.018,13.922,25.387c-0.239,12.836-0.644,13.396,11.998,15.791c10.396,1.967,16.362,6.178,18.363,17.55
		c2.371,13.497,3.579,14.357,17.23,12.833c11.608-1.298,17.685,3.029,23.197,12.604c7.38,12.804,5.094,11.564,18.011,6.199
		c1.044-0.432,2.247-0.602,3.184-1.188c8.473-5.291,15.052-2.73,22.078,3.643c10.785,9.801,11.804,10.073,22.35,0.505
		c8.498-7.715,15.992-8.114,25.87-3.334c11.664,5.648,12.395,5.268,18.896-6.26C603.339,464.814,608.889,458.43,618.771,461.999z"/>
	
		<radialGradient id="SVGID_49_" cx="493.543" cy="739.627" r="90.1913" gradientTransform="matrix(0.8706 0 0 0.8706 197.019 -66.8799)" gradientUnits="userSpaceOnUse">
		<stop  offset="0" style="stop-color:#FAE118"/>
		<stop  offset="1" style="stop-color:#FD6729"/>
	</radialGradient>
	<path fill-rule="evenodd" clip-rule="evenodd" fill="url(#SVGID_49_)" d="M571.295,509.2c8.83,2.416,16.927,4.394,24.856,6.906
		c4.313,1.366,7.021,0.4,9.619-3.224c3.971-5.528,8.498-10.646,12.605-16.077c2.853-3.771,6.283-5.818,11.146-5.344
		c2.244,0.219,4.535-0.011,6.805-0.045c10.388-0.151,10.457-0.18,13.952,9.912c15.287,44.164,30.537,88.343,45.759,132.533
		c0.583,1.701,2.222,3.802,0.731,5.272c-1.58,1.569-3.543-0.408-5.159-1.055c-17.398-6.944-34.818-13.845-52.059-21.169
		c-4.789-2.037-7.413-1.114-10.165,3.062c-8.742,13.271-17.76,26.358-26.723,39.475c-0.89,1.303-1.325,3.643-3.417,3.182
		c-1.646-0.358-1.421-2.487-1.842-3.879c-10.376-34.22-20.719-68.457-31.059-102.692c-3.221-10.676-6.198-21.427-9.716-32.007
		c-1.347-4.065-0.476-6.408,3.151-8.278C563.9,513.644,567.114,509.786,571.295,509.2z"/>
	
		<radialGradient id="SVGID_50_" cx="299.8564" cy="739.7695" r="92.9366" gradientTransform="matrix(0.8706 0 0 0.8706 197.019 -66.8799)" gradientUnits="userSpaceOnUse">
		<stop  offset="0" style="stop-color:#FAE118"/>
		<stop  offset="1" style="stop-color:#FD6729"/>
	</radialGradient>
	<path fill-rule="evenodd" clip-rule="evenodd" fill="url(#SVGID_50_)" d="M453.112,491.703c6.878-1.365,11.637,1.173,15.491,6.9
		c3.682,5.466,8.446,10.193,12.421,15.492c2.077,2.771,4.276,3.188,7.35,2.27c6.166-1.852,12.482-3.232,18.568-5.298
		c5.919-2.012,10.824-1.177,15.911,2.557c12.984,9.524,12.604,4.719,6.479,20.619c-16.079,41.682-32.253,83.332-48.422,124.979
		c-0.581,1.505-0.566,3.838-2.593,4.026c-2.029,0.184-2.412-2.111-3.221-3.506c-7.981-13.756-16.118-27.427-23.737-41.375
		c-2.384-4.368-4.705-4.7-9.017-3.209c-17.714,6.139-35.538,11.954-53.352,17.803c-1.853,0.605-4.133,2.564-5.74,0.665
		c-1.492-1.765,0.5-3.941,1.281-5.738c10.679-24.675,21.455-49.305,32.206-73.941c7.87-18.045,15.891-36.033,23.529-54.171
		C442.821,493.706,445.79,489.37,453.112,491.703z"/>
	
		<radialGradient id="SVGID_51_" cx="397.73" cy="462.6689" r="137.7158" gradientTransform="matrix(0.8706 0 0 0.8706 197.019 -66.8799)" gradientUnits="userSpaceOnUse">
		<stop  offset="0" style="stop-color:#FAE118"/>
		<stop  offset="1" style="stop-color:#FD6729"/>
	</radialGradient>
	<path fill-rule="evenodd" clip-rule="evenodd" fill="url(#SVGID_51_)" d="M663.187,335.919
		c0,66.211-53.678,119.893-119.895,119.893c-66.218,0-119.9-53.682-119.9-119.893c0-66.215,53.683-119.896,119.9-119.896
		C609.509,216.023,663.187,269.704,663.187,335.919z"/>
</g>
</svg>
