<?xml version="1.0" encoding="utf-8"?>
<!-- Generator: Adobe Illustrator 16.0.0, SVG Export Plug-In . SVG Version: 6.00 Build 0)  -->
<!DOCTYPE svg PUBLIC "-//W3C//DTD SVG 1.1//EN" "http://www.w3.org/Graphics/SVG/1.1/DTD/svg11.dtd">
<svg version="1.1" id="Capa_1" xmlns="http://www.w3.org/2000/svg" xmlns:xlink="http://www.w3.org/1999/xlink" x="0px" y="0px"
	 width="1080px" height="1080px" viewBox="0 0 1080 1080" enable-background="new 0 0 1080 1080" xml:space="preserve">
<g>
	<g>
		<defs>
			<path id="SVGID_1_" d="M-88.894,549.84c0,152.966-72.715,288.955-185.459,375.278c-79.531,60.898-178.984,97.078-286.889,97.078
				c-108.072,0-207.672-36.301-287.271-97.369c-112.527-86.345-185.078-222.19-185.078-374.987
				c0-260.876,211.48-472.339,472.35-472.339C-300.37,77.501-88.894,288.964-88.894,549.84z"/>
		</defs>
		<clipPath id="SVGID_2_">
			<use xlink:href="#SVGID_1_"  overflow="visible"/>
		</clipPath>
		<g clip-path="url(#SVGID_2_)">
			<g>
				<g>
					<rect x="-323.272" y="426.928" fill-rule="evenodd" clip-rule="evenodd" fill="#49B1BA" width="331.451" height="270.119"/>
				</g>
			</g>
		</g>
	</g>
</g>
<g>
	<path fill="#7E4186" d="M538.999,1021.763c-106.996,0-208.316-34.345-293.002-99.31C126.036,830.403,57.235,691.001,57.235,539.99
		c0-265.637,216.117-481.753,481.764-481.753c265.648,0,481.762,216.116,481.762,481.753c0,151.213-68.939,290.722-189.15,382.754
		C747.017,987.521,645.831,1021.763,538.999,1021.763z M538.999,83.897c-251.495,0-456.104,204.601-456.104,456.093
		c0,142.967,65.143,274.95,178.721,362.102c80.17,61.501,176.086,94.01,277.383,94.01c101.145,0,196.934-32.412,277.008-93.73
		c113.816-87.136,179.094-219.223,179.094-362.381C995.101,288.498,790.495,83.897,538.999,83.897z"/>
	<path fill-rule="evenodd" clip-rule="evenodd" fill="#7E4186" d="M200.706,734.978c0-12.462-0.008-24.23,0-35.993
		c0-30.874-0.191-61.751,0.281-92.619c0.057-3.622,2.959-9.301,5.939-10.475c50.041-19.739,100.564-38.172,153.729-47.808
		c32.641-5.926,65.014-0.997,97.471,3.052c41.281,5.156,79.531,21.291,119.432,31.182c37.82,9.371,76.697,14.405,114.971,22.016
		c15.418,3.066,30.609,7.44,45.623,12.137c9.256,2.891,16.406,8.68,17.096,19.779c0.74,11.607-6.496,17.79-15.209,22.626
		c-18.15,10.093-38.346,11.57-58.391,11.614c-49.379,0.111-97.381-10.874-145.637-19.632c-8.396-1.529-16.873-2.67-26.379-1.816
		c11.064,6.634,21.576,14.526,33.297,19.632c24.541,10.674,49.326,21.09,74.744,29.335c25.111,8.149,50.348,2.156,75.035-4.84
		c56.141-15.917,107.434-43.48,160.541-66.673c13.855-6.057,27.654-11.35,43.582-7.429c24.258,5.972,31.783,26.657,13.641,43.752
		c-13.693,12.901-29.943,23.324-45.875,33.593c-48.041,30.961-98.416,57.347-152.199,77.232
		c-59.457,21.982-118.455,25.204-178.588,2.262c-38.477-14.688-78.348-25.76-116.732-40.663
		c-42.631-16.55-85.885-17.712-130.199-11.552C258.827,727.6,230.716,731.063,200.706,734.978z"/>
	<path fill-rule="evenodd" clip-rule="evenodd" fill="#7E4186" d="M155.606,580.771c11.549,0,22.805,0,34.656,0
		c0,59.895,0,119.362,0,179.701c-11.213,0-22.48,0-34.656,0C155.606,700.891,155.606,641.184,155.606,580.771z"/>
	<path fill-rule="evenodd" clip-rule="evenodd" fill="#7E4186" d="M671.876,322.162c7.691-11.171,16.119-20.828,26.658-28.516
		c34.848-25.425,80.029-19.239,106.48,14.892c19.201,24.781,23.48,52.825,16.744,82.896c-4.535,20.229-13.723,38.427-26.689,54.373
		c-8.715,10.717-19,20.159-28.623,30.13c-29.639,30.725-59.291,61.431-88.943,92.137c-4.131,4.281-7.246,4.241-11.49-0.153
		c-38.758-40.159-77.777-80.075-116.113-120.635c-11.338-12-18.639-27.021-24.137-42.671c-8.404-23.905-9.904-48.092-0.613-72.005
		c10.941-28.172,30.648-47.158,60.871-53.248c23.709-4.777,44.84,2.126,62.98,17.498c7.41,6.274,13.412,14.22,20.016,21.438
		C669.995,319.37,670.757,320.636,671.876,322.162z"/>
</g>
</svg>
