<?xml version="1.0" encoding="utf-8"?>
<!-- Generator: Adobe Illustrator 16.0.0, SVG Export Plug-In . SVG Version: 6.00 Build 0)  -->
<!DOCTYPE svg PUBLIC "-//W3C//DTD SVG 1.1//EN" "http://www.w3.org/Graphics/SVG/1.1/DTD/svg11.dtd">
<svg version="1.1" id="Capa_1" xmlns="http://www.w3.org/2000/svg" xmlns:xlink="http://www.w3.org/1999/xlink" x="0px" y="0px"
	 width="1080px" height="1080px" viewBox="0 0 1080 1080" enable-background="new 0 0 1080 1080" xml:space="preserve">
<g>
	<g>
		<g>
			<g>
				<path fill-rule="evenodd" clip-rule="evenodd" fill="#FFFFFF" d="M1029.98,536.036c0,266.057-215.687,481.753-481.756,481.753
					c-266.074,0-481.77-215.696-481.77-481.753c0-266.07,215.695-481.772,481.77-481.772
					C814.294,54.264,1029.98,269.966,1029.98,536.036z"/>
			</g>
		</g>
	</g>
</g>
<g>
	
		<radialGradient id="SVGID_2_" cx="428.6152" cy="841.3066" r="29.1083" gradientTransform="matrix(1.046 0 0 1.046 -15.1785 23.7622)" gradientUnits="userSpaceOnUse">
		<stop  offset="0" style="stop-color:#FAE118"/>
		<stop  offset="1" style="stop-color:#FD6729"/>
	</radialGradient>
	<path fill="url(#SVGID_2_)" d="M456.525,912.635l8.884-27.113l-27.088-8.87c-14.979-4.907-31.097,3.254-36,18.227
		c-4.894,14.952,3.27,31.071,18.25,35.97C435.542,935.764,451.63,927.579,456.525,912.635"/>
	
		<radialGradient id="SVGID_4_" cx="446.4531" cy="787.8691" r="29.4022" gradientTransform="matrix(1.046 0 0 1.046 -15.1785 23.7622)" gradientUnits="userSpaceOnUse">
		<stop  offset="0" style="stop-color:#FAE118"/>
		<stop  offset="1" style="stop-color:#FD6729"/>
	</radialGradient>
	<path fill="url(#SVGID_4_)" d="M441.107,869.987l26.456,10.7l10.686-26.427c5.912-14.611-1.144-31.246-15.751-37.15
		c-14.583-5.896-31.215,1.152-37.122,15.763C419.46,847.486,426.531,864.083,441.107,869.987"/>
	
		<radialGradient id="SVGID_5_" cx="370.1641" cy="808.0205" r="25.7151" gradientTransform="matrix(1.046 0 0 1.046 -15.1785 23.7622)" gradientUnits="userSpaceOnUse">
		<stop  offset="0" style="stop-color:#FAE118"/>
		<stop  offset="1" style="stop-color:#FD6729"/>
	</radialGradient>
	<path fill="url(#SVGID_5_)" d="M389.531,880.386l11.45-21.845l-21.827-11.438c-12.058-6.325-26.969-1.661-33.29,10.398
		c-6.314,12.043-1.657,26.95,10.417,33.267C368.343,897.093,383.226,892.423,389.531,880.386"/>
	
		<radialGradient id="SVGID_6_" cx="392.5117" cy="766.4414" r="25.8793" gradientTransform="matrix(1.046 0 0 1.046 -15.1785 23.7622)" gradientUnits="userSpaceOnUse">
		<stop  offset="0" style="stop-color:#FAE118"/>
		<stop  offset="1" style="stop-color:#FD6729"/>
	</radialGradient>
	<path fill="url(#SVGID_6_)" d="M382.486,841.819l21.026,12.907l12.886-21.003c7.13-11.616,3.494-26.804-8.118-33.925
		c-11.591-7.116-26.771-3.478-33.9,8.133C367.251,819.539,370.901,834.704,382.486,841.819"/>
	
		<radialGradient id="SVGID_7_" cx="323.5039" cy="770.8398" r="22.6838" gradientTransform="matrix(1.046 0 0 1.046 -15.1785 23.7622)" gradientUnits="userSpaceOnUse">
		<stop  offset="0" style="stop-color:#FAE118"/>
		<stop  offset="1" style="stop-color:#FD6729"/>
	</radialGradient>
	<path fill="url(#SVGID_7_)" d="M336.451,842.557l12.513-17.512l-17.49-12.503c-9.672-6.898-23.114-4.67-30.02,4.997
		c-6.899,9.653-4.659,23.092,5.009,30.007C316.131,854.453,329.551,852.201,336.451,842.557"/>
	
		<radialGradient id="SVGID_8_" cx="347.832" cy="738.4473" r="22.7564" gradientTransform="matrix(1.046 0 0 1.046 -15.1785 23.7622)" gradientUnits="userSpaceOnUse">
		<stop  offset="0" style="stop-color:#FAE118"/>
		<stop  offset="1" style="stop-color:#FD6729"/>
	</radialGradient>
	<path fill="url(#SVGID_8_)" d="M334.987,808.373l16.619,13.684l13.656-16.605c7.553-9.181,6.232-22.744-2.948-30.295
		c-9.163-7.534-22.72-6.212-30.272,2.967C324.488,787.304,325.831,800.838,334.987,808.373"/>
	
		<radialGradient id="SVGID_9_" cx="282.5879" cy="733.8467" r="20.6983" gradientTransform="matrix(1.046 0 0 1.046 -15.1785 23.7622)" gradientUnits="userSpaceOnUse">
		<stop  offset="0" style="stop-color:#FAE118"/>
		<stop  offset="1" style="stop-color:#FD6729"/>
	</radialGradient>
	<path fill="url(#SVGID_9_)" d="M291.364,803.954l12.603-14.961l-14.952-12.604c-8.264-6.95-20.606-5.902-27.574,2.361
		c-6.948,8.252-5.888,20.597,2.374,27.557C272.083,813.273,284.407,812.203,291.364,803.954"/>
	
		<radialGradient id="SVGID_10_" cx="307.1426" cy="706.6113" r="20.7262" gradientTransform="matrix(1.046 0 0 1.046 -15.1785 23.7622)" gradientUnits="userSpaceOnUse">
		<stop  offset="0" style="stop-color:#FAE118"/>
		<stop  offset="1" style="stop-color:#FD6729"/>
	</radialGradient>
	<path fill="url(#SVGID_10_)" d="M292.504,772.877l14.076,13.594l13.579-14.065c7.514-7.78,7.296-20.162-0.482-27.668
		c-7.765-7.497-20.144-7.283-27.657,0.495C284.508,753.003,284.747,765.379,292.504,772.877"/>
	
		<radialGradient id="SVGID_11_" cx="255.6543" cy="688.2559" r="17.9065" gradientTransform="matrix(1.046 0 0 1.046 -15.1785 23.7622)" gradientUnits="userSpaceOnUse">
		<stop  offset="0" style="stop-color:#FAE118"/>
		<stop  offset="1" style="stop-color:#FD6729"/>
	</radialGradient>
	<path fill="url(#SVGID_11_)" d="M259.216,757.04l13.38-10.413l-10.397-13.364c-5.753-7.388-16.398-8.724-23.79-2.975
		c-7.38,5.74-8.701,16.398-2.955,23.786C241.202,761.461,251.841,762.774,259.216,757.04"/>
	
		<radialGradient id="SVGID_12_" cx="282.041" cy="670.1523" r="17.8398" gradientTransform="matrix(1.046 0 0 1.046 -15.1785 23.7622)" gradientUnits="userSpaceOnUse">
		<stop  offset="0" style="stop-color:#FAE118"/>
		<stop  offset="1" style="stop-color:#FD6729"/>
	</radialGradient>
	<path fill="url(#SVGID_12_)" d="M265.788,730.907l9.479,14.051l14.037-9.467c7.768-5.248,9.814-15.779,4.575-23.534
		c-5.229-7.749-15.761-9.794-23.528-4.554C262.593,712.629,260.566,723.158,265.788,730.907"/>
	
		<radialGradient id="SVGID_13_" cx="236.5684" cy="649.9219" r="15.1543" gradientTransform="matrix(1.046 0 0 1.046 -15.1785 23.7622)" gradientUnits="userSpaceOnUse">
		<stop  offset="0" style="stop-color:#FAE118"/>
		<stop  offset="1" style="stop-color:#FD6729"/>
	</radialGradient>
	<path fill="url(#SVGID_13_)" d="M236.356,716.533l12.972-6.599l-6.598-12.959c-3.644-7.158-12.402-10.014-19.569-6.376
		c-7.15,3.639-10,12.396-6.357,19.563S229.202,720.169,236.356,716.533"/>
	
		<radialGradient id="SVGID_14_" cx="262.6211" cy="639.0078" r="15.0323" gradientTransform="matrix(1.046 0 0 1.046 -15.1785 23.7622)" gradientUnits="userSpaceOnUse">
		<stop  offset="0" style="stop-color:#FAE118"/>
		<stop  offset="1" style="stop-color:#FD6729"/>
	</radialGradient>
	<path fill="url(#SVGID_14_)" d="M246.143,695.572l5.698,13.396l13.379-5.697c7.397-3.159,10.834-11.696,7.686-19.092
		c-3.144-7.387-11.689-10.825-19.087-7.675C246.423,679.648,242.999,688.193,246.143,695.572"/>
	
		<radialGradient id="SVGID_15_" cx="238.9629" cy="613.0156" r="15.3239" gradientTransform="matrix(1.046 0 0 1.046 -15.1785 23.7622)" gradientUnits="userSpaceOnUse">
		<stop  offset="0" style="stop-color:#FAE118"/>
		<stop  offset="1" style="stop-color:#FD6729"/>
	</radialGradient>
	<path fill="url(#SVGID_15_)" d="M226.538,674.105l11.992,8.243l8.232-11.983c4.553-6.628,2.87-15.684-3.746-20.229
		c-6.619-4.546-15.675-2.87-20.229,3.757C218.235,660.512,219.93,669.566,226.538,674.105"/>
</g>
<radialGradient id="SVGID_16_" cx="542.5518" cy="822.7012" r="43.0923" gradientTransform="matrix(1.046 0 0 1.046 -15.1785 23.7622)" gradientUnits="userSpaceOnUse">
	<stop  offset="0" style="stop-color:#FAE118"/>
	<stop  offset="1" style="stop-color:#FD6729"/>
</radialGradient>
<path fill="url(#SVGID_16_)" d="M597.42,884.313c0,0.788,0,1.525-0.045,2.309c-0.044,0.966-0.141,1.897-0.236,2.818
	c-0.089,0.563-0.14,1.152-0.229,1.713c-0.096,0.737-0.229,1.477-0.42,2.214c-0.133,0.737-0.318,1.476-0.503,2.215
	c-0.184,0.692-0.368,1.438-0.602,2.124c-0.181,0.695-0.417,1.388-0.697,2.082c-0.413,1.203-0.922,2.398-1.476,3.563
	c-1.02,2.118-2.169,4.2-3.514,6.133c-0.361,0.606-0.825,1.203-1.246,1.757c-0.414,0.604-0.871,1.158-1.336,1.712
	c-0.879,1.107-1.845,2.178-2.907,3.188c-0.466,0.509-1.02,1.012-1.576,1.476c-2.859,2.635-6.092,4.9-9.65,6.745
	c-0.554,0.28-1.113,0.554-1.659,0.783c-0.465,0.229-0.974,0.463-1.483,0.649c-0.51,0.229-1.063,0.464-1.617,0.649
	c-2.354,0.922-4.76,1.616-7.255,2.08c-0.642,0.133-1.335,0.229-1.983,0.324c-2.171,0.316-4.393,0.503-6.65,0.503
	c-24.899,0-45.09-20.192-45.09-45.038c0-24.901,20.19-45.084,45.09-45.084c1.159,0,2.258,0.043,3.373,0.14
	c1.106,0.09,2.214,0.229,3.277,0.369c0.781,0.097,1.527,0.229,2.309,0.413c1.02,0.191,1.985,0.376,2.96,0.7
	c0.184,0.046,0.421,0.082,0.595,0.133c1.109,0.325,2.269,0.74,3.375,1.152c0.554,0.192,1.107,0.421,1.617,0.649
	c0.643,0.28,1.247,0.561,1.896,0.789c1.15,0.599,2.303,1.197,3.416,1.845c0.924,0.554,1.802,1.107,2.627,1.712
	c0.281,0.178,0.563,0.37,0.791,0.554c0.737,0.511,1.475,1.056,2.17,1.661c0.922,0.737,1.845,1.52,2.678,2.355
	c0.51,0.464,1.02,0.973,1.478,1.482c0.648,0.642,1.298,1.292,1.851,2.029c0.599,0.687,1.152,1.387,1.706,2.118
	c0.421,0.509,0.789,1.018,1.11,1.571c1.715,2.451,3.14,5.093,4.3,7.859c0.229,0.511,0.463,1.064,0.648,1.615
	c0.324,0.828,0.598,1.661,0.874,2.495c0.233,0.739,0.418,1.432,0.602,2.169c0.783,2.864,1.247,5.867,1.388,8.961
	C597.42,882.747,597.42,883.529,597.42,884.313"/>
<radialGradient id="SVGID_17_" cx="472.459" cy="118.541" r="4.0825" gradientTransform="matrix(1.046 0 0 1.046 -15.1785 23.7622)" gradientUnits="userSpaceOnUse">
	<stop  offset="0" style="stop-color:#FAE118"/>
	<stop  offset="1" style="stop-color:#FD6729"/>
</radialGradient>
<path fill="url(#SVGID_17_)" d="M483.287,147.758c0,0.074,0,0.14-0.004,0.221c-0.004,0.088-0.015,0.178-0.022,0.258
	c-0.015,0.059-0.015,0.112-0.019,0.172c-0.011,0.064-0.022,0.139-0.044,0.212c-0.012,0.067-0.029,0.133-0.044,0.206
	c-0.022,0.067-0.037,0.133-0.06,0.2c-0.019,0.065-0.036,0.125-0.067,0.192c-0.037,0.118-0.088,0.229-0.136,0.339
	c-0.096,0.2-0.21,0.398-0.336,0.583c-0.033,0.059-0.078,0.118-0.118,0.171c-0.04,0.052-0.086,0.11-0.129,0.162
	c-0.081,0.104-0.174,0.206-0.273,0.302c-0.043,0.045-0.096,0.088-0.144,0.141c-0.276,0.243-0.582,0.458-0.919,0.634
	c-0.052,0.03-0.103,0.053-0.159,0.082c-0.041,0.014-0.092,0.036-0.14,0.051c-0.05,0.03-0.103,0.053-0.151,0.067
	c-0.225,0.082-0.453,0.147-0.692,0.192c-0.057,0.014-0.122,0.022-0.186,0.028c-0.202,0.03-0.417,0.053-0.627,0.053
	c-2.358,0-4.273-1.912-4.273-4.266c0-2.361,1.915-4.273,4.273-4.273c0.106,0,0.21,0.008,0.316,0.015
	c0.108,0.008,0.21,0.022,0.311,0.045c0.077,0,0.146,0.008,0.218,0.028c0.1,0.022,0.191,0.037,0.284,0.067
	c0.015,0.008,0.04,0.008,0.052,0.015c0.108,0.03,0.218,0.067,0.324,0.104c0.049,0.022,0.102,0.043,0.151,0.065
	c0.06,0.031,0.119,0.054,0.181,0.074c0.111,0.059,0.218,0.118,0.321,0.178c0.093,0.051,0.174,0.104,0.251,0.163
	c0.029,0.015,0.056,0.037,0.073,0.051c0.068,0.051,0.141,0.096,0.208,0.155c0.083,0.065,0.171,0.139,0.25,0.229
	c0.052,0.036,0.099,0.087,0.144,0.132c0.063,0.065,0.122,0.125,0.174,0.198c0.06,0.067,0.11,0.127,0.162,0.2
	c0.04,0.043,0.072,0.088,0.107,0.14c0.162,0.245,0.295,0.488,0.406,0.754c0.019,0.045,0.044,0.102,0.058,0.146
	c0.034,0.082,0.06,0.164,0.086,0.243c0.022,0.067,0.037,0.133,0.06,0.206c0.073,0.266,0.114,0.554,0.129,0.842
	C483.287,147.609,483.287,147.685,483.287,147.758"/>
<radialGradient id="SVGID_18_" cx="488.6191" cy="123.5791" r="5.104" gradientTransform="matrix(1.046 0 0 1.046 -15.1785 23.7622)" gradientUnits="userSpaceOnUse">
	<stop  offset="0" style="stop-color:#FAE118"/>
	<stop  offset="1" style="stop-color:#FD6729"/>
</radialGradient>
<path fill="url(#SVGID_18_)" d="M501.257,153.027c0,0.087,0,0.178-0.004,0.273c-0.009,0.11-0.019,0.221-0.029,0.331
	c-0.012,0.067-0.016,0.133-0.03,0.2c-0.007,0.096-0.025,0.184-0.044,0.266c-0.019,0.088-0.044,0.176-0.064,0.266
	c-0.021,0.073-0.047,0.161-0.068,0.243c-0.022,0.081-0.052,0.161-0.087,0.251c-0.046,0.146-0.104,0.288-0.171,0.427
	c-0.119,0.243-0.259,0.488-0.421,0.724c-0.043,0.067-0.092,0.141-0.144,0.206c-0.054,0.075-0.104,0.141-0.159,0.2
	c-0.1,0.133-0.218,0.258-0.348,0.384c-0.051,0.06-0.114,0.119-0.182,0.17c-0.341,0.311-0.721,0.582-1.142,0.805
	c-0.067,0.028-0.133,0.06-0.2,0.096c-0.056,0.021-0.114,0.052-0.177,0.065c-0.059,0.031-0.126,0.06-0.188,0.082
	c-0.283,0.103-0.568,0.184-0.859,0.243c-0.077,0.015-0.158,0.022-0.232,0.037c-0.258,0.036-0.524,0.067-0.786,0.067
	c-2.956,0-5.34-2.393-5.34-5.336c0-2.952,2.384-5.343,5.34-5.343c0.133,0,0.262,0.006,0.395,0.015
	c0.134,0.014,0.262,0.036,0.392,0.051c0.092,0,0.18,0.022,0.273,0.051c0.117,0.017,0.235,0.037,0.346,0.074
	c0.022,0.008,0.052,0.008,0.074,0.022c0.129,0.036,0.266,0.081,0.398,0.133c0.063,0.022,0.13,0.053,0.188,0.081
	c0.081,0.029,0.152,0.067,0.229,0.088c0.14,0.074,0.272,0.149,0.405,0.229c0.106,0.06,0.211,0.119,0.311,0.192
	c0.033,0.022,0.063,0.045,0.093,0.067c0.085,0.06,0.171,0.125,0.255,0.206c0.114,0.074,0.221,0.17,0.316,0.274
	c0.06,0.051,0.123,0.11,0.178,0.169c0.078,0.08,0.154,0.155,0.216,0.235c0.075,0.09,0.142,0.17,0.205,0.26
	c0.052,0.059,0.092,0.118,0.129,0.184c0.202,0.296,0.369,0.604,0.513,0.93c0.025,0.059,0.051,0.127,0.074,0.191
	c0.045,0.097,0.073,0.2,0.106,0.297c0.021,0.088,0.048,0.169,0.068,0.257c0.095,0.34,0.149,0.695,0.168,1.057
	C501.257,152.843,501.257,152.931,501.257,153.027"/>
<radialGradient id="SVGID_19_" cx="507.332" cy="127.8066" r="6.1245" gradientTransform="matrix(1.046 0 0 1.046 -15.1785 23.7622)" gradientUnits="userSpaceOnUse">
	<stop  offset="0" style="stop-color:#FAE118"/>
	<stop  offset="1" style="stop-color:#FD6729"/>
</radialGradient>
<path fill="url(#SVGID_19_)" d="M521.898,157.447c0,0.117,0,0.221-0.003,0.331c-0.005,0.142-0.025,0.266-0.034,0.407
	c-0.019,0.073-0.021,0.161-0.033,0.234c-0.015,0.112-0.033,0.215-0.059,0.311c-0.022,0.11-0.048,0.215-0.07,0.319
	c-0.033,0.102-0.056,0.206-0.088,0.302c-0.026,0.103-0.062,0.198-0.097,0.294c-0.063,0.17-0.133,0.348-0.214,0.509
	c-0.145,0.297-0.307,0.591-0.499,0.873c-0.051,0.079-0.114,0.169-0.177,0.257c-0.062,0.073-0.125,0.163-0.191,0.229
	c-0.118,0.164-0.259,0.317-0.414,0.466c-0.063,0.074-0.139,0.14-0.221,0.207c-0.409,0.367-0.867,0.692-1.368,0.958
	c-0.082,0.036-0.164,0.075-0.24,0.112c-0.066,0.028-0.137,0.057-0.211,0.088c-0.074,0.037-0.151,0.065-0.231,0.096
	c-0.333,0.125-0.677,0.221-1.026,0.288c-0.093,0.022-0.191,0.028-0.284,0.043c-0.307,0.045-0.627,0.082-0.945,0.082
	c-3.54,0-6.405-2.87-6.405-6.405c0-3.536,2.865-6.406,6.405-6.406c0.163,0,0.318,0.008,0.477,0.022
	c0.162,0.015,0.313,0.037,0.469,0.051c0.114,0.015,0.218,0.037,0.324,0.06c0.151,0.03,0.287,0.051,0.424,0.104
	c0.023,0,0.063,0.006,0.086,0.014c0.154,0.045,0.317,0.104,0.477,0.17c0.08,0.022,0.157,0.06,0.231,0.088
	c0.092,0.037,0.177,0.075,0.268,0.104c0.168,0.096,0.33,0.178,0.489,0.273c0.133,0.08,0.254,0.153,0.372,0.235
	c0.041,0.03,0.078,0.059,0.11,0.081c0.108,0.074,0.207,0.147,0.311,0.237c0.131,0.103,0.262,0.221,0.38,0.339
	c0.068,0.065,0.145,0.133,0.211,0.207c0.092,0.096,0.184,0.184,0.258,0.287c0.089,0.097,0.17,0.198,0.247,0.309
	c0.063,0.067,0.111,0.133,0.158,0.215c0.243,0.355,0.443,0.731,0.607,1.115c0.032,0.08,0.069,0.155,0.094,0.235
	c0.045,0.118,0.09,0.236,0.127,0.355c0.032,0.102,0.055,0.198,0.088,0.302c0.107,0.413,0.171,0.834,0.196,1.277
	C521.898,157.225,521.898,157.335,521.898,157.447"/>
<radialGradient id="SVGID_20_" cx="552.1035" cy="141.6191" r="8.1636" gradientTransform="matrix(1.046 0 0 1.046 -15.1785 23.7622)" gradientUnits="userSpaceOnUse">
	<stop  offset="0" style="stop-color:#FAE118"/>
	<stop  offset="1" style="stop-color:#FD6729"/>
</radialGradient>
<path fill="url(#SVGID_20_)" d="M570.866,171.897c0,0.155,0,0.288,0,0.435c-0.007,0.192-0.034,0.362-0.052,0.531
	c-0.015,0.11-0.021,0.221-0.044,0.325c-0.016,0.147-0.037,0.294-0.081,0.427c-0.022,0.133-0.06,0.282-0.089,0.415
	c-0.037,0.133-0.074,0.279-0.117,0.404c-0.031,0.133-0.075,0.266-0.133,0.393c-0.075,0.229-0.178,0.464-0.281,0.678
	c-0.188,0.407-0.414,0.791-0.665,1.158c-0.073,0.119-0.154,0.237-0.234,0.348c-0.082,0.11-0.164,0.221-0.252,0.316
	c-0.162,0.209-0.347,0.415-0.554,0.607c-0.081,0.096-0.191,0.184-0.295,0.279c-0.547,0.494-1.159,0.93-1.838,1.277
	c-0.096,0.051-0.206,0.102-0.302,0.146c-0.097,0.037-0.192,0.088-0.288,0.119c-0.097,0.045-0.199,0.096-0.311,0.133
	c-0.45,0.169-0.9,0.294-1.373,0.384c-0.117,0.028-0.243,0.037-0.372,0.06c-0.409,0.057-0.838,0.096-1.266,0.096
	c-4.716,0-8.538-3.824-8.538-8.531c0-4.724,3.822-8.54,8.538-8.54c0.222,0,0.428,0.009,0.635,0.023
	c0.222,0.021,0.428,0.045,0.631,0.073c0.145,0.008,0.292,0.036,0.432,0.081c0.2,0.029,0.384,0.06,0.568,0.125
	c0.037,0.015,0.073,0.015,0.11,0.031c0.207,0.064,0.421,0.132,0.635,0.22c0.111,0.031,0.214,0.074,0.311,0.119
	c0.125,0.051,0.235,0.102,0.361,0.146c0.215,0.119,0.436,0.229,0.649,0.355c0.177,0.11,0.339,0.207,0.494,0.317
	c0.06,0.036,0.104,0.073,0.155,0.11c0.133,0.096,0.273,0.2,0.406,0.316c0.177,0.133,0.346,0.288,0.501,0.443
	c0.101,0.088,0.2,0.184,0.288,0.273c0.126,0.125,0.236,0.258,0.348,0.391c0.117,0.133,0.221,0.266,0.325,0.398
	c0.08,0.104,0.146,0.191,0.213,0.302c0.325,0.466,0.591,0.969,0.813,1.491c0.036,0.104,0.088,0.2,0.117,0.311
	c0.066,0.155,0.118,0.317,0.171,0.464c0.043,0.142,0.08,0.266,0.117,0.415c0.14,0.545,0.231,1.099,0.266,1.697
	C570.866,171.609,570.866,171.748,570.866,171.897"/>
<radialGradient id="SVGID_21_" cx="573.877" cy="151.3164" r="9.1875" gradientTransform="matrix(1.046 0 0 1.046 -15.1785 23.7622)" gradientUnits="userSpaceOnUse">
	<stop  offset="0" style="stop-color:#FAE118"/>
	<stop  offset="1" style="stop-color:#FD6729"/>
</radialGradient>
<path fill="url(#SVGID_21_)" d="M594.711,182.036c0,0.178,0,0.325,0,0.495c-0.015,0.214-0.037,0.406-0.06,0.598
	c-0.022,0.117-0.022,0.25-0.044,0.362c-0.021,0.169-0.052,0.331-0.089,0.478c-0.028,0.164-0.073,0.325-0.11,0.475
	c-0.036,0.146-0.082,0.308-0.125,0.457c-0.037,0.147-0.089,0.288-0.151,0.436c-0.085,0.266-0.203,0.531-0.313,0.766
	c-0.215,0.452-0.465,0.895-0.746,1.308c-0.088,0.133-0.177,0.266-0.266,0.384c-0.096,0.117-0.184,0.243-0.288,0.362
	c-0.184,0.229-0.39,0.464-0.619,0.678c-0.096,0.11-0.214,0.215-0.34,0.316c-0.604,0.554-1.299,1.042-2.059,1.44
	c-0.111,0.052-0.237,0.11-0.347,0.162c-0.104,0.045-0.215,0.104-0.317,0.133c-0.111,0.053-0.229,0.104-0.347,0.148
	c-0.503,0.198-1.012,0.331-1.551,0.427c-0.133,0.045-0.28,0.052-0.421,0.067c-0.457,0.08-0.937,0.117-1.416,0.117
	c-5.307,0-9.616-4.303-9.616-9.608c0-5.313,4.31-9.607,9.616-9.607c0.243,0,0.479,0,0.715,0.028
	c0.244,0.015,0.474,0.051,0.701,0.082c0.171,0.008,0.324,0.045,0.488,0.081c0.229,0.052,0.435,0.08,0.634,0.155
	c0.044,0.007,0.089,0.015,0.133,0.029c0.229,0.073,0.474,0.155,0.717,0.243c0.118,0.036,0.235,0.09,0.347,0.141
	c0.133,0.06,0.258,0.11,0.405,0.161c0.244,0.133,0.483,0.266,0.73,0.398c0.192,0.119,0.376,0.237,0.554,0.355
	c0.066,0.043,0.125,0.088,0.17,0.133c0.155,0.103,0.311,0.221,0.458,0.354c0.206,0.147,0.398,0.318,0.567,0.494
	c0.119,0.104,0.222,0.2,0.317,0.311c0.148,0.142,0.281,0.288,0.398,0.436c0.133,0.155,0.251,0.303,0.369,0.457
	c0.089,0.11,0.155,0.207,0.229,0.334c0.37,0.522,0.673,1.091,0.916,1.675c0.051,0.124,0.103,0.229,0.141,0.361
	c0.073,0.161,0.125,0.346,0.191,0.523c0.043,0.146,0.089,0.296,0.125,0.457c0.162,0.604,0.266,1.24,0.303,1.912
	C594.711,181.712,594.711,181.875,594.711,182.036"/>
<radialGradient id="SVGID_22_" cx="592.249" cy="168.3311" r="10.2061" gradientTransform="matrix(1.046 0 0 1.046 -15.1785 23.7622)" gradientUnits="userSpaceOnUse">
	<stop  offset="0" style="stop-color:#FAE118"/>
	<stop  offset="1" style="stop-color:#FD6729"/>
</radialGradient>
<path fill="url(#SVGID_22_)" d="M614.991,199.836c0,0.192,0,0.362,0,0.546c-0.008,0.237-0.037,0.451-0.06,0.664
	c-0.022,0.135-0.029,0.282-0.051,0.406c-0.022,0.184-0.052,0.361-0.104,0.517c-0.028,0.185-0.073,0.37-0.11,0.54
	c-0.045,0.161-0.096,0.339-0.141,0.5c-0.044,0.17-0.102,0.325-0.17,0.488c-0.103,0.294-0.229,0.591-0.353,0.856
	c-0.229,0.5-0.518,0.988-0.835,1.446c-0.089,0.147-0.191,0.294-0.287,0.427c-0.104,0.133-0.207,0.273-0.317,0.398
	c-0.208,0.26-0.437,0.525-0.693,0.762c-0.101,0.117-0.237,0.227-0.377,0.354c-0.676,0.613-1.439,1.15-2.281,1.594
	c-0.129,0.06-0.266,0.127-0.391,0.184c-0.11,0.045-0.236,0.104-0.354,0.149c-0.125,0.06-0.258,0.118-0.383,0.161
	c-0.562,0.223-1.13,0.37-1.72,0.48c-0.147,0.045-0.311,0.059-0.465,0.073c-0.518,0.082-1.049,0.127-1.579,0.127
	c-5.897,0-10.68-4.776-10.68-10.673c0-5.91,4.782-10.678,10.68-10.678c0.272,0,0.53,0,0.789,0.028
	c0.272,0.017,0.531,0.054,0.79,0.09c0.185,0.006,0.361,0.051,0.538,0.096c0.243,0.043,0.48,0.08,0.709,0.17
	c0.044,0.015,0.096,0.022,0.146,0.028c0.252,0.082,0.525,0.17,0.791,0.274c0.125,0.045,0.258,0.096,0.383,0.146
	c0.148,0.074,0.296,0.133,0.451,0.185c0.272,0.155,0.538,0.296,0.811,0.443c0.222,0.133,0.421,0.273,0.621,0.406
	c0.073,0.045,0.133,0.088,0.184,0.133c0.178,0.124,0.348,0.251,0.509,0.398c0.229,0.169,0.443,0.354,0.643,0.554
	c0.118,0.11,0.236,0.221,0.347,0.339c0.163,0.163,0.303,0.325,0.443,0.488c0.141,0.17,0.273,0.339,0.406,0.5
	c0.096,0.127,0.177,0.237,0.258,0.376c0.406,0.585,0.738,1.218,1.02,1.861c0.043,0.139,0.117,0.258,0.146,0.398
	c0.082,0.184,0.147,0.384,0.221,0.582c0.045,0.17,0.096,0.333,0.141,0.518c0.177,0.672,0.288,1.372,0.325,2.118
	C614.991,199.467,614.991,199.645,614.991,199.836"/>
<radialGradient id="SVGID_23_" cx="606.2031" cy="195.3799" r="11.2275" gradientTransform="matrix(1.046 0 0 1.046 -15.1785 23.7622)" gradientUnits="userSpaceOnUse">
	<stop  offset="0" style="stop-color:#FAE118"/>
	<stop  offset="1" style="stop-color:#FD6729"/>
</radialGradient>
<path fill="url(#SVGID_23_)" d="M630.655,228.123c0,0.223,0,0.406,0,0.604c-0.011,0.26-0.041,0.494-0.07,0.731
	c-0.022,0.146-0.03,0.311-0.052,0.449c-0.021,0.2-0.06,0.4-0.117,0.57c-0.031,0.206-0.082,0.404-0.127,0.582
	c-0.051,0.184-0.096,0.376-0.154,0.562c-0.044,0.184-0.107,0.361-0.185,0.531c-0.104,0.325-0.243,0.647-0.384,0.936
	c-0.258,0.554-0.568,1.093-0.916,1.596c-0.102,0.161-0.213,0.331-0.316,0.472c-0.118,0.147-0.229,0.311-0.354,0.443
	c-0.222,0.286-0.476,0.568-0.76,0.834c-0.111,0.133-0.259,0.251-0.414,0.39c-0.744,0.673-1.586,1.271-2.509,1.757
	c-0.14,0.06-0.295,0.133-0.435,0.198c-0.119,0.045-0.259,0.119-0.385,0.164c-0.14,0.059-0.279,0.124-0.421,0.184
	c-0.619,0.237-1.24,0.398-1.896,0.517c-0.163,0.051-0.34,0.067-0.51,0.088c-0.568,0.09-1.151,0.141-1.733,0.141
	c-6.488,0-11.749-5.26-11.749-11.748c0-6.495,5.261-11.741,11.749-11.741c0.294,0,0.582,0,0.87,0.037
	c0.295,0.015,0.582,0.051,0.863,0.096c0.199,0.009,0.392,0.051,0.598,0.104c0.266,0.051,0.524,0.088,0.775,0.184
	c0.052,0.022,0.103,0.028,0.162,0.037c0.272,0.088,0.576,0.184,0.87,0.294c0.142,0.053,0.281,0.112,0.421,0.172
	c0.163,0.079,0.318,0.133,0.495,0.198c0.295,0.169,0.599,0.324,0.893,0.486c0.236,0.148,0.466,0.296,0.687,0.443
	c0.07,0.053,0.141,0.104,0.2,0.154c0.19,0.133,0.383,0.274,0.56,0.436c0.251,0.186,0.488,0.393,0.694,0.604
	c0.141,0.127,0.273,0.245,0.391,0.378c0.178,0.176,0.34,0.354,0.488,0.537c0.154,0.187,0.294,0.37,0.449,0.554
	c0.104,0.133,0.192,0.252,0.276,0.415c0.454,0.642,0.823,1.328,1.119,2.037c0.06,0.153,0.133,0.286,0.169,0.441
	c0.097,0.2,0.162,0.429,0.236,0.644c0.059,0.184,0.104,0.367,0.154,0.56c0.2,0.737,0.325,1.514,0.366,2.333
	C630.655,227.725,630.655,227.925,630.655,228.123"/>
<radialGradient id="SVGID_24_" cx="606.1992" cy="224.1289" r="12.249" gradientTransform="matrix(1.046 0 0 1.046 -15.1785 23.7622)" gradientUnits="userSpaceOnUse">
	<stop  offset="0" style="stop-color:#FAE118"/>
	<stop  offset="1" style="stop-color:#FD6729"/>
</radialGradient>
<path fill="url(#SVGID_24_)" d="M631.722,258.196c0,0.235,0,0.436,0,0.656c-0.008,0.288-0.044,0.539-0.074,0.797
	c-0.022,0.155-0.036,0.339-0.059,0.488c-0.022,0.221-0.066,0.441-0.125,0.619c-0.038,0.236-0.09,0.442-0.141,0.641
	c-0.052,0.2-0.104,0.407-0.163,0.613c-0.052,0.2-0.117,0.393-0.199,0.584c-0.125,0.354-0.273,0.701-0.421,1.018
	c-0.279,0.599-0.627,1.189-1.003,1.743c-0.11,0.169-0.229,0.353-0.354,0.515c-0.118,0.155-0.244,0.333-0.377,0.479
	c-0.243,0.311-0.522,0.621-0.833,0.909c-0.119,0.147-0.28,0.266-0.45,0.427c-0.813,0.724-1.728,1.382-2.738,1.912
	c-0.155,0.065-0.317,0.147-0.473,0.221c-0.133,0.052-0.28,0.125-0.421,0.178c-0.147,0.065-0.303,0.133-0.457,0.198
	c-0.679,0.26-1.357,0.436-2.07,0.568c-0.174,0.053-0.365,0.067-0.557,0.09c-0.613,0.103-1.256,0.155-1.889,0.155
	c-7.079,0-12.824-5.742-12.824-12.812c0-7.093,5.745-12.811,12.824-12.811c0.324,0,0.633,0,0.943,0.036
	c0.332,0.015,0.642,0.065,0.945,0.11c0.222,0.007,0.436,0.052,0.648,0.103c0.297,0.06,0.576,0.104,0.85,0.2
	c0.052,0.028,0.11,0.045,0.177,0.045c0.303,0.103,0.628,0.206,0.952,0.325c0.154,0.057,0.31,0.124,0.457,0.184
	c0.178,0.088,0.355,0.146,0.539,0.215c0.325,0.184,0.649,0.361,0.981,0.537c0.259,0.163,0.502,0.324,0.745,0.488
	c0.074,0.051,0.155,0.102,0.215,0.161c0.214,0.141,0.421,0.296,0.612,0.479c0.272,0.201,0.527,0.421,0.768,0.656
	c0.147,0.141,0.288,0.268,0.421,0.415c0.191,0.191,0.361,0.384,0.523,0.582c0.178,0.206,0.325,0.406,0.487,0.604
	c0.126,0.149,0.214,0.273,0.318,0.451c0.485,0.701,0.884,1.453,1.217,2.221c0.06,0.17,0.141,0.311,0.185,0.486
	c0.096,0.215,0.169,0.458,0.258,0.703c0.06,0.198,0.111,0.398,0.163,0.61c0.222,0.806,0.354,1.655,0.398,2.54
	C631.722,257.753,631.722,257.974,631.722,258.196"/>
<radialGradient id="SVGID_25_" cx="588.7422" cy="249.4746" r="13.2671" gradientTransform="matrix(1.046 0 0 1.046 -15.1785 23.7622)" gradientUnits="userSpaceOnUse">
	<stop  offset="0" style="stop-color:#FAE118"/>
	<stop  offset="1" style="stop-color:#FD6729"/>
</radialGradient>
<path fill="url(#SVGID_25_)" d="M614.525,284.712c0,0.251,0,0.464,0,0.709c-0.006,0.309-0.051,0.582-0.073,0.862
	c-0.037,0.169-0.044,0.369-0.073,0.53c-0.023,0.237-0.066,0.475-0.133,0.673c-0.045,0.243-0.097,0.472-0.147,0.694
	c-0.06,0.212-0.118,0.441-0.185,0.655c-0.053,0.215-0.126,0.43-0.214,0.636c-0.133,0.384-0.296,0.76-0.458,1.107
	c-0.303,0.649-0.672,1.283-1.084,1.882c-0.119,0.184-0.252,0.384-0.377,0.553c-0.133,0.176-0.273,0.362-0.414,0.523
	c-0.266,0.339-0.56,0.672-0.907,0.989c-0.126,0.155-0.303,0.288-0.48,0.457c-0.878,0.797-1.874,1.5-2.975,2.082
	c-0.161,0.065-0.339,0.161-0.5,0.229c-0.148,0.065-0.311,0.147-0.458,0.192c-0.163,0.073-0.34,0.146-0.502,0.214
	c-0.73,0.286-1.469,0.479-2.236,0.619c-0.185,0.06-0.398,0.074-0.605,0.104c-0.664,0.103-1.357,0.161-2.052,0.161
	c-7.667,0-13.882-6.221-13.882-13.873c0-7.689,6.215-13.882,13.882-13.882c0.354,0,0.694,0,1.026,0.037
	c0.361,0.022,0.694,0.067,1.025,0.118c0.236,0.006,0.473,0.06,0.709,0.118c0.317,0.06,0.612,0.11,0.915,0.213
	c0.06,0.03,0.118,0.037,0.184,0.053c0.329,0.103,0.687,0.213,1.034,0.354c0.162,0.06,0.339,0.133,0.502,0.192
	c0.191,0.096,0.384,0.161,0.583,0.236c0.354,0.198,0.7,0.383,1.055,0.583c0.281,0.169,0.547,0.347,0.804,0.517
	c0.09,0.065,0.178,0.125,0.237,0.184c0.236,0.155,0.458,0.325,0.664,0.509c0.302,0.223,0.576,0.466,0.833,0.724
	c0.164,0.148,0.311,0.288,0.451,0.443c0.214,0.214,0.399,0.421,0.576,0.635c0.185,0.215,0.354,0.436,0.531,0.649
	c0.125,0.162,0.229,0.303,0.34,0.495c0.522,0.752,0.958,1.57,1.319,2.404c0.06,0.186,0.148,0.341,0.2,0.525
	c0.103,0.234,0.185,0.5,0.273,0.76c0.066,0.221,0.125,0.435,0.185,0.664c0.235,0.87,0.376,1.793,0.427,2.751
	C614.525,284.224,614.525,284.469,614.525,284.712"/>
<g>
	
		<radialGradient id="SVGID_26_" cx="661.5195" cy="841.3066" r="29.1088" gradientTransform="matrix(1.046 0 0 1.046 -15.1785 23.7622)" gradientUnits="userSpaceOnUse">
		<stop  offset="0" style="stop-color:#FAE118"/>
		<stop  offset="1" style="stop-color:#FD6729"/>
	</radialGradient>
	<path fill="url(#SVGID_26_)" d="M653.403,912.635l-8.885-27.113l27.092-8.87c14.973-4.907,31.092,3.254,35.999,18.227
		c4.893,14.952-3.272,31.071-18.251,35.97C674.385,935.764,658.296,927.579,653.403,912.635"/>
	
		<radialGradient id="SVGID_27_" cx="643.6816" cy="787.8691" r="29.4031" gradientTransform="matrix(1.046 0 0 1.046 -15.1785 23.7622)" gradientUnits="userSpaceOnUse">
		<stop  offset="0" style="stop-color:#FAE118"/>
		<stop  offset="1" style="stop-color:#FD6729"/>
	</radialGradient>
	<path fill="url(#SVGID_27_)" d="M668.813,869.987l-26.45,10.7l-10.686-26.427c-5.912-14.611,1.143-31.246,15.756-37.15
		c14.583-5.896,31.21,1.152,37.121,15.763C690.466,847.486,683.396,864.083,668.813,869.987"/>
	
		<radialGradient id="SVGID_28_" cx="719.9707" cy="808.0205" r="25.7151" gradientTransform="matrix(1.046 0 0 1.046 -15.1785 23.7622)" gradientUnits="userSpaceOnUse">
		<stop  offset="0" style="stop-color:#FAE118"/>
		<stop  offset="1" style="stop-color:#FD6729"/>
	</radialGradient>
	<path fill="url(#SVGID_28_)" d="M720.392,880.386l-11.446-21.845l21.822-11.438c12.066-6.325,26.975-1.661,33.299,10.398
		c6.31,12.043,1.653,26.95-10.413,33.267C741.586,897.093,726.701,892.423,720.392,880.386"/>
	
		<radialGradient id="SVGID_29_" cx="697.625" cy="766.4414" r="25.8789" gradientTransform="matrix(1.046 0 0 1.046 -15.1785 23.7622)" gradientUnits="userSpaceOnUse">
		<stop  offset="0" style="stop-color:#FAE118"/>
		<stop  offset="1" style="stop-color:#FD6729"/>
	</radialGradient>
	<path fill="url(#SVGID_29_)" d="M727.439,841.819l-21.025,12.907l-12.886-21.003c-7.121-11.616-3.49-26.804,8.118-33.925
		c11.594-7.116,26.774-3.478,33.903,8.133C742.68,819.539,739.026,834.704,727.439,841.819"/>
	
		<radialGradient id="SVGID_30_" cx="766.6289" cy="770.8398" r="22.6854" gradientTransform="matrix(1.046 0 0 1.046 -15.1785 23.7622)" gradientUnits="userSpaceOnUse">
		<stop  offset="0" style="stop-color:#FAE118"/>
		<stop  offset="1" style="stop-color:#FD6729"/>
	</radialGradient>
	<path fill="url(#SVGID_30_)" d="M773.475,842.557l-12.515-17.512l17.498-12.503c9.667-6.898,23.105-4.67,30.013,4.997
		c6.901,9.653,4.664,23.092-5.003,30.007C793.801,854.453,780.376,852.201,773.475,842.557"/>
	
		<radialGradient id="SVGID_31_" cx="742.3018" cy="738.4473" r="22.7569" gradientTransform="matrix(1.046 0 0 1.046 -15.1785 23.7622)" gradientUnits="userSpaceOnUse">
		<stop  offset="0" style="stop-color:#FAE118"/>
		<stop  offset="1" style="stop-color:#FD6729"/>
	</radialGradient>
	<path fill="url(#SVGID_31_)" d="M774.937,808.373l-16.612,13.684l-13.659-16.605c-7.558-9.181-6.229-22.744,2.944-30.295
		c9.165-7.534,22.723-6.212,30.279,2.967C785.438,787.304,784.096,800.838,774.937,808.373"/>
	
		<radialGradient id="SVGID_32_" cx="807.5479" cy="733.8467" r="20.6983" gradientTransform="matrix(1.046 0 0 1.046 -15.1785 23.7622)" gradientUnits="userSpaceOnUse">
		<stop  offset="0" style="stop-color:#FAE118"/>
		<stop  offset="1" style="stop-color:#FD6729"/>
	</radialGradient>
	<path fill="url(#SVGID_32_)" d="M818.567,803.954l-12.605-14.961l14.944-12.604c8.273-6.95,20.613-5.902,27.58,2.361
		c6.951,8.252,5.889,20.597-2.378,27.557C837.847,813.273,825.519,812.203,818.567,803.954"/>
	
		<radialGradient id="SVGID_33_" cx="782.9912" cy="706.6113" r="20.7253" gradientTransform="matrix(1.046 0 0 1.046 -15.1785 23.7622)" gradientUnits="userSpaceOnUse">
		<stop  offset="0" style="stop-color:#FAE118"/>
		<stop  offset="1" style="stop-color:#FD6729"/>
	</radialGradient>
	<path fill="url(#SVGID_33_)" d="M817.424,772.877l-14.074,13.594l-13.579-14.065c-7.513-7.78-7.298-20.162,0.479-27.668
		c7.76-7.497,20.147-7.283,27.652,0.495C825.416,753.003,825.18,765.379,817.424,772.877"/>
	
		<radialGradient id="SVGID_34_" cx="834.4785" cy="688.2559" r="17.9081" gradientTransform="matrix(1.046 0 0 1.046 -15.1785 23.7622)" gradientUnits="userSpaceOnUse">
		<stop  offset="0" style="stop-color:#FAE118"/>
		<stop  offset="1" style="stop-color:#FD6729"/>
	</radialGradient>
	<path fill="url(#SVGID_34_)" d="M850.707,757.04l-13.38-10.413l10.406-13.364c5.749-7.388,16.397-8.724,23.792-2.975
		c7.373,5.74,8.701,16.398,2.945,23.786C868.729,761.461,858.087,762.774,850.707,757.04"/>
	
		<radialGradient id="SVGID_35_" cx="808.0957" cy="670.1523" r="17.8402" gradientTransform="matrix(1.046 0 0 1.046 -15.1785 23.7622)" gradientUnits="userSpaceOnUse">
		<stop  offset="0" style="stop-color:#FAE118"/>
		<stop  offset="1" style="stop-color:#FD6729"/>
	</radialGradient>
	<path fill="url(#SVGID_35_)" d="M844.139,730.907l-9.476,14.051l-14.037-9.467c-7.771-5.248-9.815-15.779-4.575-23.534
		c5.225-7.749,15.756-9.794,23.52-4.554C847.342,712.629,849.363,723.158,844.139,730.907"/>
	
		<radialGradient id="SVGID_36_" cx="853.5684" cy="649.9219" r="15.1533" gradientTransform="matrix(1.046 0 0 1.046 -15.1785 23.7622)" gradientUnits="userSpaceOnUse">
		<stop  offset="0" style="stop-color:#FAE118"/>
		<stop  offset="1" style="stop-color:#FD6729"/>
	</radialGradient>
	<path fill="url(#SVGID_36_)" d="M873.578,716.533l-12.975-6.599l6.59-12.959c3.646-7.158,12.406-10.014,19.571-6.376
		c7.151,3.639,10.001,12.396,6.362,19.563C889.481,717.33,880.729,720.169,873.578,716.533"/>
	
		<radialGradient id="SVGID_37_" cx="827.5137" cy="639.0078" r="15.0314" gradientTransform="matrix(1.046 0 0 1.046 -15.1785 23.7622)" gradientUnits="userSpaceOnUse">
		<stop  offset="0" style="stop-color:#FAE118"/>
		<stop  offset="1" style="stop-color:#FD6729"/>
	</radialGradient>
	<path fill="url(#SVGID_37_)" d="M863.784,695.572l-5.697,13.396l-13.372-5.697c-7.403-3.159-10.842-11.696-7.69-19.092
		c3.144-7.387,11.687-10.825,19.085-7.675C863.504,679.648,866.928,688.193,863.784,695.572"/>
	
		<radialGradient id="SVGID_38_" cx="851.1738" cy="613.0156" r="15.3248" gradientTransform="matrix(1.046 0 0 1.046 -15.1785 23.7622)" gradientUnits="userSpaceOnUse">
		<stop  offset="0" style="stop-color:#FAE118"/>
		<stop  offset="1" style="stop-color:#FD6729"/>
	</radialGradient>
	<path fill="url(#SVGID_38_)" d="M883.393,674.105l-11.993,8.243l-8.234-11.983c-4.555-6.628-2.872-15.684,3.748-20.229
		c6.619-4.546,15.675-2.87,20.229,3.757C891.694,660.512,890.005,669.566,883.393,674.105"/>
</g>
<radialGradient id="SVGID_39_" cx="604.7793" cy="118.541" r="4.0815" gradientTransform="matrix(1.046 0 0 1.046 -15.1785 23.7622)" gradientUnits="userSpaceOnUse">
	<stop  offset="0" style="stop-color:#FAE118"/>
	<stop  offset="1" style="stop-color:#FD6729"/>
</radialGradient>
<path fill="url(#SVGID_39_)" d="M613.152,147.758c0,0.074,0,0.14,0,0.221c0.009,0.088,0.016,0.178,0.022,0.258
	c0.016,0.059,0.016,0.112,0.022,0.172c0.015,0.064,0.022,0.139,0.037,0.212c0.015,0.067,0.037,0.133,0.052,0.206
	c0.021,0.067,0.037,0.133,0.056,0.2c0.019,0.065,0.04,0.125,0.07,0.192c0.037,0.118,0.081,0.229,0.133,0.339
	c0.104,0.2,0.214,0.398,0.332,0.583c0.044,0.059,0.081,0.118,0.117,0.171c0.045,0.052,0.089,0.11,0.13,0.162
	c0.085,0.104,0.181,0.206,0.277,0.302c0.044,0.045,0.096,0.088,0.146,0.141c0.274,0.243,0.576,0.458,0.915,0.634
	c0.06,0.03,0.104,0.053,0.163,0.082c0.044,0.014,0.089,0.036,0.133,0.051c0.052,0.03,0.103,0.053,0.155,0.067
	c0.229,0.082,0.45,0.147,0.686,0.192c0.067,0.014,0.126,0.022,0.191,0.028c0.208,0.03,0.414,0.053,0.627,0.053
	c2.362,0,4.274-1.912,4.274-4.266c0-2.361-1.912-4.273-4.274-4.273c-0.102,0-0.213,0.008-0.316,0.015
	c-0.103,0.008-0.215,0.022-0.311,0.045c-0.073,0-0.146,0.008-0.213,0.028c-0.104,0.022-0.192,0.037-0.281,0.067
	c-0.021,0.008-0.044,0.008-0.06,0.015c-0.102,0.03-0.213,0.067-0.323,0.104c-0.053,0.022-0.104,0.043-0.155,0.065
	c-0.059,0.031-0.111,0.054-0.177,0.074c-0.11,0.059-0.215,0.118-0.318,0.178c-0.089,0.051-0.177,0.104-0.25,0.163
	c-0.03,0.015-0.06,0.037-0.082,0.051c-0.066,0.051-0.133,0.096-0.199,0.155c-0.089,0.065-0.176,0.139-0.258,0.229
	c-0.045,0.036-0.096,0.087-0.133,0.132c-0.066,0.065-0.126,0.125-0.178,0.198c-0.06,0.067-0.11,0.127-0.17,0.2
	c-0.036,0.043-0.065,0.088-0.096,0.14c-0.161,0.245-0.303,0.488-0.413,0.754c-0.014,0.045-0.045,0.102-0.059,0.146
	c-0.03,0.082-0.052,0.164-0.085,0.243c-0.019,0.067-0.034,0.133-0.056,0.206c-0.074,0.266-0.118,0.554-0.134,0.842
	C613.152,147.609,613.152,147.685,613.152,147.758"/>
<radialGradient id="SVGID_40_" cx="588.6221" cy="123.5791" r="5.1045" gradientTransform="matrix(1.046 0 0 1.046 -15.1785 23.7622)" gradientUnits="userSpaceOnUse">
	<stop  offset="0" style="stop-color:#FAE118"/>
	<stop  offset="1" style="stop-color:#FD6729"/>
</radialGradient>
<path fill="url(#SVGID_40_)" d="M595.183,153.027c0,0.087,0,0.178,0.008,0.273c0,0.11,0.015,0.221,0.022,0.331
	c0.015,0.067,0.015,0.133,0.029,0.2c0.015,0.096,0.022,0.184,0.052,0.266c0.016,0.088,0.037,0.176,0.059,0.266
	c0.022,0.073,0.041,0.161,0.067,0.243c0.022,0.081,0.051,0.161,0.08,0.251c0.053,0.146,0.119,0.288,0.177,0.427
	c0.127,0.243,0.26,0.488,0.421,0.724c0.045,0.067,0.097,0.141,0.148,0.206c0.044,0.075,0.104,0.141,0.154,0.2
	c0.104,0.133,0.215,0.258,0.348,0.384c0.052,0.06,0.118,0.119,0.185,0.17c0.339,0.311,0.723,0.582,1.143,0.805
	c0.067,0.028,0.133,0.06,0.192,0.096c0.06,0.021,0.118,0.052,0.178,0.065c0.066,0.031,0.125,0.06,0.199,0.082
	c0.272,0.103,0.561,0.184,0.849,0.243c0.082,0.015,0.161,0.022,0.243,0.037c0.259,0.036,0.517,0.067,0.79,0.067
	c2.944,0,5.335-2.393,5.335-5.336c0-2.952-2.391-5.343-5.335-5.343c-0.141,0-0.273,0.006-0.398,0.015
	c-0.133,0.014-0.266,0.036-0.392,0.051c-0.096,0-0.184,0.022-0.272,0.051c-0.126,0.017-0.244,0.037-0.354,0.074
	c-0.022,0.008-0.051,0.008-0.073,0.022c-0.126,0.036-0.266,0.081-0.392,0.133c-0.074,0.022-0.133,0.053-0.199,0.081
	c-0.073,0.029-0.141,0.067-0.222,0.088c-0.14,0.074-0.272,0.149-0.405,0.229c-0.11,0.06-0.215,0.119-0.311,0.192
	c-0.037,0.022-0.069,0.045-0.097,0.067c-0.088,0.06-0.169,0.125-0.257,0.206c-0.104,0.074-0.215,0.17-0.317,0.274
	c-0.06,0.051-0.118,0.11-0.171,0.169c-0.081,0.08-0.154,0.155-0.221,0.235c-0.073,0.09-0.141,0.17-0.199,0.26
	c-0.052,0.059-0.096,0.118-0.133,0.184c-0.207,0.296-0.369,0.604-0.51,0.93c-0.028,0.059-0.055,0.127-0.073,0.191
	c-0.044,0.097-0.074,0.2-0.11,0.297c-0.026,0.088-0.045,0.169-0.067,0.257c-0.096,0.34-0.147,0.695-0.162,1.057
	C595.183,152.843,595.183,152.931,595.183,153.027"/>
<radialGradient id="SVGID_41_" cx="569.9072" cy="127.8066" r="6.1245" gradientTransform="matrix(1.046 0 0 1.046 -15.1785 23.7622)" gradientUnits="userSpaceOnUse">
	<stop  offset="0" style="stop-color:#FAE118"/>
	<stop  offset="1" style="stop-color:#FD6729"/>
</radialGradient>
<path fill="url(#SVGID_41_)" d="M574.541,157.447c0,0.117,0,0.221,0,0.331c0.008,0.142,0.021,0.266,0.037,0.407
	c0.016,0.073,0.022,0.161,0.029,0.234c0.022,0.112,0.037,0.215,0.066,0.311c0.016,0.11,0.044,0.215,0.066,0.319
	c0.027,0.102,0.06,0.206,0.089,0.302c0.021,0.103,0.059,0.198,0.096,0.294c0.059,0.17,0.133,0.348,0.214,0.509
	c0.142,0.297,0.311,0.591,0.503,0.873c0.051,0.079,0.11,0.169,0.177,0.257c0.052,0.073,0.126,0.163,0.185,0.229
	c0.125,0.164,0.266,0.317,0.413,0.466c0.066,0.074,0.141,0.14,0.222,0.207c0.413,0.367,0.871,0.692,1.372,0.958
	c0.081,0.036,0.163,0.075,0.236,0.112c0.066,0.028,0.141,0.057,0.215,0.088c0.073,0.037,0.154,0.065,0.229,0.096
	c0.34,0.125,0.679,0.221,1.033,0.288c0.089,0.022,0.185,0.028,0.28,0.043c0.309,0.045,0.628,0.082,0.944,0.082
	c3.534,0,6.405-2.87,6.405-6.405c0-3.536-2.871-6.406-6.405-6.406c-0.162,0-0.316,0.008-0.48,0.022
	c-0.155,0.015-0.316,0.037-0.464,0.051c-0.111,0.015-0.214,0.037-0.324,0.06c-0.155,0.03-0.288,0.051-0.421,0.104
	c-0.031,0-0.067,0.006-0.089,0.014c-0.162,0.045-0.317,0.104-0.479,0.17c-0.074,0.022-0.155,0.06-0.229,0.088
	c-0.09,0.037-0.178,0.075-0.273,0.104c-0.163,0.096-0.325,0.178-0.48,0.273c-0.133,0.08-0.258,0.153-0.376,0.235
	c-0.037,0.03-0.073,0.059-0.118,0.081c-0.104,0.074-0.198,0.147-0.303,0.237c-0.133,0.103-0.257,0.221-0.376,0.339
	c-0.073,0.065-0.155,0.133-0.214,0.207c-0.088,0.096-0.185,0.184-0.258,0.287c-0.096,0.097-0.171,0.198-0.244,0.309
	c-0.066,0.067-0.111,0.133-0.162,0.215c-0.243,0.355-0.443,0.731-0.605,1.115c-0.036,0.08-0.067,0.155-0.096,0.235
	c-0.052,0.118-0.089,0.236-0.126,0.355c-0.029,0.102-0.062,0.198-0.089,0.302c-0.103,0.413-0.178,0.834-0.199,1.277
	C574.541,157.225,574.541,157.335,574.541,157.447"/>
<radialGradient id="SVGID_42_" cx="525.1387" cy="141.6191" r="8.1631" gradientTransform="matrix(1.046 0 0 1.046 -15.1785 23.7622)" gradientUnits="userSpaceOnUse">
	<stop  offset="0" style="stop-color:#FAE118"/>
	<stop  offset="1" style="stop-color:#FD6729"/>
</radialGradient>
<path fill="url(#SVGID_42_)" d="M525.577,171.897c0,0.155,0,0.288,0,0.435c0.008,0.192,0.026,0.362,0.049,0.531
	c0.016,0.11,0.02,0.221,0.04,0.325c0.019,0.147,0.044,0.294,0.081,0.427c0.025,0.133,0.061,0.282,0.092,0.415
	c0.038,0.133,0.075,0.279,0.116,0.404c0.036,0.133,0.078,0.266,0.137,0.393c0.074,0.229,0.17,0.464,0.273,0.678
	c0.191,0.407,0.412,0.791,0.664,1.158c0.081,0.119,0.162,0.237,0.243,0.348c0.074,0.11,0.163,0.221,0.251,0.316
	c0.162,0.209,0.348,0.415,0.554,0.607c0.082,0.096,0.192,0.184,0.295,0.279c0.547,0.494,1.159,0.93,1.831,1.277
	c0.103,0.051,0.213,0.102,0.31,0.146c0.089,0.037,0.191,0.088,0.28,0.119c0.104,0.045,0.207,0.096,0.31,0.133
	c0.45,0.169,0.901,0.294,1.373,0.384c0.126,0.028,0.251,0.037,0.376,0.06c0.414,0.057,0.835,0.096,1.263,0.096
	c4.724,0,8.546-3.824,8.546-8.531c0-4.724-3.822-8.54-8.546-8.54c-0.215,0-0.428,0.009-0.636,0.023
	c-0.213,0.021-0.42,0.045-0.627,0.073c-0.147,0.008-0.287,0.036-0.431,0.081c-0.204,0.029-0.381,0.06-0.565,0.125
	c-0.037,0.015-0.08,0.015-0.117,0.031c-0.2,0.064-0.421,0.132-0.636,0.22c-0.103,0.031-0.206,0.074-0.31,0.119
	c-0.118,0.051-0.229,0.102-0.361,0.146c-0.218,0.119-0.428,0.229-0.643,0.355c-0.177,0.11-0.339,0.207-0.494,0.317
	c-0.06,0.036-0.11,0.073-0.155,0.11c-0.14,0.096-0.272,0.2-0.405,0.316c-0.177,0.133-0.347,0.288-0.51,0.443
	c-0.097,0.088-0.191,0.184-0.28,0.273c-0.125,0.125-0.247,0.258-0.348,0.391c-0.117,0.133-0.225,0.266-0.324,0.398
	c-0.081,0.104-0.147,0.191-0.214,0.302c-0.325,0.466-0.59,0.969-0.812,1.491c-0.044,0.104-0.088,0.2-0.118,0.311
	c-0.066,0.155-0.118,0.317-0.174,0.464c-0.041,0.142-0.078,0.266-0.116,0.415c-0.14,0.545-0.235,1.099-0.262,1.697
	C525.577,171.609,525.577,171.748,525.577,171.897"/>
<radialGradient id="SVGID_43_" cx="503.3594" cy="151.3164" r="9.1865" gradientTransform="matrix(1.046 0 0 1.046 -15.1785 23.7622)" gradientUnits="userSpaceOnUse">
	<stop  offset="0" style="stop-color:#FAE118"/>
	<stop  offset="1" style="stop-color:#FD6729"/>
</radialGradient>
<path fill="url(#SVGID_43_)" d="M501.729,182.036c0,0.178,0,0.325,0,0.495c0.009,0.214,0.033,0.406,0.06,0.598
	c0.015,0.117,0.025,0.25,0.041,0.362c0.022,0.169,0.049,0.331,0.096,0.478c0.025,0.164,0.065,0.325,0.1,0.475
	c0.044,0.146,0.085,0.308,0.13,0.457c0.034,0.147,0.092,0.288,0.15,0.436c0.088,0.266,0.197,0.531,0.317,0.766
	c0.206,0.452,0.461,0.895,0.745,1.308c0.083,0.133,0.178,0.266,0.27,0.384c0.088,0.117,0.188,0.243,0.278,0.362
	c0.187,0.229,0.396,0.464,0.625,0.678c0.09,0.11,0.215,0.215,0.337,0.316c0.609,0.554,1.302,1.042,2.056,1.44
	c0.117,0.052,0.238,0.11,0.349,0.162c0.108,0.045,0.215,0.104,0.322,0.133c0.114,0.053,0.231,0.104,0.347,0.148
	c0.506,0.198,1.013,0.331,1.542,0.427c0.141,0.045,0.281,0.052,0.425,0.067c0.464,0.08,0.94,0.117,1.417,0.117
	c5.31,0,9.613-4.303,9.613-9.608c0-5.313-4.304-9.607-9.613-9.607c-0.244,0-0.477,0-0.716,0.028
	c-0.237,0.015-0.473,0.051-0.701,0.082c-0.162,0.008-0.327,0.045-0.487,0.081c-0.222,0.052-0.432,0.08-0.634,0.155
	c-0.045,0.007-0.089,0.015-0.133,0.029c-0.229,0.073-0.473,0.155-0.713,0.243c-0.115,0.036-0.232,0.09-0.347,0.141
	c-0.136,0.06-0.263,0.11-0.405,0.161c-0.244,0.133-0.487,0.266-0.731,0.398c-0.195,0.119-0.38,0.237-0.56,0.355
	c-0.06,0.043-0.115,0.088-0.168,0.133c-0.157,0.103-0.306,0.221-0.457,0.354c-0.203,0.147-0.395,0.318-0.573,0.494
	c-0.105,0.104-0.216,0.2-0.318,0.311c-0.138,0.142-0.271,0.288-0.388,0.436c-0.133,0.155-0.252,0.303-0.366,0.457
	c-0.092,0.11-0.166,0.207-0.236,0.334c-0.365,0.522-0.672,1.091-0.916,1.675c-0.047,0.124-0.105,0.229-0.138,0.361
	c-0.072,0.161-0.131,0.346-0.192,0.523c-0.045,0.146-0.086,0.296-0.13,0.457c-0.158,0.604-0.263,1.24-0.296,1.912
	C501.729,181.712,501.729,181.875,501.729,182.036"/>
<radialGradient id="SVGID_44_" cx="484.9863" cy="168.3311" r="10.2061" gradientTransform="matrix(1.046 0 0 1.046 -15.1785 23.7622)" gradientUnits="userSpaceOnUse">
	<stop  offset="0" style="stop-color:#FAE118"/>
	<stop  offset="1" style="stop-color:#FD6729"/>
</radialGradient>
<path fill="url(#SVGID_44_)" d="M481.442,199.836c0,0.192,0,0.362,0,0.546c0.01,0.237,0.04,0.451,0.065,0.664
	c0.019,0.135,0.026,0.282,0.049,0.406c0.021,0.184,0.055,0.361,0.103,0.517c0.03,0.185,0.073,0.37,0.114,0.54
	c0.045,0.161,0.092,0.339,0.141,0.5c0.041,0.17,0.1,0.325,0.165,0.488c0.104,0.294,0.226,0.591,0.352,0.856
	c0.23,0.5,0.521,0.988,0.834,1.446c0.092,0.147,0.189,0.294,0.291,0.427c0.107,0.133,0.209,0.273,0.317,0.398
	c0.204,0.26,0.436,0.525,0.693,0.762c0.1,0.117,0.236,0.227,0.377,0.354c0.675,0.613,1.442,1.15,2.282,1.594
	c0.127,0.06,0.264,0.127,0.39,0.184c0.114,0.045,0.24,0.104,0.354,0.149c0.124,0.06,0.254,0.118,0.384,0.161
	c0.563,0.223,1.125,0.37,1.717,0.48c0.151,0.045,0.31,0.059,0.467,0.073c0.521,0.082,1.049,0.127,1.577,0.127
	c5.898,0,10.681-4.776,10.681-10.673c0-5.91-4.782-10.678-10.681-10.678c-0.268,0-0.528,0-0.792,0.028
	c-0.265,0.017-0.53,0.054-0.785,0.09c-0.181,0.006-0.357,0.051-0.542,0.096c-0.246,0.043-0.473,0.08-0.705,0.17
	c-0.044,0.015-0.093,0.022-0.144,0.028c-0.256,0.082-0.524,0.17-0.793,0.274c-0.13,0.045-0.26,0.096-0.384,0.146
	c-0.151,0.074-0.292,0.133-0.451,0.185c-0.27,0.155-0.542,0.296-0.812,0.443c-0.218,0.133-0.423,0.273-0.623,0.406
	c-0.067,0.045-0.13,0.088-0.182,0.133c-0.176,0.124-0.347,0.251-0.509,0.398c-0.229,0.169-0.443,0.354-0.635,0.554
	c-0.126,0.11-0.247,0.221-0.356,0.339c-0.158,0.163-0.3,0.325-0.438,0.488c-0.143,0.17-0.276,0.339-0.409,0.5
	c-0.102,0.127-0.173,0.237-0.261,0.376c-0.403,0.585-0.739,1.218-1.016,1.861c-0.049,0.139-0.114,0.258-0.147,0.398
	c-0.085,0.184-0.148,0.384-0.218,0.582c-0.049,0.17-0.096,0.333-0.141,0.518c-0.18,0.672-0.291,1.372-0.331,2.118
	C481.442,199.467,481.442,199.645,481.442,199.836"/>
<radialGradient id="SVGID_45_" cx="471.0371" cy="195.3799" r="11.2271" gradientTransform="matrix(1.046 0 0 1.046 -15.1785 23.7622)" gradientUnits="userSpaceOnUse">
	<stop  offset="0" style="stop-color:#FAE118"/>
	<stop  offset="1" style="stop-color:#FD6729"/>
</radialGradient>
<path fill="url(#SVGID_45_)" d="M465.785,228.123c0,0.223,0,0.406,0,0.604c0.004,0.26,0.034,0.494,0.063,0.731
	c0.026,0.146,0.033,0.311,0.06,0.449c0.021,0.2,0.059,0.4,0.114,0.57c0.033,0.206,0.08,0.404,0.125,0.582
	c0.048,0.184,0.096,0.376,0.149,0.562c0.05,0.184,0.116,0.361,0.187,0.531c0.114,0.325,0.25,0.647,0.387,0.936
	c0.256,0.554,0.568,1.093,0.92,1.596c0.099,0.161,0.21,0.331,0.32,0.472c0.11,0.147,0.228,0.311,0.344,0.443
	c0.229,0.286,0.483,0.568,0.767,0.834c0.107,0.133,0.263,0.251,0.414,0.39c0.741,0.673,1.583,1.271,2.513,1.757
	c0.14,0.06,0.286,0.133,0.424,0.198c0.126,0.045,0.263,0.119,0.392,0.164c0.137,0.059,0.279,0.124,0.425,0.184
	c0.614,0.237,1.236,0.398,1.889,0.517c0.162,0.051,0.336,0.067,0.513,0.088c0.569,0.09,1.151,0.141,1.734,0.141
	c6.483,0,11.748-5.26,11.748-11.748c0-6.495-5.265-11.741-11.748-11.741c-0.295,0-0.583,0-0.871,0.037
	c-0.294,0.015-0.582,0.051-0.863,0.096c-0.201,0.009-0.398,0.051-0.598,0.104c-0.27,0.051-0.521,0.088-0.774,0.184
	c-0.049,0.022-0.104,0.028-0.159,0.037c-0.279,0.088-0.579,0.184-0.87,0.294c-0.146,0.053-0.288,0.112-0.425,0.172
	c-0.166,0.079-0.325,0.133-0.494,0.198c-0.299,0.169-0.598,0.324-0.897,0.486c-0.236,0.148-0.462,0.296-0.683,0.443
	c-0.073,0.053-0.144,0.104-0.202,0.154c-0.191,0.133-0.381,0.274-0.558,0.436c-0.255,0.186-0.487,0.393-0.7,0.604
	c-0.14,0.127-0.266,0.245-0.389,0.378c-0.174,0.176-0.332,0.354-0.483,0.537c-0.158,0.187-0.303,0.37-0.446,0.554
	c-0.11,0.133-0.195,0.252-0.288,0.415c-0.446,0.642-0.811,1.328-1.117,2.037c-0.055,0.153-0.13,0.286-0.17,0.441
	c-0.091,0.2-0.155,0.429-0.238,0.644c-0.054,0.184-0.102,0.367-0.149,0.56c-0.196,0.737-0.327,1.514-0.361,2.333
	C465.785,227.725,465.785,227.925,465.785,228.123"/>
<radialGradient id="SVGID_46_" cx="471.0332" cy="224.1289" r="12.2485" gradientTransform="matrix(1.046 0 0 1.046 -15.1785 23.7622)" gradientUnits="userSpaceOnUse">
	<stop  offset="0" style="stop-color:#FAE118"/>
	<stop  offset="1" style="stop-color:#FD6729"/>
</radialGradient>
<path fill="url(#SVGID_46_)" d="M464.712,258.196c0,0.235,0,0.436,0,0.656c0.009,0.288,0.047,0.539,0.073,0.797
	c0.029,0.155,0.036,0.339,0.062,0.488c0.025,0.221,0.067,0.441,0.127,0.619c0.037,0.236,0.092,0.442,0.136,0.641
	c0.056,0.2,0.111,0.407,0.167,0.613c0.051,0.2,0.124,0.393,0.202,0.584c0.122,0.354,0.27,0.701,0.421,1.018
	c0.279,0.599,0.62,1.189,1,1.743c0.114,0.169,0.229,0.353,0.351,0.515c0.125,0.155,0.251,0.333,0.38,0.479
	c0.247,0.311,0.521,0.621,0.833,0.909c0.119,0.147,0.285,0.266,0.452,0.427c0.811,0.724,1.726,1.382,2.741,1.912
	c0.146,0.065,0.316,0.147,0.462,0.221c0.135,0.052,0.286,0.125,0.423,0.178c0.151,0.065,0.311,0.133,0.466,0.198
	c0.674,0.26,1.351,0.436,2.063,0.568c0.177,0.053,0.368,0.067,0.561,0.09c0.616,0.103,1.255,0.155,1.893,0.155
	c7.074,0,12.814-5.742,12.814-12.812c0-7.093-5.74-12.811-12.814-12.811c-0.324,0-0.638,0-0.952,0.036
	c-0.324,0.015-0.638,0.065-0.94,0.11c-0.222,0.007-0.436,0.052-0.653,0.103c-0.295,0.06-0.568,0.104-0.845,0.2
	c-0.056,0.028-0.11,0.045-0.177,0.045c-0.303,0.103-0.628,0.206-0.948,0.325c-0.155,0.057-0.314,0.124-0.466,0.184
	c-0.174,0.088-0.348,0.146-0.535,0.215c-0.325,0.184-0.653,0.361-0.978,0.537c-0.259,0.163-0.506,0.324-0.745,0.488
	c-0.081,0.051-0.155,0.102-0.219,0.161c-0.21,0.141-0.416,0.296-0.611,0.479c-0.272,0.201-0.532,0.421-0.765,0.656
	c-0.147,0.141-0.291,0.268-0.421,0.415c-0.19,0.191-0.364,0.384-0.53,0.582c-0.17,0.206-0.325,0.406-0.487,0.604
	c-0.122,0.149-0.215,0.273-0.314,0.451c-0.489,0.701-0.885,1.453-1.217,2.221c-0.061,0.17-0.141,0.311-0.182,0.486
	c-0.103,0.215-0.173,0.458-0.261,0.703c-0.056,0.198-0.111,0.398-0.167,0.61c-0.218,0.806-0.351,1.655-0.397,2.54
	C464.712,257.753,464.712,257.974,464.712,258.196"/>
<radialGradient id="SVGID_47_" cx="488.4961" cy="249.4746" r="13.2681" gradientTransform="matrix(1.046 0 0 1.046 -15.1785 23.7622)" gradientUnits="userSpaceOnUse">
	<stop  offset="0" style="stop-color:#FAE118"/>
	<stop  offset="1" style="stop-color:#FD6729"/>
</radialGradient>
<path fill="url(#SVGID_47_)" d="M481.91,284.712c0,0.251,0,0.464,0,0.709c0.008,0.309,0.048,0.582,0.077,0.862
	c0.03,0.169,0.041,0.369,0.069,0.53c0.022,0.237,0.071,0.475,0.132,0.673c0.042,0.243,0.102,0.472,0.149,0.694
	c0.06,0.212,0.117,0.441,0.185,0.655c0.056,0.215,0.129,0.43,0.218,0.636c0.13,0.384,0.291,0.76,0.454,1.107
	c0.306,0.649,0.671,1.283,1.085,1.882c0.119,0.184,0.251,0.384,0.381,0.553c0.133,0.176,0.269,0.362,0.412,0.523
	c0.262,0.339,0.562,0.672,0.899,0.989c0.131,0.155,0.308,0.288,0.488,0.457c0.878,0.797,1.873,1.5,2.97,2.082
	c0.163,0.065,0.34,0.161,0.506,0.229c0.145,0.065,0.307,0.147,0.458,0.192c0.162,0.073,0.336,0.146,0.501,0.214
	c0.731,0.286,1.461,0.479,2.233,0.619c0.192,0.06,0.4,0.074,0.604,0.104c0.673,0.103,1.362,0.161,2.056,0.161
	c7.662,0,13.882-6.221,13.882-13.873c0-7.689-6.22-13.882-13.882-13.882c-0.354,0-0.693,0-1.034,0.037
	c-0.349,0.022-0.689,0.067-1.021,0.118c-0.235,0.006-0.465,0.06-0.704,0.118c-0.321,0.06-0.616,0.11-0.918,0.213
	c-0.057,0.03-0.119,0.037-0.186,0.053c-0.332,0.103-0.683,0.213-1.03,0.354c-0.165,0.06-0.339,0.133-0.501,0.192
	c-0.192,0.096-0.38,0.161-0.583,0.236c-0.354,0.198-0.705,0.383-1.059,0.583c-0.281,0.169-0.547,0.347-0.809,0.517
	c-0.086,0.065-0.17,0.125-0.237,0.184c-0.228,0.155-0.449,0.325-0.663,0.509c-0.299,0.223-0.575,0.466-0.822,0.724
	c-0.167,0.148-0.318,0.288-0.462,0.443c-0.206,0.214-0.395,0.421-0.574,0.635c-0.186,0.215-0.353,0.436-0.524,0.649
	c-0.13,0.162-0.229,0.303-0.341,0.495c-0.527,0.752-0.963,1.57-1.32,2.404c-0.063,0.186-0.151,0.341-0.196,0.525
	c-0.11,0.234-0.188,0.5-0.28,0.76c-0.067,0.221-0.125,0.435-0.185,0.664c-0.231,0.87-0.38,1.793-0.428,2.751
	C481.91,284.224,481.91,284.469,481.91,284.712"/>
<radialGradient id="SVGID_48_" cx="543.5332" cy="524.1475" r="207.5103" gradientTransform="matrix(1.046 0 0 1.046 -15.1785 23.7622)" gradientUnits="userSpaceOnUse">
	<stop  offset="0" style="stop-color:#FAE118"/>
	<stop  offset="1" style="stop-color:#FD6729"/>
</radialGradient>
<path fill-rule="evenodd" clip-rule="evenodd" fill="url(#SVGID_48_)" d="M759.668,373.813
	c-17.483-16.507-41.535-16.574-60.98-1.274c-3.02,2.376-9.107,9.992-9.904,0.56c-1.144-13.506-9.13-11.955-17.512-11.955
	c-77.712-0.028-155.425,0.2-233.137-0.221c-13.265-0.067-22.29,2.073-19.577,20.021c-3.399-2.028-4.739-2.479-5.579-3.387
	c-15.123-16.176-33.399-21.15-53.487-11.992c-20.804,9.489-29.505,27.216-28.97,50.005c0.587,25.188,12.048,45.6,28.091,63.533
	c23.819,26.633,51.099,49.792,76.996,74.344c8.417,7.985,16.724,16.097,24.771,24.441c3.154,3.269,5.225,7.667,3.195,12.288
	c-2.387,5.438-7.28,4.17-11.635,3.122c-6.866-1.646-13.029-0.834-15.272,6.627c-2.421,8.051,3.266,12.434,9.527,15.563
	c13.786,6.9,29.83,1.181,38.768-13.58c2.335-3.858,3.608-11.231,10.021-4.819c10.174,10.164,22.369,17.794,32.869,27.438
	c11.974,10.981,13.397,24.752,4.106,38.205c-4.819,6.982-4.517,12.48,0.2,19.424c8.021,11.816,1.867,66.426-7.865,75.975
	c-0.318,0.311-0.613,0.754-1.001,0.879c-17.623,5.638-33.778,13.836-49.988,22.907c63.4-0.125,129.073,0.191,141.17,1.181
	c7.048,0.008,17.979-0.119,16.619-0.096c-1.048,0.021-2.384-1.283-3.158-2.295c-6.944-9.13-17.438-13.667-27.49-15.52
	c-16.509-3.049-22.798-13.337-25.608-27.594c-3.927-19.902-11.343-39.977,2.029-59.423c3.521-5.136,1.233-10.013-1.911-14.854
	c-9.845-15.15-8.38-27.97,5.091-40.221c8.572-7.8,18.45-14.176,26.813-22.176c6.93-6.634,10.339-7.201,15.292,2.229
	c7.579,14.436,25.549,19.269,39.075,11.896c5.765-3.137,10.79-7.416,8.717-14.804c-2.118-7.557-8.089-8.597-15.025-6.997
	c-4.317,0.997-9.189,2.488-11.809-2.803c-2.229-4.48-0.45-8.924,2.317-12.523c2.687-3.499,6.051-6.502,9.269-9.557
	c31.425-29.777,64.007-58.36,93.837-89.782c12.502-13.167,21.313-28.774,25.364-46.552
	C778.812,410.434,776.752,389.947,759.668,373.813z M452.571,536.776c-7.491-6.489-14.089-11.447-19.801-17.277
	c-21.788-22.235-48.169-39.888-65.819-66.263c-6.051-9.04-10.086-18.878-12.925-29.254c-2.454-8.959-1.793-17.646,2.801-25.925
	c6.934-12.495,18.733-17.085,30.317-11.659c12.121,5.673,16.638,18.552,11.051,31.688c-0.692,1.639-1.712,3.136-2.557,4.701
	c-3.248,6.045-4.406,12.073,2.052,16.656c5.935,4.214,11.265,1.609,15.291-3.24c7.345-8.854,10.667-5.371,12.316,3.669
	c5.713,31.298,14.853,61.553,27.214,90.858C452.962,531.793,452.571,533.211,452.571,536.776z M749.151,435.341
	c-4.826,12.679-12.226,24.08-21.956,33.208c-22.707,21.291-43.586,44.537-68.094,63.895c-0.923,0.73-2.392,0.76-6.436,1.948
	c13.549-32.995,23.04-64.417,29.195-96.816c1.298-6.825,4.62-8.441,9.705-2.678c4.774,5.438,10.419,9.409,17.338,4.435
	c7.96-5.726,3.502-12.243,0.311-18.855c-7.147-14.817-2.232-29.098,11.398-34.595c12.767-5.152,25.696,1.83,31.271,16.95
	C756.036,414.072,753.158,424.817,749.151,435.341z"/>
<radialGradient id="SVGID_49_" cx="538.6201" cy="199.2119" r="42.1338" gradientTransform="matrix(1.046 0 0 1.046 -15.1785 23.7622)" gradientUnits="userSpaceOnUse">
	<stop  offset="0" style="stop-color:#FAE118"/>
	<stop  offset="1" style="stop-color:#FD6729"/>
</radialGradient>
<path fill-rule="evenodd" clip-rule="evenodd" fill="url(#SVGID_49_)" d="M520.304,275.11c0.159-0.93,0.296-1.777,0.443-2.628
	c0.87-5.091,1.745-10.184,2.62-15.269c0.73-4.266,1.457-8.531,2.199-12.797c0.051-0.28,0-0.458-0.202-0.664
	c-4.554-4.427-9.101-8.855-13.65-13.291c-2.775-2.707-5.55-5.416-8.328-8.116c-0.09-0.082-0.202-0.147-0.307-0.223
	c0.019-0.043,0.033-0.088,0.05-0.14c0.512-0.081,1.025-0.169,1.538-0.243c5.53-0.805,11.063-1.602,16.597-2.406
	c4.192-0.604,8.386-1.218,12.576-1.822c0.319-0.045,0.488-0.17,0.629-0.458c2.789-5.675,5.594-11.358,8.397-17.033
	c1.542-3.128,3.107-6.258,4.658-9.388c0.229-0.464,0.449-0.93,0.708-1.475c0.317,0.619,0.598,1.166,0.871,1.72
	c4.309,8.729,8.611,17.453,12.907,26.183c0.158,0.324,0.368,0.414,0.687,0.457c3.313,0.48,6.634,0.969,9.955,1.446
	c3.814,0.554,7.638,1.107,11.453,1.661c2.916,0.43,5.831,0.856,8.746,1.277c0.161,0.022,0.331,0.051,0.509,0.081
	c-0.568,0.597-1.1,1.173-1.661,1.719c-6.834,6.664-13.675,13.336-20.516,19.992c-0.243,0.236-0.317,0.442-0.258,0.782
	c0.885,5.085,1.756,10.17,2.634,15.263c0.856,4.995,1.712,9.991,2.562,14.986c0.015,0.104,0,0.207,0,0.378
	c-1.011-0.524-1.989-1.033-2.96-1.542c-5.323-2.799-10.642-5.602-15.97-8.398c-2.855-1.506-5.721-3.005-8.568-4.517
	c-0.288-0.155-0.494-0.142-0.778,0.008c-9,4.743-18.004,9.475-27.009,14.204C520.688,274.94,520.529,275.008,520.304,275.11z
	 M550.343,236.668c0.17,0.067,0.222,0.09,0.28,0.104c5.89,1.918,11.786,3.837,17.683,5.763c0.295,0.097,0.428-0.036,0.599-0.206
	c5.652-5.506,11.306-11.018,16.958-16.531c0.303-0.294,0.605-0.597,0.907-0.893c-0.007-0.022-0.022-0.043-0.041-0.06
	C574.638,228.772,562.542,232.707,550.343,236.668z M546.52,235.451c-0.074-0.133-0.093-0.176-0.118-0.221
	c-3.66-5.034-7.313-10.066-10.981-15.092c-0.088-0.126-0.347-0.206-0.509-0.186c-1.734,0.237-3.47,0.494-5.195,0.746
	c-5.829,0.85-11.655,1.689-17.482,2.539c-0.7,0.102-1.396,0.206-2.096,0.311v0.051C522.241,227.555,534.335,231.487,546.52,235.451z
	 M523.997,268.802c0.031,0.006,0.069,0.014,0.104,0.014c7.451-10.257,14.905-20.517,22.426-30.87
	c-0.199,0.045-0.28,0.053-0.348,0.073c-5.867,1.904-11.733,3.808-17.594,5.734c-0.154,0.054-0.339,0.274-0.368,0.443
	c-0.494,2.805-0.975,5.616-1.454,8.413c-0.737,4.333-1.485,8.655-2.227,12.988C524.353,266.66,524.175,267.73,523.997,268.802z
	 M548.911,238.685c-0.015,0.213-0.022,0.28-0.022,0.339c0,6.162,0,12.323-0.008,18.486c0,0.303,0.118,0.441,0.369,0.568
	c3.616,1.896,7.226,3.794,10.834,5.697c3.646,1.91,7.306,3.837,10.953,5.749c0.095,0.052,0.206,0.088,0.404,0.17
	C563.915,259.332,556.453,249.066,548.911,238.685z M548.903,234.654c0.118-0.147,0.178-0.215,0.229-0.288
	c3.616-4.973,7.232-9.955,10.856-14.93c0.17-0.228,0.155-0.398,0.037-0.634c-3.631-7.351-7.262-14.709-10.894-22.065
	c-0.051-0.096-0.124-0.184-0.229-0.348C548.903,209.173,548.903,221.865,548.903,234.654z"/>
<radialGradient id="SVGID_50_" cx="282.0391" cy="224.124" r="42.1333" gradientTransform="matrix(1.046 0 0 1.046 -15.1785 23.7622)" gradientUnits="userSpaceOnUse">
	<stop  offset="0" style="stop-color:#FAE118"/>
	<stop  offset="1" style="stop-color:#FD6729"/>
</radialGradient>
<path fill-rule="evenodd" clip-rule="evenodd" fill="url(#SVGID_50_)" d="M251.921,301.168c0.158-0.93,0.296-1.777,0.442-2.628
	c0.872-5.091,1.746-10.176,2.62-15.269c0.73-4.266,1.458-8.529,2.199-12.795c0.052-0.282,0-0.458-0.202-0.658
	c-4.554-4.427-9.104-8.861-13.648-13.297c-2.775-2.709-5.551-5.418-8.33-8.119c-0.088-0.081-0.202-0.141-0.308-0.214
	c0.02-0.051,0.035-0.097,0.054-0.139c0.51-0.082,1.022-0.17,1.535-0.252c5.53-0.797,11.065-1.593,16.598-2.398
	c4.191-0.612,8.38-1.226,12.575-1.83c0.317-0.045,0.487-0.163,0.63-0.449c2.791-5.684,5.592-11.365,8.396-17.034
	c1.546-3.136,3.106-6.266,4.66-9.394c0.229-0.457,0.446-0.93,0.709-1.477c0.313,0.621,0.594,1.166,0.871,1.72
	c4.306,8.729,8.61,17.453,12.908,26.185c0.157,0.324,0.367,0.419,0.682,0.464c3.317,0.472,6.638,0.96,9.956,1.439
	c3.818,0.552,7.639,1.105,11.457,1.659c2.911,0.429,5.826,0.856,8.741,1.277c0.166,0.022,0.332,0.059,0.509,0.09
	c-0.567,0.59-1.095,1.164-1.656,1.712c-6.838,6.67-13.68,13.334-20.52,19.992c-0.243,0.234-0.317,0.44-0.259,0.78
	c0.89,5.093,1.76,10.178,2.635,15.263c0.855,4.994,1.712,10,2.564,14.995c0.014,0.096,0,0.206,0,0.376
	c-1.011-0.531-1.988-1.04-2.959-1.549c-5.324-2.797-10.646-5.594-15.975-8.398c-2.855-1.506-5.716-2.997-8.563-4.518
	c-0.292-0.154-0.499-0.139-0.778,0.009c-9.001,4.745-18.006,9.475-27.012,14.213C252.305,300.998,252.146,301.065,251.921,301.168z
	 M281.958,262.728c0.173,0.065,0.225,0.097,0.28,0.11c5.893,1.919,11.79,3.831,17.682,5.755c0.299,0.097,0.427-0.028,0.599-0.198
	c5.653-5.514,11.306-11.018,16.963-16.531c0.302-0.302,0.604-0.597,0.907-0.898c-0.011-0.022-0.025-0.045-0.041-0.054
	C306.252,254.83,294.156,258.765,281.958,262.728z M278.138,261.51c-0.073-0.133-0.092-0.178-0.12-0.214
	c-3.657-5.04-7.314-10.065-10.982-15.1c-0.089-0.124-0.347-0.2-0.51-0.178c-1.733,0.229-3.465,0.488-5.191,0.737
	c-5.83,0.856-11.657,1.698-17.483,2.548c-0.701,0.103-1.397,0.198-2.095,0.303c0,0.028,0,0.059,0,0.059
	C253.854,253.62,265.953,257.553,278.138,261.51z M255.615,294.859c0.027,0.006,0.07,0.014,0.103,0.022
	c7.454-10.267,14.904-20.518,22.428-30.877c-0.203,0.043-0.279,0.051-0.354,0.073c-5.863,1.91-11.727,3.814-17.588,5.732
	c-0.156,0.06-0.342,0.282-0.37,0.451c-0.495,2.806-0.971,5.608-1.451,8.413c-0.745,4.325-1.489,8.656-2.229,12.98
	C255.97,292.727,255.79,293.797,255.615,294.859z M280.526,264.742c-0.014,0.221-0.022,0.28-0.022,0.348
	c0,6.161,0,12.322-0.008,18.486c0,0.302,0.122,0.435,0.373,0.567c3.612,1.888,7.221,3.792,10.828,5.689
	c3.65,1.919,7.308,3.837,10.957,5.755c0.096,0.054,0.203,0.09,0.405,0.172C295.529,285.398,288.066,275.124,280.526,264.742z
	 M280.517,260.711c0.124-0.139,0.179-0.212,0.229-0.279c3.621-4.98,7.233-9.964,10.861-14.936c0.165-0.229,0.155-0.398,0.036-0.636
	c-3.634-7.351-7.266-14.707-10.897-22.058c-0.051-0.104-0.124-0.191-0.229-0.355C280.517,235.23,280.517,247.931,280.517,260.711z"
	/>
<radialGradient id="SVGID_51_" cx="153.084" cy="446.9131" r="42.1333" gradientTransform="matrix(1.046 0 0 1.046 -15.1785 23.7622)" gradientUnits="userSpaceOnUse">
	<stop  offset="0" style="stop-color:#FAE118"/>
	<stop  offset="1" style="stop-color:#FD6729"/>
</radialGradient>
<path fill-rule="evenodd" clip-rule="evenodd" fill="url(#SVGID_51_)" d="M117.033,534.2c0.16-0.93,0.296-1.78,0.443-2.628
	c0.869-5.093,1.746-10.184,2.619-15.269c0.731-4.266,1.459-8.531,2.198-12.797c0.054-0.28,0-0.458-0.204-0.664
	c-4.551-4.427-9.096-8.855-13.646-13.291c-2.774-2.709-5.549-5.416-8.328-8.116c-0.088-0.082-0.203-0.149-0.307-0.223
	c0.02-0.045,0.033-0.088,0.053-0.14c0.509-0.081,1.02-0.171,1.535-0.245c5.53-0.803,11.066-1.602,16.597-2.404
	c4.192-0.606,8.382-1.218,12.575-1.824c0.318-0.043,0.487-0.17,0.631-0.458c2.791-5.673,5.591-11.356,8.396-17.031
	c1.546-3.128,3.106-6.258,4.66-9.388c0.228-0.464,0.446-0.93,0.706-1.475c0.314,0.619,0.597,1.166,0.873,1.718
	c4.307,8.731,8.612,17.455,12.908,26.185c0.158,0.324,0.368,0.412,0.683,0.457c3.317,0.48,6.636,0.967,9.955,1.446
	c3.819,0.554,7.638,1.107,11.458,1.661c2.91,0.427,5.826,0.856,8.741,1.277c0.166,0.022,0.331,0.051,0.509,0.081
	c-0.57,0.597-1.096,1.173-1.656,1.719c-6.838,6.664-13.68,13.336-20.521,19.991c-0.243,0.237-0.317,0.443-0.258,0.783
	c0.89,5.085,1.76,10.17,2.634,15.261c0.856,4.997,1.713,9.993,2.564,14.997c0.016,0.096,0,0.198,0,0.367
	c-1.01-0.522-1.988-1.031-2.959-1.542c-5.324-2.797-10.648-5.594-15.97-8.398c-2.86-1.504-5.72-3.003-8.568-4.515
	c-0.292-0.155-0.499-0.142-0.778,0.006c-9,4.746-18.004,9.477-27.013,14.206C117.418,534.03,117.26,534.096,117.033,534.2z
	 M147.07,495.758c0.174,0.067,0.225,0.088,0.28,0.104c5.894,1.918,11.79,3.837,17.683,5.763c0.299,0.097,0.428-0.036,0.598-0.206
	c5.653-5.506,11.307-11.018,16.961-16.531c0.305-0.294,0.607-0.597,0.91-0.893c-0.016-0.022-0.026-0.045-0.041-0.06
	C171.365,487.862,159.27,491.795,147.07,495.758z M143.252,494.541c-0.074-0.133-0.093-0.178-0.123-0.221
	c-3.656-5.034-7.31-10.068-10.98-15.094c-0.089-0.124-0.348-0.206-0.51-0.184c-1.734,0.237-3.465,0.494-5.191,0.746
	c-5.83,0.848-11.657,1.689-17.483,2.539c-0.701,0.102-1.398,0.206-2.096,0.309v0.053
	C118.971,486.645,131.066,490.577,143.252,494.541z M120.728,527.89c0.03,0.008,0.069,0.016,0.103,0.016
	c7.455-10.259,14.904-20.517,22.429-30.87c-0.203,0.045-0.28,0.051-0.353,0.073c-5.865,1.904-11.729,3.816-17.588,5.734
	c-0.159,0.052-0.344,0.28-0.373,0.443c-0.494,2.803-0.971,5.616-1.451,8.413c-0.74,4.331-1.486,8.656-2.228,12.988
	C121.082,525.75,120.904,526.82,120.728,527.89z M145.639,497.772c-0.012,0.215-0.021,0.282-0.021,0.339
	c0,6.164,0,12.325-0.008,18.486c0,0.305,0.121,0.443,0.373,0.57c3.611,1.896,7.221,3.792,10.829,5.695
	c3.649,1.912,7.303,3.839,10.956,5.749c0.096,0.054,0.203,0.09,0.406,0.178C160.643,518.422,153.181,508.156,145.639,497.772z
	 M145.631,493.744c0.12-0.147,0.178-0.215,0.229-0.288c3.621-4.975,7.232-9.955,10.857-14.93c0.169-0.229,0.158-0.398,0.039-0.634
	c-3.634-7.351-7.265-14.709-10.899-22.065c-0.048-0.096-0.118-0.186-0.226-0.348C145.631,468.261,145.631,480.955,145.631,493.744z"
	/>
<radialGradient id="SVGID_52_" cx="801.6875" cy="240.2959" r="42.1338" gradientTransform="matrix(1.046 0 0 1.046 -15.1785 23.7622)" gradientUnits="userSpaceOnUse">
	<stop  offset="0" style="stop-color:#FAE118"/>
	<stop  offset="1" style="stop-color:#FD6729"/>
</radialGradient>
<path fill-rule="evenodd" clip-rule="evenodd" fill="url(#SVGID_52_)" d="M795.476,318.083c0.161-0.93,0.294-1.779,0.442-2.619
	c0.871-5.102,1.75-10.187,2.62-15.269c0.73-4.274,1.461-8.54,2.198-12.806c0.053-0.279,0-0.457-0.202-0.655
	c-4.55-4.43-9.096-8.864-13.649-13.3c-2.774-2.709-5.55-5.416-8.325-8.116c-0.088-0.076-0.206-0.141-0.31-0.215
	c0.021-0.051,0.037-0.096,0.053-0.141c0.509-0.082,1.025-0.17,1.534-0.251c5.535-0.797,11.071-1.594,16.597-2.398
	c4.192-0.613,8.385-1.224,12.577-1.831c0.316-0.043,0.486-0.161,0.634-0.449c2.79-5.682,5.587-11.365,8.391-17.032
	c1.547-3.136,3.107-6.259,4.665-9.396c0.228-0.457,0.442-0.929,0.708-1.475c0.311,0.619,0.591,1.167,0.871,1.718
	c4.303,8.731,8.612,17.455,12.908,26.185c0.154,0.333,0.368,0.421,0.678,0.466c3.321,0.472,6.643,0.966,9.956,1.438
	c3.823,0.554,7.639,1.107,11.461,1.66c2.908,0.428,5.823,0.856,8.738,1.277c0.17,0.022,0.332,0.06,0.509,0.088
	c-0.567,0.599-1.092,1.166-1.652,1.712c-6.842,6.672-13.684,13.336-20.524,19.992c-0.244,0.237-0.317,0.443-0.258,0.782
	c0.889,5.085,1.764,10.176,2.634,15.269c0.856,4.989,1.713,9.992,2.568,14.989c0.016,0.096,0,0.206,0,0.376
	c-1.015-0.531-1.992-1.04-2.959-1.551c-5.328-2.797-10.649-5.594-15.97-8.398c-2.863-1.504-5.72-2.995-8.568-4.515
	c-0.296-0.155-0.502-0.141-0.782,0.006c-8.997,4.754-18,9.483-27.011,14.215C795.858,317.913,795.705,317.987,795.476,318.083z
	 M825.512,279.642c0.178,0.067,0.229,0.096,0.281,0.11c5.896,1.92,11.793,3.83,17.682,5.757c0.302,0.096,0.428-0.029,0.598-0.2
	c5.652-5.512,11.307-11.018,16.967-16.529c0.302-0.303,0.604-0.599,0.908-0.901c-0.016-0.022-0.03-0.045-0.045-0.06
	C849.807,271.745,837.711,275.678,825.512,279.642z M821.696,278.424c-0.073-0.133-0.096-0.178-0.126-0.215
	c-3.652-5.04-7.306-10.073-10.98-15.1c-0.089-0.124-0.348-0.197-0.51-0.175c-1.733,0.229-3.461,0.485-5.188,0.737
	c-5.83,0.848-11.66,1.697-17.482,2.545c-0.702,0.104-1.402,0.2-2.097,0.303c0,0.03,0,0.06,0,0.06
	C797.417,270.534,809.509,274.469,821.696,278.424z M799.173,311.772c0.029,0.008,0.066,0.017,0.099,0.022
	c7.458-10.266,14.904-20.516,22.432-30.877c-0.206,0.045-0.279,0.051-0.354,0.073c-5.866,1.912-11.726,3.816-17.586,5.735
	c-0.162,0.059-0.346,0.279-0.377,0.449c-0.494,2.805-0.966,5.615-1.446,8.412c-0.745,4.325-1.49,8.658-2.234,12.983
	C799.527,309.64,799.35,310.71,799.173,311.772z M824.08,281.655c-0.008,0.223-0.022,0.282-0.022,0.348
	c0,6.161,0,12.325-0.007,18.486c0,0.303,0.125,0.436,0.369,0.568c3.615,1.89,7.225,3.793,10.834,5.689
	c3.652,1.92,7.306,3.838,10.958,5.757c0.096,0.051,0.2,0.088,0.406,0.169C839.083,302.306,831.622,292.04,824.08,281.655z
	 M824.072,277.627c0.126-0.141,0.178-0.215,0.229-0.28c3.625-4.982,7.233-9.963,10.864-14.938c0.162-0.229,0.155-0.398,0.036-0.627
	c-3.639-7.356-7.269-14.716-10.9-22.065c-0.051-0.103-0.117-0.192-0.229-0.354C824.072,252.144,824.072,264.838,824.072,277.627z"/>
<radialGradient id="SVGID_53_" cx="923.7188" cy="483.0566" r="42.1333" gradientTransform="matrix(1.046 0 0 1.046 -15.1785 23.7622)" gradientUnits="userSpaceOnUse">
	<stop  offset="0" style="stop-color:#FAE118"/>
	<stop  offset="1" style="stop-color:#FD6729"/>
</radialGradient>
<path fill-rule="evenodd" clip-rule="evenodd" fill="url(#SVGID_53_)" d="M923.119,572.006c0.162-0.93,0.295-1.779,0.443-2.627
	c0.87-5.091,1.748-10.176,2.619-15.269c0.73-4.266,1.461-8.531,2.2-12.797c0.051-0.28,0-0.458-0.208-0.656
	c-4.545-4.429-9.1-8.864-13.645-13.299c-2.775-2.707-5.55-5.416-8.325-8.117c-0.088-0.081-0.206-0.141-0.31-0.214
	c0.021-0.052,0.037-0.097,0.051-0.142c0.51-0.079,1.026-0.169,1.535-0.251c5.536-0.797,11.07-1.594,16.599-2.398
	c4.191-0.61,8.383-1.224,12.574-1.828c0.317-0.045,0.487-0.164,0.628-0.451c2.797-5.682,5.594-11.365,8.398-17.032
	c1.542-3.136,3.107-6.266,4.664-9.388c0.226-0.466,0.443-0.938,0.701-1.482c0.316,0.618,0.598,1.172,0.878,1.72
	c4.302,8.737,8.613,17.452,12.907,26.183c0.155,0.324,0.361,0.42,0.68,0.465c3.32,0.473,6.642,0.959,9.955,1.438
	c3.823,0.554,7.639,1.107,11.454,1.661c2.915,0.429,5.83,0.855,8.745,1.276c0.17,0.022,0.332,0.06,0.51,0.088
	c-0.568,0.591-1.093,1.167-1.654,1.721c-6.841,6.664-13.682,13.328-20.522,19.992c-0.244,0.229-0.317,0.435-0.259,0.782
	c0.886,5.076,1.764,10.17,2.635,15.254c0.855,4.995,1.712,9.998,2.568,14.995c0.015,0.097,0,0.207,0,0.376
	c-1.019-0.531-1.993-1.039-2.96-1.551c-5.328-2.796-10.648-5.593-15.978-8.396c-2.855-1.506-5.712-2.997-8.567-4.518
	c-0.288-0.155-0.494-0.141-0.775,0.007c-8.996,4.745-18.007,9.477-27.011,14.214C923.503,571.837,923.348,571.902,923.119,572.006z
	 M953.155,533.564c0.17,0.067,0.222,0.096,0.28,0.11c5.896,1.92,11.794,3.83,17.683,5.757c0.296,0.096,0.429-0.028,0.598-0.198
	c5.653-5.514,11.306-11.02,16.963-16.531c0.307-0.302,0.608-0.599,0.911-0.901c-0.015-0.021-0.029-0.045-0.044-0.059
	C977.45,525.669,965.354,529.602,953.155,533.564z M949.34,532.347c-0.073-0.133-0.096-0.176-0.125-0.214
	c-3.653-5.04-7.314-10.072-10.981-15.098c-0.089-0.127-0.347-0.2-0.51-0.178c-1.734,0.229-3.461,0.486-5.188,0.737
	c-5.83,0.851-11.66,1.698-17.491,2.546c-0.693,0.104-1.395,0.2-2.095,0.302c0.007,0.031,0.007,0.06,0.007,0.06
	C925.053,524.459,937.156,528.392,949.34,532.347z M926.81,565.695c0.036,0.009,0.073,0.017,0.103,0.022
	c7.461-10.264,14.908-20.515,22.436-30.876c-0.207,0.045-0.281,0.051-0.354,0.073c-5.866,1.912-11.727,3.816-17.586,5.734
	c-0.163,0.06-0.348,0.28-0.377,0.449c-0.494,2.805-0.974,5.61-1.446,8.415c-0.746,4.322-1.49,8.656-2.236,12.98
	C927.171,563.564,926.993,564.633,926.81,565.695z M951.724,535.579c-0.015,0.223-0.021,0.281-0.021,0.347
	c0,6.164,0,12.325-0.009,18.486c0,0.303,0.119,0.436,0.37,0.568c3.616,1.89,7.225,3.794,10.834,5.689
	c3.653,1.92,7.306,3.839,10.958,5.757c0.097,0.052,0.199,0.088,0.407,0.17C966.727,556.229,959.266,545.963,951.724,535.579z
	 M951.716,531.55c0.122-0.141,0.178-0.214,0.229-0.279c3.616-4.983,7.231-9.964,10.856-14.938c0.169-0.229,0.154-0.398,0.044-0.633
	c-3.639-7.351-7.27-14.709-10.9-22.06c-0.052-0.103-0.126-0.192-0.229-0.354C951.716,506.068,951.716,518.762,951.716,531.55z"/>
</svg>
