<?xml version="1.0" encoding="utf-8"?>
<!-- Generator: Adobe Illustrator 16.0.0, SVG Export Plug-In . SVG Version: 6.00 Build 0)  -->
<!DOCTYPE svg PUBLIC "-//W3C//DTD SVG 1.1//EN" "http://www.w3.org/Graphics/SVG/1.1/DTD/svg11.dtd">
<svg version="1.1" id="Capa_1" xmlns="http://www.w3.org/2000/svg" xmlns:xlink="http://www.w3.org/1999/xlink" x="0px" y="0px"
	 width="1080px" height="1080px" viewBox="0 0 1080 1080" enable-background="new 0 0 1080 1080" xml:space="preserve">
<g>
	<g>
		<defs>
			<path id="SVGID_3_" d="M-81.829,536.421c0,152.971-72.714,288.957-185.458,375.285c-79.532,60.895-178.984,97.074-286.889,97.074
				c-108.073,0-207.671-36.301-287.268-97.369c-112.527-86.342-185.078-222.188-185.078-374.99
				c0-260.875,211.479-472.34,472.346-472.34C-293.305,64.081-81.829,275.546-81.829,536.421z"/>
		</defs>
		<clipPath id="SVGID_2_">
			<use xlink:href="#SVGID_3_"  overflow="visible"/>
		</clipPath>
		<g clip-path="url(#SVGID_2_)">
			<g>
				<g>
					<rect x="-316.208" y="413.511" fill-rule="evenodd" clip-rule="evenodd" fill="#FFFFFF" width="331.447" height="270.123"/>
				</g>
			</g>
		</g>
	</g>
</g>
<g>
	<path fill="#FFFFFF" d="M537.476,1023.257c-106.994,0-208.315-34.34-293.003-99.314c-119.96-92.045-188.76-231.447-188.76-382.461
		c0-265.639,216.116-481.75,481.763-481.75s481.762,216.111,481.762,481.75c0,151.215-68.939,290.721-189.152,382.756
		C745.493,989.016,644.308,1023.257,537.476,1023.257z M537.476,85.393c-251.494,0-456.104,204.604-456.104,456.089
		c0,142.974,65.143,274.95,178.722,362.101c80.168,61.502,176.085,94.015,277.382,94.015c101.145,0,196.934-32.414,277.008-93.734
		C928.3,816.726,993.577,684.646,993.577,541.481C993.577,289.996,788.972,85.393,537.476,85.393z"/>
	<path fill-rule="evenodd" clip-rule="evenodd" fill="#FFFFFF" d="M199.183,736.468c0-12.462-0.008-24.227,0-35.992
		c0-30.873-0.191-61.748,0.281-92.615c0.057-3.627,2.959-9.298,5.939-10.477c50.041-19.742,100.564-38.168,153.729-47.811
		c32.643-5.922,65.014-0.994,97.471,3.059c41.279,5.149,79.531,21.288,119.432,31.174c37.82,9.379,76.699,14.41,114.971,22.02
		c15.416,3.064,30.611,7.441,45.621,12.133c9.258,2.896,16.408,8.68,17.098,19.78c0.74,11.615-6.496,17.793-15.211,22.635
		c-18.15,10.084-38.344,11.57-58.389,11.613c-49.381,0.107-97.381-10.879-145.637-19.639c-8.396-1.527-16.871-2.663-26.377-1.81
		c11.063,6.631,21.574,14.523,33.295,19.625c24.539,10.672,49.326,21.088,74.744,29.341c25.111,8.144,50.348,2.147,75.035-4.847
		c56.139-15.91,107.434-43.473,160.541-66.672c13.855-6.054,27.652-11.343,43.582-7.43c24.258,5.977,31.783,26.66,13.641,43.752
		c-13.695,12.909-29.945,23.328-45.875,33.594c-48.041,30.968-98.414,57.353-152.199,77.234
		c-59.459,21.979-118.457,25.209-178.588,2.264c-38.477-14.688-78.348-25.765-116.732-40.667
		c-42.631-16.548-85.885-17.713-130.198-11.549C257.304,729.098,229.192,732.559,199.183,736.468z"/>
	<path fill-rule="evenodd" clip-rule="evenodd" fill="#FFFFFF" d="M154.083,582.265c11.549,0,22.806,0,34.656,0
		c0,59.896,0,119.358,0,179.701c-11.213,0-22.48,0-34.656,0C154.083,702.381,154.083,642.682,154.083,582.265z"/>
	<path fill-rule="evenodd" clip-rule="evenodd" fill="#FFFFFF" d="M670.353,323.655c7.691-11.17,16.119-20.824,26.656-28.51
		c34.85-25.431,80.031-19.244,106.482,14.887c19.199,24.782,23.479,52.821,16.742,82.899c-4.533,20.225-13.723,38.42-26.688,54.367
		c-8.715,10.717-19.002,20.161-28.623,30.136c-29.639,30.718-59.293,61.428-88.943,92.139c-4.131,4.28-7.246,4.237-11.49-0.154
		c-38.76-40.163-77.777-80.084-116.113-120.643c-11.338-11.997-18.639-27.018-24.137-42.663
		c-8.404-23.914-9.904-48.092-0.613-72.012c10.939-28.174,30.646-47.155,60.871-53.245c23.709-4.778,44.84,2.129,62.98,17.494
		c7.41,6.275,13.414,14.22,20.016,21.443C668.472,320.859,669.233,322.133,670.353,323.655z"/>
</g>
</svg>
