<svg version="1.1" id="Capa_1" xmlns="http://www.w3.org/2000/svg" xmlns:xlink="http://www.w3.org/1999/xlink" x="0px" y="0px"
	 width="1080px" height="1080px" viewBox="0 0 1080 1080" enable-background="new 0 0 1080 1080" xml:space="preserve">
<g>
	<g>
		<defs>
			<path id="SVGID_1_" d="M1011.106-550.16c0,152.966-72.715,288.955-185.459,375.278c-79.531,60.898-178.984,97.078-286.889,97.078
				c-108.072,0-207.672-36.301-287.271-97.369C138.96-261.517,66.409-397.363,66.409-550.16
				c0-260.876,211.48-472.339,472.35-472.339C799.63-1022.499,1011.106-811.036,1011.106-550.16z"/>
		</defs>
		<clipPath id="SVGID_2_">
			<use xlink:href="#SVGID_1_"  overflow="visible"/>
		</clipPath>
		<g clip-path="url(#SVGID_2_)">
			<g>
				<g>
					<rect x="368.956" y="-287.935" fill-rule="evenodd" clip-rule="evenodd" fill="#49B1BA" width="270.131" height="331.441"/>
				</g>
			</g>
		</g>
	</g>
</g>
<g>
	<g>
		<g>
			<g>
				<path fill="#FFFFFF" d="M488.613,759.562c-19.016,86.646-85.365,77.943-126.193,44.541
					c-40.826-33.404,7.426-89.081,38.973-141.042c31.555-51.963-22.271-57.531-57.531-61.238
					c-35.262-3.715-85.367-7.426-64.953-70.527c20.416-63.1,92.791-22.271,129.906,0c37.115,22.273,61.242-16.702,12.992-72.375
					c-48.252-55.677-46.398-161.462,42.686-157.748c89.08,3.715,89.08,92.796,79.803,170.737
					c-9.281,77.944,74.232,81.659,111.348-33.402c37.115-115.061,157.746-96.505,163.313-31.549
					c5.572,64.951-46.398,100.217-102.072,128.052c-55.672,27.833-22.27,81.656-22.27,81.656s111.354,98.355,44.539,181.867
					c-66.807,83.511-118.771-46.394-135.475-72.375C586.977,700.178,505.322,683.473,488.613,759.562z"/>
			</g>
		</g>
		<g>
			<path fill="#FFFFFF" d="M259.887,584.191c0,0-44.541,17.625-50.107,45.464c-5.568,27.838-57.535,16.7-42.686-27.839
				C181.941,557.276,253.391,580.013,259.887,584.191z"/>
		</g>
		<g>
			<path fill="#FFFFFF" d="M689.414,313.178c0,0,24.447-41.2,52.813-42.296c28.369-1.104,25.582-54.177-20.744-46.549
				C675.154,231.962,686.32,306.102,689.414,313.178z"/>
		</g>
		<g>
			<path fill="#FFFFFF" d="M819.367,531.295c0,0,95.162-2.299,95.162,43.392C914.529,620.375,874.521,586.971,819.367,531.295z"/>
		</g>
		<g>
			<path fill="#FFFFFF" d="M485.355,255.552c0,0-65.039-69.506-30.934-99.908C488.527,125.243,490.209,177.333,485.355,255.552z"/>
		</g>
		<g>
			<path fill="#FFFFFF" d="M747.514,814.931c0,0,19.811,23.112,17.607,38.514c-2.199,15.404,17.607,59.43,41.82,27.516
				C831.15,849.046,770.625,812.73,747.514,814.931z"/>
		</g>
		<g>
			<path fill="#FFFFFF" d="M295.061,374.438c0,0-36.195-13.115-43.357-31.454c-7.168-18.334-56.379-54.47-63.169-4.259
				C181.741,388.933,270.984,391.243,295.061,374.438z"/>
		</g>
		<g>
			<path fill="#FFFFFF" d="M380.08,655.668c0,0-20.146,9.062-23.457,19.861c-3.318,10.798-29.92,33.587-35.963,5.148
				C314.617,652.241,365.584,647.087,380.08,655.668z"/>
		</g>
		<g>
			<path fill="#FFFFFF" d="M444.076,863.486c0,0-40.828,34.338-16.701,63.104C451.5,955.354,458.924,895.037,444.076,863.486z"/>
		</g>
		<g>
			<path fill="#FFFFFF" d="M563.924,751.375c0,0-28.791,24.209-11.775,44.49C569.158,816.147,574.393,773.62,563.924,751.375z"/>
		</g>
	</g>
	<g>
		<path fill="#FFFFFF" d="M539.48,1022.263c-265.643,0-481.76-216.116-481.76-481.758c0-265.648,216.117-481.768,481.76-481.768
			c265.646,0,481.766,216.119,481.766,481.768C1021.246,806.147,805.127,1022.263,539.48,1022.263z M539.48,85.102
			c-251.105,0-455.396,204.294-455.396,455.403c0,251.103,204.291,455.395,455.396,455.395c251.109,0,455.4-204.292,455.4-455.395
			C994.881,289.396,790.59,85.102,539.48,85.102z"/>
	</g>
</g>
</svg>