<?xml version="1.0" encoding="utf-8"?>
<!-- Generator: Adobe Illustrator 16.0.3, SVG Export Plug-In . SVG Version: 6.00 Build 0)  -->
<!DOCTYPE svg PUBLIC "-//W3C//DTD SVG 1.1//EN" "http://www.w3.org/Graphics/SVG/1.1/DTD/svg11.dtd">
<svg version="1.1" id="Capa_1" xmlns="http://www.w3.org/2000/svg" xmlns:xlink="http://www.w3.org/1999/xlink" x="0px" y="0px"
	 width="960px" height="960px" viewBox="0 0 960 960" enable-background="new 0 0 960 960" xml:space="preserve">
<g>
	<g>
		<g>
			<g>
				<circle fill-rule="evenodd" clip-rule="evenodd" fill="#FFFFFF" cx="480" cy="479.997" r="375"/>
			</g>
		</g>
	</g>
	<g>
		<defs>
			<circle id="SVGID_1_" cx="480" cy="479.997" r="375"/>
		</defs>
		<clipPath id="SVGID_2_">
			<use xlink:href="#SVGID_1_"  overflow="visible"/>
		</clipPath>
		<g clip-path="url(#SVGID_2_)">
			<path opacity="0.3" fill-rule="evenodd" clip-rule="evenodd" fill="#FD6729" d="M467.819,95.622
				c24.485-0.273,48.418,2.781,71.619,11.099c30.038,10.789,49.06,32.063,59.619,61.517c10.022,27.94,12.229,56.823,10.376,86.309
				c-2.913,46.311-15.247,90.202-33.878,132.352c-13.733,31.086-31.029,60.236-51.308,87.597
				c-27.697,37.377-60.17,69.922-97.832,97.186c-44.715,32.355-93.587,56.06-147.134,70.037
				c-33.567,8.761-67.525,13.868-102.254,12.438c-22.936-0.937-45.228-5.257-66.43-14.483c-28.83-12.547-45.159-35.406-53.484-64.78
				c-9.088-32.062-9.426-64.652-5.544-97.494c4.479-37.876,14.43-74.314,28.865-109.511c19.032-46.398,45.084-88.5,78.476-126.046
				c38.957-43.798,84.727-78.559,137.438-104.05c44.647-21.584,91.608-35.55,141.012-40.892c5.048-0.552,10.124-1.025,15.197-1.232
				C457.638,95.455,462.73,95.622,467.819,95.622z M288.906,368.436c0.162-4.67,2.004-8.445,6.386-10.458
				c5.376-2.482,10.463-1.448,14.643,2.525c7.097,6.761,14.121,13.615,20.807,20.77c3.293,3.522,5.333,2.684,8.158-0.356
				c2.777-2.97,5.248-5.165,0.93-9.105c-6.671-6.09-12.892-12.685-19.214-19.156c-3.222-3.294-5.978-7.006-5.24-11.97
				c0.667-4.501,2.733-8.247,7.307-9.976c5.399-2.037,10.101-0.428,14.017,3.332c6.93,6.659,13.744,13.449,20.396,20.383
				c2.702,2.814,4.819,3.163,7.303-0.032c2.127-2.734,6.625-4.673,1.966-9.071c-5.753-5.435-11.232-11.162-16.792-16.79
				c-6.327-6.417-6.923-13.59-1.636-18.918c5.376-5.42,12.366-4.964,18.941,1.396c5.283,5.113,10.594,10.209,15.548,15.638
				c3.141,3.441,5.311,3.574,8.599,0.078c3.21-3.396,4.852-5.869,0.411-9.566c-3.896-3.24-7.334-7.052-10.809-10.76
				c-5.007-5.364-5.307-13.53-0.826-17.891c4.996-4.863,12.775-4.667,18.332,0.632c3.542,3.375,6.799,7.046,10.374,10.395
				c1.83,1.721,3.903,5.252,6.575,0.959c1.893-3.042,8.347-4.725,2.617-10.24c-7.477-7.21-8.236-14.216-3.042-19.821
				c4.863-5.233,12.26-4.598,19.975,2.104c2.396,2.079,4,2.188,6.099-0.167c7.762-8.723,15.603-17.375,23.43-26.044
				c2.681-2.967,2.428-5.632-0.536-8.272c-3.937-3.507-7.794-7.098-11.646-10.698c-34.631-32.353-74.05-57.316-117.443-76.169
				c-2.749-1.192-5.323-1.45-8.16-0.273c-29.594,12.16-57.381,27.668-83.044,46.661c-26.856,19.869-51.461,42.297-72.982,68.027
				c-26.05,31.143-47.238,65.242-63.645,102.36c-1.484,3.361-1.544,6.348-0.033,9.715c12.275,27.403,26.843,53.474,44.521,77.795
				c13.654,18.783,28.501,36.512,45.183,52.687c2.297,2.221,4.22,4.067,7.509,0.945c8.064-7.641,16.534-14.851,24.63-22.452
				c6.587-6.173,7.686-5.811,1.179-13.368c-4.001-4.653-3.446-11.164,0.62-15.489c4.098-4.36,10.327-5.11,15.407-1.651
				c1.858,1.261,3.555,2.81,5.097,4.441c3.662,3.869,5.604,0.275,7.783-1.753c2.106-1.967,5.151-3.766,1.539-7.236
				c-3.933-3.769-7.62-7.804-11.311-11.817c-5.17-5.629-5.396-13.11-0.641-17.728c4.706-4.579,12.559-4.36,17.857,0.655
				c3.692,3.495,7.314,7.085,10.779,10.8c2.563,2.757,4.841,4.11,7.831,0.563c2.394-2.829,6.883-4.84,1.905-9.387
				c-5.693-5.19-11.088-10.729-16.463-16.264c-5.886-6.061-6.265-13.506-1.171-18.639c5.166-5.22,12.421-4.809,18.511,1.163
				c5.248,5.142,10.59,10.209,15.526,15.649c3.444,3.797,5.849,4.564,9.986,0.471c4.031-3.987,3.007-6.179-0.477-9.451
				c-6.591-6.193-12.798-12.786-19.253-19.128C290.366,375.694,288.666,372.523,288.906,368.436z M280.133,495.399
				c-0.073,7.327-4.064,11.441-10.762,11.99c-5.219,0.436-9.142-1.795-12.297-5.63c-2.693-3.254-4.978-3.628-8.348-0.485
				c-8.534,7.954-17.344,15.621-26.201,23.221c-3.791,3.255-3.175,5.199,0.494,8.296c28.376,23.939,59.485,43.505,92.499,60.424
				c10.141,5.193,18.203,4.643,27.914-0.154c35.843-17.689,69.205-38.985,99.118-65.589c29.708-26.416,55.81-55.965,77.468-89.338
				c12.007-18.51,22.549-37.848,31.925-57.823c2.27-4.845,2.255-8.907-0.15-13.831c-6.032-12.363-11.806-24.832-18.557-36.831
				c-12.949-23.063-28.125-44.56-45.062-64.857c-3.203-3.846-5.432-3.372-8.395,0.141c-6.802,8.054-13.589,16.14-20.857,23.764
				c-3.8,3.97-3.033,6.523,0.657,9.615c3.421,2.875,5.982,6.348,5.41,11.203c-0.579,4.886-2.955,8.657-7.645,10.313
				c-5.563,1.97-10.417,0.287-14.292-4.027c-2.604-2.893-4.783-4.435-8.141-0.575c-2.917,3.358-5.953,6.003-1.3,10.221
				c3.348,3.019,6.477,6.308,9.589,9.591c5.126,5.406,5.406,12.338,0.813,17.201c-4.565,4.836-12.413,4.836-17.771-0.144
				c-3.305-3.075-6.462-6.32-9.612-9.566c-2.338-2.413-4.712-3.516-6.853-0.026c-1.732,2.821-7.589,4.59-2.224,9.433
				c5.309,4.788,10.415,9.861,15.144,15.212c5.42,6.147,5.146,13.375-0.074,18.221c-4.911,4.553-11.917,4.061-17.709-1.471
				c-4.902-4.685-9.7-9.482-14.378-14.397c-3.518-3.694-5.572-0.855-7.815,1.442c-2.188,2.228-5.236,4.096-1.407,7.724
				c6.023,5.682,11.805,11.623,17.557,17.577c5.343,5.535,5.631,13.636,0.862,18.341c-4.819,4.76-12.722,4.389-18.279-1
				c-5.273-5.121-10.5-10.292-15.565-15.614c-3.003-3.154-5.331-5.593-9.357-0.848c-4.482,5.285-4.815,4.992,0.462,10.277
				c5.062,5.059,10.185,10.071,15.123,15.253c3.052,3.206,5.383,6.882,4.577,11.65c-0.825,4.846-3.475,8.236-8.214,9.891
				c-4.846,1.694-9.028,0.198-12.493-3.071c-5.625-5.283-11.188-10.671-16.375-16.385c-3.628-3.996-6.097-4.705-10.427-0.448
				c-4.396,4.323-2.18,6.472,0.954,9.45c4.502,4.283,8.854,8.727,13.185,13.193c2.854,2.933,4.768,6.379,4.266,10.646
				c-0.571,4.889-3.072,8.448-7.76,10.235c-5.199,1.987-9.706,0.419-13.501-3.189c-5.46-5.185-10.744-10.565-16.031-15.925
				c-4.377-4.438-6.058,0.554-8.56,2.413c-2.671,1.988-3.604,4.099-0.531,6.831c3.372,2.996,6.474,6.305,9.608,9.571
				c5.594,5.809,5.944,13.596,0.922,18.686c-4.682,4.739-12.539,4.286-18.2-1.155c-3.4-3.258-6.809-6.526-9.986-9.991
				c-4.351-4.757-6.344-0.095-9.064,2c-3.159,2.433-3.124,4.688-0.042,7.247C278.055,487.304,280.591,490.973,280.133,495.399z
				 M73.315,518.341c0.582,7.342,0.857,16.787,2.161,26.083c2.534,17.998,6.794,35.479,17.265,50.905
				c2.671,3.929,4.674,3.877,7.956,1.103c7.61-6.458,15.434-12.639,23.07-19.063c17.867-15,35.631-30.139,53.555-45.074
				c3.692-3.085,3.448-5.167,0.115-8.476c-7.068-7.028-13.819-14.383-20.433-21.854c-24.462-27.639-44.194-58.499-61.491-90.992
				c-0.667-1.261-0.979-3.294-2.803-3.114c-1.756,0.19-1.896,2.221-2.256,3.588c-2.588,9.812-5.552,19.513-8.01,29.377
				C76.253,465.666,74.309,490.91,73.315,518.341z M364.562,137.083c1.39,2.396,3.289,2.866,4.875,3.728
				c7.782,4.22,15.672,8.249,23.345,12.659c31.709,18.208,60.484,40.297,86.352,66.121c3.418,3.413,5.276,3.301,8.324-0.473
				c8.513-10.554,17.56-20.665,26.195-31.112c11.76-14.227,23.293-28.642,35.011-42.897c2.651-3.229,2.585-5.392-1.313-7.541
				c-4.455-2.458-8.838-5.007-13.555-6.957c-22.785-9.425-46.82-11.45-70.998-10.924c-29.68,0.649-58.844,5.604-87.418,13.754
				C371.836,134.458,368.386,135.787,364.562,137.083z M586.263,235.25c0.518-4.763-0.704-10.93-1.16-17.105
				c-1.371-18.548-5.234-36.53-13.84-53.224c-1.451-2.815-2.62-5.823-6.193-1.411c-20.498,25.312-40.907,50.702-62.408,75.181
				c-1.924,2.197-1.528,3.786,0.241,5.84c24.185,28.109,44.915,58.543,61.455,91.779c0.597,1.209,0.752,3.381,2.763,2.984
				c1.382-0.273,1.442-2.068,1.833-3.283C579.427,303.745,585.345,270.676,586.263,235.25z M296.659,611.322
				c-2.13-1.431-3.124-2.246-4.246-2.832c-30.422-15.684-58.47-34.895-84.756-56.762c-8.326-6.937-8.156-6.532-16.422,0.497
				c-22.784,19.404-45.743,38.587-68.753,57.712c-6.772,5.624-7.013,5.538,1.353,9.083c18.851,8.002,38.82,10.529,59.026,11.208
				c22.105,0.764,43.965-2.051,65.655-6.09C264.429,621.181,280.056,617.084,296.659,611.322z"/>
			<g opacity="0.3">
				<path fill="#FD6729" d="M639.02,1020.512c-6.941,0-12.317-3.648-15.133-10.277c-4.297-10.117-8.635-17.976-13.65-24.738
					c-5.294-7.146-9.795-11.019-15.046-12.978c-4.677-1.74-9.583-1.631-15.609,0.334c-11.493,3.74-21.328,11.007-30.419,18.136
					c-2.063,1.609-5.314,3.752-9.75,3.752c-2.287,0-4.539-0.569-6.704-1.724c-2.747-1.447-5.509-2.861-8.273-4.274
					c-4.016-2.051-8.169-4.177-12.248-6.4c-2.711-1.488-5.182-3.108-7.563-4.688c-1.226-0.804-2.45-1.62-3.697-2.39
					c-5.429-3.378-7.968-8.795-7.146-15.252c1.344-10.514,2.453-20.757,1.27-30.632c-1.172-9.801-3.556-15.356-8.225-19.188
					c-4.027-3.286-9.343-4.952-17.779-5.538c-8.479-0.592-17.533,0.017-28.992,2.005c-6.915,1.177-12.809-1.511-16.25-7.273
					l-4.026-6.767c-4.248-7.136-8.642-14.513-13.039-21.682c-2.317-3.78-5.197-11.357,1.529-19.813
					c6.604-8.29,11.532-16.161,15.078-24.054c2.479-5.527,3.722-10.198,3.923-14.713c0.271-6.273-2.085-11.657-7.416-16.965
					c-6.751-6.716-15.077-11.358-25.496-16.253l-1.466-0.694c-1.8-0.868-3.499-1.673-5.008-2.155
					c-7.485-2.367-11.796-8.445-11.826-16.683c-0.013-3.878-0.038-7.762-0.064-11.634c-0.034-5.395-0.072-10.783-0.074-16.166
					c-0.001-2.712,0.185-5.303,0.367-7.808l0.027-0.368c0.256-3.532,1.891-9.967,9.953-13.282
					c10.227-4.211,20.922-9.106,29.857-16.391c6.611-5.388,9.972-10.334,10.902-16.051c0.844-5.188-0.126-10.674-3.152-17.78
					c-4.241-9.962-10.604-18.861-16.269-26.237c-4.386-5.728-4.812-12.186-1.199-18.195c3.901-6.474,7.771-12.972,11.641-19.475
					l5.416-9.082c3.609-6.056,9.609-8.866,16.993-7.693c6.183,0.982,14.34,2.12,22.54,2.12c3.762,0,7.25-0.23,10.655-0.689
					c12.393-1.695,19.042-8.262,20.923-20.665c1.781-11.725,0.615-23.691-0.752-33.854c-0.928-6.858,1.93-12.722,7.836-16.091
					c9.707-5.552,19.412-11.108,29.099-16.689c6.175-3.556,12.949-2.979,18.7,1.658c7.445,6,16.465,12.687,26.927,16.754
					c4.608,1.796,8.612,2.672,12.225,2.672c4.619,0,10.938-1.207,18.881-10.611c7.604-9.002,12.714-19.703,16.319-28.021
					c3.78-8.715,10.623-10.554,15.696-10.554l0.568,0.002c9.827,0.253,19.666,0.394,29.501,0.541l5.926,0.08
					c6.885,0.106,12.13,3.817,14.772,10.462c3.717,9.35,8.554,20.122,16.253,29.118c7.552,8.816,14.018,9.839,18.223,9.839
					c3.41,0,7.276-0.804,11.49-2.387c8.434-3.174,16.683-7.914,25.962-14.922c3.627-2.731,7.227-4.065,11.007-4.065
					c3.154,0,6.314,0.968,9.387,2.878c7.555,4.7,15.342,9.368,22.875,13.875l5.727,3.442c5.714,3.432,8.379,9.208,7.314,15.844
					c-1.638,10.171-2.169,19.173-1.629,27.509c0.402,6.226,1.671,10.983,3.993,14.981c2.888,4.97,7.681,7.905,15.07,9.238
					c3.645,0.661,7.445,0.983,11.116,1.293c1.311,0.109,2.574,0.212,3.769,0.328l5.366-0.489c4.693-0.425,8.979-0.81,13.262-1.292
					c0.784-0.086,1.542-0.126,2.272-0.126c5.638,0,10.27,2.649,13.035,7.474c1.563,2.741,3.105,5.493,4.642,8.25
					c3.78,6.773,7.342,13.156,11.37,19.303c7.762,11.829,0.732,20.946-1.914,24.388c-6.919,8.974-11.401,16.982-14.107,25.215
					c-3.412,10.398-1.361,18.355,6.649,25.8c6.878,6.4,15.512,11.645,27.163,16.517c8.264,3.448,12.4,9.623,12.3,18.349
					c-0.069,6.245-0.063,12.496-0.051,18.747c0.005,4.658,0.008,9.317-0.018,13.983c-0.057,10.461-6.107,15.137-11.168,17.233
					c-10.525,4.361-17.881,8.503-23.854,13.432c-3.486,2.878-7.1,5.98-9.508,9.347c-2.619,3.677-3.613,8.015-3.044,13.271
					c1.143,10.451,6.957,19.292,13.115,28.656c1.459,2.229,3.131,4.406,4.9,6.716l0.448,0.591c3.783,4.947,4.269,11.03,1.307,16.281
					c-5.139,9.094-10.807,18.993-17.83,31.143c-3.481,6.004-9.433,8.876-16.87,7.859c-7.362-0.999-13.007-1.437-18.295-1.437
					c-4.889,0-9.315,0.391-13.529,1.207c-12.076,2.326-17.625,8.307-19.165,20.636c-1.094,8.777-0.781,18.217,0.951,28.856
					c1.781,10.921-3.737,16.603-8.684,19.453c-7.796,4.492-15.676,9.203-23.296,13.77l-5.23,3.125
					c-5.661,3.378-12.045,3.01-17.563-1.063c-8.238-6.079-17.249-12.208-27.343-15.833c-7.388-2.654-12.064-3.178-16.522-1.879
					c-4.613,1.338-8.744,4.056-12.263,8.066c-7.192,8.221-12.004,18.034-17.02,30.235c-3.567,8.681-10.387,10.537-15.479,10.571
					c-11.416,0.058-22.756,0.315-35.332,0.625H639.02z M588.32,942.392c15.199,0,28.771,6.716,40.35,19.958
					c6.88,7.871,12.667,17.051,18.559,29.489c6.276-0.144,12.708-0.253,19.455-0.322c2.244-4.802,4.76-10.048,7.526-15.104
					c3.68-6.745,8.615-12.978,15.096-19.056l0.815-0.775c3.999-3.775,8.531-8.055,14.77-10.772
					c6.268-2.746,12.912-4.119,19.751-4.119c6.699,0,13.559,1.275,20.969,3.907c9.164,3.251,18.008,7.963,28.335,15.121
					c4.435-2.712,9.232-5.589,14.934-8.974c-1.416-12.087-1.477-21.79-0.224-31.051c3.214-23.859,17.198-39.295,40.424-44.662
					c6.286-1.448,12.938-2.154,20.355-2.154c5.409,0,10.726,0.385,15.247,0.816c3.37-5.917,6.225-10.898,8.899-15.476
					c-3.004-4.412-6.072-8.98-8.848-13.794c-6.497-11.277-9.881-21.917-10.341-32.528c-0.703-16.31,6.104-30.673,20.234-42.69
					c7.417-6.314,16.184-11.766,27.403-17.04c-0.038-7.101-0.049-13.731,0.052-20.326c-10.234-4.729-18.953-10.065-26.582-16.288
					c-20.136-16.373-26.11-37.761-17.275-61.855c3.631-9.893,8.796-19.24,15.386-27.84c-3.091-5.234-6.081-10.474-8.925-15.505
					c-13.062,1.189-23.523,0.89-33.617-0.868c-21.515-3.763-36.538-17.987-41.227-39.03c-2.949-13.241-2.283-26.038-0.954-37.164
					c-1.774-1.06-3.55-2.123-5.32-3.179c-3.258-1.957-6.512-3.913-9.789-5.823c-1.069,0.681-2.138,1.384-3.2,2.094
					c-2.522,1.666-5.136,3.384-7.888,5.01c-10.772,6.337-20.389,9.953-30.267,11.355c-18.427,2.637-34.634-3.86-47.724-19.137
					c-8.414-9.826-14.095-20.954-18.177-30.164c-6.316-0.042-12.783-0.121-19.3-0.241c-5.654,11.912-11.553,21.303-18.436,29.379
					c-11.094,13.005-25.065,19.881-40.399,19.883c-6.613,0-13.487-1.281-20.435-3.797c-11.668-4.226-21.67-10.789-30.282-17.014
					c-3.245,1.83-6.474,3.674-9.708,5.524c-1.531,0.881-3.062,1.758-4.596,2.625c0.27,2.924,0.512,5.911,0.776,9.22l0.592,7.282
					l-0.098,0.89c-0.144,1.371-0.273,2.913-0.414,4.565c-0.359,4.34-0.811,9.739-1.85,15.111
					c-4.186,21.561-17.614,35.555-38.836,40.473c-6.313,1.459-12.91,2.17-20.153,2.17c-6.979,0-13.87-0.689-19.665-1.436
					c-2.654,4.534-5.429,9.221-8.266,13.875c6.846,9.502,11.7,17.953,15.225,26.462c4.91,11.863,6.501,22.641,4.869,32.947
					c-2.026,12.788-8.887,23.842-20.971,33.786c-9.521,7.831-20.162,13.328-29.76,17.672c0.033,5.532,0.036,11.45,0.004,18.384
					c10.172,4.637,18.846,9.594,26.422,15.097c22.249,16.162,29.915,38.699,21.586,63.46c-3.535,10.514-8.962,20.572-17.445,32.28
					c3.021,4.981,5.771,9.571,8.321,13.892c7.521-0.977,13.681-1.425,19.601-1.425c5.377,0,10.357,0.379,15.226,1.155
					c23.568,3.739,38.684,17.707,43.716,40.364c3.034,13.668,2.361,27.243,1.137,38.193c1.925,1.091,3.85,2.2,5.776,3.303
					c2.847,1.631,5.691,3.27,8.546,4.889c8.432-6.405,17.347-11.657,26.571-15.655C572.499,944.197,580.587,942.392,588.32,942.392z
					"/>
			</g>
			<g opacity="0.3">
				<path fill="#FD6729" d="M653.521,917.718c-96.292,0-174.705-78.171-174.789-174.256c-0.035-46.822,18.105-90.833,51.067-123.896
					c32.974-33.068,76.865-51.285,123.589-51.285c95.798,0.011,174.171,77.907,174.714,173.658
					c0.547,95.855-76.883,174.71-172.601,175.767L653.521,917.718z M653.307,587.791l-0.054,9.394
					c-38.965,0.005-75.589,15.224-103.12,42.851c-27.579,27.674-42.702,64.55-42.582,103.858
					c0.242,79.895,65.625,144.905,145.756,144.911c80.462-0.052,145.877-65.562,145.923-146.014
					c0.017-38.871-15.15-75.425-42.714-102.933c-27.573-27.53-64.226-42.673-103.209-42.673V587.791z"/>
			</g>
		</g>
	</g>
</g>
</svg>
