<svg version="1.1" id="Capa_1" xmlns="http://www.w3.org/2000/svg" xmlns:xlink="http://www.w3.org/1999/xlink" x="0px" y="0px"
	 width="960px" height="960px" viewBox="0 0 960 960" enable-background="new 0 0 960 960" xml:space="preserve">
<g>
	<g>
		<path fill="#FFFFFF" d="M479.98,855c-83.292,0-162.114-26.74-228.055-77.279C158.566,706.041,105,597.525,105,479.973
			C105,273.205,273.223,105,479.98,105C686.778,105,855,273.205,855,479.973c0,117.723-53.679,226.295-147.236,297.961
			C641.923,828.359,563.158,855,479.98,855z M479.98,124.981c-195.742,0-355.013,159.269-355.013,354.991
			c0,111.287,50.71,214.035,139.12,281.883c62.376,47.865,137.041,73.164,215.893,73.164c78.737,0,153.288-25.242,215.622-72.953
			c88.58-67.848,139.431-170.637,139.431-282.094C835.033,284.25,675.748,124.981,479.98,124.981z"/>
	</g>
	<path fill="#FFFFFF" d="M704.992,352.096c-3.054-51.698-45.931-92.748-98.422-92.748s-95.368,41.05-98.421,92.748h-0.171v104.459
		h197.184V352.096H704.992z"/>
	<path fill="#FFFFFF" d="M353.841,507.264c-52.294,5.219-93.063,49.268-92.978,102.861c0.057,57.029,46.368,103.242,103.386,103.127
		c57.017-0.055,103.174-46.381,103.116-103.354L467.253,506.6l-113.412,0.17V507.264z"/>
	<path fill="#FFFFFF" d="M603.178,728.342c21.579-37.178,43.158-74.338,64.765-111.457c8.881-12.148,14.339-27.066,14.708-43.271
		c0.877-41.998-32.47-76.771-74.439-77.719c-42.026-0.891-76.814,32.453-77.721,74.451c-0.281,12.373,2.489,24.082,7.525,34.504
		h-0.059c0.171,0.34,0.34,0.721,0.51,1.061c0.396,0.721,0.792,1.5,1.188,2.221C560.838,648.178,582.021,688.238,603.178,728.342"/>
	<path fill="#FFFFFF" d="M467.196,357.979c0,56.974-46.157,103.185-103.174,103.185c-56.96,0-103.188-46.211-103.188-103.185
		s46.228-103.186,103.188-103.186C421.039,254.794,467.196,301.006,467.196,357.979"/>
</g>
</svg>