<svg version="1.1" id="Capa_1" xmlns="http://www.w3.org/2000/svg" xmlns:xlink="http://www.w3.org/1999/xlink" x="0px" y="0px"
	 width="1080px" height="1080px" viewBox="0 0 1080 1080" enable-background="new 0 0 1080 1080" xml:space="preserve">
<g>
	<g>
		<path fill="#FFFFFF" d="M540.496,1024.004c-106.995,0-208.316-34.341-293.004-99.313
			C127.531,832.644,58.735,693.238,58.735,542.229c0-265.637,216.116-481.751,481.761-481.751
			c265.647,0,481.765,216.114,481.765,481.751c0,151.215-68.943,290.724-189.154,382.755
			C748.514,989.761,647.33,1024.004,540.496,1024.004z M540.496,86.143c-251.495,0-456.1,204.599-456.1,456.087
			c0,142.97,65.141,274.949,178.716,362.1c80.167,61.505,176.085,94.018,277.384,94.018c101.144,0,196.933-32.417,277.009-93.734
			C931.322,817.476,996.6,685.391,996.6,542.229C996.6,290.741,791.99,86.143,540.496,86.143z"/>
	</g>
	<g>
		<path fill-rule="evenodd" clip-rule="evenodd" fill="#FFFFFF" d="M553.936,168.063c73.585-0.045,126.544,68.394,108.568,140.857
			c-8.227,33.185-25.881,60.431-54.367,80.012c-32.977,22.679-73.14,23.844-106.148,1.265
			c-41.543-28.426-62.529-68.539-59.473-119.056C446.051,212.734,495.323,168.093,553.936,168.063z"/>
		<path fill-rule="evenodd" clip-rule="evenodd" fill="#FFFFFF" d="M432.239,536.543c44.894,44.893-18.548,205.324-33.116,259.639
			c-14.576,54.308-21.2,137.765,24.752,123.201c45.953-14.561,69.3-121.877,97.121-164.268
			c27.816-42.392,55.633-23.848,68.881-3.973c13.247,19.869,63.584,169.558,109.952,168.233
			c46.363-1.324,13.248-96.703,5.299-124.521c-7.952-27.815-43.72-108.623-37.095-166.243c6.628-57.624,34.444-9.276,49.678,8.606
			c15.237,17.883,45.04,54.976,64.247,37.091c19.213-17.882-4.636-93.384-46.365-173.532
			c-41.726-80.145-134.455-68.216-188.104-64.91c-53.651,3.313-107.302-47.529-107.302-47.529s-37.592-41.662-51.918-81.406
			c-14.317-39.742-61.128-105.083-93.802-57.396C261.791,297.218,414.574,518.878,432.239,536.543z"/>
	</g>
</g>
</svg>