<?xml version="1.0" encoding="utf-8"?>
<!-- Generator: Adobe Illustrator 16.0.3, SVG Export Plug-In . SVG Version: 6.00 Build 0)  -->
<!DOCTYPE svg PUBLIC "-//W3C//DTD SVG 1.1//EN" "http://www.w3.org/Graphics/SVG/1.1/DTD/svg11.dtd">
<svg version="1.1" id="Capa_1" xmlns="http://www.w3.org/2000/svg" xmlns:xlink="http://www.w3.org/1999/xlink" x="0px" y="0px"
	 width="960px" height="960px" viewBox="0 0 960 960" enable-background="new 0 0 960 960" xml:space="preserve">
<g>
	<g>
		<defs>
			<path id="SVGID_25_" d="M846.544,477.229c0,119.066-56.62,224.924-144.35,292.121c-61.937,47.371-139.315,75.539-223.313,75.539
				c-84.139,0-161.657-28.225-223.622-75.793c-87.588-67.197-144.039-172.915-144.039-291.867
				c0-203.062,164.601-367.661,367.661-367.661C681.944,109.567,846.544,274.167,846.544,477.229z"/>
		</defs>
		<clipPath id="SVGID_2_">
			<use xlink:href="#SVGID_25_"  overflow="visible"/>
		</clipPath>
		<g clip-path="url(#SVGID_2_)">
			<g>
				<g>
					<path fill-rule="evenodd" clip-rule="evenodd" fill="#FFFFFF" d="M262.924,583.229V400.246c0,0,236.039-29.215,262.396,56.45
						c26.302,85.637-159.056,86.656-177.296,87.617c0,0,61.794-7.807,62.813,21.409
						C411.854,594.937,262.924,583.229,262.924,583.229z"/>
					<path fill="#49B1BA" d="M324.918,594.343c-32.553,0-62.39-2.319-62.673-2.347c-4.581-0.34-8.117-4.187-8.117-8.768V400.246
						c0-4.44,3.311-8.202,7.722-8.739c1.583-0.198,39.876-4.865,87.759-4.865c74.521,0,166.945,11.681,184.111,67.452
						c5.458,17.761,3.366,33.711-6.221,47.457c-19.429,27.772-67.451,40.895-114.852,46.92c5.315,5.684,6.787,12.075,6.957,16.939
						c0.168,4.752-1.612,9.221-5.147,12.896C407.783,585.208,391.294,594.343,324.918,594.343z M271.72,575.026
						c10.888,0.679,31.42,1.726,53.198,1.726c66.915,0,76.246-9.758,77.122-10.945c-0.65-11.313-22.652-13.293-32.494-13.575
						c-6.789,0.339-12.359,0.537-16.291,0.679c-2.092,0.057-3.732,0.113-4.752,0.17c-4.751,0.254-8.822-3.281-9.246-7.976
						c-0.426-4.724,2.97-8.938,7.662-9.53c0.37-0.029,10.297-1.273,22.4-0.962c76.077-4.045,127.154-19.373,143.755-43.13
						c6.421-9.191,7.666-19.74,3.817-32.213c-10.915-35.493-70.308-55.036-167.283-55.036c-34.448,0-64.343,2.517-77.889,3.903
						V575.026z"/>
				</g>
				<g>
					<rect x="6.41" y="387.576" fill-rule="evenodd" clip-rule="evenodd" fill="#FFFFFF" width="257.984" height="210.273"/>
				</g>
			</g>
			<g>
				<g>
					<path fill-rule="evenodd" clip-rule="evenodd" fill="#FFFFFF" d="M397.771,271.649h183.011c0,0,29.214,236.066-56.449,262.397
						c-85.667,26.33-86.628-159.028-87.646-177.298c0,0,7.806,61.823-21.381,62.842C386.09,420.608,397.771,271.649,397.771,271.649
						z"/>
					<path fill="#49B1BA" d="M508.409,545.387c-47.739,0-67.934-60.381-75.908-123.958c-5.658,5.289-12.021,6.759-16.912,6.929
						h-0.567c-3.45,0-8.54-1.046-13.234-6.109c-21.608-23.361-14.425-130.096-12.783-151.278c0.366-4.582,4.185-8.117,8.767-8.117
						h183.011c4.44,0,8.174,3.337,8.738,7.721c1.218,9.927,29.045,243.702-62.615,271.87
						C520.569,544.426,514.347,545.387,508.409,545.387z M446.416,378.074c2.403,45.307,13.263,149.722,61.993,149.722
						c4.185,0,8.654-0.707,13.348-2.149c61.994-19.062,58.544-176.59,51.189-245.201H405.972
						c-0.735,12.048-1.924,35.861-1.696,60.127c0.679,60.692,9.813,69.374,10.917,70.194c11.313-0.622,13.293-22.625,13.604-32.467
						c-0.369-6.788-0.537-12.387-0.68-16.346c-0.084-2.094-0.141-3.677-0.197-4.723c-0.228-4.723,3.28-8.795,8.003-9.249
						c4.724-0.396,8.91,2.998,9.503,7.693C445.482,356.07,446.696,365.94,446.416,378.074z"/>
				</g>
				<g>
					<rect x="383.179" y="15.136" fill-rule="evenodd" clip-rule="evenodd" fill="#FFFFFF" width="210.244" height="257.984"/>
				</g>
			</g>
			<g>
				<g>
					<path fill-rule="evenodd" clip-rule="evenodd" fill="#FFFFFF" d="M361.286,682.807h183.039c0,0,29.188-236.066-56.479-262.396
						c-85.663-26.331-86.626,159.056-87.616,177.297c0,0,7.778-61.823-21.408-62.842
						C349.636,533.877,361.286,682.807,361.286,682.807z"/>
					<path fill="#49B1BA" d="M544.325,691.604H361.286c-4.58,0-8.397-3.563-8.768-8.089c-1.639-21.183-8.821-127.946,12.814-151.308
						c4.666-5.033,9.756-6.107,13.207-6.107h0.592c4.865,0.169,11.229,1.64,16.913,6.929
						c7.976-63.549,28.141-123.958,75.879-123.958c5.94,0,12.162,0.99,18.497,2.941c91.662,28.169,63.859,261.944,62.615,271.872
						C552.47,688.266,548.738,691.604,544.325,691.604z M369.517,674.012h166.947c7.353-68.61,10.804-226.14-51.189-245.201
						c-4.696-1.415-9.191-2.15-13.351-2.15c-48.7,0-59.588,104.417-61.992,149.723c0.312,12.133-0.905,22.003-0.962,22.428
						c-0.595,4.667-4.808,8.06-9.502,7.663c-4.725-0.451-8.258-4.523-8.032-9.247c0.057-1.047,0.113-2.63,0.198-4.724
						c0.141-3.931,0.339-9.559,0.707-16.346c-0.34-9.842-2.319-31.846-13.633-32.467c-1.102,0.848-10.238,9.559-10.889,70.307
						C367.566,638.264,368.753,661.992,369.517,674.012z"/>
				</g>
				<g>
					<rect x="346.693" y="681.365" fill-rule="evenodd" clip-rule="evenodd" fill="#FFFFFF" width="210.274" height="257.984"/>
				</g>
			</g>
			<g>
				<g>
					<path fill-rule="evenodd" clip-rule="evenodd" fill="#FFFFFF" d="M665.54,577.204V394.193c0,0-236.037-29.186-262.368,56.479
						c-26.329,85.666,159.085,86.627,177.298,87.588c0,0-61.823-7.777-62.842,21.438C516.639,588.885,665.54,577.204,665.54,577.204
						z"/>
					<path fill="#49B1BA" d="M603.548,588.318L603.548,588.318c-66.35,0-82.865-9.163-89.512-16.007
						c-3.534-3.677-5.346-8.146-5.176-12.925c0.171-4.893,1.642-11.284,6.957-16.941c-47.399-5.995-95.422-19.146-114.822-46.946
						c-9.617-13.688-11.709-29.64-6.223-47.4c17.14-55.771,109.563-67.48,184.113-67.48c47.854,0,86.146,4.667,87.759,4.864
						c4.382,0.538,7.721,4.299,7.721,8.71v183.011c0,4.61-3.536,8.399-8.117,8.767C665.937,586,636.129,588.318,603.548,588.318z
						 M526.452,559.811c0.849,1.131,10.209,10.917,77.096,10.917l0,0c21.805,0,42.31-1.075,53.225-1.754V402.112
						c-13.574-1.357-43.496-3.902-77.887-3.902c-96.977,0-156.397,19.542-167.314,55.036c-3.846,12.5-2.574,23.021,3.847,32.184
						c16.601,23.813,67.65,39.086,143.784,43.158c12.105-0.311,22.004,0.905,22.342,0.962c4.695,0.593,8.088,4.808,7.693,9.503
						c-0.453,4.723-4.525,8.258-9.248,8.003c-1.047-0.056-2.658-0.112-4.78-0.197c-3.901-0.114-9.503-0.34-16.232-0.679
						C549.077,546.519,527.103,548.441,526.452,559.811z"/>
				</g>
				<g>
					<rect x="664.099" y="381.552" fill-rule="evenodd" clip-rule="evenodd" fill="#FFFFFF" width="258.014" height="210.274"/>
				</g>
			</g>
		</g>
	</g>
	<g>
		<path fill="#FFFFFF" d="M480.014,855.014c-83.29,0-162.167-26.754-228.062-77.322C158.564,706.055,105,597.539,105,480
			c0-206.767,168.218-375.014,375.014-375.014C686.78,104.986,855,273.233,855,480c0,117.708-53.651,226.31-147.235,297.918
			C641.926,828.373,563.161,855.014,480.014,855.014z M480.014,124.981c-195.766,0-355.047,159.254-355.047,355.019
			c0,111.289,50.736,214.035,139.146,281.854c62.389,47.881,137.052,73.193,215.901,73.193c78.737,0,153.286-25.228,215.618-72.967
			C784.21,694.262,835.034,591.43,835.034,480C835.034,284.235,675.778,124.981,480.014,124.981z"/>
	</g>
</g>
</svg>
