<svg version="1.1" id="Capa_1" xmlns="http://www.w3.org/2000/svg" xmlns:xlink="http://www.w3.org/1999/xlink" x="0px" y="0px"
	 width="960px" height="960px" viewBox="0 0 960 960" enable-background="new 0 0 960 960" xml:space="preserve">
<g>
	<g opacity="0.1">
		<defs>
			<circle id="SVGID_5_" opacity="0.1" cx="480" cy="479.999" r="375"/>
		</defs>
		<clipPath id="SVGID_2_">
			<use xlink:href="#SVGID_5_"  overflow="visible"/>
		</clipPath>
		<g clip-path="url(#SVGID_2_)">
			<g>
				<path fill="#FD6729" d="M654.782,884.425c-5.517,0-10.979-1.018-16.229-3.031c-32.582-12.494-66.727-20.987-101.48-25.243
					c-27.844-3.42-56.808-3.963-86.253-1.628c-30.735,2.442-61.095,8.11-90.234,16.845c-10.177,3.049-20.205,6.721-27.806,9.583
					c-5.649,2.131-11.45,3.215-17.229,3.215c-11.926,0-23.019-4.598-31.228-12.942c-8.312-8.453-12.884-20.052-12.876-32.669
					v-16.684v-8.349c-0.002-2.364-0.016-4.742-0.03-7.121c-0.102-17.236-0.206-35.059,3.937-52.948
					c12.927-55.732,45.461-96.919,96.695-122.418c2.68-1.335,5.413-2.014,8.117-2.014c6.828,0,11.271,4.288,12.731,5.697
					c18.748,18.131,40.581,29.69,64.901,34.366c9.882,1.904,19.615,2.868,28.926,2.868c32.994,0,63.063-12.187,89.379-36.218
					c2.96-2.692,7.65-6.258,14.349-6.258c3.396,0,6.836,0.946,10.515,2.887c54.979,28.979,87.265,74.3,95.953,134.694
					c3.952,27.498,2.729,54.621,1.009,77.529C696.231,867.295,677.681,884.422,654.782,884.425z M486.453,829.529
					c18.016,0,36.014,1.088,53.486,3.236c36.658,4.489,72.675,13.451,107.046,26.626c2.548,0.978,5.172,1.472,7.794,1.472
					c10.437,0,18.888-7.753,19.657-18.038c1.623-21.639,2.79-47.164-0.836-72.416c-7.596-52.795-34.557-90.938-82.404-116.557
					c-39.134,35.355-85.873,48.38-137.852,38.366c-27.837-5.353-52.849-18.217-74.395-38.257
					c-43.131,22.571-69.531,56.896-80.644,104.809c-3.518,15.197-3.425,30.883-3.331,47.492c0.014,2.416,0.026,4.832,0.033,7.248
					v8.355v16.704c-0.006,6.485,2.107,12.062,6.11,16.132c5.715,5.813,14.676,7.469,23.351,4.202
					c7.966-2.997,18.49-6.848,29.352-10.104c30.728-9.212,62.738-15.188,95.133-17.763
					C461.536,830.036,474.156,829.529,486.453,829.529z"/>
			</g>
			<g>
				<path fill="#FD6729" d="M485.436,666.682h-0.081c-70.514-0.051-127.991-57.463-128.13-127.983
					c-0.068-34.274,13.259-66.54,37.523-90.854c24.001-24.046,56.069-37.291,90.297-37.291
					c34.627,0.069,66.824,13.503,90.954,37.826c24.029,24.219,37.152,56.292,36.954,90.313
					C612.944,609.236,555.74,666.682,485.436,666.682z M485.285,434.114c-28.167,0-54.311,10.785-73.858,30.374
					c-19.816,19.854-30.696,46.192-30.642,74.165c0.112,57.564,47.03,104.429,104.584,104.469l0.066,11.78v-11.78
					c57.313,0,103.951-46.879,103.957-104.498c0.161-27.78-10.535-53.912-30.118-73.653
					C539.589,445.129,513.313,434.172,485.285,434.114z"/>
			</g>
			<g>
				<path fill="#FD6729" d="M872.446,768.58c-7.257,0-13.563-2.387-19.132-4.495c-1.44-0.546-2.864-1.087-4.271-1.558
					c-10.76-3.627-22.117-6.785-33.785-9.396c-6.351-1.403-12.916-2.646-19.485-3.684c-25.976-4.107-53.244-4.72-81.222-1.818
					c-0.94,0.101-1.843,0.149-2.687,0.149c-7.886,0-13.851-4.478-16.364-12.283c-13.098-40.802-38.269-73.75-74.813-97.932
					c-4.387-2.914-6.938-6.563-7.605-10.863c-0.664-4.285,0.659-8.525,3.927-12.594c11.984-14.878,27.138-27.095,45.047-36.325
					c7.492-3.906,15.107-2.778,21.412,3.262c17.852,16.998,39.592,25.628,64.59,25.628c24.254-0.012,45.643-8.467,63.595-25.134
					c4.159-3.854,8.502-5.721,13.285-5.721c4.315,0,7.834,1.603,10.106,2.811c38.69,20.658,62.343,52.778,70.313,95.476l0.222,1.188
					c1.415,7.552,3.02,16.111,2.363,24.794c-0.469,6.382-0.896,13.248-0.819,20.084c0.015,1.064,0.041,2.128,0.066,3.187
					c0.212,8.401,0.448,17.923-5.58,27.656c-3.854,6.25-9.425,11.375-15.677,14.421c-2.62,1.294-5.401,2.209-8.215,2.7
					C876.001,768.431,874.229,768.58,872.446,768.58z M748.918,722.256c17.101,0,34.101,1.32,50.537,3.917
					c7.037,1.116,14.075,2.448,20.918,3.961c12.502,2.795,24.661,6.178,36.174,10.06c1.662,0.556,3.377,1.199,5.108,1.858
					c4.64,1.754,9.06,3.388,12.021,2.868c0.599-0.104,1.22-0.316,1.887-0.645c2.271-1.107,4.501-3.212,6.005-5.651
					c2.232-3.604,2.243-7.717,2.068-14.68c-0.028-1.156-0.058-2.324-0.072-3.5c-0.087-7.725,0.374-15.191,0.883-22.111
					c0.427-5.626-0.765-11.976-2.027-18.7l-0.225-1.205c-6.555-35.111-24.983-60.636-56.324-77.972
					c-22.064,19.744-48.225,29.764-77.784,29.775c-30.127,0-56.472-10.032-78.39-29.831c-11.246,6.181-20.805,13.538-29.008,22.333
					c36.083,25.827,61.504,59.749,75.74,101.038C727.493,722.762,738.343,722.256,748.918,722.256z"/>
			</g>
			<g>
				<path fill="#FD6729" d="M98.61,768.569c-9.561,0-18.481-3.69-25.12-10.392c-6.657-6.724-10.272-15.812-10.181-25.597
					c0.012-1.246-0.59-3.111-1.17-4.915c-0.993-3.086-2.227-6.922-1.456-11.233c1.113-7.276,1.731-14.832,2.333-22.14
					c1.262-15.418,2.57-31.36,9.064-46.739c13.273-31.467,35.287-55.062,65.427-70.126c6.745-3.414,14.046-2.358,19.975,3.175
					c19.091,17.961,41.875,26.73,67.682,26.023c23.504-0.604,44.025-9.034,60.991-25.059c1.53-1.45,6.23-5.904,13.399-5.904
					c3.152,0,6.299,0.851,9.614,2.6c17.102,9.027,31.809,20.943,43.713,35.424c1.279,1.556,5.171,6.29,4.185,12.902
					c-0.986,6.632-6.244,10.129-7.973,11.276c-31.958,21.116-55.4,49.482-69.706,84.334c-1.894,4.593-3.483,9.517-4.823,13.771
					c-2.378,7.509-8.104,11.809-15.72,11.809c-0.702,0-1.451-0.034-2.246-0.115c-11.755-1.162-23.466-1.751-34.8-1.751
					c-29.592,0-58.392,4.037-85.603,11.998c-5.692,1.663-11.246,3.63-17.126,5.712c-2.77,0.984-5.542,1.964-8.33,2.914
					C106.763,767.888,102.688,768.569,98.61,768.569z M84.114,719.015c0.132,0.44,0.312,0.987,0.455,1.436
					c0.99,3.077,2.345,7.291,2.298,12.349c-0.041,4.424,1.807,7.225,3.362,8.798c3.189,3.218,8.125,4.268,12.928,2.632
					c2.684-0.912,5.363-1.864,8.044-2.813c5.93-2.103,12.062-4.274,18.386-6.12c29.35-8.591,60.376-12.945,92.212-12.945
					c10.439,0,21.165,0.466,31.95,1.389c1.115-3.368,2.384-6.949,3.85-10.503c15.125-36.851,39.292-67.262,71.889-90.489
					c-8.377-8.907-17.906-16.255-28.964-22.378c-20.972,19.051-46.1,29.074-74.748,29.81c-30.814,0.733-58.366-9.203-81.49-29.721
					c-23.356,12.658-39.884,31.09-50.5,56.255c-5.024,11.904-6.077,24.696-7.29,39.506
					C85.894,703.539,85.275,711.098,84.114,719.015z"/>
			</g>
			<g>
				<path fill="#FD6729" d="M748.655,609.518l-1.253-0.005c-26.84-0.331-51.527-10.852-69.508-29.626
					c-17.668-18.444-27.386-43.158-26.673-67.829c0.146-54.026,42.767-96.327,97.106-96.327c26.016,0.063,50.17,10.209,68.3,28.576
					c18.104,18.341,28.032,42.687,27.955,68.556C844.416,566.162,801.385,609.518,748.655,609.518z M748.555,439.291
					c-41.426,0-73.732,32.051-73.772,72.965l-0.006,0.351c-0.569,18.45,6.77,37.032,20.133,50.984
					c9.6,10.023,26.551,22.039,52.792,22.361l0.954,0.005c39.775,0,72.243-32.821,72.367-73.167
					c0.058-19.603-7.457-38.05-21.161-51.933C786.18,446.996,767.957,439.337,748.555,439.291z"/>
			</g>
			<g>
				<path fill="#FD6729" d="M222.888,609.438l-1.026-0.005c-26.974-0.276-51.69-10.768-69.594-29.548
					c-18.113-19-27.521-44.573-26.491-72.008c1.996-53.051,46.873-94.372,101.311-92.22c51.196,2.01,93.422,46.474,92.209,97.092
					C318.637,566.904,276.291,609.438,222.888,609.438z M223.113,439.139c-39.914,0-72.327,30.581-73.793,69.623
					c-0.789,21.024,6.315,40.509,19.999,54.867c13.478,14.136,32.224,22.033,52.784,22.243l0.785,0.005
					c40.352,0,72.35-32.309,72.851-73.555c0.899-37.526-31.614-71.633-69.574-73.123
					C225.144,439.159,224.125,439.139,223.113,439.139z"/>
			</g>
			<g>
				<path fill="#FD6729" d="M408.33,342.99l-2.89-0.469c-5.699-0.932-8.522-4.392-9.698-6.374
					c-2.092-3.521-2.358-7.569-0.792-12.033c1.813-6.339,2.767-11.93,2.917-17.035c0.426-14.42-3.498-27.837-11.654-39.888
					c-4.763-7.066-4.751-14.538,0.023-21.628c8.354-12.427,19.344-22.355,32.66-29.505c7.87-4.208,15.234-3.23,21.686,2.456
					c10.497,9.292,23.638,14.4,37.02,14.4c13.367,0,26.546-5.097,37.109-14.349c6.592-5.801,14.233-6.721,21.777-2.568
					c13.169,7.213,24.201,17.262,32.77,29.856c4.601,6.742,4.631,14.283,0.066,21.22c-11.367,17.242-14.361,35.456-9.154,55.68
					c3.672,9.471-1.243,14.884-3.535,16.791c-2.524,2.082-5.537,3.164-8.752,3.164c-3.241,0-5.694-1.11-7.012-1.706l-0.187-0.083
					c-20.903-7.023-42.091-10.584-62.982-10.584c-20.94,0-42.246,3.575-63.325,10.624c-0.531,0.187-1.202,0.408-1.909,0.641
					L408.33,342.99z M477.702,306.774c18.955,0,38.082,2.597,57.029,7.728c-2.305-20.465,2.148-39.856,13.298-57.857
					c-5.594-7.569-12.209-13.621-20.114-18.401c-14.588,11.823-32.274,18.231-50.313,18.231c-18.087,0-35.767-6.44-50.139-18.194
					c-8.109,4.792-14.693,10.762-20.111,18.191c9.899,15.643,14.61,32.855,14.063,51.294c-0.064,2.168-0.225,4.377-0.483,6.632
					C439.891,309.329,458.901,306.774,477.702,306.774z"/>
			</g>
			<g>
				<path fill="#FD6729" d="M331.166,379.377c-20.276,0-39.247-7.881-53.417-22.192c-13.98-14.115-21.571-32.833-21.375-52.707
					c0.411-42.001,33.935-74.9,76.315-74.9l0.667,0.002c39.341,0.325,72.832,34.659,73.137,74.976
					c0.15,19.583-7.489,38.165-21.506,52.324c-14.318,14.458-33.371,22.448-53.655,22.497H331.166z M332.689,253.139
					c-29.787,0-52.468,22.171-52.754,51.57c-0.135,13.538,5.035,26.287,14.555,35.899c9.709,9.808,22.736,15.208,36.676,15.208
					v11.78l0.114-11.78c13.964-0.035,27.093-5.542,36.963-15.514c9.574-9.669,14.795-22.301,14.691-35.568
					c-0.203-27.268-23.462-51.378-49.766-51.593L332.689,253.139z"/>
			</g>
			<g>
				<path fill="#FD6729" d="M624.081,379.392c-20.112,0-38.948-7.756-53.038-21.841c-14.086-14.084-21.84-32.905-21.828-52.994
					c0.034-41.334,33.821-74.964,75.322-74.964c41.128,0.098,74.443,33.779,74.455,75.079c0.006,20.138-7.742,38.953-21.809,52.982
					C663.123,371.672,644.265,379.392,624.081,379.392z M624.673,253.154c-28.654,0-51.875,23.069-51.898,51.42
					c-0.008,13.788,5.293,26.684,14.927,36.316c9.638,9.634,22.557,14.941,36.373,14.941h0.007c13.905,0,26.856-5.277,36.467-14.863
					c9.604-9.572,14.89-22.459,14.884-36.29C675.42,276.334,652.654,253.222,624.673,253.154z"/>
			</g>
			<g>
				<path fill="#FD6729" d="M355.419,481.917c-1.654,0-3.391-0.199-5.168-0.593c-2.076-0.457-4.699-0.526-7.478-0.598
					c-1.38-0.035-2.737-0.072-4.058-0.147c-1.602-0.002-3.173-0.026-4.725-0.045c-1.513-0.021-3.003-0.043-4.478-0.043
					c-2.224,0-4.001,0.052-5.6,0.161c-0.566,0.034-1.081,0.052-1.576,0.052c-4.981,0-11.838-1.771-16.238-10.219
					c-13.517-26.048-33.925-42.151-62.401-49.24c-3.408-0.849-7.127-1.352-11.067-1.884l-1.177-0.158
					c-5.611-0.742-9.643-3.255-11.935-7.466c-1.57-2.885-2.825-7.633,0.132-13.872c10.02-21.015,25.79-37.083,46.879-47.776
					c2.4-1.237,4.958-1.878,7.535-1.878c6.184,0,10.193,3.624,11.907,5.17c12.718,11.556,27.57,17.536,44.161,17.797l1.251,0.009
					c17.309,0,32.347-5.891,44.694-17.504c6.295-5.913,13.775-6.988,21.464-2.928c18.898,9.928,33.727,24.714,44.057,43.938
					c0.979,1.814,3.952,7.345,1.723,13.767c-1.487,4.277-4.805,7.562-9.865,9.756c-25.639,11.119-45.866,28.726-60.123,52.333
					C371.628,473.367,366.451,481.917,355.419,481.917z M329.512,456.93c1.585,0,3.184,0.023,4.806,0.046
					c1.558,0.02,3.141,0.042,4.751,0.042l0.735,0.023c1.163,0.072,2.359,0.101,3.576,0.132c3.051,0.078,6.451,0.167,10.041,0.774
					c15.524-25.534,36.971-45.085,63.827-58.2c-7.221-11.269-16.327-19.954-27.688-26.497
					c-16.393,14.288-35.921,21.496-58.177,21.496l-1.621-0.015c-21.243-0.331-40.316-7.523-56.745-21.381
					c-10.952,6.282-19.646,14.343-26.324,24.412c0.895,0.188,1.792,0.391,2.698,0.616c33.958,8.458,59.583,28.17,76.209,58.605
					C326.806,456.947,328.097,456.93,329.512,456.93z"/>
			</g>
			<g>
				<path fill="#FD6729" d="M648.941,481.859c-0.849,0-1.717-0.072-2.592-0.21c-10.396-0.814-22.842-1.616-32.864-0.872
					c-0.411,0.032-0.849,0.049-1.277,0.049c-4.15,0-9.982-1.519-14.19-8.741c-8.573-14.682-20.043-27.575-34.083-38.312
					c-11.107-8.504-23.509-15.001-36.865-19.315c-5.033-1.634-10.668-3.463-13.052-9.854c-2.387-6.396,0.645-11.418,3.318-15.847
					c9.9-16.397,23.647-29.201,40.869-38.056c7.466-3.834,14.67-2.801,20.794,2.752c12.666,11.507,28.677,17.84,45.078,17.84
					c16.396,0,32.434-6.327,45.16-17.82c6.166-5.585,13.434-6.601,20.796-2.787c21.044,10.909,36.791,27.446,46.808,49.146
					c2.793,6.031,1.729,10.659,0.345,13.48c-3.028,6.169-9.193,7.579-11.219,8.042c-16.658,3.888-31.124,11.938-44.167,24.593
					c-7.211,6.986-13.253,15.447-18.481,25.87C659.953,478.543,655.147,481.859,648.941,481.859z M622.888,456.89
					c7.292,0,14.501,0.452,21.145,0.952c6.103-11.387,13.091-20.788,21.365-28.807c13.423-13.023,28.699-22.382,45.525-27.906
					c-7.075-11.766-16.503-20.932-28.598-27.82c-16.683,13.945-37.197,21.547-58.248,21.547c-21.084,0-41.598-7.625-58.159-21.544
					c-9.772,5.531-17.753,12.56-24.216,21.335c13.129,5.024,25.39,11.872,36.549,20.417c15.462,11.821,28.301,25.922,38.196,41.95
					C618.532,456.93,620.664,456.89,622.888,456.89z"/>
			</g>
			<g>
				<path fill="#FD6729" d="M477.563,243.254h-0.052c-17.839-0.012-34.521-6.915-46.962-19.439
					c-12.425-12.505-19.261-29.25-19.249-47.144c0.031-35.671,30.339-65.81,66.18-65.81l0.872,0.006
					c36.177,0.489,65.559,30.768,65.493,67.5C543.771,214.146,514.037,243.254,477.563,243.254z M477.48,134.422
					c-22.684,0-42.6,19.752-42.62,42.269c-0.008,11.62,4.397,22.462,12.404,30.521c7.99,8.042,18.738,12.477,30.261,12.482
					l0.038,11.78v-11.78c23.509,0,42.672-18.56,42.721-41.372c0.044-23.888-18.909-43.581-42.251-43.894L477.48,134.422z"/>
			</g>
		</g>
	</g>
</g>
</svg>