<svg version="1.1" id="Capa_1" xmlns="http://www.w3.org/2000/svg" xmlns:xlink="http://www.w3.org/1999/xlink" x="0px" y="0px"
	 width="1080px" height="1080px" viewBox="0 0 1080 1080" enable-background="new 0 0 1080 1080" xml:space="preserve">
<g>
	<g>
		<defs>
			<path id="SVGID_1_" d="M1011.106,549.84c0,152.966-72.715,288.955-185.459,375.278c-79.531,60.898-178.984,97.078-286.889,97.078
				c-108.072,0-207.672-36.301-287.271-97.369C138.96,838.483,66.409,702.637,66.409,549.84
				c0-260.876,211.48-472.339,472.35-472.339C799.63,77.501,1011.106,288.964,1011.106,549.84z"/>
		</defs>
		<clipPath id="SVGID_2_">
			<use xlink:href="#SVGID_1_"  overflow="visible"/>
		</clipPath>
		<g clip-path="url(#SVGID_2_)">
			<g>
				<g>
					<path fill-rule="evenodd" clip-rule="evenodd" fill="#49B1BA" d="M261.323,686.036V450.935c0,0,303.256-37.518,337.092,72.529
						c33.838,110.048-204.34,111.302-227.764,112.556c0,0,79.396-10.015,80.693,27.503
						C452.647,701.044,261.323,686.036,261.323,686.036z"/>
					<path fill="#FFFFFF" d="M340.995,700.298c-41.836,0-80.172-2.972-80.555-3.001c-5.881-0.46-10.416-5.362-10.416-11.262V450.935
						c0-5.703,4.252-10.513,9.912-11.214c2.064-0.253,51.246-6.25,112.758-6.25c95.742,0,214.496,15.037,236.52,86.672
						c7.018,22.816,4.33,43.317-7.988,60.94c-24.943,35.697-86.635,52.565-147.527,60.277c6.83,7.308,8.723,15.509,8.939,21.773
						c0.213,6.123-2.086,11.86-6.65,16.587C447.452,688.555,426.247,700.298,340.995,700.298z M272.622,675.48
						c14.002,0.865,40.389,2.222,68.373,2.222c85.951,0,97.941-12.563,99.047-14.042c-0.826-14.55-29.068-17.073-41.744-17.47
						c-8.701,0.452-15.873,0.698-20.928,0.875c-2.699,0.096-4.771,0.165-6.113,0.235c-6.064,0.316-11.313-4.211-11.857-10.269
						c-0.543-6.062,3.807-11.46,9.838-12.222c0.477-0.062,13.201-1.644,28.789-1.236c97.746-5.195,163.326-24.88,184.678-55.432
						c8.238-11.788,9.846-25.314,4.914-41.356c-14.021-45.604-90.35-70.718-214.924-70.718c-44.25,0-82.67,3.261-100.072,5.006
						V675.48z"/>
				</g>
				<g>
					<rect x="-68.251" y="434.675" fill-rule="evenodd" clip-rule="evenodd" fill="#49B1BA" width="331.451" height="270.117"/>
				</g>
			</g>
			<g>
				<g>
					<path fill-rule="evenodd" clip-rule="evenodd" fill="#49B1BA" d="M434.575,285.755h235.105c0,0,37.521,303.247-72.529,337.087
						C487.103,656.679,485.849,418.51,484.599,395.082c0,0,10.01,79.393-27.508,80.692
						C419.567,477.078,434.575,285.755,434.575,285.755z"/>
					<path fill="#FFFFFF" d="M576.72,637.425c-61.379,0.004-87.264-77.599-97.502-159.264c-7.305,6.802-15.482,8.687-21.738,8.903
						l-0.773,0.015c-4.43,0-10.973-1.361-16.959-7.836c-27.801-30.066-18.568-167.19-16.436-194.372
						c0.461-5.88,5.367-10.415,11.264-10.415h235.105c5.705,0,10.516,4.252,11.213,9.912
						c1.582,12.766,37.332,313.066-80.422,349.271C592.306,636.152,584.313,637.425,576.72,637.425z M497.042,422.458
						c3.098,58.219,17.064,192.374,79.678,192.371c5.344,0,11.1-0.938,17.113-2.784c79.646-24.495,75.215-226.861,65.777-314.99
						H445.134c-0.957,15.465-2.512,46.041-2.178,77.235c0.83,77.952,12.572,89.12,13.994,90.183
						c14.549-0.815,17.076-29.064,17.479-41.742c-0.457-8.709-0.703-15.889-0.879-20.945c-0.092-2.693-0.164-4.762-0.236-6.1
						c-0.324-6.074,4.215-11.313,10.273-11.855c6.061-0.558,11.461,3.804,12.219,9.838
						C495.874,394.205,497.444,406.883,497.042,422.458z"/>
				</g>
				<g>
					<rect x="415.817" y="-43.809" fill-rule="evenodd" clip-rule="evenodd" fill="#49B1BA" width="270.123" height="331.444"/>
				</g>
			</g>
			<g>
				<g>
					<path fill-rule="evenodd" clip-rule="evenodd" fill="#49B1BA" d="M387.712,813.945h235.111c0,0,37.523-303.248-72.533-337.084
						c-110.049-33.84-111.305,204.331-112.553,227.756c0,0,10.01-79.395-27.508-80.693
						C372.71,622.622,387.712,813.945,387.712,813.945z"/>
					<path fill="#FFFFFF" d="M622.823,825.243H387.712c-5.898,0-10.803-4.539-11.266-10.416
						c-2.131-27.187-11.357-164.312,16.441-194.375c5.988-6.473,12.529-7.833,16.963-7.833l0.768,0.014
						c6.256,0.214,14.436,2.104,21.738,8.9c10.238-81.657,36.123-159.257,97.502-159.257c7.596,0,15.588,1.274,23.752,3.785
						c117.758,36.205,82.006,336.504,80.426,349.267C633.335,820.992,628.528,825.243,622.823,825.243z M398.271,802.646h214.479
						c9.441-88.13,13.869-290.498-65.777-314.985c-6.014-1.85-11.773-2.788-17.113-2.788c-62.613,0-76.578,134.146-79.676,192.357
						c0.404,15.572-1.168,28.262-1.234,28.799c-0.762,6.031-6.166,10.334-12.219,9.842c-6.057-0.545-10.596-5.786-10.275-11.857
						c0.072-1.339,0.143-3.395,0.234-6.084c0.176-5.057,0.424-12.247,0.879-20.971c-0.4-12.674-2.93-40.905-17.477-41.732
						c-1.426,1.066-13.176,12.258-14,90.316C395.763,756.716,397.313,787.207,398.271,802.646z"/>
				</g>
				<g>
					<rect x="368.956" y="812.065" fill-rule="evenodd" clip-rule="evenodd" fill="#49B1BA" width="270.131" height="331.441"/>
				</g>
			</g>
			<g>
				<g>
					<path fill-rule="evenodd" clip-rule="evenodd" fill="#49B1BA" d="M778.606,678.283V443.186c0,0-303.258-37.517-337.096,72.531
						c-33.84,110.046,204.34,111.292,227.764,112.55c0,0-79.396-10.011-80.693,27.507
						C587.282,693.292,778.606,678.283,778.606,678.283z"/>
					<path fill="#FFFFFF" d="M698.927,692.545c-0.008,0-0.008,0-0.014,0c-85.242,0-106.439-11.743-114.975-20.577
						c-4.564-4.723-6.861-10.457-6.652-16.584c0.221-6.268,2.115-14.465,8.945-21.776c-60.896-7.712-122.588-24.575-147.533-60.27
						c-12.316-17.624-15.004-38.126-7.99-60.942c22.031-71.637,140.785-86.674,236.529-86.674c61.514,0,110.693,5.997,112.756,6.251
						c5.66,0.699,9.912,5.509,9.912,11.213v235.097c0,5.896-4.537,10.798-10.416,11.262
						C779.106,689.574,740.771,692.545,698.927,692.545z M599.884,655.91c1.109,1.482,13.119,14.038,99.029,14.038
						c0.006,0,0.01,0,0.018,0c28.016,0,54.383-1.355,68.377-2.225V453.326c-17.416-1.744-55.867-5.008-100.07-5.008
						c-124.576,0-200.904,25.117-214.928,70.721c-4.934,16.041-3.326,29.568,4.912,41.354
						c21.352,30.555,86.939,50.232,184.709,55.428c15.561-0.393,28.279,1.174,28.758,1.236c6.031,0.762,10.383,6.16,9.838,12.222
						c-0.545,6.058-5.797,10.6-11.857,10.269c-1.346-0.07-3.426-0.141-6.139-0.235c-5.047-0.177-12.199-0.427-20.875-0.875
						C628.972,638.833,600.716,641.357,599.884,655.91z"/>
				</g>
				<g>
					<rect x="776.728" y="426.928" fill-rule="evenodd" clip-rule="evenodd" fill="#49B1BA" width="331.451" height="270.119"/>
				</g>
			</g>
		</g>
	</g>
	<g>
		<path fill="#49B1BA" d="M539.999,1031.262c-106.996,0-208.314-34.345-293.002-99.317
			C127.038,839.896,58.239,700.497,58.239,549.486c0-265.636,216.117-481.749,481.76-481.749
			c265.648,0,481.764,216.113,481.764,481.749c0,151.209-68.938,290.719-189.148,382.754
			C748.013,997.021,646.829,1031.262,539.999,1031.262z M539.999,93.397c-251.492,0-456.102,204.602-456.102,456.089
			c0,142.972,65.145,274.948,178.721,362.099c80.166,61.505,176.084,94.014,277.381,94.014c101.141,0,196.93-32.409,277.012-93.73
			c113.82-87.14,179.096-219.227,179.096-362.382C996.106,297.999,791.497,93.397,539.999,93.397z"/>
	</g>
</g>
</svg>