<?xml version="1.0" encoding="utf-8"?>
<!-- Generator: Adobe Illustrator 16.0.3, SVG Export Plug-In . SVG Version: 6.00 Build 0)  -->
<!DOCTYPE svg PUBLIC "-//W3C//DTD SVG 1.1//EN" "http://www.w3.org/Graphics/SVG/1.1/DTD/svg11.dtd">
<svg version="1.1" id="Capa_1" xmlns="http://www.w3.org/2000/svg" xmlns:xlink="http://www.w3.org/1999/xlink" x="0px" y="0px"
	 width="960px" height="960px" viewBox="0 0 960 960" enable-background="new 0 0 960 960" xml:space="preserve">
<g>
	<g>
		<g>
			<g>
				<circle fill-rule="evenodd" clip-rule="evenodd" fill="#FFFFFF" cx="480" cy="479.997" r="375"/>
			</g>
		</g>
	</g>
<g>
 <g opacity="0.15">
 
		<defs>
			<circle id="SVGID_1_" cx="480" cy="479.997" r="375"/>
		</defs>
		<clipPath id="SVGID_2_">
			<use xlink:href="#SVGID_1_"  overflow="visible"/>
		</clipPath>
		<g clip-path="url(#SVGID_2_)">
			<path opacity="0.3" fill-rule="evenodd" clip-rule="evenodd" fill="#997DFF" d=""/>
			
		<g>
			<path fill="#FD6729" d="M524.229,816.644c-12.389,0-23.83-6.839-32.416-12.785c-18.993-13.171-14.503-27.203-7.601-39.198
				c18.349-31.905,15.609-44.313-13.952-63.215c-15.951-10.194-16.577-23.034-17.122-34.375
				c-1.345-27.843-15.179-41.961-41.109-41.961h-1.369c-16.351,0.006-25.601-5.469-32.994-19.501
				c-11.835-22.432-29.259-28.989-51.688-19.794c-4.403,1.804-8.336,2.683-12.026,2.683c-11.534,0-17.983-8.565-22.691-14.828
				c-11.575-15.396-22.358-22.871-32.965-22.871c-9.829,0-20.891,6.124-33.831,18.731c-9.342,9.103-18.764,17.278-31.192,17.278
				c-7.856,0-15.707-3.338-24.006-10.223c-14.225-11.789-20.452-23.172-7.563-43.481c35.205-55.479,70.095-112.512,103.838-167.667
				c9.709-15.868,19.418-31.738,29.15-47.6l1.148-1.893c4.217-7.029,9.997-16.643,22.671-17.936
				c15.126-1.557,28.781-2.31,41.748-2.31c24.801,0,47.655,2.78,69.873,8.508l21.22,5.475l-18.938,11.028
				c-10.304,6.009-20.599,12.021-30.899,18.033c-25.151,14.702-51.159,29.906-76.88,44.633
				c-18.229,10.448-26.9,20.283-29.926,33.953c-4.929,22.253,1.235,39.835,18.326,52.256c16.67,12.11,35.81,12.432,55.642,1.238
				c45.741-25.821,85.588-49.243,121.813-71.605c10.677-6.589,19.843-9.658,28.837-9.658c9.267,0,18.329,3.292,27.696,10.057
				c42.128,30.396,85.348,60.807,127.146,90.215c19.903,14.001,39.804,28.007,59.67,42.06l0.563,0.402
				c5.693,4.03,12.15,8.597,17.234,14.515c17.994,20.908,18.488,45.115,1.361,66.42c-10.633,13.225-22.533,16.005-30.643,16.005
				c-6.489,0-13.245-1.701-20.188-5.056c17.86,19.547,20.055,45.946,4.343,66.041c-9.157,11.717-19.884,17.663-31.879,17.663
				c-13.61,0-26.296-7.802-35.832-14.586c-0.029-0.023-0.061-0.049-0.092-0.072c1.382,1.887,2.651,3.916,3.758,6.136
				c11.368,22.724,8.135,43.498-9.342,60.084c-8.417,7.982-17.787,12.033-27.847,12.033c-9.588,0-19.424-3.616-30.074-11.05
				c-6.319-4.418-12.631-8.934-19.057-13.581c15.73,25.545,6.607,44.641-4.233,56.381
				C543.702,812.125,534.384,816.644,524.229,816.644z M412.029,607.096c35.742,0,57.284,21.541,59.1,59.104
				c0.537,11.059,1.111,15.132,8.832,20.064c37.849,24.204,43.048,47.071,19.861,87.373c-5.504,9.574-4.303,10.873,2.255,15.411
				c9.551,6.63,16.376,9.583,22.146,9.583c3.188,0,8.152-0.793,14.451-7.621c7.087-7.669,13.467-18.918-0.109-38.106
				c-0.964-1.364-2.653-2.887-4.44-4.501c-6.291-5.688-15.793-14.282-13.069-32.994l2.143-14.712l12.042,8.707
				c5.911,4.274,11.519,8.359,16.921,12.291c11.56,8.411,22.478,16.362,33.358,23.962c7.411,5.176,14.058,7.811,19.757,7.811
				c5.369,0,10.419-2.318,15.449-7.092c11.622-11.027,13.408-23.402,5.635-38.951c-3.143-6.268-8.76-10.585-15.264-15.586
				c-2.738-2.108-5.57-4.286-8.302-6.699c-4.196-3.711-9.045-6.971-14.179-10.418c-11.415-7.669-24.347-16.358-31.684-32.031
				l-3.878-8.293l8.356-3.743c3.849-1.724,7.655-2.594,11.307-2.594c9.03,0,15.061,5.102,19.464,8.816
				c1.206,1.017,2.344,1.985,3.347,2.683c10.461,7.242,20.799,14.891,30.795,22.299c7.489,5.549,15.242,11.286,22.932,16.766
				c10.909,7.779,18.74,11.246,25.376,11.246c3.987,0,10.163-1.112,17.688-10.746c11.628-14.87,7.75-34.745-9.422-48.332
				c-9.16-7.25-19.057-14.124-28.615-20.771c-8.256-5.739-16.793-11.677-25.002-17.936c-1.164-0.881-2.666-1.815-4.249-2.792
				c-6.507-4.019-17.394-10.754-16.784-25.798l0.29-7.201l7.09-1.29c2.083-0.385,4.156-0.574,6.161-0.574
				c11.088,0,18.45,5.639,24.364,10.177c1.511,1.163,2.936,2.252,4.313,3.171c11.458,7.653,22.933,15.604,34.024,23.305
				c6.077,4.214,12.149,8.431,18.252,12.604c7.273,5.004,13.868,7.532,19.613,7.532c6.158,0,11.587-3.039,16.605-9.272
				c11.654-14.495,11.326-29.093-0.979-43.4c-3.637-4.225-8.899-7.951-13.989-11.55l-0.558-0.402
				c-19.854-14.041-39.74-28.038-59.633-42.03c-41.838-29.44-85.106-59.883-127.32-90.339c-6.282-4.542-11.731-6.653-17.154-6.653
				c-5.51,0-11.665,2.215-19.378,6.978c-36.43,22.479-76.471,46.02-122.42,71.958c-12.343,6.966-24.795,10.496-36.997,10.496
				c-13.536,0-26.348-4.32-38.084-12.854c-23.101-16.787-31.856-41.241-25.324-70.712c5.297-23.951,23.388-36.998,38.555-45.687
				c25.654-14.693,51.63-29.872,76.75-44.55c3.559-2.079,7.109-4.156,10.666-6.236c-13.72-2.183-27.89-3.255-42.835-3.255
				c-12.346,0-25.398,0.727-39.916,2.218c-3.369,0.339-5.257,2.953-9.071,9.295c-0.408,0.678-0.815,1.371-1.229,2.042
				c-9.727,15.847-19.43,31.707-29.136,47.574c-33.777,55.217-68.71,112.317-103.999,167.919
				c-6.543,10.313-5.612,12.116,3.855,19.96c4.862,4.03,9.071,6.067,12.51,6.067c5.133,0,10.717-4.456,18.622-12.16
				c16.468-16.042,31.648-23.841,46.401-23.841c16.655,0,32.15,9.832,47.359,30.06c4.921,6.538,6.541,7.641,8.297,7.641
				c0.875,0,2.489-0.23,5.189-1.338c8.773-3.6,17.302-5.417,25.341-5.417c20.582,0,37.566,11.576,49.112,33.481
				c4.242,8.043,7.431,9.893,17.06,9.893L412.029,607.096z"/>
		</g>
		<g>
			<path fill="#FD6729" d="M774.806,556.034c-8.049,0-14.735-4.717-20.107-8.496c-0.678-0.48-1.344-0.957-2.005-1.399
				c-17.206-11.811-34.458-23.548-51.717-35.285c-50.019-34.028-101.737-69.207-151.392-105.604
				c-11.387-8.341-21.09-12.233-30.54-12.233c-8.836,0-18.237,3.404-29.575,10.717c-34.838,22.463-72.83,45.032-119.565,71.022
				c-9.536,5.314-19.86,8.117-29.845,8.117c-18.927,0-35.837-9.921-45.239-26.55c-14.308-25.318-5.021-56.111,21.604-71.651
				c53.744-31.339,102.048-58.197,147.663-82.13c31.339-16.442,65.062-19.846,102.718-22.325l0.296-0.017
				c2.137-0.069,4.246-0.109,6.319-0.109c40.077,0,66.699,14.498,86.33,46.997c26.718,44.239,56.884,87.568,86.055,129.466
				c13.081,18.786,26.599,38.21,39.657,57.493c0.706,1.034,1.813,2.295,2.981,3.628c4.511,5.125,15.063,17.121,2.64,30.607
				C786.348,553.418,780.867,556.028,774.806,556.034z M519.045,375.011c13.472,0,26.56,4.992,41.186,15.715
				c49.398,36.199,100.988,71.301,150.875,105.239c17.281,11.751,34.556,23.5,51.779,35.32c0.719,0.488,1.448,1.003,2.187,1.528
				c3.295,2.318,7.391,5.208,9.734,5.208c0.822,0,1.844-0.658,3.033-1.951c0.627-0.681,0.896-1.129,1-1.341
				c-0.399-1.166-2.585-3.648-3.919-5.167c-1.487-1.689-3.03-3.444-4.371-5.426c-12.992-19.183-26.479-38.555-39.522-57.289
				c-29.337-42.14-59.676-85.712-86.688-130.442c-16.438-27.203-36.981-38.299-70.917-38.299c-1.836,0-3.693,0.028-5.578,0.092
				c-35.516,2.347-67.205,5.507-95.387,20.294c-45.374,23.802-93.445,50.542-146.954,81.746c-18.172,10.597-24.479,30.451-15,47.224
				c6.256,11.062,17.024,17.401,29.558,17.401c7.023,0,14.115-1.965,21.084-5.846c46.391-25.798,84.066-48.177,118.565-70.424
				C494.094,379.322,506.589,375.011,519.045,375.011z"/>
		</g>
		<g>
			<path fill="#FD6729" d="M810.229,533.672c-13.895,0-23.339-11.513-29.236-20.176c-8.988-13.208-17.967-26.421-26.944-39.629
				c-35.464-52.185-72.13-106.144-108.595-158.926c-9.051-13.092-12.365-24.625-10.137-35.254
				c2.194-10.444,9.549-19.386,22.48-27.349c23.963-14.75,47.281-30.963,66.943-44.871c8.154-5.76,14.67-8.339,21.125-8.339
				c9.01,0,16.737,5.079,23.632,15.532c31.105,47.175,63.068,94.936,93.977,141.131c17.051,25.473,34.102,50.955,51.101,76.465
				c2.638,3.961,4.502,8.057,6.309,12.021c0.727,1.6,1.453,3.2,2.226,4.749l2.069,4.153l-2.184,4.102
				c-0.396,0.741-0.771,1.615-1.163,2.539c-1.146,2.692-2.58,6.038-5.731,8.598c-34.656,28.142-64.538,47.971-94.048,62.394
				C818.158,532.713,814.182,533.672,810.229,533.672z M745.866,217.142c-2.396,0-6.004,1.692-10.724,5.036
				c-19.89,14.066-43.51,30.48-67.9,45.5c-8.499,5.228-13.173,10.367-14.3,15.719c-1.16,5.523,1.236,12.495,7.331,21.31
				c36.504,52.84,73.191,106.822,108.673,159.033c8.979,13.205,17.952,26.424,26.938,39.623c5.552,8.158,10.38,12.309,14.345,12.309
				c1.206,0,2.487-0.345,3.915-1.042c28.136-13.754,56.81-32.787,90.217-59.886c0.204-0.379,0.494-1.04,0.749-1.646
				c-0.204-0.45-0.416-0.899-0.623-1.358c-1.58-3.461-3.067-6.736-4.9-9.491c-16.993-25.501-34.039-50.972-51.079-76.442
				c-30.925-46.213-62.907-93.996-94.045-141.226C751.208,219.644,748.31,217.142,745.866,217.142z"/>
		</g>
		<g>
			<path fill="#FD6729" d="M138.517,548.839l-0.684-0.098c-13.286-1.827-24.355-9.1-35.059-16.143
				c-2.342-1.54-4.688-3.082-7.062-4.562c-35.555-22.233-53.405-33.393-57.621-50.499c-4.24-17.172,6.52-34.829,27.948-70.002
				c17.977-29.503,35.823-58.918,53.665-88.33c11.816-19.472,23.631-38.948,35.46-58.412c12.585-20.693,20.18-33.18,34.64-33.18
				c9.342,0,18.965,5.642,35.177,15.621c11.449,7.046,22.94,14.018,34.436,20.981c6.515,3.953,13.026,7.896,19.533,11.857
				c10.696,6.518,17.264,14.552,19.51,23.887c2.2,9.16,0.12,18.999-6.19,29.253c-43.521,70.701-87.332,141.479-124.984,202.278
				c-4.918,7.939-12.554,17.094-28.083,17.333L138.517,548.839z M189.805,245.631c-4.044,0-9.967,9.261-19.249,24.52
				c-11.825,19.458-23.64,38.924-35.448,58.403c-17.853,29.417-35.702,58.84-53.607,88.229
				c-18.314,30.061-28.36,46.551-25.924,56.441c2.473,10.019,20.245,21.136,49.683,39.54c2.484,1.551,4.952,3.171,7.41,4.789
				c9.207,6.052,17.926,11.78,26.931,13.242c5.383-0.248,8.459-2.471,12.374-8.79c37.642-60.782,81.45-131.554,124.957-202.235
				c3.705-6.015,5.059-11.263,4.016-15.598c-1.086-4.504-4.909-8.781-11.366-12.716c-6.495-3.947-12.995-7.896-19.499-11.837
				c-11.532-6.992-23.066-13.975-34.542-21.044C205.198,252.207,194.499,245.631,189.805,245.631z"/>
		</g>
		<g>
			<path fill="#FD6729" d="M268.561,736.389c-10.81,0-21.639-5.417-29.726-14.859c-15.686-18.312-16.151-40.29-1.183-55.994
				c26.209-27.483,54.247-53.491,80.64-77.496c6.715-6.107,15.021-9.339,24.014-9.339c6.716,0,13.495,1.764,20.154,5.231
				c14.758,7.695,22.025,21.11,21.595,39.876l-0.028,1.27l-0.386,1.221c-0.109,0.348-0.293,1.275-0.448,2.028
				c-0.688,3.438-1.731,8.626-5.061,12.953c-23.623,30.658-52.716,59.379-88.947,87.809
				C283.098,733.864,275.969,736.389,268.561,736.389z M342.306,596.72c-4.504,0-8.506,1.56-11.893,4.637
				c-26.15,23.787-53.905,49.527-79.723,76.612c-12.102,12.693-2.752,26.493,1.827,31.844c4.659,5.44,10.504,8.566,16.043,8.566
				c3.386,0,6.58-1.166,9.502-3.461c35.041-27.496,63.104-55.178,85.799-84.629c0.767-0.997,1.315-3.72,1.675-5.513
				c0.172-0.836,0.33-1.648,0.528-2.436c0.043-11.329-3.562-18.074-11.927-22.435C350.136,597.817,346.043,596.72,342.306,596.72z"
				/>
		</g>
		<g>
			<path fill="#FD6729" d="M341.76,778.242c-15.862,0-28.943-7.77-36.837-21.889c-9.237-16.52-7.244-34.114,5.343-47.066
				c25.844-26.628,52.705-52.977,79.827-78.324c6.797-6.348,15.25-9.703,24.447-9.703c6.546,0,13.177,1.671,19.7,4.963
				c13.813,6.992,21.938,19.622,22.29,34.66l0.006,0.178l-0.006,0.187c-0.313,18.726-33.266,54.339-47.416,68.782
				c-14.098,14.379-48.798,47.878-66.446,48.206L341.76,778.242z M414.54,639.268c-4.615,0-8.7,1.634-12.142,4.857
				c-26.918,25.146-53.569,51.291-79.212,77.709c-6.929,7.138-7.833,16.264-2.542,25.723c4.699,8.413,11.803,12.679,21.115,12.679
				l0.574-0.006c5.208-0.365,26.132-14.374,54.38-43.286c28.443-29.107,41.493-50.07,41.803-55.855
				c-0.161-4.863-2.027-13.541-12.406-18.789C422.132,640.293,418.243,639.268,414.54,639.268z"/>
		</g>
		<g>
			<path fill="#FD6729" d="M212.222,676.722c-9.41,0-18.51-3.794-26.306-10.964c-16.466-15.135-19.177-36.845-6.908-55.292
				c14.617-21.96,35.621-40.979,62.422-56.513c5.975-3.461,12.313-5.217,18.849-5.217c21.104,0,38.055,17.873,38.599,40.686
				c0.315,12.288-3.769,23.058-11.81,31.132c-2.771,2.775-5.526,5.562-8.284,8.342c-11.915,12.053-24.238,24.508-37.417,35.82
				C232.221,672.563,222.144,676.722,212.222,676.722z M260.278,566.749c-3.317,0-6.624,0.939-9.815,2.79
				c-24.39,14.138-43.389,31.264-56.459,50.906c-7.416,11.154-5.929,22.836,4.101,32.057c4.48,4.113,9.229,6.205,14.117,6.205
				c5.556,0,11.576-2.651,17.416-7.661c12.619-10.832,24.684-23.018,36.34-34.812c2.775-2.804,5.547-5.607,8.33-8.394
				c4.539-4.562,6.751-10.608,6.562-17.976C280.567,577.116,271.335,566.749,260.278,566.749z"/>
		</g>
		<g>
			<path fill="#FD6729" d="M428.371,808.497c-6.784,0-13.914-1.933-21.199-5.751c-13.569-7.112-20.556-19.84-20.768-37.827v-0.198
				l0.006-0.192c0.787-24.391,44.368-68.25,68.577-69.023c15.868-0.482,28.677,7.069,37.248,21.819
				c9.394,16.155,7.914,33.163-4.07,46.646c-9.927,11.189-21.438,22.285-37.316,35.995
				C444.288,805.627,436.729,808.497,428.371,808.497z M404.418,764.931c0.175,11.174,3.61,17.924,11.119,21.862
				c9.5,4.978,17.178,5.044,23.543-0.457c15.247-13.173,26.237-23.761,35.622-34.329c6.765-7.615,7.425-16.238,1.962-25.631
				c-5.286-9.085-12.03-13.176-21.104-12.869C440.804,713.978,405.173,749.87,404.418,764.931z"/>
		</g>


      
		</g>
	</g>
</g>
</g>  
</svg>
