<?xml version="1.0" encoding="utf-8"?>
<!-- Generator: Adobe Illustrator 16.0.3, SVG Export Plug-In . SVG Version: 6.00 Build 0)  -->
<!DOCTYPE svg PUBLIC "-//W3C//DTD SVG 1.1//EN" "http://www.w3.org/Graphics/SVG/1.1/DTD/svg11.dtd">
<svg version="1.1" id="Capa_1" xmlns="http://www.w3.org/2000/svg" xmlns:xlink="http://www.w3.org/1999/xlink" x="0px" y="0px"
	 width="960px" height="960px" viewBox="0 0 960 960" enable-background="new 0 0 960 960" xml:space="preserve">
<g>
	<g>
		<defs>
			<circle id="SVGID_1_" cx="480" cy="-500.003" r="375"/>
		</defs>
		<clipPath id="SVGID_2_">
			<use xlink:href="#SVGID_1_"  overflow="visible"/>
		</clipPath>
		<g clip-path="url(#SVGID_2_)">
			<g opacity="0.3">
				<path fill="#FD6729" d="M639.02,40.512c-6.941,0-12.317-3.648-15.133-10.277c-4.297-10.117-8.635-17.976-13.65-24.738
					c-5.294-7.146-9.795-11.019-15.046-12.978c-4.677-1.74-9.583-1.631-15.609,0.334c-11.493,3.74-21.328,11.007-30.419,18.136
					c-2.063,1.609-5.314,3.752-9.75,3.752c-2.287,0-4.539-0.569-6.704-1.724c-2.747-1.447-5.509-2.861-8.273-4.274
					c-4.016-2.051-8.169-4.177-12.248-6.4c-2.711-1.488-5.182-3.108-7.563-4.688c-1.226-0.804-2.45-1.62-3.697-2.39
					c-5.429-3.378-7.968-8.795-7.146-15.252c1.344-10.514,2.453-20.757,1.27-30.632c-1.172-9.801-3.556-15.356-8.225-19.188
					c-4.027-3.286-9.343-4.952-17.779-5.538c-8.479-0.592-17.533,0.017-28.992,2.005c-6.915,1.177-12.809-1.511-16.25-7.273
					l-4.026-6.767c-4.248-7.136-8.642-14.513-13.039-21.682c-2.317-3.78-5.197-11.357,1.529-19.813
					c6.604-8.29,11.532-16.161,15.078-24.054c2.479-5.527,3.722-10.198,3.923-14.713c0.271-6.273-2.085-11.657-7.416-16.965
					c-6.751-6.716-15.077-11.358-25.496-16.253l-1.466-0.694c-1.8-0.868-3.499-1.673-5.008-2.155
					c-7.485-2.367-11.796-8.445-11.826-16.683c-0.013-3.878-0.038-7.762-0.064-11.634c-0.034-5.395-0.072-10.783-0.074-16.166
					c-0.001-2.712,0.185-5.303,0.367-7.808l0.027-0.368c0.256-3.532,1.891-9.967,9.953-13.282
					c10.227-4.211,20.922-9.106,29.857-16.391c6.611-5.388,9.972-10.334,10.902-16.051c0.844-5.188-0.126-10.674-3.152-17.78
					c-4.241-9.962-10.604-18.861-16.269-26.237c-4.386-5.728-4.812-12.186-1.199-18.195c3.901-6.474,7.771-12.972,11.641-19.475
					l5.416-9.082c3.609-6.056,9.609-8.866,16.993-7.693c6.183,0.982,14.34,2.12,22.54,2.12c3.762,0,7.25-0.23,10.655-0.689
					c12.393-1.695,19.042-8.262,20.923-20.665c1.781-11.725,0.615-23.691-0.752-33.854c-0.928-6.858,1.93-12.722,7.836-16.091
					c9.707-5.552,19.412-11.108,29.099-16.689c6.175-3.556,12.949-2.979,18.7,1.658c7.445,6,16.465,12.687,26.927,16.754
					c4.608,1.796,8.612,2.672,12.225,2.672c4.619,0,10.938-1.207,18.881-10.611c7.604-9.002,12.714-19.703,16.319-28.021
					c3.78-8.715,10.623-10.554,15.696-10.554l0.568,0.002c9.827,0.253,19.666,0.394,29.501,0.541l5.926,0.08
					c6.885,0.106,12.13,3.817,14.772,10.462c3.717,9.35,8.554,20.122,16.253,29.118c7.552,8.816,14.018,9.839,18.223,9.839
					c3.41,0,7.276-0.804,11.49-2.387c8.434-3.174,16.683-7.914,25.962-14.922c3.627-2.731,7.227-4.065,11.007-4.065
					c3.154,0,6.314,0.968,9.387,2.878c7.555,4.7,15.342,9.368,22.875,13.875l5.727,3.442c5.714,3.432,8.379,9.208,7.314,15.844
					c-1.638,10.171-2.169,19.173-1.629,27.509c0.402,6.226,1.671,10.983,3.993,14.981c2.888,4.97,7.681,7.905,15.07,9.238
					c3.645,0.661,7.445,0.983,11.116,1.293c1.311,0.109,2.574,0.212,3.769,0.328l5.366-0.489c4.693-0.425,8.979-0.81,13.262-1.292
					c0.784-0.086,1.542-0.126,2.272-0.126c5.638,0,10.27,2.649,13.035,7.474c1.563,2.741,3.105,5.493,4.642,8.25
					c3.78,6.773,7.342,13.156,11.37,19.303c7.762,11.829,0.732,20.946-1.914,24.388c-6.919,8.974-11.401,16.982-14.107,25.215
					c-3.412,10.398-1.361,18.355,6.649,25.8c6.878,6.4,15.512,11.645,27.163,16.517c8.264,3.448,12.4,9.623,12.3,18.349
					c-0.069,6.245-0.063,12.496-0.051,18.747c0.005,4.658,0.008,9.317-0.018,13.983c-0.057,10.461-6.107,15.137-11.168,17.233
					c-10.525,4.361-17.881,8.503-23.854,13.432c-3.486,2.878-7.1,5.98-9.508,9.347c-2.619,3.677-3.613,8.015-3.044,13.271
					c1.143,10.451,6.957,19.292,13.115,28.656c1.459,2.229,3.131,4.406,4.9,6.716l0.448,0.591c3.783,4.947,4.269,11.03,1.307,16.281
					c-5.139,9.094-10.807,18.993-17.83,31.143c-3.481,6.004-9.433,8.876-16.87,7.859c-7.362-0.999-13.007-1.437-18.295-1.437
					c-4.889,0-9.315,0.391-13.529,1.207c-12.076,2.326-17.625,8.307-19.165,20.636c-1.094,8.777-0.781,18.217,0.951,28.856
					c1.781,10.921-3.737,16.603-8.684,19.453c-7.796,4.492-15.676,9.203-23.296,13.77l-5.23,3.125
					c-5.661,3.378-12.045,3.01-17.563-1.063c-8.238-6.079-17.249-12.208-27.343-15.833c-7.388-2.654-12.064-3.178-16.522-1.879
					c-4.613,1.338-8.744,4.056-12.263,8.066c-7.192,8.221-12.004,18.034-17.02,30.235c-3.567,8.681-10.387,10.537-15.479,10.571
					c-11.416,0.058-22.756,0.315-35.332,0.625H639.02z M588.32-37.608c15.199,0,28.771,6.716,40.35,19.958
					c6.88,7.871,12.667,17.051,18.559,29.489c6.276-0.144,12.708-0.253,19.455-0.322c2.244-4.802,4.76-10.048,7.526-15.104
					c3.68-6.745,8.615-12.978,15.096-19.056l0.815-0.775c3.999-3.775,8.531-8.055,14.77-10.772
					c6.268-2.746,12.912-4.119,19.751-4.119c6.699,0,13.559,1.275,20.969,3.907c9.164,3.251,18.008,7.963,28.335,15.121
					c4.435-2.712,9.232-5.589,14.934-8.974c-1.416-12.087-1.477-21.79-0.224-31.051c3.214-23.859,17.198-39.295,40.424-44.662
					c6.286-1.448,12.938-2.154,20.355-2.154c5.409,0,10.726,0.385,15.247,0.816c3.37-5.917,6.225-10.898,8.899-15.476
					c-3.004-4.412-6.072-8.98-8.848-13.794c-6.497-11.277-9.881-21.917-10.341-32.528c-0.703-16.31,6.104-30.673,20.234-42.69
					c7.417-6.314,16.184-11.766,27.403-17.04c-0.038-7.101-0.049-13.731,0.052-20.326c-10.234-4.729-18.953-10.065-26.582-16.288
					c-20.136-16.373-26.11-37.761-17.275-61.855c3.631-9.893,8.796-19.24,15.386-27.84c-3.091-5.234-6.081-10.474-8.925-15.505
					c-13.062,1.189-23.523,0.89-33.617-0.868c-21.515-3.763-36.538-17.987-41.227-39.03c-2.949-13.241-2.283-26.038-0.954-37.164
					c-1.774-1.06-3.55-2.123-5.32-3.179c-3.258-1.957-6.512-3.913-9.789-5.823c-1.069,0.681-2.138,1.384-3.2,2.094
					c-2.522,1.666-5.136,3.384-7.888,5.01c-10.772,6.337-20.389,9.953-30.267,11.355c-18.427,2.637-34.634-3.86-47.724-19.137
					c-8.414-9.826-14.095-20.954-18.177-30.164c-6.316-0.042-12.783-0.121-19.3-0.241c-5.654,11.912-11.553,21.303-18.436,29.379
					c-11.094,13.005-25.065,19.881-40.399,19.883c-6.613,0-13.487-1.281-20.435-3.797c-11.668-4.226-21.67-10.789-30.282-17.014
					c-3.245,1.83-6.474,3.674-9.708,5.524c-1.531,0.881-3.062,1.758-4.596,2.625c0.27,2.924,0.512,5.911,0.776,9.22l0.592,7.282
					l-0.098,0.89c-0.144,1.371-0.273,2.913-0.414,4.565c-0.359,4.34-0.811,9.739-1.85,15.111
					c-4.186,21.561-17.614,35.555-38.836,40.473c-6.313,1.459-12.91,2.17-20.153,2.17c-6.979,0-13.87-0.689-19.665-1.436
					c-2.654,4.534-5.429,9.221-8.266,13.875c6.846,9.502,11.7,17.953,15.225,26.462c4.91,11.863,6.501,22.641,4.869,32.947
					c-2.026,12.788-8.887,23.842-20.971,33.786c-9.521,7.831-20.162,13.328-29.76,17.672c0.033,5.532,0.036,11.45,0.004,18.384
					c10.172,4.637,18.846,9.594,26.422,15.097c22.249,16.162,29.915,38.699,21.586,63.46c-3.535,10.514-8.962,20.572-17.445,32.28
					c3.021,4.981,5.771,9.571,8.321,13.892c7.521-0.977,13.681-1.425,19.601-1.425c5.377,0,10.357,0.379,15.226,1.155
					c23.568,3.739,38.684,17.707,43.716,40.364c3.034,13.668,2.361,27.243,1.137,38.193c1.925,1.091,3.85,2.2,5.776,3.303
					c2.847,1.631,5.691,3.27,8.546,4.889c8.432-6.405,17.347-11.657,26.571-15.655C572.499-35.803,580.587-37.608,588.32-37.608z"/>
			</g>
		</g>
	</g>
</g>
<g>
	<g>
		<g>
			<g>
				<path fill-rule="evenodd" clip-rule="evenodd" fill="#FFFFFF" d="M855.001,479.999C855.001,687.108,687.109,855,479.996,855
					c-207.102,0-374.997-167.892-374.997-375.001C104.999,272.895,272.895,105,479.996,105
					C687.109,105,855.001,272.895,855.001,479.999z"/>
			</g>
		</g>
	</g>
	<g opacity="0.3">
		<path fill-rule="evenodd" clip-rule="evenodd" fill="#FD6729" d="M808.236,341.829c6.596-0.304,6.245,2.976,5.24,6.159
			c-3.108,9.818-6.377,19.585-9.646,29.346c-11.002,32.941-22.032,65.869-33.068,98.799c-2.114,6.308-3.533,6.73-7.928,1.818
			c-22.497-25.161-44.897-50.413-67.343-75.619c-7.48-8.405-15.139-16.651-22.411-25.232c-4.447-5.256-3.654-6.966,2.912-8.29
			c33.804-6.799,67.613-13.566,101.405-20.415C788.187,346.212,798.924,343.817,808.236,341.829z"/>
		<path fill-rule="evenodd" clip-rule="evenodd" fill="#FD6729" d="M480.312,391.994c-0.517,15.382,0.799,34.067-0.678,52.725
			c-0.407,5.104,0.655,9.246,5.349,13.038c15.437,12.49,17.315,36.596,4.665,50.823c-14.765,16.6-37.475,18.318-53.006,4.016
			c-15.365-14.15-16.262-38.009-1.049-52.455c5.65-5.372,7.454-10.689,7.391-18.088c-0.296-34.004,0.012-68-0.241-102.005
			c-0.049-6.736,1.916-9.77,8.954-9.155c4.992,0.419,10.048,0.075,15.074,0.075c13.547,0.018,13.541,0.018,13.541,13.938
			C480.312,359.506,480.312,374.116,480.312,391.994z"/>
		<path fill-rule="evenodd" clip-rule="evenodd" fill="#FD6729" d="M460.612,149.895c14.139,0.161,28.174,1.66,42.231,2.818
			c4.791,0.391,6.061,2.565,5.372,7.058c-1.833,12.065-3.62,24.135-5.056,36.257c-0.73,6.13-3.591,7.991-9.577,7.242
			c-29.185-3.668-58.252-2.519-87.092,3.134c-9.143,1.789-18.206,4.113-27.186,6.641c-4.483,1.275-6.595,0.129-7.916-4.26
			c-3.665-12.145-7.432-24.255-11.533-36.253c-1.681-4.92-0.118-6.791,4.524-8.178C395.794,154.99,427.897,150.506,460.612,149.895z
			"/>
		<path fill-rule="evenodd" clip-rule="evenodd" fill="#FD6729" d="M128.074,482.36c0.522-42.766,8.135-84.153,24.092-123.942
			c1.749-4.357,3.582-6.144,8.491-3.912c11.751,5.357,23.646,10.418,35.636,15.218c4.64,1.858,4.814,4.401,3.157,8.365
			c-10.085,24.008-16.189,49.042-18.628,74.92c-1.207,12.823-3.033,25.7-1.451,38.632c0.627,5.09-0.85,7.698-6.305,7.882
			c-11.95,0.419-23.905,0.833-35.82,1.75c-6.914,0.537-9.767-2-9.218-8.865C128.299,489.079,128.074,485.706,128.074,482.36z"/>
		<path fill-rule="evenodd" clip-rule="evenodd" fill="#FD6729" d="M403.849,763.41c-2.712,13.426-5.429,27.059-8.241,40.666
			c-1.178,5.699-5.386,3.59-8.608,2.841c-21.763-5.067-42.953-11.869-63.275-21.21c-21.395-9.841-41.611-21.693-60.723-35.501
			c-5.15-3.729-5.503-6.515-1.396-11.401c7.552-8.977,14.601-18.396,21.526-27.863c3.079-4.194,5.306-5.541,10.258-1.904
			c31.293,22.917,65.686,39.316,103.663,47.904C400.281,757.674,404.791,757.674,403.849,763.41z"/>
		<path fill-rule="evenodd" clip-rule="evenodd" fill="#FD6729" d="M698.398,251.029c0.051,2.476-1.229,3.636-2.431,4.794
			c-9.651,9.295-19.412,18.49-28.972,27.895c-3.224,3.171-5.159,1.557-7.71-0.868c-19.493-18.568-40.675-34.918-64.431-47.77
			c-10.749-5.817-21.808-11.051-33.264-15.271c-5.112-1.89-5.899-4.286-4.026-9.12c4.165-10.705,7.888-21.589,11.742-32.421
			c3.085-8.652,3.264-8.896,11.646-5.613c34.412,13.455,65.884,31.91,93.994,55.947c6.905,5.909,13.438,12.266,20.078,18.476
			C696.388,248.355,697.473,249.935,698.398,251.029z"/>
		<path fill-rule="evenodd" clip-rule="evenodd" fill="#FD6729" d="M226.753,322.284c-1.329-0.735-3.067-1.525-4.618-2.591
			c-10.298-6.998-20.487-14.162-30.862-21.041c-3.817-2.54-4.436-4.749-1.611-8.661c27.806-38.638,62.123-70.092,103.128-94.295
			c3.505-2.071,5.843-2.41,8.089,1.703c6.173,11.363,12.521,22.629,19.039,33.794c2.482,4.243,1.815,6.679-2.484,9.207
			c-33.74,19.771-61.733,45.917-84.917,77.316C231.14,319.584,229.977,321.859,226.753,322.284z"/>
		<path fill-rule="evenodd" clip-rule="evenodd" fill="#FD6729" d="M184.755,554.307c4.059-0.164,4.354,3.203,5.158,5.783
			c4.197,13.506,8.891,26.786,14.768,39.671c10.098,22.133,22.658,42.708,38.454,61.185c4.246,4.975,3.568,7.824-1.123,11.61
			c-8.938,7.193-17.869,14.475-26.165,22.391c-4.987,4.751-7.988,4.111-11.993-0.873c-16.691-20.809-31.055-43.093-42.702-67.087
			c-8.385-17.25-15.055-35.174-20.441-53.603c-1.591-5.438-0.444-7.885,5.082-9.187c11.872-2.798,23.644-6.038,35.461-9.094
			C182.407,554.804,183.588,554.569,184.755,554.307z"/>
		<path fill-rule="evenodd" clip-rule="evenodd" fill="#FD6729" d="M459.94,788.952c0-5.268,0.351-10.559-0.087-15.79
			c-0.563-6.719,1.781-9.237,8.802-9.313c33.872-0.345,66.412-7.569,97.803-20.15c4.659-1.87,9.232-3.958,13.806-6.021
			c3.229-1.457,5.498-0.632,7.055,2.525c6.032,12.228,12.116,24.43,18.143,36.658c2.292,4.662-1.447,5.843-4.424,7.256
			c-13.845,6.592-28.11,12.199-42.806,16.537c-29.018,8.575-58.582,14.049-88.973,14.139c-8.865,0.02-9.117-0.227-9.192-9.338
			c-0.04-5.504-0.012-11.002-0.012-16.503C460.021,788.952,459.975,788.952,459.94,788.952z"/>
	</g>
</g>
</svg>
