<?xml version="1.0" encoding="utf-8"?>
<!-- Generator: Adobe Illustrator 16.0.3, SVG Export Plug-In . SVG Version: 6.00 Build 0)  -->
<!DOCTYPE svg PUBLIC "-//W3C//DTD SVG 1.1//EN" "http://www.w3.org/Graphics/SVG/1.1/DTD/svg11.dtd">
<svg version="1.1" id="Capa_1" xmlns="http://www.w3.org/2000/svg" xmlns:xlink="http://www.w3.org/1999/xlink" x="0px" y="0px"
	 width="960px" height="960px" viewBox="0 0 960 960" enable-background="new 0 0 960 960" xml:space="preserve">
<g>
	<g>
		<g>
			<g>
				<path fill-rule="evenodd" clip-rule="evenodd" fill="#FFFFFF" d="M855,479.997C855,687.109,687.106,855,479.999,855
					C272.888,855,105,687.109,105,479.997C105,272.891,272.888,105,479.999,105C687.106,105,855,272.891,855,479.997z"/>
			</g>
		</g>
	</g>
	<g opacity="0.2">
		<defs>
			<path id="SVGID_13_" opacity="0.2" d="M855,479.997C855,687.109,687.106,855,479.999,855C272.888,855,105,687.109,105,479.997
				C105,272.891,272.888,105,479.999,105C687.106,105,855,272.891,855,479.997z"/>
		</defs>
		<clipPath id="SVGID_2_">
			<use xlink:href="#SVGID_13_"  overflow="visible"/>
		</clipPath>
		<g clip-path="url(#SVGID_2_)">
			<g>
				<path fill="#49B1BA" d="M251.3,538.332c-0.589,0-1.188-0.006-1.78-0.012c-12.752-0.133-23.593-1.787-33.139-5.05
					c-15.65-5.366-28.225-14.966-37.397-28.541c-2.795-4.16-2.681-8.646,0.336-13.346c3.41-5.314,5.17-11.001,5.245-16.913
					c0.138-11.708-4.365-20.63-13.77-27.283c-4.422-3.131-6.469-7.865-5.772-13.34c1.561-12.168,3.981-23.824,7.203-34.642
					c3.029-10.146,6.338-19.257,10.124-27.846c7.288-16.522,14.901-32.459,27.959-45.862c2.305-2.367,4.885-4.194,6.952-5.665
					c2.085-1.477,4.411-2.258,6.727-2.258c2.281,0,4.447,0.747,6.244,2.154c1.887,1.482,4.809,4.86,3.148,10.847l-0.027,0.098
					c-1.082,5.883-2.411,11.726-3.697,17.379c-1.958,8.617-3.808,16.764-4.896,25.117c-1.379,10.623-1.396,18.625-0.061,25.927
					c0.549,2.981,1.957,5.716,4.309,8.359c0.115,0.138,0.26,0.293,1.011,0.339c0.988,0.069,2.014,0.092,3.125,0.092
					c2.938,0,5.924-0.207,9.085-0.431c2.768-0.195,5.63-0.396,8.555-0.459c7.763-0.155,15.697-0.5,23.373-0.839
					c2.137-0.092,4.274-0.184,6.409-0.281c0.25-0.006,0.49-0.012,0.717-0.012c4.457,0,7.071,1.948,8.475,3.579
					c2.079,2.413,2.85,5.544,2.292,9.284c-1.359,9.025,0.807,17.068,6.813,25.306l0.161,0.224
					c6.521,8.939,13.262,18.188,16.904,29.793c1.866,5.963,2.522,11.806,3.154,17.441l0.129,1.184
					c0.286,2.534-0.07,4.567-0.693,6.165c1.813,1.724,3.049,4.148,3.53,7.089c0.118,0.712,0.251,1.431,0.375,2.143
					c0.563,3.097,1.198,6.601,0.945,10.508c-0.365,5.578-3.7,9.651-8.926,10.875C294.838,534.063,273.616,538.332,251.3,538.332z
					 M194.391,498.123c6.93,9.209,16.107,15.816,27.297,19.648c7.868,2.7,17.027,4.062,28.002,4.177
					c19.812,0.195,39.131-3.407,57.18-7.549c-0.063-0.517-0.149-1.051-0.244-1.591c-8.293,1.011-16.569,1.534-24.649,1.534l0,0
					c-9.685-0.006-19.369-0.741-28.792-2.2c-6.287-0.977-12.429-2.207-18.412-6.458c-2.724-1.925-4.001-5.326-3.23-8.566
					c0.78-3.246,3.437-5.699,6.738-6.205c0.477-0.075,0.949-0.155,1.42-0.247c1.375-0.247,2.938-0.528,4.692-0.609l3.427-0.149
					c6.093-0.287,12.394-0.574,18.68-0.626c5.001-0.041,10.005-0.052,15.015-0.052c6.403,0,13.252,0.029,20.825,0.081
					c-0.448-3.625-1.015-7.089-2.039-10.353c-2.834-9.037-8.506-16.816-14.509-25.054l-0.164-0.218
					c-7.129-9.784-10.592-20.245-10.321-31.177c-0.145,0-0.293,0.005-0.433,0.011c-7.766,0.345-15.804,0.701-23.757,0.856
					c-2.514,0.052-5.051,0.235-7.738,0.419c-3.304,0.235-6.722,0.472-10.235,0.472c-1.457,0-2.813-0.041-4.142-0.121
					c-4.903-0.305-9.13-2.315-12.229-5.808c-4.339-4.878-7.092-10.358-8.183-16.287c-1.657-9.048-1.679-18.608-0.07-30.994
					c1.004-7.739,2.612-15.311,4.273-22.693c-6.151,9.048-10.861,19.183-15.451,29.598c-3.513,7.957-6.591,16.437-9.419,25.927
					c-2.86,9.6-5.042,19.952-6.489,30.787c12.965,9.681,19.705,23.474,19.504,39.985
					C200.844,482.904,198.634,490.786,194.391,498.123z"/>
			</g>
			<g>
				<path fill="#49B1BA" d="M408.635,773.226c-4.118,0-7.806-1.838-10.967-5.469c-6.236-7.158-15.247-11.278-24.73-11.278
					c-6.743,0-13.176,2.063-18.6,5.958c-2.951,2.132-5.919,3.166-9.076,3.166c-2.351,0-4.647-0.569-7.229-1.787
					c-14.736-6.951-29.341-16.235-44.651-28.397c-12.513-9.939-22.693-19.723-31.106-29.926c-5.82-7.055-10.214-13.713-13.435-20.36
					c-0.345-0.724-0.922-1.913-1.252-3.424c-0.056-0.258-0.144-0.54-0.224-0.821c-0.624-2.143-2.523-8.664,2.827-13.225
					c1.715-1.465,3.902-2.269,6.147-2.269c3.487,0,5.96,1.826,7.441,2.912c0.171,0.127,0.329,0.253,0.494,0.362
					c4.316,2.396,8.588,4.923,12.718,7.365c7.605,4.509,14.793,8.76,22.403,12.363c7.604,3.596,16.497,7.526,25.777,8.548
					c2.87,0.316,5.334,0.006,7.655-0.948c1.514-0.626,1.988-1.368,2.276-2.43c1.379-4.935,2.764-9.853,4.146-14.788
					c3.047-10.84,6.197-22.055,9.166-33.091c2.118-7.882,8.086-8.497,9.864-8.497c2.359,0,4.26,0.821,5.485,1.447
					c5.167,2.62,9.93,3.896,14.558,3.896l0.293-0.006c4-0.046,8.334-0.942,13.627-2.821c12.29-4.355,22.625-6.383,32.505-6.383
					c6.758,0,13.383,1,19.691,2.964c0.914,0.287,2.756,0.856,4.51,2.206c1.661-0.844,3.582-1.287,5.707-1.287
					c0.57,0,1.152,0.034,1.775,0.092c3.724,0.368,7.394,1.103,11.208,2.235c5.752,1.718,9.059,6.365,8.619,12.156
					c-2.075,27.38-5.292,56.37-19.589,83.302c-9.534,17.958-23.72,30.442-42.161,37.101
					C412.355,772.876,410.486,773.226,408.635,773.226z M372.937,740.101c13.983,0,27.287,5.952,36.608,16.368
					c14.4-5.354,25.085-14.897,32.656-29.156c12.165-22.911,15.452-48.465,17.417-72.95c-0.51-0.109-1.011-0.212-1.52-0.304
					c-3.556,18.797-9.633,36.474-18.08,52.572c-2.306,4.401-5.258,9.525-9.662,14.127c-1.65,1.729-3.962,2.66-6.358,2.516
					c-2.392-0.132-4.598-1.292-6.051-3.188c-1.407-1.827-2.838-4.86-1.686-8.945c2.188-9.037,4.888-18.757,8.487-30.592
					c3.472-11.346,6.682-20.998,9.962-29.874c-3.229-0.649-6.521-0.977-9.965-0.977c-7.961,0-16.553,1.735-27.034,5.452
					c-7.039,2.494-13.051,3.688-18.907,3.751l-0.484,0.006c-5.228,0-10.424-0.965-15.729-2.918
					c-2.495,9.134-5.072,18.309-7.575,27.225c-1.382,4.912-2.762,9.83-4.131,14.742c-1.705,6.124-5.781,10.674-11.78,13.173
					c-4.856,2.011-10.133,2.717-15.735,2.097c-11.796-1.304-22.179-5.866-30.98-10.025c-6.722-3.177-13.153-6.836-19.389-10.49
					c0.612,0.77,1.245,1.563,1.907,2.367c7.674,9.295,17.051,18.298,28.659,27.519c14.307,11.358,27.852,19.981,41.423,26.398
					C353.166,743.174,362.827,740.101,372.937,740.101z"/>
			</g>
			<g>
				<path fill="#49B1BA" d="M775.703,461.688c-3.396,0-7.88-1.494-10.025-8.618c-0.049-0.155-0.086-0.31-0.138-0.459
					c-1.984-4.292-3.893-8.669-5.738-12.903c-4.986-11.45-9.701-22.273-16.077-32.315c-4.235-6.67-8.977-13.466-16.165-16.879
					c-1.039-0.488-1.938-0.741-2.671-0.741c-0.382,0-1.399,0-3.194,1.465c-7.195,5.866-14.557,11.726-21.68,17.39
					c-5.214,4.148-10.429,8.296-15.612,12.478c-1.683,1.351-4.311,3.148-7.782,3.148c-2.885,0-6.912-1.172-9.765-6.745
					c-3.981-7.795-10.158-13.018-18.872-15.959c-1.534-0.511-3.053-1.04-4.585-1.557c-2.536-0.874-5.066-1.747-7.617-2.58
					c-13.787-4.504-25.601-12.846-35.12-24.784c-0.513-0.643-1.657-2.08-2.335-4.096c-3.161-0.563-5.426-2.608-7.456-4.446
					c-2.341-2.12-5.06-4.729-7.421-8.015c-3.273-4.538-3.164-9.921,0.284-14.041c17.41-20.791,38.436-44.098,67.723-57.426
					c10.35-4.706,20.977-7.089,31.594-7.089c7.202,0,14.509,1.103,21.719,3.269c8.684,2.614,10.761,8.957,10.984,13.817
					c0.271,5.911,2.414,11.306,6.558,16.517c6.596,8.301,14.865,12.449,25.284,12.685c6.454,0.149,11.077,3.011,14.127,8.767
					c14.624,27.593,23.552,57.686,26.53,89.42c0.815,8.767,1.224,19.13-2.011,29.546c-0.063,0.189-0.104,0.391-0.158,0.603
					c-1.953,7.618-6.489,9.399-9.95,9.542C776.015,461.688,775.819,461.688,775.703,461.688z M724.888,373.388
					c3.18,0,6.441,0.787,9.686,2.327c11.137,5.285,17.7,14.586,22.98,22.899c5.862,9.232,10.438,19.021,14.694,28.678
					c-0.086-1.264-0.188-2.522-0.307-3.768c-2.771-29.581-11.082-57.605-24.688-83.285c-0.016-0.023-0.026-0.04-0.026-0.04
					c-15.147-0.362-28.199-6.883-37.738-18.884c-6.059-7.629-9.437-16.04-10.045-25.025c-5.481-1.585-10.992-2.396-16.394-2.396
					c-8.265,0-16.609,1.891-24.807,5.624c-24.753,11.255-42.901,30.5-59.186,49.734c0.309,0.322,0.612,0.621,0.917,0.925
					c14.802-13.851,31.002-24.979,48.191-33.103c3.992-1.884,8.849-3.843,14.576-4.016c3.378-0.121,6.502,1.902,7.808,5.044
					c1.307,3.137,0.54,6.756-1.925,9.088c-8.568,8.118-17.522,15.058-24.364,20.199c-10.444,7.842-19.011,13.983-27.027,19.372
					c6.756,7.147,14.537,12.111,23.644,15.086c2.619,0.856,5.228,1.752,7.842,2.654c1.499,0.505,2.996,1.022,4.501,1.528
					c10.802,3.648,19.254,9.979,25.202,18.867c3.793-3.04,7.59-6.067,11.396-9.083c7.083-5.642,14.402-11.467,21.522-17.275
					C715.53,375.123,720.088,373.388,724.888,373.388z"/>
			</g>
			<g>
				<path fill="#49B1BA" d="M600.664,762.282c-1.405,0-2.76-0.104-4.019-0.322l-0.121-0.018c-6.799-0.844-8.567-5.607-9.011-7.612
					c-0.501-2.229-0.629-6.498,4.081-10.019l0.016-0.006c3.513-3.246,7.112-6.446,10.6-9.548
					c6.655-5.923,13.538-12.047,19.793-18.424c8.08-8.221,14.155-15.488,17.587-24.204c0.796-2.022,1.129-4.073,1.011-6.262
					c-0.089-1.752-0.595-2.39-1.554-3.028c-12.901-8.525-25.783-17.08-38.668-25.628c-0.606-0.402-1.197-0.833-1.78-1.258
					c-0.504-0.373-0.984-0.718-1.37-0.965c-3.799-2.373-4.869-5.446-5.096-7.601c-0.227-2.178,0.209-5.452,3.547-8.675
					c6.827-6.583,10.087-15.109,9.974-26.088c-0.106-10.341-0.219-21.038,3.234-31.942c2.524-7.963,6.597-14.816,9.867-19.895
					c0.882-1.373,1.856-2.378,2.851-3.12c-0.27-2.017,0.056-4.159,1.028-6.296l0.054-0.149c0.095-0.259,0.189-0.523,0.282-0.776
					c2.762-7.009,5.883-14.948,15.124-14.948c3.641,0,7.329,1.425,11.77,3.274c23.167,9.669,39.934,19.154,54.356,30.742
					c19.653,15.793,30.479,33.545,33.102,54.296c0.05,0.408,0.093,0.822,0.134,1.229c0.028,0.31,0.056,0.621,0.104,0.925
					c1.57,10.226-2.232,17.407-11.636,21.946c-13.913,6.716-20.565,23.376-15.476,38.744c1.77,5.337,0.757,10.111-3.018,14.196
					c-9.139,9.91-19.431,18.987-30.583,26.99c-19.233,13.799-35.997,23.089-52.773,29.271c-6.806,2.499-14.227,4.86-22.353,5.153
					C601.365,762.276,601.015,762.282,600.664,762.282z M611.849,645.165c12.067,8.009,24.146,16.017,36.232,24.014
					c5.454,3.608,8.524,9.088,8.876,15.845c0.237,4.499-0.479,8.917-2.131,13.099c-4.931,12.553-13.497,21.906-21.136,29.684
					c-4.626,4.717-9.479,9.209-14.313,13.57c15.043-5.653,30.302-14.202,47.921-26.84c9.905-7.106,19.06-15.132,27.239-23.865
					c-6.97-22.83,3.317-47.39,24.26-57.513c3.066-1.477,3.039-1.66,2.569-4.711c-0.094-0.609-0.156-1.212-0.219-1.827
					c-0.023-0.252-0.047-0.505-0.075-0.758c-2.095-16.552-10.709-30.397-27.114-43.576c-13.176-10.594-28.719-19.343-50.406-28.392
					c-0.704-0.299-2.315-0.971-3.677-1.459c-0.172,0.379-0.351,0.792-0.527,1.206c14.74,8.106,28.312,17.982,40.386,29.392
					c4.344,4.096,9.86,9.709,14.016,16.752c1.792,3.045,1.438,6.888-0.887,9.548l-0.584,0.672c-2.297,2.631-6.007,3.51-9.235,2.2
					l-0.155-0.052c-0.555-0.195-1.488-0.522-2.515-1.149c-7.964-4.837-16.039-10.151-24.672-16.235
					c-10.304-7.256-18.894-13.57-26.569-19.516c-2.126,3.774-3.579,7.061-4.631,10.375c-2.662,8.405-2.567,17.361-2.473,26.829
					C622.165,625.276,618.744,636.243,611.849,645.165z"/>
			</g>
			<g>
				<path fill="#49B1BA" d="M390.593,342.951c-2.202,0-6.325-0.707-9.317-5.441c-11.273-17.838-23.683-39.462-30.342-64.659
					c-5.699-21.578-4.722-40.281,2.981-57.171c1.962-4.297,4.535-8.672,7.872-13.36c3.141-4.427,7.135-5.36,9.929-5.36
					c1.045,0,2.101,0.126,3.221,0.391c3.074,0.707,6.134,1.063,9.09,1.063c14.25,0,25.818-8.411,30.959-22.515
					c2.1-5.742,6.097-9.077,12.232-10.185c16.57-3.002,33.433-4.12,50.061-3.315c16.656,0.801,38.451,2.729,59.31,10.594
					c4.685,1.76,9.093,4.253,13.107,7.399l0.158,0.124c4.931,3.803,5.208,7.983,4.564,10.829c-0.385,1.701-2.244,7.282-9.958,7.575
					l-0.144,0.002c-4.573,0.503-9.156,0.962-13.732,1.417c-5.02,0.502-10.206,1.028-15.284,1.591
					c-14.078,1.557-25.62,3.648-36.225,8.761c-4.085,1.964-6.768,4.214-8.445,7.072c-0.389,0.661-0.873,1.482,0.104,4.056
					c5.855,15.451,11.665,31.149,16.571,44.483c1,2.711,2.369,6.423,0.141,10.381c-2.233,3.958-6.17,4.722-9.054,5.274
					c-9.096,1.775-16.23,6.583-21.825,14.718c-7.546,10.973-16.029,22.262-29.416,29.167c-2.575,1.333-5.166,2.511-7.674,3.637
					c-0.741,0.339-1.491,0.672-2.232,1.011c-1.968,0.902-3.805,1.344-5.61,1.344c-0.197,0-0.439-0.012-0.715-0.029
					c-0.908,1.833-2.413,3.464-4.47,4.797c-3.622,2.355-7.552,4.211-12.01,5.699C393.135,342.732,391.845,342.951,390.593,342.951z
					 M373.738,213.827c-2.048,3.056-3.663,5.9-4.922,8.646c-6.153,13.495-6.805,28.173-2.04,46.201
					c5.673,21.498,16.201,40.571,26.196,56.663c0.34-0.155,0.676-0.316,1.008-0.471c-6.935-15.155-11.759-29.776-14.749-44.586
					c-2.005-9.962-2.433-18.327-1.369-26.321c0.488-3.61,3.297-6.472,6.907-7.018c3.602-0.545,7.138,1.376,8.658,4.694
					c5.199,11.341,9.382,23.089,13.224,34.148c3.025,8.698,5.88,17.763,8.692,27.582c1.473-0.678,2.898-1.356,4.293-2.074
					c10.022-5.17,16.804-14.253,23.438-23.898c6.98-10.151,16.077-16.942,27.089-20.243c-4.495-12.188-9.608-25.964-14.744-39.531
					c-2.5-6.575-2.129-12.682,1.094-18.157c3.351-5.71,8.411-10.134,15.451-13.524c13.442-6.48,27.909-8.772,41.528-10.286
					c2.286-0.25,4.582-0.497,6.874-0.738c-15.25-4.231-30.513-5.513-43.876-6.159c-15.346-0.735-30.914,0.287-46.224,3.053
					c-7.546,20.357-25.23,32.985-46.238,32.985C380.648,214.792,377.195,214.465,373.738,213.827z"/>
			</g>
			<g>
				<path fill="#49B1BA" d="M434.734,440.742c-1.159,0-2.311-0.207-3.421-0.638c-1.671-0.632-7.033-3.326-5.799-11.249l0.013-0.046
					c-0.544-23.692-3.982-47.464-10.213-70.691c-1.864-6.952-4.191-14.276-7.547-23.744c-2.748-7.761,1.6-12.61,6.156-14.408
					c11.033-4.343,20.212-12.38,28.883-25.295c7.073-10.542,14.848-17.154,24.475-20.813c3.602-1.379,6.208-2.367,8.997-2.367
					c4.587,0,8.241,2.683,9.775,7.187c0.684,2.005,0.934,4.251,1.232,7.446c2.746,29.414,1.803,53.893-2.97,77.063
					c-3.411,16.534-8.112,29.593-14.816,41.123l-0.095,0.172c-0.672,1.298-2.249,4.32-6.301,6.061
					c-2.529,1.098-5.44,0.839-7.737-0.672c-0.276-0.178-0.54-0.374-0.781-0.586c-0.117,0.528-0.227,1.063-0.352,1.591
					c-2.006,8.91-4.731,15.867-8.567,21.894c-0.554,0.874-1.333,2.005-2.416,3.12c-0.038,0.052-0.075,0.098-0.116,0.149
					C442.257,437.203,439.586,440.742,434.734,440.742z M424.681,333.121c2.734,7.928,4.763,14.455,6.453,20.763
					c4.011,14.931,6.921,30.098,8.711,45.322c2.589-15.207,3.042-30.931,2.816-49.183c-1.004-5.831,2.449-9.628,6.361-10.812
					c0.898-0.276,1.821-0.414,2.745-0.414c4.638,0,7.278,3.246,8.145,4.309l0.056,0.075c4.38,5.372,5.712,11.456,6.325,15.569
					c0.323,2.12,0.602,4.2,0.852,6.245c0.387-1.661,0.763-3.367,1.127-5.113c4.312-20.929,5.247-43.197,2.91-69.899
					c-5.472,2.563-10.215,7.009-14.778,13.816C446.99,317.811,436.818,327.244,424.681,333.121z"/>
			</g>
			<g>
				<path fill="#49B1BA" d="M419.585,519.172c-1.788,0-3.208-0.517-3.89-0.758l-0.064-0.029c-1.88-0.523-3.767-1.074-5.643-1.626
					c-2.937-0.856-5.702-1.677-8.513-2.407c-22.631-5.889-46.631-8.882-71.325-8.882c-2.58,0-5.212,0.035-7.818,0.104
					c-0.786,0.018-1.462,0.023-2.057,0.023c-11.421,0.012-11.899-8.962-12.127-13.271c-0.608-11.519-4.971-22.262-13.732-33.82
					c-3.711-4.883-7.891-10.68-10.648-17.574c-1.886-4.711-2.837-9.732-3.006-15.804c-0.036-1.327-0.141-5.343,2.88-8.451
					c1.828-1.878,4.365-2.913,7.143-2.913c1.031,0,2.095,0.132,3.335,0.414c11.049,2.494,24.09,5.647,37.051,10.123
					c22.444,7.744,41.087,17.281,56.986,29.132c7.456,5.579,13.724,11.559,19.14,18.315c1.804,2.234,2.298,5.268,1.294,7.968
					c-0.701,1.896-2.067,3.436-3.797,4.366c6.005,3.516,11.793,7.704,17.004,13.064c1.989,2.057,3.712,4.309,5.114,6.693
					l0.086,0.138c3.249,5.17,1.574,9.157,0.285,11.076C425.529,517.667,422.723,519.172,419.585,519.172z M330.15,489.091
					c20.73,0,41.016,2,60.503,5.952c-3.294-1.666-6.647-3.188-9.95-4.659c-11.24-4.987-23.23-9.313-35.636-12.863l-0.092-0.017
					c-7.269-1.402-8.303-6.963-8.442-8.641c-0.181-2.103,0.112-7.313,6.76-10.226l0.22-0.092c1.517-0.707,3.223-1.138,4.935-1.235
					c1.762-0.104,3.858-0.218,6.001-0.218c2.99,0,5.659,0.218,8.158,0.649c1.25,0.218,2.493,0.448,3.731,0.707
					c-11.79-7.21-25.162-13.369-40.514-18.671c-9.428-3.251-19.023-5.791-27.797-7.882c0.259,1.034,0.575,2.016,0.944,2.964
					c2.002,4.992,5.298,9.531,8.497,13.748c10.127,13.352,15.66,26.64,16.875,40.537
					C326.288,489.115,328.234,489.091,330.15,489.091z"/>
			</g>
			<g>
				<path fill="#49B1BA" d="M575.897,447.998c-8.715,0-16.622-0.827-24.184-2.539c-1.306-0.293-2.525-0.661-3.556-0.982
					c-2.565-0.781-3.938-2.54-4.386-3.114l-0.076-0.098c-1.843-2.085-2.5-4.958-1.753-7.635c0.086-0.287,0.179-0.575,0.29-0.856
					c-3.249,0.356-6.628,0.592-10.022,0.592c-3.737,0-7.195-0.276-10.571-0.839c-4.542-0.752-9.384-1.827-14.216-5.716
					c-2.304-1.855-3.43-4.808-2.941-7.727c0.487-2.918,2.51-5.348,5.287-6.348l4.333-1.574c2.648-0.954,5.136-1.85,7.625-2.763
					c22.618-8.319,44.799-20.119,65.928-35.079l1.404-0.994c2.691-1.902,5.229-3.688,7.695-5.59c0.852-0.661,3.446-2.66,7.087-2.66
					c2.197,0,5.404,0.718,8.229,4.125c6.69,8.083,16.046,13.57,30.331,17.787c10.013,2.947,22.598,7.951,31.083,20.446l0.205,0.304
					c2.331,3.43,4.738,6.975,3.389,11.634c-1.359,4.677-5.39,6.417-8.945,7.968c-25.147,10.921-48.447,17.557-71.238,20.274
					C589.12,447.549,582.257,447.998,575.897,447.998z M599.157,401.923c2.785,0,5.402,1.252,7.18,3.441
					c1.379,1.695,4.128,6.32-0.086,12.57l-0.122,0.184c-2.995,4.55-7.182,7.169-10.866,9.278c-2.335,1.333-4.691,2.545-7.061,3.654
					c2.166-0.184,4.411-0.414,6.745-0.701c20.064-2.396,40.672-8.1,62.896-17.424c-4.356-4.981-10.577-8.428-20.077-11.231
					c-10.667-3.148-23.941-8.141-34.805-19.16c-1.497,1.086-2.987,2.137-4.452,3.171l-1.388,0.982
					c-16.13,11.421-32.861,21.107-49.957,28.926c0.679-0.104,1.36-0.207,2.031-0.311c15.524-2.43,30.761-7.302,45.051-12.099
					C595.099,402.773,596.844,401.923,599.157,401.923z"/>
			</g>
			<g>
				<path fill="#49B1BA" d="M378.59,654.311c-4.607,0-8.863-0.862-12.059-1.608c-4.942-1.155-7.052-4.033-7.951-6.25
					c-0.895-2.212-1.392-5.733,1.337-9.979c1.435-2.241,2.852-4.499,4.266-6.75c2.615-4.159,5.314-8.457,8.141-12.65
					c7.95-11.771,16.852-22.733,26.448-32.574c15.336-15.729,29.736-26.272,45.281-33.177l0.052-0.023
					c0.827-0.448,2.771-1.499,5.448-1.499c1.656,0,3.274,0.391,4.814,1.172c2.127,1.068,3.678,3.004,4.259,5.302
					c6.094-5.521,13.285-11.099,22.309-14.218c1.383-0.478,2.554-0.828,3.692-1.104l0.089-0.022c0.655-0.19,1.87-0.54,3.375-0.54
					c3.174,0,6.005,1.499,7.776,4.113c0.678,1.011,3.805,6.296-1.163,11.926l-0.021,0.023c-7.161,9.726-13.819,20.63-20.363,33.315
					c-8.356,16.201-15.091,32.707-20.02,49.051c-2.427,8.009-8.034,9.204-11.16,9.204c-1.377,0-2.805-0.218-4.485-0.689
					c-4.984-1.402-10.028-2.108-15.012-2.108c-5.585,0-11.289,0.896-16.946,2.648c-1.228,0.379-2.455,0.781-3.678,1.166
					c-6.243,1.988-12.696,4.05-19.741,4.976C381.751,654.208,380.173,654.311,378.59,654.311z M378.37,637.927
					c0.994,0.017,1.884-0.041,2.788-0.155c5.585-0.729,11.073-2.482,16.881-4.337c1.264-0.408,2.528-0.81,3.802-1.207
					c12.554-3.895,25.298-4.43,37.822-1.54c5.109-16.178,11.865-32.454,20.095-48.43c1.631-3.16,3.279-6.228,4.931-9.204
					c-11.016,10.789-20.357,23.014-30.799,37.859c-2.551,4.895-6.457,5.636-8.568,5.636c-1.042,0-2.08-0.178-3.094-0.523
					c-2.333-0.804-6.273-3.154-6.64-9.893c-0.332-5.986,1.695-10.921,3.622-15.081c1.02-2.201,2.119-4.349,3.271-6.44
					c-3.933,3.39-7.911,7.153-11.99,11.324c-8.917,9.14-17.185,19.332-24.595,30.305
					C383.334,630.039,380.812,634.043,378.37,637.927z"/>
			</g>
			<g>
				<path fill="#49B1BA" d="M598.827,648.331c-3.023,0-5.751-1.373-8.089-4.079c-17.938-20.786-30.586-39.388-39.806-58.542
					c-7.635-15.862-12.323-30.615-14.334-45.116c-0.171-1.246-0.297-2.562-0.385-4.009c-0.07-1.207,0.086-2.137,0.209-2.884
					c0.041-0.229,0.089-0.528,0.146-0.925c0.464-3.315,2.894-6.009,6.15-6.813c0.919-0.224,1.853-0.287,2.756-0.195
					c-1.471-3.487-2.822-7.101-3.985-10.824c-1.492-4.78-3.114-11.151-2.322-18.125l0.017-0.155c0.54-6.015,4.209-8.221,6.355-8.991
					c1.059-0.385,2.136-0.568,3.216-0.568c2.355,0,5.694,0.861,8.263,4.952l0.021,0.046c17.335,23.652,38.83,44.541,65.708,63.855
					c2.108,1.505,8.546,7.129,2.959,16c-5.3,8.405-7.969,18.045-8.161,29.478c-0.025,1.683-0.014,3.372,0,5.159
					c0.036,4.82,0.075,9.807-0.732,15.023c-1.31,8.451-4.599,15.994-9.77,22.412C604.176,647.578,600.992,648.331,598.827,648.331z
					 M561.673,569.67c1.224,2.93,2.559,5.906,4.016,8.933c7.707,16.006,18.091,31.718,32.428,49.011
					c1.207-2.608,2.037-5.435,2.515-8.514c0.605-3.895,0.572-8.02,0.537-12.375c-0.016-1.815-0.033-3.683,0-5.567
					c0.223-12.984,3.038-24.273,8.596-34.396c-17.564-12.915-32.901-26.536-46.355-41.174c4.247,8.664,9.213,16.408,13.534,22.767
					c2.736,4.033,5.666,8.112,8.494,12.047c1.646,2.298,3.295,4.59,4.928,6.905l0.03,0.04c4.955,6.067,1.229,11.318,0.432,12.312
					c-1.828,2.264-4.572,3.562-7.52,3.562c-1.541,0-2.811-0.351-3.493-0.534l-0.104-0.023c-2.848-0.787-5.531-2.154-8.426-4.303
					C567.748,575.726,564.583,572.778,561.673,569.67z"/>
			</g>
			<g>
				<path fill="#49B1BA" d="M151.549,517.288c-24.104,0-43.8-19.533-43.897-43.542c-0.049-11.685,4.491-22.71,12.783-31.052
					c8.278-8.318,19.246-12.903,30.889-12.909c11.994,0,23.059,4.349,31.21,12.254c8.326,8.078,12.909,19.229,12.904,31.391
					c-0.005,25.169-18.398,43.616-43.741,43.857C151.673,517.288,151.572,517.288,151.549,517.288z M151.364,446.159
					c-7.288,0.006-14.131,2.878-19.319,8.095c-5.195,5.222-8.048,12.122-8.016,19.424c0.068,15.012,12.411,27.226,27.52,27.226
					v8.198l0.053-8.198c16.139-0.144,27.455-11.456,27.458-27.473c0.003-7.698-2.818-14.673-7.931-19.63
					C166.056,448.876,159.038,446.159,151.364,446.159z"/>
			</g>
			<g>
				<path fill="#49B1BA" d="M373.01,833.295c-24.517,0-43.737-19.326-43.752-43.984c-0.006-11.73,4.528-22.715,12.786-30.936
					c8.235-8.209,19.255-12.731,31.016-12.731c11.684,0.006,22.675,4.584,30.971,12.892c8.296,8.307,12.86,19.292,12.849,30.942
					c-0.024,24.123-19.671,43.771-43.786,43.817C373.085,833.295,373.013,833.295,373.01,833.295z M373.075,762.023
					c-7.415,0-14.325,2.833-19.477,7.951c-5.145,5.125-7.968,11.99-7.961,19.32c0.009,15.482,12.036,27.622,27.374,27.622v8.187
					l0.049-8.187c15.115-0.029,27.422-12.34,27.438-27.456c0.01-7.272-2.847-14.144-8.055-19.348
					C387.241,764.902,380.358,762.029,373.075,762.023z"/>
			</g>
			<g>
				<path fill="#49B1BA" d="M741.957,720.407c-11.722,0-22.796-4.653-31.2-13.099c-8.325-8.37-12.881-19.349-12.821-30.925
					c0.133-23.927,19.832-43.397,43.913-43.397c0,0,0.102,0,0.111,0c11.83,0.035,22.818,4.539,30.951,12.708
					c8.135,8.169,12.6,19.176,12.57,31c-0.058,24.065-19.554,43.667-43.453,43.713H741.957z M741.922,649.371
					c-15.173,0-27.524,12.162-27.608,27.105c-0.035,7.175,2.828,14.023,8.061,19.285c5.302,5.332,12.251,8.267,19.582,8.267v8.181
					l0.042-8.181c14.909-0.029,27.068-12.312,27.105-27.375c0.018-7.445-2.758-14.334-7.799-19.4
					C756.255,652.186,749.377,649.382,741.922,649.371z"/>
			</g>
			<g>
				<path fill="#49B1BA" d="M748.307,334.448h-0.04c-11.698-0.006-22.688-4.573-30.934-12.852
					c-8.186-8.215-12.674-19.09-12.638-30.632c0.031-11.789,4.58-22.811,12.809-31.034c8.229-8.227,19.238-12.754,30.997-12.754
					h0.266c23.943,0.138,43.418,19.769,43.409,43.765c-0.003,11.713-4.55,22.675-12.814,30.856
					C771.121,329.961,760.093,334.448,748.307,334.448z M748.501,263.55c-15.338,0-27.387,12.059-27.428,27.456
					c-0.023,7.164,2.765,13.919,7.864,19.033c5.15,5.176,12.021,8.025,19.35,8.037l0.02,8.187v-8.187
					c15.417,0,27.49-11.921,27.493-27.145c0.001-15.006-12.167-27.289-27.128-27.381H748.501z"/>
			</g>
			<g>
				<path fill="#49B1BA" d="M383.656,208.975c-0.521,0-1.031-0.008-1.551-0.031c-11.493-0.391-22.691-5.619-30.727-14.337
					c-7.625-8.27-11.569-18.754-11.111-29.54c0.135-24.155,19.168-43.047,43.417-43.047c24.679,0.038,43.352,18.829,43.509,43.688
					c0.073,11.122-4.578,22.215-12.747,30.431C406.219,204.417,395.284,208.975,383.656,208.975z M383.732,138.396
					c-15.44,0-27.062,11.559-27.088,26.881c0,0.129-0.007,0.25-0.009,0.374c-0.306,6.443,2.106,12.782,6.784,17.855
					c5.084,5.521,12.102,8.83,19.249,9.077c7.644,0.253,14.795-2.597,20.162-7.991c5.119-5.147,8.026-11.992,7.987-18.783
					C410.717,150.208,399.072,138.424,383.732,138.396z"/>
			</g>
		</g>
	</g>
</g>
</svg>
