<?xml version="1.0" encoding="utf-8"?>
<!-- Generator: Adobe Illustrator 16.0.0, SVG Export Plug-In . SVG Version: 6.00 Build 0)  -->
<!DOCTYPE svg PUBLIC "-//W3C//DTD SVG 1.1//EN" "http://www.w3.org/Graphics/SVG/1.1/DTD/svg11.dtd">
<svg version="1.1" id="Capa_1" xmlns="http://www.w3.org/2000/svg" xmlns:xlink="http://www.w3.org/1999/xlink" x="0px" y="0px"
	 width="1080px" height="1080px" viewBox="0 0 1080 1080" enable-background="new 0 0 1080 1080" xml:space="preserve">
<g>
	<g>
		<defs>
			<path id="SVGID_1_" d="M2111.106-550.16c0,152.966-72.715,288.955-185.459,375.278c-79.531,60.898-178.984,97.078-286.889,97.078
				c-108.072,0-207.672-36.301-287.271-97.369c-112.527-86.345-185.078-222.19-185.078-374.987
				c0-260.876,211.48-472.339,472.35-472.339C1899.63-1022.499,2111.106-811.036,2111.106-550.16z"/>
		</defs>
		<clipPath id="SVGID_2_">
			<use xlink:href="#SVGID_1_"  overflow="visible"/>
		</clipPath>
		<g clip-path="url(#SVGID_2_)">
		</g>
	</g>
</g>
<g>
	<g>
		<path fill="#49B1BA" d="M539.374,1022.263c-106.994,0-208.313-34.34-293.001-99.313
			C126.412,830.901,57.611,691.503,57.611,540.488c0-265.636,216.118-481.75,481.763-481.75
			c265.644,0,481.762,216.114,481.762,481.75c0,151.214-68.939,290.722-189.15,382.756
			C747.388,988.023,646.203,1022.263,539.374,1022.263z M539.374,84.402c-251.495,0-456.102,204.6-456.102,456.086
			c0,142.973,65.142,274.952,178.721,362.103c80.166,61.504,176.084,94.012,277.381,94.012c101.142,0,196.93-32.412,277.012-93.732
			c113.813-87.136,179.089-219.222,179.089-362.382C995.474,289.001,790.868,84.402,539.374,84.402z"/>
	</g>
	<g>
		<path fill-rule="evenodd" clip-rule="evenodd" fill="#49B1BA" d="M552.332,146.315c76.573-0.048,131.681,71.17,112.986,146.577
			c-8.566,34.527-26.943,62.883-56.59,83.259c-34.311,23.597-76.101,24.813-110.449,1.316c-43.231-29.574-65.07-71.32-61.89-123.888
			C440.065,192.803,491.333,146.351,552.332,146.315z"/>
		<path fill-rule="evenodd" clip-rule="evenodd" fill="#49B1BA" d="M422.057,680.021c-13.045,50.497-30.505,100.449-37.53,126.614
			c-15.156,56.513-22.054,143.373,25.764,128.209c47.813-15.156,72.118-126.834,101.065-170.945
			c28.948-44.105,57.889-24.812,71.679-4.135c13.784,20.677,66.164,176.451,114.425,175.065
			c48.236-1.371,13.774-100.634,5.508-129.57c-6.654-23.28-32.018-82.186-38.119-135.55c0,0-31.217-88.217-24.524-118.339
			c6.695-30.115,55.782-99.279,26.773-137.198c-29.01-37.933-94.155,6.682-121.263,4.45c-27.105-2.225-85.108-45.73-109.653-4.45
			c-24.544,41.265-88.134,146.12-79.205,184.047c8.929,37.926,20.078,49.076,47.97,44.618
			C432.835,638.38,425.659,666.075,422.057,680.021z"/>
		<g>
			<polygon fill="#FFFFFF" points="674.275,589.392 555.05,734.865 367.836,581.437 487.065,435.974 			"/>
			<g>
				<path fill="#FFFFFF" d="M413.534,526.56c-8.579-7.028-9.833-19.691-2.812-28.261c7.032-8.577,19.692-9.834,28.271-2.811"/>
			</g>
		</g>
		<path fill="#49B1BA" d="M639.553,552.827c0,0-96.622,123.752-127.688,126.85c-31.068,3.097-35.211-21.686-27.957-36.132
			c7.25-14.458,86.979-140.387,86.979-143.487L639.553,552.827z"/>
		<path fill="#49B1BA" d="M359.116,606.588c56.254-56.052,85.982-25.935,86.819,0c0.837,25.934-28.192,37.073-28.192,37.073
			s-40.217,8.823-49.422-14.127C359.116,606.588,359.116,606.588,359.116,606.588z"/>
	</g>
</g>
<g>
	<g>
		<defs>
			<path id="SVGID_3_" d="M-81.829,1636.421c0,152.971-72.714,288.957-185.458,375.285
				c-79.532,60.895-178.984,97.074-286.889,97.074c-108.073,0-207.671-36.301-287.268-97.369
				c-112.527-86.342-185.078-222.188-185.078-374.99c0-260.875,211.479-472.34,472.346-472.34
				C-293.305,1164.081-81.829,1375.546-81.829,1636.421z"/>
		</defs>
		<clipPath id="SVGID_4_">
			<use xlink:href="#SVGID_3_"  overflow="visible"/>
		</clipPath>
		<g clip-path="url(#SVGID_4_)">
		</g>
	</g>
</g>
</svg>
