<?xml version="1.0" encoding="utf-8"?>
<!-- Generator: Adobe Illustrator 16.0.3, SVG Export Plug-In . SVG Version: 6.00 Build 0)  -->
<!DOCTYPE svg PUBLIC "-//W3C//DTD SVG 1.1//EN" "http://www.w3.org/Graphics/SVG/1.1/DTD/svg11.dtd">
<svg version="1.1" id="Capa_1" xmlns="http://www.w3.org/2000/svg" xmlns:xlink="http://www.w3.org/1999/xlink" x="0px" y="0px"
	 width="960px" height="960px" viewBox="0 0 960 960" enable-background="new 0 0 960 960" xml:space="preserve">
<g>
	<g>
		<g>
			<g>
				<path fill-rule="evenodd" clip-rule="evenodd" fill="#FFFFFF" d="M855,480c0,207.109-167.896,375-375.002,375
					C272.891,855,105,687.109,105,480c0-207.103,167.891-375,374.998-375C687.104,105,855,272.897,855,480z"/>
			</g>
		</g>
	</g>
	<g opacity="0.2">
		<defs>
			<path id="SVGID_19_" opacity="0.2" d="M855,480c0,207.109-167.896,375-375.002,375C272.891,855,105,687.109,105,480
				c0-207.103,167.891-375,374.998-375C687.104,105,855,272.897,855,480z"/>
		</defs>
		<clipPath id="SVGID_2_">
			<use xlink:href="#SVGID_19_"  overflow="visible"/>
		</clipPath>
		<g clip-path="url(#SVGID_2_)">
			<g>
				<g>
					<path fill="#49B1BA" d="M483.031,745.932c-7.25,2.416-18.018-12.82-20.412-19.349c-0.34-0.931-0.664-1.813-0.994-2.553
						c-27.717-62.606-64.516-110.212-112.484-145.538c-9.109-6.719-13.348-15.178-13.33-26.619
						c0.105-61.635,0.105-124.304,0.107-184.908c0-41.731,0-83.463,0.035-125.2c0-5.492,0.201-9.542,1.201-12.788
						c1.656-5.417,5.846-8.641,11.197-8.641c3.834,0,8,1.591,13.896,4.349c32.494,15.192,69.377,35.463,96.541,70.623
						c18.338,23.738,27.668,49.746,27.721,77.304c0.18,95.631,0.152,192.861,0.117,286.886c-0.006,15.721-0.012,31.448-0.012,47.172
						c-0.006,10.355,4.404,21.437,1.643,31.712C487.041,742.93,485.188,745.214,483.031,745.932z M351.338,236.554
						c-0.074,1.235-0.123,2.924-0.123,5.225c-0.035,41.729-0.035,83.46-0.035,125.186c-0.002,60.609-0.002,123.281-0.105,184.928
						c-0.012,6.598,1.916,10.479,7.115,14.313c47.754,35.165,84.844,81.8,113.164,142.352c0-16.356,0.01-32.712,0.014-49.068
						c0.035-94.017,0.064-191.236-0.119-286.849c-0.043-24.112-8.303-46.991-24.531-67.998
						c-25.178-32.585-60.094-51.716-90.932-66.133C353.869,237.617,352.428,236.991,351.338,236.554z"/>
				</g>
				<g>
					<path fill="#49B1BA" d="M493.67,749.29c-0.576,0.112-1.16,0.138-1.732,0.066c-9.668-1.201-7.234-21.733-6.99-28.047
						c0.031-0.959,0.07-1.864,0.07-2.697c-0.02-35.426,0.023-71.436,0.059-106.253c0.074-75.288,0.158-153.141-0.352-229.692
						c-0.301-45.245,16.537-82.015,51.477-112.409c19.455-16.916,42.363-31.227,74.275-46.396c4.551-2.168,8.193-3.174,11.471-3.174
						c4.594,0,7.555,1.999,9.232,3.677c4.225,4.234,4.754,10.657,4.748,15.781c-0.189,96.843-0.156,195.323-0.117,290.558
						l0.002,22.532c0,6.472-1.051,15.836-10.154,22.42c-44.906,32.468-80.008,76.169-105.076,125.407
						c-5.268,10.344-7.539,21.906-12.639,32.347C505.732,737.926,499.68,748.146,493.67,749.29z M620.439,236.261
						c-0.775,0.241-1.885,0.652-3.41,1.376c-30.609,14.555-52.449,28.165-70.813,44.138c-31.377,27.297-46.502,60.262-46.23,100.787
						c0.512,76.615,0.428,154.491,0.352,229.808c-0.037,31.413-0.072,63.798-0.059,95.834
						c28.516-61.439,66.748-108.988,116.438-144.911c2.43-1.761,3.834-3.967,3.834-10.054l-0.002-22.535
						c-0.035-95.243-0.07-193.729,0.117-290.592C620.668,238.326,620.559,237.094,620.439,236.261z"/>
				</g>
				<g>
					<path fill="#49B1BA" d="M506.027,740.776c-1.195-1.095-2.199-2.746-2.967-5.073c-2.271-6.871,0.586-19.976,4.225-25.965
						c0.4-0.646,0.787-1.284,1.15-1.927c26.973-47.758,65.406-87.533,117.516-121.598c10.307-6.742,13.926-13.595,13.832-26.186
						c-0.506-63.554-0.426-128.156-0.34-190.626c0.025-17.419,0.047-34.826,0.057-52.242c0.004-11.292,0.234-18.504,4.629-24.189
						c4.375-5.667,11.344-7.707,22.295-10.398c22.857-5.61,45.795-8.454,68.174-8.454h0.086c7.879,0.003,13.645,2.002,17.631,6.115
						c3.9,4.019,5.68,9.594,5.459,17.034c-0.039,1.189-0.006,2.453,0.033,3.794c0.023,1.031,0.059,2.074,0.059,3.114v72.2
						c0.008,75.11,0.016,152.776-0.029,229.173c-0.006,11.093-0.012,19.113-5.279,24.511c-5.01,5.136-12.236,5.653-24.215,6.515
						c-65.271,4.726-128.85,32.709-179.518,73.659C542.881,715.032,516.766,750.551,506.027,740.776z M734.598,289.379
						c-21.152,0-42.867,2.7-64.533,8.014c-5.248,1.293-12.43,3.051-13.859,4.906c-1.438,1.859-1.443,9.376-1.445,14.868
						c-0.006,17.419-0.035,34.832-0.059,52.25c-0.08,62.437-0.162,127.007,0.34,190.489c0.139,17.795-6.064,29.483-20.74,39.08
						c-47.32,30.934-82.834,66.665-108.32,109.031c6.855-5.334,13.535-10.467,20.377-15.451
						c59.586-43.438,118.76-66.734,180.883-71.209c5.736-0.417,12.855-0.931,14.377-1.953c0.949-1.632,0.951-9.278,0.957-13.866
						c0.049-76.388,0.037-154.054,0.025-229.164v-72.2c0-0.905-0.025-1.798-0.051-2.697c-0.037-1.497-0.078-3.045-0.031-4.679
						c0.088-2.921-0.334-5.087-1.158-5.943c-0.908-0.942-3.346-1.477-6.676-1.477H734.598z"/>
				</g>
				<g>
					<path fill="#49B1BA" d="M469.994,735.772c-9.051,9.522-31.582-13.837-37.588-18.458c-13.875-10.66-28.01-20.812-42.813-30.153
						c-26.002-16.416-54.055-29.722-83.439-38.801c-15.225-4.705-30.895-8.098-46.689-10.215
						c-5.143-0.689-10.842-1.224-17.945-1.666c-9.424-0.595-17.564-1.1-22.66-6.549c-4.801-5.127-5.15-12.248-5.162-23.368
						c-0.061-100.568-0.061-202.553,0-303.125c0.006-11.341,0.354-18.594,5.143-23.606c4.945-5.165,12.053-5.544,23.162-5.544h1.379
						c19.732,0.057,39.758,2.746,61.225,8.227c11.301,2.884,18.49,5.056,22.957,10.864c4.479,5.82,4.709,13.213,4.719,24.792
						c0.016,17.585,0.039,35.168,0.061,52.753c0.084,61.454,0.17,124.996-0.318,187.51c-0.111,14.147,3.58,21.36,14.633,28.604
						c48.559,31.792,84.939,68.462,111.234,112.107c5.096,8.457,19.01,22.802,13.926,33.858
						C471.297,734.132,470.684,735.048,469.994,735.772z M229.875,290.419c-0.91,1.853-0.922,9.37-0.922,13.032
						c-0.057,100.56-0.057,202.539,0,303.102c0,3.436,0.014,11.493,1.063,12.972c1.305,1.022,9.127,1.511,12.461,1.721
						c7.471,0.468,13.518,1.034,19.027,1.775c62.5,8.425,121.145,35.507,183.943,85.048c-0.207-0.353-0.42-0.704-0.627-1.054
						c-25.082-41.631-59.928-76.701-106.523-107.209c-15.451-10.123-21.689-22.147-21.537-41.49
						c0.494-62.445,0.408-125.956,0.32-187.369c-0.021-17.591-0.045-35.177-0.057-52.759c-0.006-7.385-0.129-13.647-1.555-15.508
						c-1.455-1.89-7.758-3.619-14.637-5.383c-20.229-5.162-39.035-7.692-57.488-7.744h-1.342
						C238.881,289.551,231.668,289.551,229.875,290.419z"/>
				</g>
				<g>
					<path fill="#49B1BA" d="M431.707,726.772c-9.389,0.075-20.266-6.509-28.4-9.063c-13.242-4.162-26.707-7.669-40.297-10.499
						c-26.416-5.498-53.414-8.345-80.393-8.345c-36.43,0-73.623,5.185-110.555,15.399c-6.453,1.784-11.328,3.048-15.313,3.048
						c-6.33,0.008-10.84-3.258-12.713-9.169c-1.232-3.898-1.334-8.982-1.346-15.738c-0.092-104.415-0.07-190.649,0.066-271.384
						c0-1.195-0.066-2.51-0.129-3.903c-0.355-7.296-0.891-18.327,9.598-24.896c15.33-9.617,29.664-14.296,43.816-14.296h0.475
						c5.297,0.04,8.447,2.258,10.156,4.11c4.143,4.493,3.688,10.657,3.387,14.739c-0.068,0.939-0.135,1.827-0.129,2.456
						c0.182,31.531,0.166,63.574,0.148,94.562c-0.006,8.962-0.006,17.922-0.006,26.884c0,11.464-0.006,22.937-0.01,34.404
						c-0.004,23.83-0.006,48.47,0.031,72.703c0.012,4.283,0.018,10.019,0.576,12.096c0.926,0.227,2.984,0.445,7.479,0.445
						c1.275,0,2.658-0.017,4.15-0.034c36.607-0.48,71.938,4.053,104.852,13.46c32.166,9.192,63,23.313,91.643,41.967
						c6.191,4.019,12.105,8.414,17.836,12.67c5.73,4.26,9.727,13.44,1.275,17.14C435.951,726.382,433.871,726.755,431.707,726.772z
						 M194.986,393.199c-10.875,0.235-22.225,4.157-34.654,11.953c-2.514,1.574-2.809,4.062-2.461,11.226
						c0.07,1.517,0.152,3.091,0.148,4.67c-0.137,80.723-0.154,166.94-0.063,271.341c0.002,2.436,0.008,6.902,0.316,9.525
						c2.637-0.396,6.787-1.548,9.723-2.353c38.252-10.591,76.818-15.954,114.621-15.954c37.854,0,75.902,5.38,113.418,16.014
						c-50.436-29.276-107.008-44.101-168.426-44.101c-1.695,0-3.408,0.008-5.105,0.034c-1.57,0.02-3.02,0.035-4.354,0.035
						c-6.729,0-15.094,0-19.744-6.409c-3.547-4.892-3.555-11.447-3.572-21.371c-0.035-24.25-0.031-48.896-0.029-72.729
						c0-11.473,0.006-22.937,0.004-34.404c0-8.965,0.008-17.927,0.014-26.889c0.012-30.965,0.029-62.982-0.156-94.468
						c-0.008-1.238,0.088-2.476,0.174-3.671C194.891,394.96,194.959,394.029,194.986,393.199z"/>
				</g>
				<g>
					<path fill="#49B1BA" d="M540.811,726.017c-1.6,0-3.191-0.201-4.754-0.594l-7.486-1.884l1.971-7.469
						c2.033-7.684,7.836-11.137,11.68-13.423c0.867-0.52,1.689-1.002,2.367-1.474c29.461-20.443,61.385-35.929,94.887-46.02
						c32.67-9.841,67.748-14.831,104.275-14.831h0.58c5.842,0,13.053,0,15.025-0.813c0.799-1.925,0.801-8.675,0.801-15.222
						c0.016-31.531,0.016-63.057,0.016-94.588c0-41.091-0.006-83.566,0.031-125.353c0.008-8.017,0.305-13.472,1.814-17.643
						c2.191-6.067,7.09-9.404,13.779-9.404c4.232,0,9.258,1.215,16.494,3.314c2.52,0.73,4.926,1.563,7.188,2.355
						c12.545,4.401,19.455,6.825,23.811,12.926c4.365,6.13,4.365,13.874,4.365,26.694c0.023,80.418,0.031,175.208-0.002,268.503
						c-0.004,7.687-0.08,12.636-1.135,16.462c-1.725,6.245-6.217,9.689-12.654,9.689c-3.949,0-8.521-1.218-15.646-3.197
						c-36.23-10.065-72.932-15.164-109.096-15.164c-44.338,0-89.313,7.669-133.682,22.799c-0.891,0.305-1.912,0.761-2.996,1.241
						C549.367,724.305,545.545,726.017,540.811,726.017z M689.121,683.622c37.543,0,75.625,5.291,113.182,15.721
						c3.469,0.968,7.299,2.031,9.795,2.453c0.287-2.729,0.287-7.371,0.293-10.711c0.033-93.292,0.025-188.076,0.008-268.491
						c0-9.105,0-15.678-1.537-17.838c-1.539-2.157-7.789-4.349-16.434-7.382c-2.064-0.721-4.254-1.479-6.396-2.1
						c-4.412-1.281-9.234-2.594-11.881-2.703c-0.451,1.858-0.678,5.814-0.686,11.794c-0.037,41.777-0.035,84.253-0.035,125.335
						c0.004,31.531,0.004,63.06-0.014,94.597c-0.004,13.369-0.004,20.736-5.154,25.967c-5.238,5.32-13.023,5.32-25.932,5.32h-0.531
						c-61.498,0-117.891,14.733-168.059,43.846C613.479,688.933,651.506,683.622,689.121,683.622z"/>
				</g>
			</g>
			<path fill-rule="evenodd" clip-rule="evenodd" fill="#49B1BA" d="M542.322,718.118c0,9.663-22.961,31.172-48.652,31.172
				c-25.693,0-84.459-23.856-84.459-33.516c0-9.657,20.828-15.046,46.52-15.046S542.322,708.458,542.322,718.118z"/>
		</g>
	</g>
</g>
</svg>
