<?xml version="1.0" encoding="utf-8"?>
<!-- Generator: Adobe Illustrator 16.0.3, SVG Export Plug-In . SVG Version: 6.00 Build 0)  -->
<!DOCTYPE svg PUBLIC "-//W3C//DTD SVG 1.1//EN" "http://www.w3.org/Graphics/SVG/1.1/DTD/svg11.dtd">
<svg version="1.1" id="Capa_1" xmlns="http://www.w3.org/2000/svg" xmlns:xlink="http://www.w3.org/1999/xlink" x="0px" y="0px"
	 width="960px" height="960px" viewBox="0 0 960 960" enable-background="new 0 0 960 960" xml:space="preserve">
<g>
	<g>
		<g>
			<g>
				<path fill-rule="evenodd" clip-rule="evenodd" fill="#FFFFFF" d="M855,480c0,207.11-167.898,375-375.003,375
					C272.888,855,105,687.11,105,480c0-207.101,167.888-375,374.997-375C687.102,105,855,272.899,855,480z"/>
			</g>
		</g>
	</g>
	<g opacity="0.2">
		<defs>
			<path id="SVGID_17_" opacity="0.2" d="M855,480c0,207.11-167.898,375-375.003,375C272.888,855,105,687.11,105,480
				c0-207.101,167.888-375,374.997-375C687.102,105,855,272.899,855,480z"/>
		</defs>
		<clipPath id="SVGID_2_">
			<use xlink:href="#SVGID_17_"  overflow="visible"/>
		</clipPath>
		<g clip-path="url(#SVGID_2_)">
			<g>
				<path fill="#49B1BA" d="M638.254,514.991c-34.945,0-68.42-15.231-91.826-41.785c-35.91-40.742-40.023-101.174-9.999-146.966
					c22.547-34.377,60.57-54.895,101.725-54.895c11.169,0,22.157,1.554,32.664,4.621c2.353,0.683,4.327,2.286,5.488,4.439
					c1.165,2.15,1.413,4.684,0.698,7.022l-30.048,98.323l102.976-3.664c4.915-0.156,9.048,3.514,9.452,8.391
					c3.13,37.637-19.008,88.188-67.388,111.966C675.05,510.771,656.967,514.991,638.254,514.991z M638.153,289.646
					c-34.957,0-67.265,17.437-86.41,46.636c-25.516,38.912-22.051,90.238,8.423,124.819c19.93,22.611,48.392,35.585,78.088,35.585
					c15.889,0,31.252-3.589,45.665-10.677c40.992-20.146,56.117-59.083,57.348-85.297l-106.492,3.791
					c-2.948,0.106-5.785-1.225-7.584-3.569c-1.805-2.346-2.363-5.425-1.499-8.258l30.959-101.298
					C650.608,290.226,644.423,289.646,638.153,289.646z"/>
			</g>
			<g>
				<path fill="#49B1BA" d="M554.626,191.608H395.931l1.487-10.446c0.473-3.341,0.908-6.736,1.323-10.011
					c0.932-7.322,1.894-14.891,3.404-22.325c4.652-22.844,13.335-41.344,26.528-56.564c14.499-16.719,31.526-24.562,50.53-23.291
					c17.396,1.156,32.195,9.625,45.244,25.888c12.969,16.154,21.346,35.732,25.603,59.858c1.081,6.108,1.747,12.312,2.393,18.313
					c0.297,2.732,0.597,5.508,0.938,8.319L554.626,191.608z M416.928,173.296h117.134c-0.582-5.338-1.164-10.42-2.041-15.393
					c-3.712-21.017-10.861-37.891-21.847-51.586c-9.8-12.208-20.027-18.267-32.186-19.08c-13.398-0.888-24.6,4.477-35.479,17.024
					c-11.08,12.77-18.414,28.548-22.417,48.222C418.72,159.2,417.85,166.049,416.928,173.296z M475.429,154.104L475.429,154.104
					h-0.289c-6.765-0.069-13.383-2.946-18.165-7.893c-4.812-4.989-7.365-11.472-7.204-18.258
					c0.338-13.833,11.865-25.084,25.701-25.084h0.012c6.86,0.006,13.297,2.675,18.107,7.529c4.843,4.869,7.483,11.366,7.438,18.295
					C500.936,142.94,489.694,154.104,475.429,154.104z M475.472,121.183c-3.846,0-7.305,3.37-7.396,7.218
					c-0.047,1.848,0.688,3.661,2.075,5.091c1.415,1.467,3.257,2.283,5.188,2.306l0,0c4.226,0,7.351-3.107,7.379-7.221
					c0.015-2.018-0.737-3.889-2.118-5.275C479.245,121.929,477.423,121.183,475.472,121.183L475.472,121.183z"/>
			</g>
			<g>
				<path fill-rule="evenodd" clip-rule="evenodd" fill="#49B1BA" d="M311.594,569.315c0-7.599,0-14.727,0-22.144
					c108.867,0,217.53,0,326.524,0c0,7.399,0,14.628,0,22.144C529.279,569.315,420.611,569.315,311.594,569.315z"/>
			</g>
			<g>
				<path fill-rule="evenodd" clip-rule="evenodd" fill="#49B1BA" d="M311.588,692.91c0-7.492,0-14.612,0-22.051
					c108.848,0,217.502,0,326.502,0c0,7.278,0,14.49,0,22.051C529.329,692.91,420.675,692.91,311.588,692.91z"/>
			</g>
			<g>
				<path fill-rule="evenodd" clip-rule="evenodd" fill="#49B1BA" d="M311.536,630.99c0-7.439,0-14.416,0-21.757
					c108.775,0,217.412,0,326.464,0c0,7.083,0,14.269,0,21.757C529.271,630.99,420.623,630.99,311.536,630.99z"/>
			</g>
			<g>
				<path fill="#49B1BA" d="M670.913,375.431c-2.837,0-5.523-1.314-7.262-3.578c-1.804-2.352-2.357-5.419-1.496-8.258l28.633-93.553
					c1.467-4.788,6.521-7.506,11.331-6.096c19.959,5.849,38.765,19.255,52.949,37.764c14.168,18.465,22.236,40.053,22.729,60.775
					c0.121,5.01-3.811,9.178-8.814,9.366l-97.735,3.571C671.132,375.431,671.025,375.431,670.913,375.431z M705.478,284.616
					l-22.049,72.046l75.263-2.755C754.27,324.842,732.432,296.406,705.478,284.616z"/>
			</g>
			<g>
				<path fill-rule="evenodd" clip-rule="evenodd" fill="#49B1BA" d="M311.565,322.008c0-7.503,0-14.628,0-22.065
					c63.043,0,125.908,0,189.105,0c0,7.267,0,14.502,0,22.065C437.771,322.008,374.9,322.008,311.565,322.008z"/>
			</g>
			<g>
				<path fill-rule="evenodd" clip-rule="evenodd" fill="#49B1BA" d="M500.602,423.626c0,7.523,0,14.707,0,22.118
					c-62.969,0-125.719,0-188.841,0c0-7.287,0-14.514,0-22.118C374.366,423.626,437.094,423.626,500.602,423.626z"/>
			</g>
			<g>
				<path fill-rule="evenodd" clip-rule="evenodd" fill="#49B1BA" d="M500.729,383.761c-63.255,0-126.042,0-189.086,0
					c0-7.333,0-14.427,0-21.852c63.032,0,125.924,0,189.086,0C500.729,369.198,500.729,376.287,500.729,383.761z"/>
			</g>
			<g>
				<path fill-rule="evenodd" clip-rule="evenodd" fill="#49B1BA" d="M500.809,485.471c0,7.408,0,14.378,0,21.763
					c-62.942,0-125.845,0-189.088,0c0-7.097,0-14.306,0-21.763C374.71,485.471,437.503,485.471,500.809,485.471z"/>
			</g>
			<g>
				<path fill="#49B1BA" d="M701.375,786.71H253.929c-11.104,0-20.143-8.901-20.143-19.843V193.133
					c0-10.942,9.039-19.837,20.143-19.837h447.446c11.104,0,20.144,8.896,20.144,19.837v55.275c0,5.05-4.102,9.152-9.155,9.152
					c-5.059,0-9.157-4.102-9.157-9.152v-55.275c0-0.824-0.839-1.525-1.831-1.525H253.929c-0.994,0-1.83,0.701-1.83,1.525v573.733
					c0,0.833,0.836,1.531,1.83,1.531h447.446c0.992,0,1.831-0.698,1.831-1.531v-254.79c0-5.056,4.099-9.155,9.157-9.155
					c5.054,0,9.155,4.099,9.155,9.155v254.79C721.519,777.809,712.479,786.71,701.375,786.71z"/>
			</g>
		</g>
	</g>
</g>
</svg>
