<?xml version="1.0" encoding="utf-8"?>
<!-- Generator: Adobe Illustrator 16.0.3, SVG Export Plug-In . SVG Version: 6.00 Build 0)  -->
<!DOCTYPE svg PUBLIC "-//W3C//DTD SVG 1.1//EN" "http://www.w3.org/Graphics/SVG/1.1/DTD/svg11.dtd">
<svg version="1.1" id="Capa_1" xmlns="http://www.w3.org/2000/svg" xmlns:xlink="http://www.w3.org/1999/xlink" x="0px" y="0px"
	 width="960px" height="960px" viewBox="0 0 960 960" enable-background="new 0 0 960 960" xml:space="preserve">
<g>
	<g>
		<g>
			<g>
				<path fill-rule="evenodd" clip-rule="evenodd" fill="#FFFFFF" d="M855,480c0,207.111-167.896,375-375.003,375
					C272.888,855,105,687.111,105,480c0-207.105,167.888-375,374.997-375C687.104,105,855,272.895,855,480z"/>
			</g>
		</g>
	</g>
	<g opacity="0.2">
		<defs>
			<path id="SVGID_15_" opacity="0.2" d="M855,480c0,207.111-167.896,375-375.003,375C272.888,855,105,687.111,105,480
				c0-207.105,167.888-375,374.997-375C687.104,105,855,272.895,855,480z"/>
		</defs>
		<clipPath id="SVGID_2_">
			<use xlink:href="#SVGID_15_"  overflow="visible"/>
		</clipPath>
		<g clip-path="url(#SVGID_2_)">
			<g>
				<path fill-rule="evenodd" clip-rule="evenodd" fill="#49B1BA" d="M845.854,454.435c-6.716-2.017-12.914-3.855-19.084-5.771
					c-21.527-6.656-43.076-13.269-64.563-20.096c-3.203-1.014-3.751,0.523-4.527,2.85c-10.955,32.436-21.951,64.858-32.941,97.286
					c-1.391,4.073-2.947,8.106-4.174,12.237c-0.635,2.151-1.801,3.194-3.938,3.803c-17.873,5.127-35.717,10.344-53.578,15.537
					c-45.988,13.377-91.977,26.763-137.971,40.123c-62.552,18.16-125.114,36.3-187.671,54.457
					c-9.468,2.755-18.927,5.513-28.341,8.379c-2.769,0.847-5.204,0.54-7.858-0.555c-24.451-10.148-48.936-20.208-73.427-30.265
					c-34.964-14.357-69.953-28.679-104.909-43.067c-1.953-0.813-5.417-1.011-5.374-2.941c0.037-1.928,3.496-2.077,5.483-2.867
					c50.211-20.027,100.457-40.014,150.688-59.978c17.847-7.083,35.702-14.173,53.593-21.15c2.481-0.979,2.309-2.381,1.614-4.329
					c-3.832-10.792-7.63-21.593-11.433-32.394c-12.458-35.3-24.916-70.598-37.383-105.895
					c-9.014-25.542-18.054-51.084-27.039-76.638c-0.379-1.063-1.64-2.375-0.517-3.381c1.031-0.891,2.324,0.281,3.403,0.715
					c35.844,14.492,71.669,29.036,107.506,43.542c30.472,12.332,60.983,24.598,91.438,36.969c2.752,1.121,4.062,0.865,5.153-2.206
					c14.891-42.148,29.896-84.248,44.896-126.356c5.418-15.198,10.872-30.379,16.351-45.552c0.355-0.974,0.324-2.519,1.666-2.617
					c1.344-0.098,1.505,1.451,1.999,2.355c15.833,28.53,31.598,57.105,47.447,85.624c14.846,26.686,29.788,53.311,44.656,79.988
					c4.622,8.293,9.283,16.546,13.649,24.957c1.506,2.901,2.873,3.487,5.964,2.238c21.463-8.675,43.019-17.129,64.51-25.738
					c2.482-0.991,4.613-0.945,7.055,0.095c20.637,8.758,41.307,17.431,61.972,26.088c1.611,0.678,3.097,1.442,4.357,2.688
					c22.942,22.69,45.894,45.36,68.822,68.061C844.205,451.467,845.334,452.117,845.854,454.435z M691.131,537.703
					c6.641,0.81,13.098,0.106,19.44,0.824c3.947,0.434,5.377-1.022,6.526-4.458c7.629-22.9,15.437-45.739,23.178-68.584
					c8.586-25.307,17.123-50.62,25.792-75.892c1.161-3.401,0.771-5.136-2.901-6.633c-18.452-7.561-36.79-15.422-55.146-23.241
					c-2.447-1.04-4.702-0.979-7.112,0.02c-6.371,2.637-12.771,5.213-19.183,7.756c-58.122,23.075-116.246,46.161-174.402,69.164
					c-2.691,1.068-3.502,2.028-2.422,5.056c10.313,28.989,20.48,58.047,30.575,87.126c1.097,3.143,3.027,4.139,6.072,4.142
					c15.511,0.04,31,0.859,46.505,1.431c25.336,0.911,50.686,1.502,76.029,2.496C673.178,537.266,682.283,537.476,691.131,537.703z
					 M358.675,565.532c1.345-0.468,1.654-1.327,2.088-2.045c7.535-12.559,15.078-25.125,22.593-37.699
					c16.484-27.587,32.953-55.169,49.44-82.748c13.076-21.877,26.16-43.751,39.336-65.562c1.428-2.381,0.96-3.263-1.522-4.194
					c-6.676-2.517-13.276-5.269-19.895-7.943c-61.735-24.973-123.471-49.964-185.218-74.92c-1.195-0.482-2.64-1.838-3.7-0.758
					c-1.011,1.034,0.305,2.522,0.732,3.734c10.648,30.178,21.363,60.342,32.015,90.527c20.716,58.74,41.409,117.503,62.105,176.237
					C357.296,561.973,358.003,563.754,358.675,565.532z M312.129,655.596c0.176,0.247,0.345,0.491,0.512,0.747
					c128.417-37.331,256.822-74.662,385.24-111.985c-22.044-1.379-43.943-2.123-65.832-2.918
					c-31.844-1.163-63.683-2.418-95.539-3.516c-19.306-0.675-38.623-1.141-57.938-1.724c-8.854-0.276-17.712-0.609-26.57-0.905
					c-21.153-0.709-42.312-1.414-63.465-2.146c-2.212-0.078-3.694,0.732-4.803,2.686c-2.114,3.751-4.4,7.411-6.618,11.111
					c-16.324,27.243-32.638,54.491-48.953,81.734C322.803,637.64,317.472,646.623,312.129,655.596z M523.871,196.136
					c-1.505,4.142-2.74,7.437-3.924,10.74c-12.403,34.789-24.807,69.575-37.195,104.364c-5.943,16.701-11.823,33.424-17.847,50.102
					c-0.917,2.542-0.491,3.786,2.177,4.631c3.036,0.959,5.872,2.594,8.916,3.536c3.054,0.945,4.508,2.884,5.51,5.788
					c6.05,17.453,12.234,34.849,18.384,52.256c1.937,5.452,1.953,5.42,7.228,3.318c38.888-15.474,77.77-30.977,116.703-46.348
					c3.234-1.275,3.427-2.476,1.839-5.317c-15.356-27.53-30.575-55.121-45.868-82.676c-14.161-25.505-28.357-50.984-42.547-76.478
					C532.963,212.354,528.646,204.665,523.871,196.136z M131.634,586.372c1.126,1.373,2.396,1.563,3.51,2.025
					c13.443,5.509,26.898,10.973,40.33,16.508c41.668,17.123,83.336,34.243,124.976,51.449c3.079,1.275,4.699,0.512,6.233-2.266
					c2.974-5.383,6.188-10.637,9.342-15.922c12.435-20.812,24.858-41.637,37.359-62.419c1.339-2.215,1.517-4.157,0.651-6.575
					c-7.006-19.588-13.939-39.193-20.816-58.817c-1-2.87-2.206-3.844-5.343-2.522c-9.398,3.987-18.93,7.693-28.421,11.47
					c-52.951,21.064-105.908,42.105-158.845,63.201C137.677,583.674,134.518,584.387,131.634,586.372z M477.273,380.218
					c-1.301,1.916-2.097,2.984-2.789,4.119c-9.761,16.258-19.513,32.514-29.256,48.784c-17.637,29.472-35.286,58.941-52.871,88.447
					c-3.499,5.849-3.406,5.966,3.418,6.19c24.106,0.816,48.224,1.56,72.329,2.39c19.557,0.661,39.106,1.436,58.668,2.137
					c3.952,0.135,4.079-0.106,2.815-3.912c-0.385-1.172-0.771-2.333-1.184-3.499c-14.725-41.68-29.455-83.352-44.176-125.029
					C482.025,393.598,479.802,387.35,477.273,380.218z M824.299,442.045c-16.077-16.6-33.108-34.206-50.148-51.803
					c-1.832-1.89-2.326-0.497-2.86,1.098c-3.079,9.097-6.072,18.231-9.336,27.263c-1.057,2.924-0.391,4.148,2.531,5.007
					c9.798,2.89,19.541,5.989,29.302,9.002C804.576,435.947,815.359,439.279,824.299,442.045z"/>
				<path fill="#49B1BA" d="M305.93,672.093c-2.602,0-5.199-0.54-7.922-1.675c-24.339-10.097-48.614-20.07-73.395-30.253
					l-37.661-15.448c-22.423-9.201-44.852-18.396-67.263-27.622c-0.221-0.083-0.534-0.149-0.844-0.232
					c-8.158-2.206-9.784-6.98-9.721-10.608c0.092-5.15,3.418-8.594,9.887-10.26c0.327-0.081,0.646-0.152,0.928-0.253
					c50.156-20.001,100.396-39.985,150.642-59.952c16.437-6.529,32.574-12.938,48.85-19.3c-2.215-6.256-4.424-12.507-6.627-18.757
					l-11.932-33.833c-9.568-27.102-19.134-54.21-28.702-81.306l-7.253-20.559c-6.578-18.583-13.145-37.167-19.671-55.758
					l-0.015-0.026c-3.771-7.072,0.371-11.533,1.738-12.737c1.792-1.568,4.056-2.427,6.399-2.427c2.703,0,4.751,1.12,5.739,1.663
					l0.138,0.072c20.194,8.167,40.391,16.348,60.581,24.534c15.575,6.305,31.149,12.616,46.729,18.93
					c11.801,4.766,23.606,9.537,35.421,14.305c17.243,6.955,34.49,13.915,51.73,20.912c13.46-38.089,27.208-76.679,40.52-114.056
					l2.786-7.813c5.389-15.144,10.835-30.256,16.29-45.371l0.02-0.061c1.672-6.992,6.825-8.112,8.974-8.273
					c0.207-0.02,0.534-0.025,0.735-0.025c2,0,6.903,0.672,9.348,6.922l0.011,0.015c6.822,12.314,13.645,24.632,20.47,36.958
					c8.934,16.132,17.861,32.267,26.823,48.384c8.761,15.765,17.568,31.506,26.366,47.242c6.099,10.913,12.194,21.825,18.284,32.749
					l1.786,3.194c3.47,6.219,7.041,12.61,10.462,19.065c11.346-4.573,22.848-9.143,33.993-13.57
					c9.163-3.631,18.314-7.268,27.461-10.938c4.556-1.83,8.882-1.767,13.443,0.167c21.182,9,42.825,18.074,61.922,26.071
					c2.036,0.851,4.668,2.132,7.018,4.453c10.731,10.628,21.469,21.239,32.206,31.856c12.208,12.07,24.419,24.129,36.618,36.211
					l0.161,0.141c1.08,0.968,3.223,2.913,4.354,6.753c0.316,0.902,0.5,1.861,0.5,2.861c0,4.622-3.734,8.365-8.348,8.374
					c-0.821,0.04-1.66-0.106-2.473-0.354l-6.22-1.867c-4.418-1.338-8.686-2.602-12.92-3.926l-11.703-3.605
					c-15.838-4.906-32.177-9.941-48.309-15.04c-9.715,28.751-19.459,57.481-29.202,86.218l-2.424,7.155
					c-0.489,1.448-1.003,2.89-1.512,4.334c-0.937,2.628-1.821,5.116-2.562,7.606c-1.448,4.86-4.694,8.046-9.646,9.468
					c-13.805,3.956-27.575,7.966-41.36,11.976l-50.61,14.725c-33.184,9.654-66.366,19.312-99.561,28.943
					c-34.843,10.123-69.704,20.237-104.559,30.342l-83.112,24.12c-9.048,2.631-18.686,5.441-28.245,8.345
					C309.653,671.812,307.78,672.093,305.93,672.093z M152.913,586.616c1.31,0.545,2.616,1.068,3.93,1.603
					c7.272,2.973,14.546,5.949,21.819,8.939l7.451,3.065c37.606,15.457,76.448,31.419,114.698,47.224
					c2.03-3.562,4.125-7.061,6.176-10.479l5.84-9.77c10.86-18.197,22.098-37.015,33.22-55.494
					c-6.187-17.301-12.656-35.564-19.245-54.339c-6.182,2.554-12.352,4.998-18.353,7.376l-49.893,19.834
					C223.335,558.586,188.124,572.592,152.913,586.616z M390.094,541.578c-1.258,2.183-2.551,4.326-3.809,6.4
					c-0.661,1.088-1.327,2.174-1.988,3.271l-17.326,28.917c-10.536,17.603-21.084,35.208-31.626,52.82
					c-1.942,3.231-3.872,6.48-5.803,9.724l317.668-92.343c-3.51-0.129-7.003-0.255-10.479-0.382l-4.981-0.181
					c-11.964-0.437-23.922-0.885-35.889-1.335c-19.883-0.738-39.761-1.488-59.645-2.175c-12.276-0.428-24.777-0.787-36.865-1.123
					c-7.009-0.201-14.023-0.396-21.032-0.612c-5.679-0.169-11.352-0.371-17.034-0.566l-25.887-0.87
					C420.301,542.615,405.203,542.109,390.094,541.578z M274.887,303.252c3.844,10.87,7.69,21.745,11.542,32.614
					c5.337,15.089,10.677,30.185,16.009,45.282c13.356,37.854,26.702,75.734,40.036,113.613l18.413,52.245
					c5.107-8.508,10.197-17,15.281-25.519l21.228-35.519c9.405-15.744,18.81-31.491,28.22-47.227l0.459-0.767
					c11.611-19.424,23.584-39.451,35.499-59.219c-3.206-1.264-6.371-2.551-9.474-3.821l-50.085-20.271
					C359.634,337.524,317.265,320.38,274.887,303.252z M542.87,524.619c11.427,0.055,22.928,0.523,34.056,0.974
					c3.815,0.158,7.618,0.302,11.43,0.448c11.32,0.417,22.655,0.758,33.979,1.106c13.788,0.417,28.039,0.853,42.076,1.402
					c7.704,0.299,15.483,0.497,23.021,0.687l3.918,0.098c0.265,0.006,0.54,0.026,0.799,0.06c2.936,0.356,5.957,0.371,9.151,0.388
					c2.688,0.005,5.464,0.017,8.318,0.247c5.613-16.853,11.416-33.896,17.022-50.406l11.703-34.522
					c6.17-18.212,12.535-37.009,18.884-55.534c-15.518-6.386-31.138-13.044-46.265-19.49l-6.216-2.648
					c-0.115-0.051-0.189-0.083-0.235-0.092c-0.052,0.015-0.173,0.049-0.402,0.144c-5.562,2.295-11.691,4.786-19.298,7.796
					l-13.609,5.409c-52.313,20.765-104.639,41.545-156.981,62.256C523.053,467.812,532.442,494.586,542.87,524.619z M403.25,519.638
					c8.83,0.29,17.66,0.572,26.496,0.859c12.88,0.417,25.76,0.836,38.646,1.272c11.156,0.399,22.313,0.807,33.476,1.224
					c5.736,0.216,11.479,0.425,17.212,0.635l-42.742-120.99c-0.38-1.071-0.756-2.14-1.135-3.22
					c-7.606,12.662-15.207,25.335-22.788,38.006l-6.112,10.203C431.94,471.626,417.578,495.629,403.25,519.638z M771.431,416.943
					c5.656,1.703,11.298,3.461,16.801,5.179c2.442,0.755,4.887,1.52,7.331,2.269l-19.711-20.354
					C774.409,408.308,772.944,412.64,771.431,416.943z M474.347,359.834c0.17,0.078,0.342,0.146,0.503,0.221
					c1.304,0.58,2.539,1.12,3.613,1.451c5.383,1.66,8.968,5.28,10.962,11.065c4.92,14.222,10.036,28.665,14.982,42.631l2.401,6.785
					l17.941-7.141c29.834-11.878,60.615-24.135,91.044-36.153c-9.063-16.261-18.088-32.557-27.108-48.847
					c-5.405-9.75-10.806-19.51-16.218-29.254c-11.622-20.935-23.272-41.87-34.929-62.81l-7.606-13.653
					c-1.466-2.631-2.937-5.265-4.424-7.925c-11.622,32.611-23.256,65.226-34.869,97.852c-1.896,5.303-3.777,10.628-5.668,15.939
					C481.45,339.939,477.923,349.901,474.347,359.834z"/>
			</g>
		</g>
	</g>
</g>
</svg>
