<?xml version="1.0" encoding="utf-8"?>
<!-- Generator: Adobe Illustrator 16.0.0, SVG Export Plug-In . SVG Version: 6.00 Build 0)  -->
<!DOCTYPE svg PUBLIC "-//W3C//DTD SVG 1.1//EN" "http://www.w3.org/Graphics/SVG/1.1/DTD/svg11.dtd">
<svg version="1.1" id="Capa_1" xmlns="http://www.w3.org/2000/svg" xmlns:xlink="http://www.w3.org/1999/xlink" x="0px" y="0px"
	 width="1080px" height="1080px" viewBox="0 0 1080 1080" enable-background="new 0 0 1080 1080" xml:space="preserve">
<g>
	<g>
		<path fill="#FFFFFF" d="M538.586,1023.136c-106.994,0-208.314-34.345-293.001-99.318
			C125.625,831.773,56.821,692.372,56.821,541.359c0-265.636,216.12-481.749,481.765-481.749
			c265.644,0,481.761,216.113,481.761,481.749c0,151.211-68.939,290.723-189.147,382.753
			C746.602,988.895,645.416,1023.136,538.586,1023.136z M538.586,85.271c-251.496,0-456.103,204.599-456.103,456.089
			c0,142.973,65.143,274.952,178.722,362.103c80.167,61.504,176.084,94.009,277.381,94.009c101.142,0,196.931-32.409,277.013-93.73
			c113.814-87.139,179.091-219.22,179.091-362.381C994.689,289.869,790.082,85.271,538.586,85.271z"/>
	</g>
	<g>
		<path fill-rule="evenodd" clip-rule="evenodd" fill="#FFFFFF" d="M551.545,147.184c76.571-0.045,131.68,71.174,112.985,146.576
			c-8.566,34.531-26.943,62.884-56.589,83.263c-34.313,23.597-76.101,24.814-110.45,1.317
			c-43.231-29.573-65.07-71.324-61.889-123.89C439.277,193.671,490.547,147.22,551.545,147.184z"/>
		<path fill-rule="evenodd" clip-rule="evenodd" fill="#FFFFFF" d="M421.27,680.89c-13.045,50.5-30.504,100.452-37.53,126.613
			c-15.155,56.514-22.055,143.377,25.765,128.209c47.812-15.152,72.117-126.834,101.065-170.942
			c28.947-44.108,57.889-24.811,71.678-4.133c13.784,20.677,66.166,176.452,114.425,175.061
			c48.236-1.368,13.776-100.629,5.508-129.57c-6.653-23.28-32.016-82.185-38.118-135.55c0,0-31.217-88.217-24.525-118.338
			c6.696-30.115,55.782-99.28,26.774-137.199c-29.012-37.929-94.156,6.687-121.263,4.454c-27.107-2.225-85.109-45.73-109.653-4.454
			c-24.544,41.27-88.135,146.125-79.206,184.051c8.928,37.923,20.077,49.074,47.969,44.615
			C432.048,639.249,424.87,666.947,421.27,680.89z"/>
		<g>
			<polygon fill="#49B1BA" points="673.487,590.261 554.263,735.738 367.049,582.309 486.277,436.844 			"/>
			<g>
				<path fill="#49B1BA" d="M412.745,527.428c-8.576-7.023-9.831-19.69-2.811-28.256c7.032-8.581,19.693-9.839,28.272-2.811"/>
			</g>
		</g>
		<path fill="#FFFFFF" d="M638.766,553.699c0,0-96.621,123.747-127.688,126.845c-31.067,3.097-35.21-21.681-27.957-36.132
			c7.251-14.453,86.979-140.383,86.979-143.483L638.766,553.699z"/>
		<path fill="#FFFFFF" d="M358.329,607.458c56.253-56.05,85.981-25.933,86.818,0c0.837,25.937-28.191,37.073-28.191,37.073
			s-40.218,8.827-49.423-14.124C358.329,607.458,358.329,607.458,358.329,607.458z"/>
	</g>
</g>
</svg>
