<?xml version="1.0" encoding="utf-8"?>
<!-- Generator: Adobe Illustrator 16.0.3, SVG Export Plug-In . SVG Version: 6.00 Build 0)  -->
<!DOCTYPE svg PUBLIC "-//W3C//DTD SVG 1.1//EN" "http://www.w3.org/Graphics/SVG/1.1/DTD/svg11.dtd">
<svg version="1.1" id="Capa_1" xmlns="http://www.w3.org/2000/svg" xmlns:xlink="http://www.w3.org/1999/xlink" x="0px" y="0px"
	 width="960px" height="960px" viewBox="0 0 960 960" enable-background="new 0 0 960 960" xml:space="preserve">
<g>
	<g>
		<g>
			<g>
				<path fill-rule="evenodd" clip-rule="evenodd" fill="#FFFFFF" d="M855,480.003C855,687.11,687.105,855,480,855
					c-207.109,0-375-167.89-375-374.997C105,272.895,272.891,105,480,105C687.105,105,855,272.895,855,480.003z"/>
			</g>
		</g>
	</g>
	<g opacity="0.2">
		<defs>
			<path id="SVGID_21_" opacity="0.2" d="M855,480.003C855,687.11,687.105,855,480,855c-207.109,0-375-167.89-375-374.997
				C105,272.895,272.891,105,480,105C687.105,105,855,272.895,855,480.003z"/>
		</defs>
		<clipPath id="SVGID_2_">
			<use xlink:href="#SVGID_21_"  overflow="visible"/>
		</clipPath>
		<g clip-path="url(#SVGID_2_)">
			<g>
				<path fill="#49B1BA" d="M804.544,780.847c-12.087,0-24.301-0.182-36.405-0.839c-11.896-0.652-20.925-12.22-25.25-19.06
					c-31.73-50.203-63.746-101.371-94.698-150.861c-11.658-18.64-23.331-37.285-35.004-55.925
					c-7.799-12.455-16.241-19.317-23.767-19.317h-0.006c-7.687,0.006-16.343,7.078-24.379,19.93
					c-14.75,23.611-29.478,47.264-44.305,71.054l-16.175,25.971l73.068,117.77l-12.571,6.55c-10.11,5.269-19.266,5.613-27.186,1.014
					c-6.255-3.628-9.906-9.487-12.844-14.188l-0.083-0.144C470.9,676.253,415.897,588.291,362.71,503.229l-44.171-70.64
					c-1.041-1.678-2.08-3.373-3.128-5.064c-1.795-2.944-3.499-5.71-5.283-8.465c-7.115-10.95-16.962-17.235-27.039-17.235
					c-0.061,0-0.112,0-0.17,0c-10.108,0.072-19.511,6.205-26.473,17.264c-37.352,59.357-75.106,119.87-111.614,178.388
					c-14.481,23.21-28.953,46.405-43.444,69.602c-9.617,15.379-19.22,30.77-28.829,46.161
					c-9.398,15.046-18.794,30.109-28.208,45.167c-6.305,10.097-10.477,16.764-18.72,20.214c-7.618,3.165-15.239,2.191-29.064,0.448
					l3.284-26.088h0.011c6.546,0.824,13.304,1.68,15.5,1.364c1.339-1.305,4.169-5.843,6.693-9.876
					c9.396-15.055,18.8-30.104,28.196-45.161c9.611-15.386,19.223-30.779,28.834-46.164c14.488-23.19,28.959-46.389,43.437-69.59
					c36.522-58.539,74.283-119.068,111.666-178.472c11.733-18.64,29.428-29.415,48.537-29.552c0.122,0,0.251,0,0.37,0
					c19.155,0,37.03,10.634,49.094,29.225c1.959,3.021,3.826,6.066,5.64,9.014c0.998,1.632,2.005,3.26,3.016,4.883L385,489.287
					c31.259,49.981,63.138,100.957,95.071,152.076l18.341-29.443c14.828-23.799,29.563-47.448,44.326-71.071
					c16.675-26.686,34.58-32.293,46.658-32.302h0.017c11.97,0,29.672,5.495,46.063,31.646
					c11.678,18.651,23.339,37.303,35.008,55.945c30.949,49.464,62.939,100.618,94.629,150.761c2.247,3.544,4.626,5.986,5.862,6.928
					c17.429,0.896,34.753,0.759,53.071,0.615c6.687-0.052,13.415-0.098,20.175-0.098v26.292c-6.697,0-13.347,0.052-19.975,0.101
					C817.747,780.789,811.158,780.847,804.544,780.847z"/>
			</g>
			<g>
				<path fill="#49B1BA" d="M658.69,410.215c-0.494,0-0.985-0.006-1.489-0.006c-56.311-0.801-101.981-46.988-101.794-102.942
					c0.18-57.226,45.624-102.052,103.445-102.052l0.603,0.009c27.395,0.146,52.978,10.818,72.038,30.018
					c19.045,19.2,29.554,44.892,29.59,72.353c0.023,27.421-10.618,53.187-29.975,72.588
					C711.754,399.544,686.041,410.215,658.69,410.215z M658.851,231.522c-43.118,0-77.012,33.304-77.157,75.826
					c-0.128,41.62,33.907,75.969,75.886,76.569c20.74,0.293,40.277-7.661,54.919-22.319c14.39-14.414,22.304-33.588,22.285-53.966
					c-0.058-42.45-33.202-75.883-75.477-76.107L658.851,231.522z"/>
			</g>
		</g>
	</g>
</g>
</svg>
