<?xml version="1.0" encoding="utf-8"?>
<!-- Generator: Adobe Illustrator 16.0.0, SVG Export Plug-In . SVG Version: 6.00 Build 0)  -->
<!DOCTYPE svg PUBLIC "-//W3C//DTD SVG 1.1//EN" "http://www.w3.org/Graphics/SVG/1.1/DTD/svg11.dtd">
<svg version="1.1" id="Capa_1" xmlns="http://www.w3.org/2000/svg" xmlns:xlink="http://www.w3.org/1999/xlink" x="0px" y="0px"
	 width="1080px" height="1080px" viewBox="0 0 1080 1080" enable-background="new 0 0 1080 1080" xml:space="preserve">
<g>
	<g>
		<path fill="#FD6729" d="M541.617,1031.269c-106.995,0-208.315-34.344-293.005-99.316
			c-119.96-92.05-188.759-231.448-188.759-382.461c0-265.637,216.117-481.748,481.764-481.748s481.762,216.111,481.762,481.748
			c0,151.215-68.939,290.724-189.152,382.754C749.633,997.027,648.448,1031.269,541.617,1031.269z M541.617,93.4
			c-251.495,0-456.104,204.602-456.104,456.091c0,142.97,65.143,274.948,178.72,362.099
			c80.168,61.507,176.086,94.015,277.385,94.015c101.145,0,196.933-32.409,277.01-93.734
			c113.814-87.135,179.091-219.215,179.091-362.379C997.718,298.002,793.113,93.4,541.617,93.4z"/>
	</g>
	<g>
		<path fill-rule="evenodd" clip-rule="evenodd" fill="#FD6729" d="M555.055,175.32c73.587-0.037,126.544,68.394,108.572,140.862
			c-8.229,33.186-25.885,60.428-54.37,80.012c-32.977,22.674-73.141,23.844-106.148,1.262
			c-41.542-28.423-62.53-68.542-59.474-119.053C447.171,219.999,496.444,175.353,555.055,175.32z"/>
		<path fill-rule="evenodd" clip-rule="evenodd" fill="#FD6729" d="M433.358,543.805c44.894,44.893-18.546,205.327-33.116,259.643
			c-14.575,54.307-21.197,137.762,24.754,123.197c45.95-14.561,69.299-121.881,97.119-164.265
			c27.815-42.391,55.635-23.848,68.883-3.979c13.246,19.875,63.584,169.561,109.95,168.236c46.365-1.327,13.248-96.701,5.3-124.521
			c-7.95-27.815-43.718-108.621-37.094-166.246c6.625-57.621,34.444-9.268,49.677,8.614c15.24,17.882,45.04,54.973,64.248,37.087
			c19.212-17.882-4.636-93.385-46.364-173.528c-41.728-80.148-134.455-68.224-188.109-64.914
			c-53.649,3.313-107.299-47.533-107.299-47.533s-37.593-41.663-51.917-81.401c-14.319-39.739-61.127-105.088-93.803-57.401
			C262.912,304.479,415.693,526.144,433.358,543.805z"/>
	</g>
</g>
<g>
	<g>
		<defs>
			<path id="SVGID_3_" d="M1018.171,1636.421c0,152.971-72.714,288.957-185.458,375.285
				c-79.532,60.895-178.984,97.074-286.889,97.074c-108.073,0-207.671-36.301-287.268-97.369
				c-112.527-86.342-185.078-222.188-185.078-374.99c0-260.875,211.479-472.34,472.346-472.34
				C806.695,1164.081,1018.171,1375.546,1018.171,1636.421z"/>
		</defs>
		<clipPath id="SVGID_2_">
			<use xlink:href="#SVGID_3_"  overflow="visible"/>
		</clipPath>
		<g clip-path="url(#SVGID_2_)">
			<g>
				<g>
					<rect x="422.884" y="1042.771" fill-rule="evenodd" clip-rule="evenodd" fill="#FFFFFF" width="270.124" height="331.447"/>
				</g>
			</g>
		</g>
	</g>
</g>
</svg>
