<svg version="1.1" id="Capa_1" xmlns="http://www.w3.org/2000/svg" xmlns:xlink="http://www.w3.org/1999/xlink" x="0px" y="0px"
	 width="1080px" height="1080px" viewBox="0 0 1080 1080" enable-background="new 0 0 1080 1080" xml:space="preserve">
<g>
	<g>
		<g>
			<g>
				<path fill="#FD6729" d="M489.133,764.344c-19.017,86.646-85.367,77.943-126.194,44.54
					c-40.825-33.403,7.424-89.08,38.974-141.042c31.553-51.962-22.272-57.534-57.533-61.242
					c-35.262-3.711-85.367-7.426-64.953-70.527c20.417-63.097,92.792-22.27,129.906,0c37.116,22.272,61.243-16.702,12.992-72.375
					c-48.253-55.677-46.397-161.46,42.685-157.746c89.084,3.715,89.084,92.793,79.801,170.736
					c-9.278,77.945,74.236,81.656,111.354-33.405c37.111-115.062,157.74-96.504,163.309-31.548
					c5.572,64.955-46.397,100.215-102.07,128.052c-55.673,27.836-22.271,81.656-22.271,81.656s111.351,98.359,44.54,181.871
					c-66.81,83.512-118.772-46.397-135.477-72.378C587.496,704.957,505.84,688.251,489.133,764.344z"/>
			</g>
		</g>
		<g>
			<path fill="#FD6729" d="M260.405,588.968c0,0-44.54,17.628-50.107,45.463c-5.568,27.838-57.536,16.706-42.687-27.835
				C182.459,562.057,253.909,584.794,260.405,588.968z"/>
		</g>
		<g>
			<path fill="#FD6729" d="M689.935,317.955c0,0,24.444-41.199,52.808-42.297c28.372-1.1,25.584-54.172-20.744-46.548
				C675.671,236.738,686.838,310.882,689.935,317.955z"/>
		</g>
		<g>
			<path fill="#FD6729" d="M819.884,536.074c0,0,95.163-2.299,95.163,43.391C915.047,625.156,875.039,591.752,819.884,536.074z"/>
		</g>
		<g>
			<path fill="#FD6729" d="M485.875,260.33c0,0-65.04-69.504-30.934-99.908C489.044,130.018,490.727,182.111,485.875,260.33z"/>
		</g>
		<g>
			<path fill="#FD6729" d="M748.032,819.712c0,0,19.81,23.108,17.61,38.516c-2.199,15.403,17.603,59.428,41.818,27.511
				C831.668,853.826,771.144,817.509,748.032,819.712z"/>
		</g>
		<g>
			<path fill="#FD6729" d="M295.579,379.216c0,0-36.195-13.117-43.357-31.454c-7.168-18.334-56.379-54.469-63.169-4.261
				C182.259,393.711,271.502,396.021,295.579,379.216z"/>
		</g>
		<g>
			<path fill="#FD6729" d="M380.598,660.45c0,0-20.146,9.063-23.458,19.857c-3.317,10.798-29.92,33.591-35.961,5.153
				C315.136,657.021,366.102,651.865,380.598,660.45z"/>
		</g>
		<g>
			<path fill="#FD6729" d="M444.595,868.269c0,0-40.829,34.334-16.702,63.099C452.019,960.133,459.443,899.818,444.595,868.269z"/>
		</g>
		<g>
			<path fill="#FD6729" d="M564.443,756.154c0,0-28.791,24.208-11.777,44.492C569.676,820.926,574.91,778.402,564.443,756.154z"/>
		</g>
	</g>
	<g>
		<path fill="#FD6729" d="M539.999,1027.042c-265.644,0-481.761-216.117-481.761-481.761c0-265.646,216.117-481.765,481.761-481.765
			s481.765,216.119,481.765,481.765C1021.764,810.925,805.643,1027.042,539.999,1027.042z M539.999,89.88
			c-251.107,0-455.397,204.292-455.397,455.401c0,251.104,204.29,455.397,455.397,455.397
			c251.109,0,455.401-204.293,455.401-455.397C995.4,294.173,791.108,89.88,539.999,89.88z"/>
	</g>
</g>
</svg>