<?xml version="1.0" encoding="utf-8"?>
<!-- Generator: Adobe Illustrator 16.0.0, SVG Export Plug-In . SVG Version: 6.00 Build 0)  -->
<!DOCTYPE svg PUBLIC "-//W3C//DTD SVG 1.1//EN" "http://www.w3.org/Graphics/SVG/1.1/DTD/svg11.dtd">
<svg version="1.1" id="Capa_1" xmlns="http://www.w3.org/2000/svg" xmlns:xlink="http://www.w3.org/1999/xlink" x="0px" y="0px"
	 width="1080px" height="1080px" viewBox="0 0 1080 1080" enable-background="new 0 0 1080 1080" xml:space="preserve">
<g>
	<g>
		
			<path fill-rule="evenodd" clip-rule="evenodd" fill="#7E4186" stroke="#7E4186" stroke-width="10" stroke-linecap="round" stroke-linejoin="round" stroke-miterlimit="10" d="
			M824.81,912.05c-78.955,60.452-177.688,96.375-284.811,96.375c-107.289,0-206.171-36.04-285.19-96.666
			c0.512-8.643,1.436-17.212,2.992-25.642c21.418-116.011,83.769-200.469,200.009-234.281
			c87.467-25.443,172.613-14.637,248.408,39.729c58.795,42.186,92.961,101.348,110.807,170.693
			C821.257,878.732,823.636,895.355,824.81,912.05z"/>
		
			<path fill-rule="evenodd" clip-rule="evenodd" fill="#7E4186" stroke="#7E4186" stroke-width="10" stroke-linecap="round" stroke-linejoin="round" stroke-miterlimit="10" d="
			M539.717,264.722c107.31-0.06,184.542,99.739,158.331,205.418c-12,48.389-37.748,88.125-79.291,116.68
			c-48.09,33.072-106.652,34.771-154.787,1.839c-60.582-41.45-91.188-99.947-86.734-173.609
			C382.392,329.87,454.246,264.773,539.717,264.722z"/>
	</g>
	<g>
		<path fill="#7E4186" d="M539.999,1021.256c-106.997,0-208.315-34.344-293.002-99.317
			C127.039,829.89,58.239,690.491,58.239,539.479c0-265.636,216.117-481.749,481.76-481.749
			c265.645,0,481.764,216.113,481.764,481.749c0,151.21-68.945,290.72-189.15,382.754
			C748.011,987.016,646.827,1021.256,539.999,1021.256z M539.999,83.392c-251.492,0-456.101,204.602-456.101,456.088
			c0,142.972,65.145,274.948,178.719,362.1c80.167,61.504,176.084,94.013,277.382,94.013c101.139,0,196.93-32.409,277.01-93.729
			c113.814-87.141,179.09-219.228,179.09-362.383C996.099,287.993,791.495,83.392,539.999,83.392z"/>
	</g>
</g>
<g>
	<g>
		<defs>
			<path id="SVGID_1_" d="M2111.106,549.84c0,152.966-72.715,288.955-185.459,375.278c-79.531,60.898-178.984,97.078-286.889,97.078
				c-108.072,0-207.672-36.301-287.271-97.369c-112.527-86.345-185.078-222.19-185.078-374.987
				c0-260.876,211.48-472.339,472.35-472.339C1899.63,77.501,2111.106,288.964,2111.106,549.84z"/>
		</defs>
		<clipPath id="SVGID_2_">
			<use xlink:href="#SVGID_1_"  overflow="visible"/>
		</clipPath>
		<g clip-path="url(#SVGID_2_)">
			<g>
				<g>
					<rect x="1031.749" y="434.675" fill-rule="evenodd" clip-rule="evenodd" fill="#49B1BA" width="331.451" height="270.117"/>
				</g>
			</g>
		</g>
	</g>
</g>
</svg>
