<?xml version="1.0" encoding="utf-8"?>
<!-- Generator: Adobe Illustrator 16.0.3, SVG Export Plug-In . SVG Version: 6.00 Build 0)  -->
<!DOCTYPE svg PUBLIC "-//W3C//DTD SVG 1.1//EN" "http://www.w3.org/Graphics/SVG/1.1/DTD/svg11.dtd">
<svg version="1.1" id="Capa_1" xmlns="http://www.w3.org/2000/svg" xmlns:xlink="http://www.w3.org/1999/xlink" x="0px" y="0px"
	 width="960px" height="960px" viewBox="0 0 960 960" enable-background="new 0 0 960 960" xml:space="preserve">
<g>
	<g>
		<path fill-rule="evenodd" clip-rule="evenodd" fill="#FFFFFF" d="M701.68,769.989c-61.458,47.059-138.302,75.001-221.708,75.001
			c-83.491,0-160.476-28.026-221.963-75.227c0.395-6.731,1.076-13.405,2.319-19.967c16.658-90.271,65.191-156.053,155.668-182.354
			c68.104-19.796,134.37-11.396,193.368,30.939c45.789,32.805,72.375,78.874,86.262,132.862
			C698.937,744.057,700.774,756.979,701.68,769.989z"/>
		<path fill-rule="evenodd" clip-rule="evenodd" fill="#FFFFFF" d="M479.774,266.114c83.519-0.028,143.647,77.629,123.227,159.899
			c-9.332,37.668-29.357,68.578-61.712,90.808c-37.446,25.764-83.011,27.093-120.484,1.442
			c-47.176-32.268-70.99-77.8-67.538-135.125C357.283,316.82,413.225,266.142,479.774,266.114z"/>
	</g>
	<g>
		<path fill="#FFFFFF" d="M479.973,855c-83.266,0-162.146-26.752-228.072-77.317C158.511,706.019,105,597.534,105,480
			c0-206.789,168.226-375,374.973-375C686.774,105,855,273.211,855,480c0,117.704-53.681,226.273-147.241,297.908
			C641.919,828.332,563.152,855,479.973,855z M479.973,124.965c-195.744,0-355.004,159.278-355.004,355.035
			c0,111.284,50.682,213.999,139.094,281.845c62.392,47.851,137.057,73.163,215.91,73.163c78.738,0,153.292-25.228,215.655-72.937
			C784.237,694.225,835.033,591.426,835.033,480C835.033,284.243,675.744,124.965,479.973,124.965z"/>
	</g>
</g>
</svg>
