<?xml version="1.0" encoding="utf-8"?>
<!-- Generator: Adobe Illustrator 16.0.0, SVG Export Plug-In . SVG Version: 6.00 Build 0)  -->
<!DOCTYPE svg PUBLIC "-//W3C//DTD SVG 1.1//EN" "http://www.w3.org/Graphics/SVG/1.1/DTD/svg11.dtd">
<svg version="1.1" id="Capa_1" xmlns="http://www.w3.org/2000/svg" xmlns:xlink="http://www.w3.org/1999/xlink" x="0px" y="0px"
	 width="1080px" height="1080px" viewBox="0 0 1080 1080" enable-background="new 0 0 1080 1080" xml:space="preserve">
<g>
	<g>
		<defs>
			<path id="SVGID_3_" d="M1018.171-563.579c0,152.971-72.714,288.957-185.458,375.285C753.181-127.399,653.729-91.22,545.824-91.22
				c-108.073,0-207.671-36.301-287.268-97.369C146.029-274.931,73.479-410.776,73.479-563.579
				c0-260.875,211.479-472.34,472.346-472.34C806.695-1035.919,1018.171-824.454,1018.171-563.579z"/>
		</defs>
		<clipPath id="SVGID_2_">
			<use xlink:href="#SVGID_3_"  overflow="visible"/>
		</clipPath>
		<g clip-path="url(#SVGID_2_)">
			<g>
				<g>
					<rect x="376.023" y="-301.353" fill-rule="evenodd" clip-rule="evenodd" fill="#FFFFFF" width="270.127" height="331.445"/>
				</g>
			</g>
		</g>
	</g>
</g>
<g>
	<g>
		<g>
			<path fill-rule="evenodd" clip-rule="evenodd" fill="#FFFFFF" d="M1020.31,539.994c0,266.068-215.69,481.769-481.761,481.769
				S56.784,806.063,56.784,539.994c0-266.064,215.694-481.757,481.765-481.757S1020.31,273.93,1020.31,539.994z"/>
		</g>
	</g>
</g>
<g>
	<path fill-rule="evenodd" clip-rule="evenodd" fill="#10B2D4" d="M395.241,587.894c9.874-1.239,22.568,2.938,31.771,7.396
		c24.288,11.765,45.378,30.791,69.013,44.032c12.826,7.188,27.958,12.547,42.199,13.115c33.135,1.365,51.764-13.049,74.891-37.818
		c16.484-17.639,36.035-43.95,58.838-48.8c11.248-2.391,18.979,2.473,23.075,16.001c4.945,16.311-3.531,28.489-11.927,39.634
		c-15.718,20.887-35.744,51.043-44.616,77.318c0.354-2.34,0.628-4.679,1.104-6.996c-11.894,58.069,8.721,115.911,20.891,171.268
		c3.182,14.459,6.148,28.984,7.949,43.812c1.513,12.414,4.466,34.039-2.546,45.018c-3.458,5.41-10.104,6.155-15.352,4.185
		c-15.131-5.661-26.821-21.333-38.719-33.253c-13.248-13.271-26.977-25.994-38.918-41.028
		c-43.036-54.184-60.176,64.37-82.904,85.802c-13.422,12.643-24.273-8.679-23.092-26.263l9.098-135.415
		c1.323-26.504,2.126-65.405-13.076-86.285c-25.432-34.933-67.094-55.436-81.964-102.907
		C374.956,597.569,384.674,589.207,395.241,587.894z"/>
</g>
<g>
	<path fill-rule="evenodd" clip-rule="evenodd" fill="#FFDB2C" d="M397.797,200.188c6.787-0.864,15.507,2.045,21.83,5.166
		c16.689,8.215,31.184,21.515,47.421,30.77c8.815,5.025,19.211,8.776,28.998,9.182c22.769,0.944,35.569-9.13,51.46-26.438
		c11.324-12.332,24.765-30.726,40.431-34.112c7.727-1.676,13.041,1.727,15.856,11.181c3.402,11.403-2.424,19.913-8.192,27.707
		c-10.801,14.592-24.563,35.678-30.662,54.051c0.243-1.639,0.435-3.276,0.76-4.899c-8.174,40.593,5.993,81.029,14.355,119.719
		c2.191,10.104,4.229,20.249,5.469,30.618c1.033,8.672,3.063,23.794-1.757,31.463c-2.376,3.779-6.944,4.303-10.547,2.923
		c-10.398-3.955-18.437-14.908-26.61-23.241c-9.105-9.27-18.53-18.164-26.74-28.67c-29.57-37.884-41.35,44.988-56.967,59.964
		c-9.222,8.841-16.68-6.067-15.868-18.349c0-0.007,6.255-94.651,6.255-94.651c0.908-18.524,1.46-45.723-8.985-60.313
		c-17.474-24.419-46.105-38.744-56.321-71.927C383.855,206.947,390.537,201.103,397.797,200.188z"/>
</g>
<g>
	<path fill-rule="evenodd" clip-rule="evenodd" fill="#813A7F" d="M143.589,467.976c8.173-1.742,19.054,1.409,27.039,5.033
		c21.09,9.565,39.986,26.104,60.609,37.087c11.202,5.964,24.209,10.074,36.148,9.772c27.78-0.709,42.389-15.293,60.078-39.818
		c12.609-17.491,27.197-43.266,45.932-49.154c9.238-2.901,16.028,1.196,20.35,13.602c5.214,14.968-1.057,26.852-7.327,37.781
		c-8.637,15.027-21.278,27.322-30.977,41.626c-10.494,15.499-14.058,32.475-17.406,50.601c-5.66,30.601-0.952,56.705,12.971,84.397
		c10.777,21.426,20.193,43.729,28.678,66.276c6.775,18.009,18.144,41.598,15.857,61.317c-1.29,11.094-12.437,12.119-20.378,7.846
		c-11.161-6.015-19.365-17.24-28.313-25.927c-11.952-11.633-24.271-22.718-35.253-36.076c-39.567-48.144-46.019,63.79-63.591,85.178
		c-10.37,12.617-20.865-6.687-21.046-23.183c0-0.007-1.388-127.232-1.388-127.232c-0.663-24.857-2.568-61.31-16.671-79.938
		c-23.574-31.162-59.759-47.864-75.345-91.386C127.272,478.227,134.841,469.828,143.589,467.976z"/>
</g>
<g>
	<path fill-rule="evenodd" clip-rule="evenodd" fill="none" stroke="#FFDA10" stroke-miterlimit="10" d="M441.675,461.11"/>
</g>
<g>
	<path fill-rule="evenodd" clip-rule="evenodd" fill="#EF7F42" d="M899.526,424.902c-22.455-27.009-38.493-58.952-79.238-53.041
		c-15.023,2.178-29.792,7.064-45.113,4.466c-24.091-4.089-48.506-23.079-69.341-35.249c-38.154-22.289-69.976-31.611-77.77-20.953
		c-18.857,25.779,59.066,80.285,74.285,92.924c25.064,20.807,31.98,59.761,37.435,90.161c7.935,44.254,4.558,90.353-7.343,133.565
		c-0.045,0.096-0.086,0.214-0.126,0.317c-4.06,10.96-7.543,21.706-10.514,32.143c-13.349,47.072-14.581,84.565-1.398,89.444
		c16.067,5.934,47.457-38.858,70.104-100.059c9.946-26.872,16.552-52.438,19.475-73.178c15.145,38.578,34.294,80.257,47.575,75.791
		c9.122-3.063,14.289-35.249,11.809-58.498c-0.365-3.521-0.915-7.227-1.543-11.012c-3.262-26.024-23.916-126.673-1.144-147.655
		c32.224,32.098,80.095,85.496,91.103,75.422c19.134-17.514-23.813-53.486-34.53-67.215
		C921.476,450.003,901.445,427.212,899.526,424.902z"/>
</g>
<g>
	<path fill-rule="evenodd" clip-rule="evenodd" fill="#EF7F42" d="M941.503,720.175c0,4.938-3.874,8.931-8.664,8.931l0,0
		c-4.783,0-8.665-3.992-8.665-8.931V528.738c0-4.938,3.882-8.93,8.665-8.93l0,0c4.79,0,8.664,3.992,8.664,8.93V720.175z"/>
</g>
<g>
	<path fill-rule="evenodd" clip-rule="evenodd" fill="#813A7F" d="M320.247,423.33c0,35.84-29.061,64.89-64.906,64.89
		c-35.85,0-64.907-29.05-64.907-64.89c0-35.852,29.058-64.9,64.907-64.9C291.187,358.43,320.247,387.479,320.247,423.33z"/>
</g>
<g>
	<path fill-rule="evenodd" clip-rule="evenodd" fill="#10B2D4" d="M603.442,549.064c0,34.689-28.12,62.801-62.816,62.801
		c-34.68,0-62.799-28.111-62.799-62.801c0-34.688,28.119-62.808,62.799-62.808C575.322,486.257,603.442,514.377,603.442,549.064z"/>
</g>
<g>
	<path fill-rule="evenodd" clip-rule="evenodd" fill="#EF7F42" d="M847.784,291.09c0,34.533-27.998,62.535-62.528,62.535
		c-34.541,0-62.535-28.002-62.535-62.535c0-34.529,27.994-62.531,62.535-62.531C819.786,228.559,847.784,256.561,847.784,291.09z"/>
</g>
<g>
	<path fill-rule="evenodd" clip-rule="evenodd" fill="#FFDB2C" d="M551.025,164.912c0,29.002-24.221,52.509-54.102,52.509
		c-29.873,0-54.088-23.507-54.088-52.509c0-29.006,24.215-52.513,54.088-52.513C526.805,112.399,551.025,135.906,551.025,164.912z"
		/>
</g>
</svg>
